<svg width="172" height="149" viewBox="0 0 172 149" fill="none" xmlns="http://www.w3.org/2000/svg">
<g clip-path="url(#clip0_1_2274)">
<path fill-rule="evenodd" clip-rule="evenodd" d="M81.4215 17.8588C93.0051 6.75 122.857 -8.80836 149.809 17.8588C183.385 51.1549 148.955 121.455 81.4215 147.441C58.6662 138.36 36.9792 123.755 21.1986 105.064C12.2094 94.3641 4.99058 81.8932 1.93823 68.1813C-1.282 53.9245 -1.29726 34.4917 8.24134 22.5354C15.6891 13.1065 25.5634 5.22141 37.4981 2.51231C54.0419 -1.2562 69.6241 6.87108 81.4215 17.8588ZM81.4215 38.3813C88.8081 31.2983 107.84 21.37 125.024 38.3813C146.513 59.6454 124.49 104.429 81.4215 121.077C66.5951 115.27 53.4164 105.972 43.0229 93.9858C37.1145 87.2275 32.9275 79.162 30.8135 70.4666C28.7684 61.3859 28.7531 48.9906 34.8426 41.3628C39.5127 35.3544 45.7853 30.2691 53.4161 28.5892C63.962 26.1979 73.8974 31.374 81.4215 38.3813Z" fill="#F8DCDB"/>
<path d="M157.44 17.7983L158.524 16.7237L157.44 17.7983ZM89.0523 17.7983L87.9993 18.9031L89.0676 19.8868L90.1054 18.888L89.0523 17.7983ZM89.0523 147.381L88.4876 148.788L89.0371 149L89.6017 148.788L89.0523 147.381ZM28.8294 105.004L30.0046 104.035L28.8294 105.004ZM9.5691 68.1056L11.0953 67.7727L9.5691 68.1056ZM15.8722 22.4749L17.0626 23.4132L15.8722 22.4749ZM45.129 2.4518L45.4648 3.96526L45.129 2.4518ZM132.655 38.3208L133.739 37.2462L132.655 38.3208ZM89.0523 38.3208L88.0145 39.4256L89.0676 40.4093L90.1206 39.4105L89.0523 38.3208ZM89.0523 120.956L88.4876 122.348L89.0371 122.575L89.6017 122.363L89.0523 120.956ZM50.6537 93.9252L51.8289 92.9566L50.6537 93.9252ZM38.4443 70.4061L39.9705 70.0883L38.4443 70.4061ZM42.4734 41.3023L43.6639 42.2406L42.4734 41.3023ZM61.047 28.5438L61.3828 30.0573L61.047 28.5438ZM158.524 16.7237C144.681 3.02692 129.984 0.121074 117.241 2.13397C106.268 4.03341 96.0968 9.07926 87.984 16.648L90.0443 18.888C97.6984 11.7233 107.302 6.94037 117.668 5.13062C129.481 3.25393 143.186 5.88735 156.296 18.8728L158.524 16.7237ZM89.6017 148.788C123.697 135.666 149.565 111.36 162.538 86.0401C175.51 60.72 175.999 34.0528 158.524 16.7237L156.357 18.8728C172.519 34.8852 172.534 59.9784 159.821 84.6629C147.108 109.347 121.926 133.184 88.5182 145.973L89.6017 148.788ZM27.6543 105.942C43.6181 124.875 65.5187 139.617 88.5182 148.788L89.6475 145.973C67.0907 136.892 45.6326 122.499 30.0351 104.035L27.6543 105.942ZM8.07345 68.4386C11.2021 82.4532 18.4972 95.136 27.6543 105.942L30.0046 104.005C21.0612 93.4712 14.0408 81.2122 11.0648 67.7878L8.07345 68.4386ZM14.6818 21.5214C9.66067 27.8022 7.21879 35.9598 6.40992 44.2233C5.71159 52.3319 6.27264 60.4988 8.07345 68.4386L11.1258 67.7727C9.36691 60.1705 8.80065 52.3447 9.44701 44.5714C10.2254 36.6106 12.4994 29.0887 17.0779 23.3829L14.6818 21.5214ZM44.7932 0.968611C32.4007 3.78364 22.2516 11.9412 14.6665 21.5365L17.0779 23.4132C24.4188 14.1508 33.9879 6.53814 45.4648 3.91986L44.7932 0.968611ZM90.0443 16.648C78.1402 5.55439 62.0543 -2.95125 44.7932 0.968611L45.4648 3.91986C61.2912 0.317824 76.3088 8.06673 87.9993 18.9031L90.0443 16.648ZM133.693 37.2008C124.734 28.3471 115.196 26.4401 106.893 27.7568C99.7939 29.0068 93.2227 32.3019 87.9993 37.2311L90.1206 39.3499C94.9149 34.8581 100.932 31.8589 107.427 30.7232C114.784 29.5578 123.345 31.1924 131.587 39.3348L133.693 37.2008ZM89.6017 122.363C111.411 113.948 128.031 98.3748 136.41 82.09C144.788 65.8052 145.124 48.5366 133.739 37.2462L131.587 39.3499C141.644 49.3236 141.736 65.0787 133.693 80.6673C125.65 96.256 109.701 111.391 88.5182 119.563L89.6017 122.363ZM49.4786 94.8939C60.0573 107.046 73.4547 116.467 88.5182 122.348L89.617 119.563C75.0594 113.845 62.1147 104.716 51.89 92.9566L49.4786 94.8939ZM36.8876 70.6785C39.0609 79.6366 43.3799 87.943 49.4786 94.8939L51.89 92.9566C46.1064 86.3981 42.0021 78.5538 39.9247 70.0883L36.8876 70.6785ZM41.2067 40.3639C38.0255 44.688 36.1564 49.8235 35.8193 55.1656C35.3637 60.381 35.7292 65.6351 36.9029 70.7391L39.8789 70.0883C38.7802 65.2912 38.4403 60.3538 38.8717 55.4531C39.1465 50.6918 40.7881 46.1076 43.6028 42.2406L41.2067 40.3639ZM60.7265 27.0606C52.653 28.8919 46.0905 34.189 41.2067 40.3791L43.6028 42.2406C48.1813 36.3987 54.286 31.6464 61.398 30.0119L60.7265 27.0606ZM90.0443 37.2159C82.4135 30.0724 71.9134 24.4878 60.6502 27.0606L61.3217 30.0119C71.1503 27.772 80.5821 32.5696 87.9535 39.4256L90.0443 37.2159Z" fill="#433939"/>
<path d="M36.1092 98.8766C35.9313 99.0135 35.7036 99.1179 35.426 99.1899C35.153 99.2624 34.843 99.2825 34.496 99.2501C34.1515 99.2157 33.8034 99.1013 33.4516 98.9066C33.0998 98.712 32.7727 98.4215 32.4704 98.0351C32.2411 97.7422 32.0606 97.4542 31.9288 97.1713C31.7969 96.8883 31.7124 96.6034 31.6752 96.3164C31.6425 96.03 31.6585 95.7305 31.7232 95.4177C31.7839 95.1363 31.8818 94.8607 32.0168 94.5909C32.1543 94.3192 32.3256 94.0619 32.5306 93.8192C32.7376 93.579 32.9796 93.3523 33.2566 93.1391C33.7065 92.793 34.1597 92.5474 34.6163 92.4024C35.0748 92.26 35.5248 92.2132 35.9661 92.262C36.4099 92.3089 36.8254 92.4444 37.2125 92.6685C37.5996 92.8926 37.9374 93.189 38.2259 93.5577C38.5777 94.0073 38.8007 94.477 38.8949 94.9669C38.9891 95.4568 38.976 95.8978 38.8553 96.2901C38.7373 96.6803 38.5601 96.9664 38.3237 97.1483C38.1941 97.248 38.0441 97.2906 37.8739 97.2759C37.7036 97.2613 37.5681 97.1895 37.4673 97.0607C37.3547 96.9168 37.304 96.7818 37.3153 96.6558C37.3286 96.5322 37.3845 96.3617 37.4831 96.1443C37.6455 95.7846 37.7173 95.4523 37.6984 95.1471C37.6815 94.8445 37.5594 94.548 37.3322 94.2576C36.9705 93.7954 36.5054 93.5626 35.9367 93.5592C35.37 93.5582 34.7614 93.8081 34.1108 94.3087C33.6762 94.6432 33.3614 94.9824 33.1666 95.3266C32.9742 95.6688 32.8939 96.0058 32.9254 96.3376C32.957 96.6693 33.0894 96.9842 33.3226 97.2822C33.5755 97.6055 33.869 97.8166 34.203 97.9157C34.5416 98.0153 34.9116 98.0017 35.3131 97.8748C35.4981 97.8093 35.664 97.7768 35.8108 97.7771C35.9602 97.7754 36.0961 97.8529 36.2186 98.0095C36.3234 98.1433 36.3663 98.2944 36.3473 98.4627C36.3284 98.6311 36.249 98.769 36.1092 98.8766Z" fill="#433939"/>
<path d="M41.5436 103.815L41.1919 103.461L39.5767 105.04C39.3641 105.248 39.1613 105.355 38.9683 105.36C38.7753 105.366 38.6044 105.293 38.4556 105.144C38.2955 104.983 38.2241 104.807 38.2414 104.615C38.2586 104.424 38.369 104.229 38.5725 104.03L42.4407 100.248C42.6602 100.034 42.8675 99.9271 43.0628 99.9284C43.258 99.9298 43.4638 100.039 43.6802 100.257L45.3134 101.9C45.5389 102.127 45.7213 102.33 45.8608 102.512C46.0025 102.69 46.108 102.874 46.177 103.061C46.2662 103.282 46.3089 103.513 46.3049 103.754C46.3009 103.995 46.2471 104.226 46.1433 104.449C46.0441 104.671 45.9031 104.871 45.7202 105.05C45.3452 105.417 44.9409 105.604 44.5072 105.612C44.0758 105.623 43.6013 105.461 43.0838 105.126C43.1658 105.399 43.1943 105.709 43.1691 106.055C43.144 106.402 43.0882 106.743 43.0018 107.077C42.92 107.412 42.8283 107.699 42.7267 107.937C42.6297 108.175 42.5491 108.325 42.4851 108.387C42.4188 108.452 42.3311 108.496 42.222 108.517C42.1174 108.539 42.0107 108.532 41.902 108.495C41.791 108.46 41.6882 108.395 41.5935 108.3C41.4808 108.187 41.4135 108.065 41.3918 107.934C41.3677 107.805 41.3686 107.673 41.3946 107.535C41.4228 107.401 41.4696 107.207 41.5349 106.956L41.8115 105.887C41.9165 105.498 41.9766 105.182 41.9919 104.939C42.0095 104.698 41.9837 104.496 41.9145 104.331C41.8453 104.166 41.7217 103.994 41.5436 103.815ZM44.2308 102.328L43.3044 101.396L41.9224 102.747L42.8218 103.652C43.063 103.894 43.2865 104.078 43.4922 104.204C43.7002 104.327 43.8973 104.382 44.0836 104.37C44.2743 104.358 44.4589 104.264 44.6372 104.09C44.7767 103.954 44.8641 103.799 44.8993 103.626C44.9369 103.451 44.92 103.275 44.8486 103.099C44.7817 102.932 44.5757 102.675 44.2308 102.328Z" fill="#433939"/>
<path d="M47.8835 110.009L50.0646 107.407C50.2502 107.186 50.439 107.06 50.6309 107.031C50.8253 107.004 51.0043 107.058 51.1678 107.193C51.3388 107.334 51.4274 107.501 51.4337 107.693C51.4425 107.888 51.354 108.096 51.1684 108.317L48.9378 110.978C48.6841 111.281 48.5052 111.562 48.4009 111.821C48.3011 112.08 48.2905 112.338 48.3691 112.594C48.4497 112.848 48.6461 113.103 48.9583 113.361C49.3894 113.716 49.789 113.854 50.1572 113.775C50.5274 113.693 50.9063 113.42 51.2941 112.958L53.5432 110.274C53.7309 110.05 53.9197 109.925 54.1095 109.899C54.3015 109.87 54.4804 109.923 54.6464 110.06C54.8124 110.197 54.8998 110.363 54.9086 110.557C54.9219 110.751 54.8347 110.96 54.647 111.184L52.4659 113.786C52.1112 114.21 51.7731 114.528 51.4517 114.742C51.1327 114.957 50.7683 115.077 50.3585 115.101C50.0076 115.12 49.6658 115.063 49.3331 114.93C49.0003 114.797 48.658 114.586 48.3062 114.296C47.8875 113.951 47.5641 113.609 47.3361 113.272C47.1101 112.932 46.9801 112.589 46.9461 112.245C46.9141 111.898 46.9763 111.542 47.1325 111.175C47.2908 110.807 47.5412 110.418 47.8835 110.009Z" fill="#433939"/>
<path d="M62.5548 117.464L59.9089 115.64L58.9163 117.056L61.3526 118.735C61.5319 118.859 61.6366 118.991 61.6666 119.133C61.7011 119.273 61.6724 119.409 61.5805 119.54C61.4886 119.671 61.3697 119.749 61.2239 119.773C61.0799 119.794 60.9169 119.742 60.735 119.617L58.2987 117.937L57.1489 119.577L59.8858 121.464C60.0703 121.591 60.1784 121.73 60.2101 121.88C60.2462 122.029 60.2146 122.175 60.1153 122.317C60.0197 122.453 59.8942 122.532 59.7386 122.553C59.5875 122.573 59.4196 122.52 59.2351 122.392L56.0433 120.192C55.7876 120.016 55.6425 119.832 55.6082 119.641C55.5765 119.452 55.6489 119.232 55.8253 118.98L58.8638 114.645C58.9815 114.477 59.1021 114.358 59.2258 114.288C59.3512 114.215 59.4832 114.191 59.6218 114.217C59.7648 114.241 59.9194 114.311 60.0855 114.426L63.1862 116.563C63.3735 116.692 63.4825 116.829 63.5133 116.975C63.5486 117.12 63.5194 117.259 63.4256 117.393C63.33 117.53 63.2067 117.608 63.0556 117.628C62.909 117.648 62.742 117.593 62.5548 117.464Z" fill="#433939"/>
<path d="M68.6799 120.759L66.0975 125.214L68.622 126.653C68.8233 126.768 68.9488 126.904 68.9986 127.062C69.0511 127.222 69.0346 127.375 68.9491 127.523C68.862 127.673 68.7379 127.766 68.5768 127.8C68.4173 127.831 68.2355 127.789 68.0314 127.672L65.0247 125.959C64.7535 125.804 64.5925 125.633 64.5417 125.444C64.4936 125.258 64.5471 125.031 64.702 124.764L67.4344 120.049C67.5796 119.798 67.7444 119.642 67.9289 119.581C68.1161 119.521 68.302 119.543 68.4865 119.648C68.6738 119.755 68.7885 119.904 68.8305 120.094C68.8769 120.284 68.8267 120.505 68.6799 120.759Z" fill="#433939"/>
<path d="M78.3575 126.487L76.9606 125.796L74.6579 130.372C74.5253 130.635 74.3676 130.802 74.1849 130.873C74.0036 130.941 73.8196 130.928 73.6328 130.836C73.4431 130.742 73.3203 130.601 73.2645 130.412C73.2115 130.225 73.2506 130.001 73.3818 129.74L75.6845 125.164L74.2877 124.473C74.0693 124.365 73.9307 124.237 73.8719 124.09C73.8146 123.94 73.8255 123.786 73.9048 123.629C73.987 123.466 74.1065 123.364 74.2632 123.323C74.4229 123.284 74.6076 123.316 74.8174 123.42L78.8872 125.434C79.1085 125.544 79.2478 125.674 79.3052 125.824C79.3654 125.975 79.3558 126.13 79.2765 126.287C79.1973 126.445 79.0785 126.545 78.9203 126.588C78.7635 126.629 78.5759 126.595 78.3575 126.487Z" fill="#433939"/>
<path d="M82.5843 134L83.4395 131.933L82.8652 128.817C82.8175 128.538 82.7897 128.324 82.7818 128.176C82.7769 128.028 82.7934 127.909 82.8314 127.817C82.894 127.666 83.0058 127.559 83.167 127.497C83.3312 127.435 83.4994 127.44 83.6717 127.51C83.8529 127.583 83.9681 127.691 84.0172 127.832C84.0706 127.972 84.1277 128.232 84.1885 128.613L84.5909 131.088L86.6435 129.612C86.768 129.521 86.8727 129.444 86.9575 129.382C87.0423 129.319 87.1292 129.265 87.218 129.218C87.311 129.169 87.4026 129.14 87.4928 129.132C87.583 129.124 87.6816 129.141 87.7885 129.185C87.9549 129.253 88.0703 129.364 88.1348 129.518C88.2036 129.671 88.2085 129.818 88.1497 129.96C88.1018 130.076 88.0258 130.18 87.9215 130.272C87.8173 130.365 87.6546 130.486 87.4333 130.635L84.7627 132.472L83.9075 134.538C83.796 134.808 83.6502 134.984 83.4703 135.067C83.2904 135.149 83.1039 135.151 82.9108 135.073C82.7148 134.993 82.5828 134.863 82.515 134.683C82.4484 134.5 82.4715 134.273 82.5843 134Z" fill="#433939"/>
<path d="M102.255 122.997L99.8737 124.497L100.847 126.016L102.837 124.762C103.021 124.646 103.185 124.602 103.328 124.629C103.473 124.652 103.589 124.732 103.677 124.87C103.765 125.008 103.789 125.146 103.749 125.285C103.708 125.424 103.597 125.551 103.416 125.666L101.426 126.919L102.679 128.876C102.838 129.124 102.9 129.345 102.863 129.538C102.828 129.727 102.723 129.877 102.546 129.988C102.367 130.101 102.182 130.133 101.99 130.083C101.801 130.032 101.628 129.883 101.47 129.637L98.5431 125.069C98.4323 124.896 98.3682 124.739 98.3505 124.599C98.3311 124.456 98.3601 124.325 98.4375 124.208C98.5159 124.087 98.6405 123.973 98.8115 123.865L101.66 122.07C101.853 121.949 102.023 121.902 102.171 121.93C102.319 121.954 102.438 122.035 102.526 122.173C102.616 122.313 102.641 122.456 102.601 122.603C102.563 122.744 102.447 122.876 102.255 122.997Z" fill="#433939"/>
<path d="M109.926 121.28L109.53 121.584L110.919 123.368C111.102 123.603 111.185 123.816 111.167 124.007C111.149 124.198 111.057 124.357 110.889 124.486C110.709 124.624 110.524 124.673 110.334 124.633C110.144 124.592 109.962 124.46 109.787 124.235L106.46 119.962C106.271 119.72 106.189 119.502 106.214 119.31C106.239 119.118 106.373 118.928 106.617 118.741L108.458 117.332C108.712 117.137 108.938 116.982 109.136 116.867C109.333 116.749 109.529 116.667 109.725 116.622C109.957 116.561 110.194 116.547 110.435 116.58C110.675 116.613 110.901 116.695 111.111 116.824C111.322 116.949 111.506 117.112 111.663 117.314C111.986 117.728 112.125 118.15 112.082 118.578C112.04 119.005 111.821 119.453 111.424 119.922C111.708 119.874 112.021 119.884 112.366 119.951C112.71 120.018 113.044 120.114 113.37 120.24C113.695 120.362 113.971 120.487 114.198 120.616C114.424 120.741 114.565 120.838 114.621 120.909C114.678 120.982 114.71 121.074 114.719 121.184C114.728 121.29 114.708 121.394 114.658 121.497C114.61 121.602 114.533 121.695 114.426 121.777C114.299 121.874 114.169 121.926 114.035 121.931C113.904 121.94 113.771 121.922 113.636 121.88C113.505 121.836 113.317 121.766 113.072 121.671L112.035 121.269C111.658 121.118 111.348 121.02 111.107 120.975C110.867 120.929 110.661 120.93 110.488 120.978C110.314 121.026 110.127 121.127 109.926 121.28ZM108.758 118.451L107.713 119.251L108.902 120.777L109.916 120.001C110.188 119.793 110.399 119.595 110.549 119.407C110.697 119.217 110.776 119.03 110.786 118.845C110.797 118.655 110.725 118.462 110.572 118.265C110.452 118.111 110.307 118.006 110.138 117.95C109.967 117.892 109.789 117.887 109.604 117.936C109.428 117.981 109.146 118.153 108.758 118.451Z" fill="#433939"/>
<path d="M118.595 110.227L116.223 112.402L117.404 113.669L119.588 111.666C119.748 111.519 119.902 111.446 120.047 111.447C120.193 111.444 120.321 111.5 120.43 111.618C120.54 111.735 120.59 111.867 120.582 112.014C120.572 112.158 120.486 112.305 120.323 112.454L118.139 114.457L119.507 115.924L121.96 113.674C122.125 113.522 122.286 113.447 122.44 113.449C122.596 113.446 122.732 113.508 122.85 113.634C122.964 113.756 123.014 113.895 123.001 114.05C122.989 114.201 122.9 114.353 122.734 114.504L119.873 117.128C119.644 117.338 119.431 117.439 119.236 117.432C119.042 117.422 118.841 117.304 118.631 117.079L115.016 113.202C114.876 113.052 114.785 112.91 114.742 112.775C114.697 112.638 114.702 112.504 114.758 112.375C114.813 112.242 114.915 112.107 115.064 111.971L117.843 109.422C118.011 109.268 118.17 109.192 118.321 109.193C118.471 109.19 118.602 109.248 118.714 109.368C118.827 109.49 118.878 109.626 118.865 109.777C118.853 109.923 118.762 110.073 118.595 110.227Z" fill="#433939"/>
<path d="M125.743 102.934L123.577 105.307L124.863 106.462L126.857 104.277C127.004 104.116 127.15 104.03 127.295 104.018C127.44 104.002 127.572 104.048 127.691 104.154C127.81 104.261 127.872 104.388 127.877 104.535C127.88 104.679 127.807 104.833 127.658 104.996L125.663 107.18L127.153 108.518L129.394 106.064C129.545 105.898 129.697 105.81 129.852 105.797C130.005 105.781 130.147 105.83 130.275 105.946C130.399 106.057 130.462 106.19 130.462 106.346C130.463 106.497 130.388 106.656 130.237 106.821L127.624 109.683C127.415 109.912 127.212 110.032 127.017 110.041C126.824 110.049 126.613 109.95 126.385 109.744L122.447 106.209C122.295 106.072 122.191 105.938 122.137 105.808C122.081 105.675 122.074 105.543 122.117 105.41C122.161 105.272 122.25 105.129 122.386 104.98L124.925 102.2C125.078 102.032 125.229 101.942 125.379 101.93C125.528 101.914 125.664 101.96 125.785 102.069C125.909 102.18 125.971 102.311 125.972 102.463C125.972 102.609 125.896 102.766 125.743 102.934Z" fill="#433939"/>
<path d="M23.4726 91.0951L32.9043 92.0032L23.4726 92.8961C22.6242 93.0338 21.8408 93.4322 21.2329 94.035C20.6251 94.6378 20.2233 95.4147 20.0844 96.256L19.1687 105.624L18.3141 96.256C18.1699 95.4144 17.7646 94.6383 17.1545 94.036C16.5444 93.4337 15.76 93.0353 14.9107 92.8961L5.47894 92.0032L14.9107 91.0951C15.7537 90.9587 16.5334 90.5669 17.1428 89.9734C17.7522 89.3799 18.1613 88.6139 18.3141 87.7806L19.2145 78.4274L20.1302 87.7806C20.275 88.6073 20.6738 89.3694 21.2721 89.9627C21.8704 90.556 22.6389 90.9515 23.4726 91.0951V91.0951Z" fill="#F8CA42" stroke="#433939" stroke-width="0.307851" stroke-miterlimit="10"/>
<path d="M135.021 31.7826L148.085 33.0388L135.021 34.2798C133.845 34.4726 132.759 35.0259 131.916 35.8619C131.073 36.6979 130.515 37.7748 130.32 38.9413L129.053 51.9116L127.802 38.9413C127.608 37.7748 127.05 36.6979 126.207 35.8619C125.364 35.0259 124.278 34.4726 123.101 34.2798L110.022 33.0388L123.101 31.7826C124.278 31.5898 125.364 31.0365 126.207 30.2005C127.05 29.3645 127.608 28.2877 127.802 27.1212L129.053 14.166L130.32 27.1212C130.515 28.2877 131.073 29.3645 131.916 30.2005C132.759 31.0365 133.845 31.5898 135.021 31.7826V31.7826Z" fill="#F8CA42" stroke="#433939" stroke-width="0.307851" stroke-miterlimit="10"/>
<path d="M81.162 72.0104C81.162 72.0104 78.7964 68.9834 80.4599 68.2418C82.1235 67.5002 83.7717 67.3035 84.0159 67.0613C85.5898 66.834 87.1885 66.834 88.7623 67.0613C89.2354 67.3035 90.8837 67.7727 91.3568 67.9997C91.8299 68.2267 92.5472 70.8299 92.5472 70.8299C92.5472 70.8299 101.567 76.8837 103.704 83.0586C105.84 89.2335 104.406 95.0603 100.377 98.8137C96.3474 102.567 83.7717 105.942 77.606 102.34C71.4402 98.738 65.2745 90.8075 67.6401 82.5894C70.0056 74.3713 81.162 72.0104 81.162 72.0104Z" fill="#E2E3EA"/>
<path d="M71.7303 47.0383C71.2877 45.888 71.4708 45.4189 72.5696 44.8286C74.733 43.7001 77.2376 43.3942 79.6124 43.9683C81.9873 44.5425 84.0689 45.9571 85.4658 47.9463L85.9237 48.5971C86.5049 47.698 87.197 46.8744 87.984 46.1453C89.8244 44.5251 92.2 43.6303 94.661 43.6303C97.122 43.6303 99.4976 44.5251 101.338 46.1453C103.177 47.7722 104.342 50.0179 104.607 52.4476C104.872 54.8773 104.218 57.3181 102.773 59.2973C100.132 62.9296 97.3853 66.4862 94.6381 70.0428C94.1803 70.6634 94.2261 70.8147 94.9281 71.1779C97.6279 72.4897 100.01 74.3643 101.912 76.6734C103.814 78.9825 105.19 81.6716 105.947 84.5569C106.418 86.8043 106.329 89.1317 105.688 91.3372C105.635 91.5523 105.527 91.7503 105.375 91.912C105.222 92.0737 105.031 92.1937 104.818 92.2604C103.185 92.3664 102.62 91.7912 103.002 90.2021C103.388 88.5285 103.41 86.7926 103.068 85.1096C102.726 83.4266 102.027 81.8349 101.018 80.4403C98.8816 76.9564 95.5986 74.3103 91.7231 72.9487C91.3735 72.8956 91.0456 72.7472 90.7761 72.5201C90.5066 72.2929 90.3061 71.9959 90.197 71.6622C90.1358 71.0422 90.269 70.4185 90.5785 69.8764C90.6853 69.5585 90.9448 69.2104 90.5785 68.9077C90.2122 68.6051 89.907 68.9077 89.5865 69.0137L89.0981 69.2407C88.8786 69.3681 88.632 69.4429 88.3781 69.4591C88.1242 69.4753 87.87 69.4325 87.6358 69.334C87.4015 69.2355 87.1938 69.0841 87.029 68.8918C86.8642 68.6996 86.747 68.4718 86.6868 68.2267C86.4884 67.7575 86.4578 67.0159 85.8779 66.9857C85.298 66.9554 85.1759 67.7575 84.9775 68.2418C84.9133 68.486 84.7929 68.7122 84.6258 68.9026C84.4587 69.093 84.2495 69.2424 84.0144 69.3391C83.7793 69.4359 83.5249 69.4774 83.271 69.4603C83.0171 69.4432 82.7706 69.3681 82.5508 69.2407C82.093 69.0591 81.5741 68.484 81.0247 68.9229C80.4752 69.3618 81.101 69.952 81.2536 70.4363C81.6657 71.6774 81.4978 72.2676 80.2768 72.7671C78.1597 73.5259 76.1882 74.6365 74.4468 76.0513C71.4272 78.5768 69.3876 82.0655 68.6779 85.919C68.3067 88.741 68.8919 91.6053 70.3414 94.0614C72.0993 97.3311 75.0122 99.8425 78.5217 101.114C81.6513 102.299 85.0236 102.714 88.3503 102.325C91.6641 102.03 94.8321 100.836 97.5074 98.8742C98.7245 97.9567 99.8081 96.877 100.728 95.6657C100.988 95.2435 101.344 94.8863 101.765 94.6214C102.254 94.3641 102.757 94.1522 103.169 94.7274C103.948 95.5749 103.994 96.0289 103.337 96.9673C101.802 99.1649 99.8159 101.017 97.5096 102.401C95.2032 103.786 92.6282 104.673 89.9528 105.004C84.2198 106.09 78.2865 104.876 73.4548 101.629C71.0245 100.021 69.0482 97.8244 67.7129 95.2475C66.3776 92.6706 65.7274 89.7984 65.824 86.9028C65.9606 83.7429 67.0921 80.7049 69.0594 78.2155C71.0847 75.1767 73.8935 72.7311 77.194 71.1325C77.7739 70.8601 77.6671 70.6634 77.3618 70.2547C74.6961 66.7536 72.0355 63.2222 69.3799 59.6605C68.2812 58.3228 67.5608 56.7194 67.2926 55.0147C67.0245 53.31 67.2181 51.5653 67.8538 49.9592C68.2658 48.8393 68.5711 48.6728 69.792 48.7787C69.9846 48.8343 70.1628 48.9305 70.3143 49.0608C70.4658 49.1911 70.5871 49.3524 70.6697 49.5336C70.7524 49.7148 70.7945 49.9116 70.7931 50.1105C70.7918 50.3094 70.747 50.5056 70.6619 50.6857C70.5246 51.1851 70.3262 51.6695 70.2193 52.1992C70.0125 53.134 70.0118 54.1021 70.2173 55.0373C70.4227 55.9724 70.8295 56.8525 71.4098 57.6173C73.5159 60.5081 75.7288 63.3382 77.8655 66.2138C78.2623 66.7284 78.5523 66.8192 79.0712 66.3803C79.4636 66.0381 79.9335 65.7948 80.4409 65.6709C80.9483 65.5471 81.4784 65.5464 81.9862 65.6689C82.169 65.7314 82.3687 65.7242 82.5464 65.6487C82.7242 65.5731 82.8672 65.4347 82.9476 65.2603C83.0095 65.0988 83.1151 64.9574 83.2529 64.8517C84.3975 64.1858 84.3517 63.1112 84.3365 62.0064C84.3365 59.2216 84.3365 56.4368 84.3365 53.6521C84.3439 52.4597 84.0496 51.2845 83.4805 50.2341C82.9114 49.1837 82.0857 48.2917 81.0789 47.6397C80.0722 46.9877 78.9166 46.5965 77.7179 46.502C76.5193 46.4075 75.3159 46.6127 74.2179 47.0988C73.8857 47.2877 73.5386 47.4496 73.1801 47.5831C72.6002 47.8101 72.0202 47.7647 71.7303 47.0383Z" fill="#433939"/>
<path d="M71.7303 47.0383C72.0009 47.2875 72.3481 47.4394 72.7162 47.4696C73.0842 47.4998 73.4519 47.4065 73.7601 47.2048C74.8961 46.58 76.179 46.2654 77.4777 46.293C78.7764 46.3206 80.0445 46.6895 81.1525 47.362C82.2605 48.0345 83.1687 48.9865 83.7843 50.1208C84.4 51.2551 84.7012 52.5311 84.657 53.8186C84.657 57.0271 84.657 60.2205 84.657 63.4139C84.657 63.9436 84.657 64.3523 84.0618 64.6095C83.4666 64.8668 83.2682 65.8506 82.7187 66.0322C82.1693 66.2138 81.4825 65.7749 80.8263 65.9111C79.8951 66.1044 79.0751 66.6465 78.537 67.4246L74.7826 62.4604C73.638 60.947 72.4781 59.4335 71.3793 57.9201C70.6092 56.9431 70.1156 55.7803 69.9493 54.5513C69.783 53.3223 69.95 52.0716 70.433 50.9279C70.5438 50.7527 70.6172 50.557 70.6487 50.3526C70.6802 50.1483 70.6691 49.9397 70.6162 49.7397C70.5633 49.5398 70.4696 49.3527 70.341 49.19C70.2124 49.0274 70.0515 48.8926 69.8683 48.7939C70.5704 48.3247 70.9214 47.4621 71.7303 47.0383Z" fill="#E2E3EA"/>
<path d="M93.4325 67.3943C93.0174 66.771 92.4065 66.3011 91.6944 66.0575C90.9824 65.8139 90.2092 65.8103 89.4949 66.0473C89.1897 66.1533 89.0676 66.0473 88.9455 65.79C88.8178 65.3945 88.5528 65.0567 88.1977 64.8366C87.2515 64.4128 87.282 63.6561 87.282 62.8237C87.282 59.7059 87.282 56.6033 87.282 53.5008C87.3101 51.7437 87.9769 50.0558 89.1597 48.7474C90.3425 47.4389 91.9619 46.5978 93.72 46.3787C95.4782 46.1596 97.2571 46.5773 98.7296 47.5548C100.202 48.5324 101.269 50.0043 101.735 51.6997C102.019 52.6728 102.09 53.6949 101.942 54.6974C101.795 55.6998 101.433 56.6593 100.88 57.5114C100.697 57.799 100.483 58.0865 100.27 58.3741L93.4325 67.3943Z" fill="#E2E3EA" stroke="#433939" stroke-width="1.2314"/>
<path d="M88.8692 87.5991C89.6628 87.9471 89.8765 88.386 89.5712 89.1125C89.1895 90.0792 88.4379 90.8571 87.4804 91.2768C87.3524 91.3361 87.2406 91.4249 87.1544 91.5357C87.0681 91.6466 87.0098 91.7764 86.9844 91.9141C86.959 92.0519 86.9673 92.1937 87.0084 92.3277C87.0495 92.4616 87.1224 92.5839 87.2209 92.6843L88.4724 93.9404C89.0218 94.4853 89.0676 95.0453 88.625 95.4539C88.5196 95.5489 88.396 95.622 88.2617 95.669C88.1273 95.7159 87.9848 95.7357 87.8426 95.7273C87.7004 95.7188 87.5614 95.6822 87.4336 95.6197C87.3059 95.5572 87.192 95.4699 87.0988 95.3631C86.7325 95.0453 86.4426 94.4096 86.0152 94.4399C85.5879 94.4701 85.3132 95.0301 84.9622 95.3631C84.8702 95.4717 84.7568 95.5607 84.629 95.6244C84.5012 95.6882 84.3616 95.7255 84.2188 95.734C84.076 95.7425 83.9329 95.722 83.7983 95.6739C83.6637 95.6257 83.5404 95.5509 83.436 95.4539C82.9934 94.9999 83.0239 94.455 83.5733 93.9404L84.6417 92.881C85.3132 92.2 85.2216 91.6097 84.3822 91.1859C83.4928 90.7786 82.7901 90.0548 82.4135 89.1579C82.093 88.386 82.3066 87.9471 83.1002 87.6445C83.2293 87.5969 83.3667 87.5758 83.5043 87.5822C83.6418 87.5886 83.7766 87.6226 83.9006 87.6819C84.0246 87.7413 84.1352 87.8249 84.2258 87.9276C84.3165 88.0304 84.3852 88.1503 84.428 88.2801C84.6134 88.6775 84.9101 89.0137 85.2827 89.2487C85.6086 89.4199 85.9861 89.4683 86.3452 89.3848C86.7044 89.3013 87.0209 89.0917 87.2362 88.7947C87.4031 88.5807 87.5512 88.3528 87.6788 88.1136C87.7735 87.8935 87.9496 87.7175 88.1709 87.6219C88.3922 87.5262 88.642 87.518 88.8692 87.5991V87.5991Z" fill="#433939"/>
<path d="M81.9708 57.1331C81.9708 58.2984 81.9708 59.4789 81.9708 60.6443C81.9972 61.1315 81.8624 61.614 81.5869 62.0183C81.3114 62.4226 80.9104 62.7267 80.4447 62.8842C79.9786 63.0565 79.4676 63.068 78.9942 62.917C78.5207 62.766 78.1123 62.4612 77.8349 62.0518C76.385 60.1751 74.9352 58.2833 73.5463 56.3763C72.9263 55.5811 72.59 54.6043 72.59 53.5991C72.59 52.594 72.9263 51.6172 73.5463 50.822C74.1446 50.0339 74.9795 49.4543 75.9309 49.1666C76.8823 48.8789 77.9013 48.8979 78.8411 49.2209C79.781 49.544 80.5933 50.1543 81.1612 50.9641C81.729 51.774 82.0232 52.7416 82.0014 53.7278C81.9861 54.8478 81.9708 55.998 81.9708 57.1331Z" fill="#433939"/>
<path d="M90.0444 56.9817C90.0444 55.8314 90.0444 54.6963 90.0444 53.5613C90.0495 52.5873 90.3632 51.6395 90.941 50.852C91.5189 50.0644 92.3317 49.4768 93.2646 49.1722C94.1801 48.8761 95.1647 48.8622 96.0884 49.1324C97.0121 49.4026 97.8314 49.9442 98.4383 50.6857C99.058 51.4412 99.4162 52.3743 99.4602 53.3472C99.5042 54.3201 99.2315 55.2813 98.6825 56.0887C97.1563 58.147 95.6302 60.1297 94.104 62.1426C93.8263 62.5294 93.4249 62.8117 92.9649 62.9436C92.505 63.0755 92.0135 63.0492 91.5705 62.869C91.1202 62.7208 90.7293 62.4339 90.4548 62.0501C90.1802 61.6663 90.0365 61.2056 90.0444 60.7351C89.9528 59.494 90.0444 58.2378 90.0444 56.9817Z" fill="#433939"/>
<path d="M79.3611 59.6606C78.0028 57.8444 76.7361 56.2401 75.561 54.5753C75.334 54.2421 75.2271 53.8426 75.2575 53.4416C75.288 53.0405 75.4541 52.6615 75.7288 52.3657C75.9626 52.0374 76.2958 51.7916 76.6799 51.6637C77.0641 51.5358 77.4793 51.5325 77.8655 51.6544C78.275 51.7135 78.6511 51.9118 78.9295 52.2155C79.2079 52.5192 79.3712 52.9093 79.3917 53.3192C79.3611 55.3623 79.3611 57.3904 79.3611 59.6606Z" fill="#FE8D9D"/>
<path d="M92.6389 59.6605C92.6389 57.4358 92.6389 55.4531 92.6389 53.4705C92.6424 53.0572 92.7835 52.6566 93.0401 52.331C93.2968 52.0053 93.6546 51.7728 94.0582 51.6695C94.4585 51.5498 94.8861 51.5538 95.2841 51.6809C95.6821 51.8079 96.0317 52.052 96.2864 52.3808C96.5525 52.7206 96.6969 53.1386 96.6969 53.5689C96.6969 53.9991 96.5525 54.4171 96.2864 54.7569C95.1723 56.3461 93.9666 57.8898 92.6389 59.6605Z" fill="#FEB4BF"/>
<path d="M76.3393 82.3473H75.8051C75.232 82.3473 74.7673 82.8081 74.7673 83.3764V86.7212C74.7673 87.2896 75.232 87.7503 75.8051 87.7503H76.3393C76.9125 87.7503 77.3771 87.2896 77.3771 86.7212V83.3764C77.3771 82.8081 76.9125 82.3473 76.3393 82.3473Z" fill="#433939"/>
<path d="M96.9732 82.3473H96.439C95.8659 82.3473 95.4012 82.8081 95.4012 83.3764V86.7212C95.4012 87.2896 95.8659 87.7503 96.439 87.7503H96.9732C97.5464 87.7503 98.011 87.2896 98.011 86.7212V83.3764C98.011 82.8081 97.5464 82.3473 96.9732 82.3473Z" fill="#433939"/>
<path d="M75.2404 92.2302C77.9882 92.2302 80.2157 91.5458 80.2157 90.7016C80.2157 89.8574 77.9882 89.173 75.2404 89.173C72.4926 89.173 70.2651 89.8574 70.2651 90.7016C70.2651 91.5458 72.4926 92.2302 75.2404 92.2302Z" fill="#FEB4BF"/>
<path d="M96.8206 92.2302C99.5684 92.2302 101.796 91.5458 101.796 90.7016C101.796 89.8574 99.5684 89.173 96.8206 89.173C94.0728 89.173 91.8453 89.8574 91.8453 90.7016C91.8453 91.5458 94.0728 92.2302 96.8206 92.2302Z" fill="#FEB4BF"/>
</g>
<defs>
<clipPath id="clip0_1_2274">
<rect width="172" height="149" fill="white"/>
</clipPath>
</defs>
</svg>
