<svg width="155" height="149" viewBox="0 0 155 149" fill="none" xmlns="http://www.w3.org/2000/svg">
<path fill-rule="evenodd" clip-rule="evenodd" d="M74.1182 148.635C88.7774 148.635 103.107 144.298 115.296 136.174C127.485 128.049 136.985 116.502 142.594 102.992C148.204 89.4812 149.672 74.6148 146.812 60.2723C143.952 45.9297 136.893 32.7553 126.528 22.4149C116.162 12.0746 102.955 5.03266 88.5779 2.17976C74.2004 -0.673144 59.2977 0.791068 45.7544 6.38724C32.2111 11.9834 20.6354 21.4602 12.4912 33.6192C4.34696 45.7782 0 60.0733 0 74.6968C0 94.3063 7.80886 113.113 21.7087 126.979C35.6086 140.845 54.4608 148.635 74.1182 148.635V148.635ZM131.045 74.6968C131.08 86.3387 127.512 97.7075 120.83 107.252L39.8773 29.2659C48.3403 22.9357 58.4025 19.0803 68.9374 18.1314C79.4723 17.1825 90.064 19.1774 99.5268 23.8929C108.99 28.6084 116.95 35.8583 122.516 44.831C128.083 53.8036 131.036 64.1448 131.045 74.6968V74.6968ZM74.1182 131.542C86.4737 131.561 98.4974 127.553 108.359 120.128L27.4068 42.1698C21.4423 50.689 17.9334 60.6766 17.2617 71.0463C16.59 81.416 18.7812 91.7709 23.5971 100.985C28.413 110.199 35.6691 117.92 44.5765 123.307C53.4839 128.695 63.7015 131.543 74.1182 131.542V131.542Z" fill="#A6DAF1"/>
<path d="M79.7545 147.229C119.911 147.229 152.464 114.755 152.464 74.6968C152.464 34.6385 119.911 2.16473 79.7545 2.16473C39.5984 2.16473 7.04541 34.6385 7.04541 74.6968C7.04541 114.755 39.5984 147.229 79.7545 147.229Z" stroke="#433939" stroke-width="2.46281"/>
<path d="M126.466 107.252L124.507 109.276L126.818 111.567L128.706 108.868L126.466 107.252ZM45.5136 29.2659L43.8086 27.0309L41.1736 28.9988L43.555 31.29L45.5136 29.2659ZM120.844 114.069L122.873 116.023L118.815 112.116L120.844 114.069ZM120.632 114.28L118.603 112.34L122.661 116.248L120.632 114.28ZM113.995 120.128L115.686 122.377L118.364 120.395L115.954 118.076L113.995 120.128ZM33.0432 42.1698L35.0018 40.1457L32.6204 37.8545L30.7322 40.5533L33.0432 42.1698ZM133.864 74.6968C133.875 85.7594 130.47 96.557 124.113 105.621L128.72 108.84C135.747 98.8356 139.512 86.9129 139.5 74.6968H133.864ZM79.7545 20.6773C94.1079 20.6922 107.868 26.3896 118.014 36.5182C128.159 46.6469 133.86 60.3784 133.864 74.6968H139.5C139.5 58.886 133.207 43.7222 122.003 32.5383C110.8 21.3545 95.6039 15.0658 79.7545 15.0546V20.6773ZM47.2045 31.5149C56.5816 24.4622 68.0108 20.6568 79.7545 20.6773V15.0546C66.7847 15.0342 54.163 19.2394 43.8086 27.0309L47.2045 31.5149ZM43.555 31.29L124.507 109.276L128.425 105.228L47.4582 27.2417L43.555 31.29ZM118.815 112.116L118.603 112.34L122.661 116.234L122.873 116.023L118.815 112.116ZM112.29 117.893C102.918 124.943 91.4935 128.749 79.7545 128.73V134.353C92.72 134.374 105.337 130.168 115.686 122.377L112.29 117.893ZM79.7545 128.73C72.6414 128.73 65.5979 127.333 59.0263 124.617C52.4546 121.902 46.4835 117.922 41.4538 112.904C31.2958 102.771 25.5891 89.0274 25.5891 74.6968H19.9527C19.9527 90.5186 26.2532 105.692 37.4682 116.88C43.0214 122.42 49.6139 126.814 56.8693 129.812C64.1248 132.81 71.9012 134.353 79.7545 134.353V128.73ZM25.5891 74.6968C25.5753 63.6338 28.9802 52.8354 35.34 43.7723L30.7322 40.5533C23.6999 50.5607 19.9354 62.4895 19.9527 74.7109L25.5891 74.6968ZM115.954 118.076L35.0018 40.1316L31.0845 44.1659L112.037 122.152L115.954 118.076Z" fill="#433939"/>
<path d="M60.6152 131.828L57.9973 130.761L57.3105 132.438L59.4987 133.33C59.7016 133.413 59.8333 133.521 59.8939 133.653C59.9587 133.784 59.96 133.925 59.8977 134.077C59.8354 134.229 59.7353 134.329 59.5972 134.378C59.4591 134.426 59.2902 134.409 59.0903 134.327L56.902 133.436L56.0173 135.595C55.9049 135.87 55.7586 136.048 55.5784 136.131C55.4024 136.213 55.2174 136.214 55.0235 136.135C54.8265 136.055 54.6929 135.922 54.6226 135.737C54.5552 135.553 54.5771 135.325 54.6882 135.054L56.7544 130.009C56.8325 129.819 56.9243 129.675 57.0299 129.579C57.1366 129.48 57.2607 129.428 57.402 129.423C57.5475 129.416 57.7142 129.451 57.9022 129.527L61.0347 130.804C61.2465 130.891 61.3836 131.002 61.4459 131.139C61.5125 131.274 61.5147 131.417 61.4524 131.569C61.3889 131.725 61.2854 131.828 61.1419 131.881C61.0026 131.932 60.827 131.915 60.6152 131.828Z" fill="#433939"/>
<path d="M65.8889 136.694L65.4036 136.569L64.8359 138.767C64.7611 139.056 64.6423 139.252 64.4794 139.356C64.3165 139.46 64.1324 139.486 63.9271 139.433C63.7062 139.377 63.5536 139.261 63.4692 139.087C63.3848 138.912 63.3784 138.687 63.4499 138.41L64.8095 133.148C64.8866 132.849 65.0093 132.65 65.1777 132.551C65.346 132.452 65.5795 132.44 65.8782 132.517L68.1321 133.097C68.4432 133.177 68.7056 133.259 68.9192 133.344C69.1337 133.426 69.3192 133.53 69.4756 133.656C69.6669 133.801 69.8234 133.979 69.9449 134.19C70.0664 134.4 70.1402 134.628 70.1663 134.873C70.1964 135.117 70.1793 135.363 70.115 135.611C69.9832 136.121 69.7333 136.492 69.3652 136.722C69.0003 136.953 68.5089 137.057 67.891 137.035C68.1031 137.228 68.2881 137.482 68.4462 137.794C68.6043 138.107 68.7331 138.43 68.8326 138.764C68.936 139.096 69.0058 139.391 69.042 139.649C69.0821 139.905 69.0909 140.076 69.0684 140.163C69.0451 140.253 68.9922 140.336 68.9098 140.411C68.8313 140.484 68.7359 140.532 68.6235 140.556C68.5102 140.584 68.3883 140.58 68.2576 140.547C68.1021 140.507 67.9811 140.436 67.8946 140.334C67.8073 140.235 67.7392 140.12 67.6904 139.988C67.6446 139.857 67.5845 139.666 67.5101 139.414L67.1935 138.348C67.0819 137.958 66.9697 137.653 66.8569 137.435C66.7471 137.218 66.6198 137.056 66.4749 136.949C66.33 136.842 66.1347 136.757 65.8889 136.694ZM67.4247 134.024L66.146 133.695L65.6603 135.576L66.9016 135.895C67.2345 135.98 67.5217 136.024 67.7633 136.027C68.0057 136.026 68.2036 135.972 68.3572 135.866C68.5147 135.757 68.6248 135.582 68.6875 135.339C68.7365 135.149 68.7312 134.97 68.6718 134.803C68.6131 134.632 68.5074 134.488 68.3548 134.373C68.2107 134.263 67.9007 134.147 67.4247 134.024Z" fill="#433939"/>
<path d="M79.0166 136.026L75.8151 135.7L75.6388 137.423L78.5866 137.723C78.8035 137.745 78.9596 137.811 79.0548 137.921C79.1534 138.027 79.1946 138.16 79.1783 138.32C79.1619 138.479 79.0959 138.605 78.9802 138.696C78.8648 138.784 78.697 138.817 78.4769 138.795L75.5291 138.495L75.3248 140.49L78.6363 140.827C78.8597 140.85 79.0218 140.92 79.1227 141.036C79.2271 141.15 79.2704 141.293 79.2528 141.465C79.2358 141.631 79.1645 141.761 79.0389 141.855C78.9168 141.945 78.7441 141.979 78.5208 141.957L74.6589 141.563C74.3495 141.532 74.1332 141.44 74.01 141.289C73.8901 141.138 73.8458 140.91 73.8771 140.604L74.4169 135.33C74.4378 135.126 74.4851 134.963 74.5587 134.842C74.6327 134.717 74.7365 134.633 74.87 134.588C75.007 134.541 75.176 134.528 75.377 134.548L79.1287 134.93C79.3552 134.953 79.5175 135.022 79.6155 135.135C79.7171 135.245 79.7595 135.381 79.7428 135.544C79.7259 135.71 79.6563 135.838 79.5342 135.929C79.4156 136.017 79.2431 136.049 79.0166 136.026Z" fill="#433939"/>
<path d="M88.3002 136.08L85.0849 136.21L85.1551 137.941L88.1158 137.821C88.3337 137.812 88.4975 137.855 88.6073 137.95C88.7201 138.042 88.7798 138.168 88.7863 138.328C88.7928 138.488 88.7453 138.622 88.6437 138.729C88.542 138.832 88.3806 138.889 88.1595 138.898L85.1989 139.017L85.2803 141.021L88.6062 140.887C88.8305 140.878 89.0008 140.924 89.1173 141.025C89.2368 141.123 89.3001 141.258 89.3071 141.432C89.3139 141.598 89.2617 141.737 89.1507 141.847C89.0427 141.954 88.8765 142.012 88.6522 142.021L84.7736 142.178C84.4628 142.191 84.2357 142.131 84.0923 141.999C83.9522 141.866 83.8758 141.646 83.8633 141.339L83.6482 136.042C83.6399 135.837 83.6636 135.669 83.7193 135.539C83.7748 135.405 83.8655 135.306 83.9913 135.244C84.1202 135.177 84.2856 135.14 84.4874 135.132L88.2555 134.98C88.483 134.971 88.6533 135.015 88.7665 135.113C88.8826 135.208 88.944 135.337 88.9507 135.501C88.9574 135.667 88.9068 135.804 88.7989 135.911C88.6939 136.015 88.5277 136.071 88.3002 136.08Z" fill="#433939"/>
<path d="M51.3247 11.9897L48.6806 12.9524L49.3003 14.6464L51.5106 13.8417C51.7155 13.7671 51.8847 13.7584 52.0183 13.8155C52.1538 13.8686 52.2497 13.9719 52.3059 14.1255C52.3621 14.2791 52.3555 14.4197 52.2861 14.5473C52.2167 14.675 52.081 14.7756 51.8791 14.8491L49.6689 15.6538L50.4671 17.8356C50.5685 18.1127 50.5807 18.342 50.5037 18.5236C50.4286 18.7011 50.2932 18.8255 50.0973 18.8968C49.8984 18.9692 49.7109 18.9607 49.5348 18.8713C49.3616 18.7807 49.225 18.5984 49.1247 18.3244L47.2605 13.2288C47.19 13.0361 47.1613 12.869 47.1745 12.7277C47.1866 12.5834 47.243 12.4622 47.3437 12.3641C47.4463 12.2619 47.5925 12.1763 47.7823 12.1071L50.9463 10.9552C51.1602 10.8774 51.3361 10.8679 51.4738 10.927C51.6134 10.982 51.7113 11.0863 51.7675 11.2398C51.8248 11.3964 51.8183 11.5421 51.7481 11.6769C51.6798 11.8076 51.5387 11.9118 51.3247 11.9897Z" fill="#433939"/>
<path d="M59.268 12.7306L58.7777 12.8354L59.2546 15.0554C59.3174 15.3477 59.2992 15.5767 59.2 15.7425C59.1009 15.9083 58.9476 16.0134 58.7401 16.0577C58.517 16.1054 58.3286 16.0701 58.175 15.9518C58.0213 15.8334 57.9145 15.6344 57.8544 15.3548L56.7123 10.038C56.6475 9.73631 56.6682 9.50347 56.7743 9.33946C56.8804 9.17545 57.0844 9.0612 57.3861 8.9967L59.6632 8.50994C59.9775 8.44276 60.2492 8.39945 60.4785 8.38003C60.707 8.35747 60.9196 8.36789 61.1163 8.41129C61.3528 8.45606 61.5725 8.54548 61.7755 8.67956C61.9786 8.81364 62.1468 8.98473 62.2803 9.19283C62.4162 9.39713 62.5112 9.62497 62.5652 9.87635C62.6759 10.3917 62.6181 10.8346 62.392 11.205C62.169 11.5748 61.7759 11.8872 61.2127 12.1424C61.4893 12.2213 61.7685 12.3654 62.0501 12.5746C62.3318 12.7839 62.592 13.0159 62.8308 13.2705C63.072 13.5213 63.2667 13.7541 63.4147 13.969C63.5652 14.18 63.65 14.3295 63.6689 14.4175C63.6884 14.5086 63.6781 14.6061 63.638 14.71C63.6003 14.8101 63.5366 14.896 63.4468 14.9678C63.3577 15.0427 63.2472 15.0943 63.1152 15.1225C62.958 15.1561 62.8179 15.1466 62.6949 15.094C62.5725 15.0446 62.4598 14.9717 62.357 14.8754C62.2572 14.7784 62.1177 14.634 61.9385 14.4423L61.177 13.629C60.9023 13.3294 60.6655 13.1073 60.4667 12.9624C60.2711 12.8169 60.0845 12.7286 59.9069 12.6976C59.7293 12.6665 59.5163 12.6775 59.268 12.7306ZM59.4458 9.65578L58.154 9.93191L58.5621 11.8314L59.8161 11.5634C60.1524 11.4915 60.4292 11.4027 60.6465 11.2971C60.8631 11.1884 61.0163 11.0521 61.106 10.8883C61.1982 10.7207 61.218 10.5143 61.1654 10.2692C61.1242 10.0776 61.0393 9.91987 60.9109 9.79615C60.7817 9.66929 60.6229 9.5882 60.4345 9.55288C60.2563 9.51868 59.9267 9.55298 59.4458 9.65578Z" fill="#433939"/>
<path d="M72.717 13.0863L72.322 12.2256L69.4614 12.4161L69.1859 13.3408C69.0782 13.7015 68.9822 13.9473 68.8978 14.0783C68.8131 14.206 68.6652 14.2769 68.454 14.291C68.2748 14.3029 68.1121 14.2479 67.9657 14.1259C67.8193 14.0039 67.7406 13.8597 67.7294 13.6933C67.723 13.5973 67.7324 13.497 67.7575 13.3925C67.7827 13.288 67.8259 13.1421 67.8873 12.9548L69.3813 8.26587C69.4237 8.13127 69.474 7.97044 69.5322 7.78337C69.5934 7.59289 69.6599 7.4342 69.7317 7.30728C69.8068 7.18016 69.9075 7.07543 70.0337 6.9931C70.163 6.90736 70.3252 6.85798 70.5204 6.84498C70.7187 6.83177 70.8861 6.85919 71.0224 6.92724C71.1617 6.99188 71.2754 7.08073 71.3633 7.19379C71.4544 7.30663 71.5317 7.43004 71.5953 7.564C71.6619 7.69455 71.746 7.87053 71.8476 8.09195L73.9897 12.5098C74.1569 12.8457 74.2457 13.0921 74.2562 13.2489C74.2671 13.4121 74.2084 13.567 74.08 13.7138C73.9546 13.8571 73.7959 13.9352 73.6039 13.948C73.4919 13.9554 73.3945 13.941 73.3118 13.9048C73.2292 13.8717 73.1585 13.8234 73.0996 13.7598C73.0405 13.693 72.9742 13.5914 72.9008 13.4549C72.8304 13.3149 72.7691 13.1921 72.717 13.0863ZM69.7642 11.3209L71.8664 11.1809L70.6113 8.34785L69.7642 11.3209Z" fill="#433939"/>
<path d="M85.0351 11.4191L84.9243 12.7663C84.9096 12.9452 84.8801 13.0876 84.8361 13.1934C84.7922 13.296 84.7188 13.3865 84.6158 13.4649C84.5161 13.5437 84.3894 13.6169 84.2358 13.6848C83.7918 13.8801 83.3689 14.0144 82.9671 14.0877C82.5653 14.161 82.1327 14.1787 81.6692 14.1408C81.1291 14.0966 80.6437 13.9732 80.2131 13.7707C79.7825 13.5681 79.4237 13.2958 79.1365 12.9538C78.8493 12.6117 78.6395 12.2085 78.5072 11.744C78.378 11.2797 78.3363 10.7696 78.3821 10.2135C78.427 9.66695 78.5496 9.17345 78.75 8.73295C78.9503 8.29246 79.2217 7.92696 79.5641 7.63646C79.9065 7.34595 80.3115 7.13617 80.779 7.00712C81.2468 6.87487 81.7683 6.83229 82.3436 6.87937C82.8167 6.91809 83.2301 7.01627 83.5839 7.17393C83.938 7.32839 84.2207 7.51079 84.4318 7.72112C84.643 7.93145 84.7973 8.14839 84.8947 8.37194C84.9922 8.59549 85.0341 8.79036 85.0204 8.95655C85.0057 9.13552 84.9259 9.28344 84.7812 9.40029C84.6399 9.51421 84.4766 9.56359 84.2912 9.54842C84.1889 9.54005 84.0918 9.50797 83.9999 9.45218C83.9111 9.39665 83.8383 9.32313 83.7815 9.23161C83.6283 8.94237 83.4968 8.72246 83.3869 8.5719C83.277 8.42134 83.1221 8.28961 82.9223 8.17673C82.7256 8.06411 82.4675 7.99472 82.1479 7.96857C81.8187 7.94163 81.5199 7.97509 81.2516 8.06896C80.9835 8.15963 80.7478 8.30605 80.5446 8.5082C80.3448 8.70742 80.1825 8.95959 80.0576 9.26468C79.936 9.57004 79.8595 9.91289 79.8282 10.2932C79.7604 11.1178 79.8968 11.7676 80.2374 12.2427C80.5812 12.7181 81.0919 12.9835 81.7695 13.039C82.0987 13.0659 82.4107 13.048 82.7054 12.9852C83.0034 12.9228 83.3075 12.8238 83.6179 12.6883L83.7117 11.5473L82.6091 11.4571C82.3438 11.4354 82.1457 11.3789 82.0149 11.2878C81.8872 11.1969 81.8313 11.0556 81.847 10.8638C81.8599 10.7072 81.9265 10.5824 82.0468 10.4893C82.1702 10.3964 82.3294 10.3579 82.5244 10.3739L84.14 10.5061C84.3382 10.5223 84.5045 10.5537 84.6391 10.6001C84.7736 10.6465 84.8774 10.7338 84.9506 10.862C85.0269 10.9905 85.055 11.1762 85.0351 11.4191Z" fill="#433939"/>
<path d="M92.0875 12.4953L91.6007 12.3799L91.0756 14.5838C91.0065 14.8739 90.8916 15.0724 90.731 15.1793C90.5703 15.2863 90.387 15.3153 90.1811 15.2665C89.9596 15.214 89.805 15.1015 89.7175 14.9292C89.63 14.7568 89.6194 14.5318 89.6855 14.2542L90.9431 8.97608C91.0144 8.67661 91.1332 8.47571 91.2993 8.37339C91.4654 8.27106 91.6983 8.25541 91.9978 8.32643L94.2585 8.86244C94.5705 8.93642 94.8339 9.01371 95.0488 9.09431C95.2644 9.1718 95.4514 9.27218 95.61 9.39545C95.8037 9.53696 95.9632 9.71155 96.0884 9.91921C96.2137 10.1269 96.2917 10.353 96.3224 10.5976C96.357 10.8398 96.3446 11.0856 96.2851 11.3352C96.1632 11.8468 95.9208 12.221 95.5577 12.4579C95.1978 12.6956 94.7093 12.8088 94.0922 12.7976C94.3075 12.9871 94.497 13.2364 94.6607 13.5454C94.8245 13.8545 94.9591 14.1748 95.0647 14.5063C95.1742 14.8355 95.2494 15.1285 95.2904 15.3854C95.3353 15.6399 95.3473 15.8108 95.3265 15.8982C95.3049 15.9887 95.2537 16.0721 95.1729 16.1485C95.0959 16.2225 95.0016 16.2727 94.8898 16.2989C94.7773 16.3283 94.6556 16.3274 94.5245 16.2963C94.3685 16.2593 94.2464 16.1908 94.1581 16.0908C94.0691 15.9939 93.999 15.8801 93.9478 15.7493C93.8996 15.6192 93.836 15.4295 93.757 15.18L93.4208 14.1215C93.3021 13.7341 93.1844 13.4327 93.0676 13.2171C92.954 13.0023 92.8238 12.8429 92.6772 12.7389C92.5305 12.635 92.334 12.5538 92.0875 12.4953ZM93.5699 9.80158L92.2874 9.49751L91.8382 11.3832L93.0831 11.6784C93.417 11.7576 93.7045 11.7961 93.9457 11.7939C94.1876 11.7887 94.3842 11.7315 94.5355 11.6223C94.6906 11.5108 94.7971 11.3334 94.8551 11.0901C94.9005 10.8998 94.8919 10.7214 94.8293 10.555C94.7675 10.3855 94.6594 10.2445 94.5048 10.132C94.3589 10.0249 94.0473 9.91477 93.5699 9.80158Z" fill="#433939"/>
<path d="M104.091 18.5777L104.106 17.6306L101.439 16.5721L100.79 17.2885C100.537 17.5679 100.344 17.7485 100.211 17.8305C100.08 17.9094 99.9153 17.9098 99.7184 17.8317C99.5514 17.7654 99.4281 17.6456 99.3485 17.4725C99.269 17.2994 99.2601 17.1353 99.322 16.9802C99.3576 16.8908 99.4094 16.8043 99.4773 16.7207C99.5452 16.6372 99.6473 16.524 99.7837 16.3813L103.16 12.79C103.256 12.6867 103.371 12.5632 103.505 12.4193C103.642 12.2736 103.771 12.1589 103.891 12.0752C104.013 11.9927 104.15 11.9414 104.299 11.9214C104.453 11.8996 104.621 11.9248 104.803 11.997C104.988 12.0704 105.127 12.1672 105.221 12.2873C105.319 12.4056 105.383 12.5347 105.414 12.6746C105.447 12.8157 105.464 12.9604 105.464 13.1087C105.467 13.2552 105.467 13.4503 105.463 13.694L105.49 18.6047C105.496 18.9799 105.47 19.2406 105.411 19.3867C105.351 19.5387 105.231 19.6534 105.051 19.7307C104.876 19.8062 104.699 19.8084 104.52 19.7373C104.416 19.6959 104.334 19.641 104.275 19.5727C104.214 19.5073 104.171 19.4332 104.146 19.3505C104.121 19.2648 104.105 19.1445 104.098 18.9896C104.095 18.833 104.092 18.6957 104.091 18.5777ZM102.186 15.7133L104.146 16.4912L104.236 13.3932L102.186 15.7133Z" fill="#433939"/>
<path d="M113.938 17.2124L114.219 22.1812L116.332 18.5583C116.47 18.3228 116.622 18.1759 116.79 18.1176C116.962 18.058 117.134 18.0782 117.306 18.178C117.483 18.2811 117.589 18.4219 117.622 18.6006C117.657 18.7765 117.605 18.9822 117.468 19.2176L114.673 24.008C114.361 24.5426 113.983 24.6811 113.54 24.4235C113.429 24.3591 113.339 24.2845 113.269 24.1997C113.198 24.1177 113.144 24.0196 113.107 23.9052C113.07 23.7909 113.044 23.6687 113.031 23.5387C113.02 23.4059 113.009 23.2717 112.999 23.1361L112.752 18.2426L110.67 21.8116C110.534 22.0442 110.377 22.1887 110.2 22.245C110.022 22.3013 109.848 22.2804 109.679 22.1822C109.505 22.0807 109.399 21.9399 109.363 21.7596C109.329 21.5765 109.379 21.37 109.513 21.1401L112.255 16.4411C112.371 16.2417 112.485 16.0981 112.595 16.0103C112.721 15.9162 112.867 15.8659 113.034 15.8591C113.203 15.8497 113.358 15.886 113.5 15.9681C113.611 16.0325 113.694 16.1053 113.751 16.1863C113.81 16.269 113.852 16.3578 113.874 16.4525C113.9 16.5489 113.915 16.6632 113.919 16.7956C113.926 16.9296 113.933 17.0685 113.938 17.2124Z" fill="#433939"/>
<path d="M124.526 29.4691C124.384 29.644 124.187 29.7986 123.933 29.9329C123.684 30.0667 123.387 30.1577 123.042 30.2059C122.699 30.2515 122.334 30.2195 121.947 30.11C121.56 30.0004 121.175 29.7914 120.792 29.4827C120.501 29.2487 120.259 29.0084 120.066 28.7618C119.873 28.5152 119.725 28.2557 119.623 27.9834C119.525 27.7106 119.472 27.4137 119.463 27.0927C119.457 26.8032 119.489 26.511 119.558 26.2159C119.63 25.9182 119.737 25.6271 119.881 25.3423C120.027 25.0596 120.21 24.782 120.431 24.5096C120.789 24.0673 121.174 23.7227 121.584 23.4757C121.998 23.2308 122.425 23.0815 122.866 23.0277C123.308 22.9715 123.744 23.0085 124.172 23.1388C124.6 23.2691 124.997 23.4815 125.362 23.776C125.808 24.1351 126.133 24.5436 126.338 25.0014C126.542 25.4592 126.63 25.894 126.603 26.3056C126.578 26.7148 126.472 27.0356 126.283 27.268C126.18 27.3954 126.044 27.4715 125.875 27.4964C125.706 27.5212 125.558 27.4822 125.43 27.3793C125.287 27.2643 125.207 27.1438 125.189 27.0179C125.173 26.8939 125.189 26.7142 125.235 26.4786C125.31 26.0893 125.303 25.7474 125.215 25.4531C125.129 25.1608 124.942 24.8987 124.654 24.6667C124.196 24.2975 123.689 24.1767 123.135 24.3041C122.584 24.4336 122.049 24.8182 121.531 25.4579C121.185 25.8852 120.957 26.2897 120.846 26.6714C120.738 27.0506 120.737 27.399 120.844 27.7164C120.951 28.0339 121.152 28.3116 121.448 28.5497C121.768 28.8079 122.102 28.9471 122.45 28.9671C122.803 28.9868 123.159 28.8883 123.521 28.6717C123.686 28.5651 123.84 28.495 123.983 28.4616C124.128 28.4256 124.278 28.4701 124.433 28.5952C124.566 28.7021 124.642 28.8401 124.663 29.0093C124.683 29.1784 124.637 29.3317 124.526 29.4691Z" fill="#433939"/>
<path d="M133.954 33.6702L131.763 31.3237L130.498 32.4997L132.515 34.6603C132.664 34.8193 132.738 34.9712 132.737 35.1158C132.741 35.2607 132.684 35.3875 132.567 35.4964C132.45 35.6053 132.318 35.656 132.171 35.6485C132.026 35.6389 131.878 35.5534 131.728 35.392L129.71 33.2315L128.244 34.5937L130.511 37.0208C130.664 37.1845 130.74 37.3432 130.739 37.4969C130.742 37.6508 130.681 37.7865 130.554 37.9041C130.432 38.0173 130.293 38.0678 130.137 38.0555C129.986 38.0433 129.834 37.9554 129.681 37.7917L127.038 34.9612C126.826 34.7344 126.724 34.5239 126.731 34.3297C126.74 34.1379 126.857 33.9374 127.082 33.7283L130.956 30.1285C131.106 29.9891 131.248 29.8981 131.384 29.8554C131.521 29.8105 131.655 29.8153 131.784 29.8696C131.918 29.9241 132.054 30.025 132.192 30.1723L134.759 32.9222C134.914 33.0882 134.992 33.2458 134.991 33.395C134.995 33.5443 134.937 33.6745 134.817 33.7856C134.695 33.8988 134.559 33.9494 134.407 33.9372C134.26 33.9252 134.109 33.8362 133.954 33.6702Z" fill="#433939"/>
<path fill-rule="evenodd" clip-rule="evenodd" d="M63.6628 58.7004H94.4514L109.839 85.2814L94.4514 111.862H63.6628L48.2755 85.2814L63.6628 58.7004Z" fill="white" stroke="#433939" stroke-width="2.46281"/>
<path d="M86.9127 48.8889H71.1873V52.9372H86.9127V48.8889Z" fill="#433939"/>
<path d="M94.6768 72.504C97.3682 102.487 67.4955 74.9639 56.3636 91.874C56.3699 91.9676 56.3699 92.0615 56.3636 92.1552L59.055 96.8079L65.7341 108.32H92.3941L99.0591 96.8079L99.51 96.0207C101.081 93.3366 101.84 90.2559 101.694 87.151C101.703 87.0481 101.703 86.9447 101.694 86.8418C101.175 81.3719 98.6811 76.2765 94.6768 72.504V72.504Z" fill="#68BBD8"/>
<path fill-rule="evenodd" clip-rule="evenodd" d="M73.0332 34.6496H85.0809V46.9913H73.0332V34.6496ZM79.05 36.8003C78.7713 36.8003 78.4989 36.8827 78.2672 37.0372C78.0354 37.1916 77.8548 37.4111 77.7482 37.668C77.6415 37.9248 77.6136 38.2075 77.668 38.4801C77.7224 38.7528 77.8566 39.0033 78.0536 39.1999C78.2507 39.3965 78.5018 39.5303 78.7751 39.5846C79.0485 39.6388 79.3318 39.611 79.5893 39.5046C79.8467 39.3982 80.0668 39.218 80.2216 38.9869C80.3765 38.7557 80.4591 38.4839 80.4591 38.2059C80.4591 37.8331 80.3106 37.4756 80.0464 37.212C79.7821 36.9484 79.4237 36.8003 79.05 36.8003V36.8003Z" fill="#433939"/>
<path fill-rule="evenodd" clip-rule="evenodd" d="M56.3636 91.874C67.5377 75.0061 97.4105 102.487 94.7191 72.504C105.005 96.9063 67.1573 108.503 56.3636 91.874Z" fill="#0E91AF"/>
<path fill-rule="evenodd" clip-rule="evenodd" d="M87.9554 89.7796C80.5436 89.9061 63.7895 85.5626 59.4354 91.9302C66.2272 97.82 81.0509 100.969 87.9554 89.7796Z" fill="#68BBD8"/>
<path fill-rule="evenodd" clip-rule="evenodd" d="M84.2495 85.1267C84.9463 85.1267 85.6273 84.9206 86.2067 84.5345C86.786 84.1484 87.2375 83.5995 87.5041 82.9574C87.7707 82.3153 87.8405 81.6087 87.7046 80.927C87.5687 80.2453 87.2331 79.6192 86.7405 79.1277C86.2478 78.6363 85.6201 78.3016 84.9368 78.166C84.2534 78.0304 83.5451 78.1 82.9014 78.3659C82.2577 78.6319 81.7076 79.0823 81.3205 79.6602C80.9334 80.2381 80.7268 80.9176 80.7268 81.6126C80.7268 82.5446 81.0979 83.4384 81.7586 84.0975C82.4192 84.7565 83.3153 85.1267 84.2495 85.1267V85.1267Z" fill="#68BBD8"/>
<path d="M89.0944 77.3361C90.4156 77.1222 91.3129 75.8803 91.0984 74.5622C90.8839 73.2442 89.639 72.3492 88.3177 72.5631C86.9965 72.7771 86.0993 74.019 86.3137 75.337C86.5282 76.655 87.7732 77.5501 89.0944 77.3361Z" fill="#68BBD8"/>
<path fill-rule="evenodd" clip-rule="evenodd" d="M81.5582 75.3715C82.0768 75.3117 82.5551 75.0638 82.9024 74.675C83.2496 74.2862 83.4415 73.7837 83.4415 73.263C83.4415 72.7423 83.2496 72.2397 82.9024 71.851C82.5551 71.4622 82.0768 71.2143 81.5582 71.1545C81.2602 71.1201 80.9582 71.149 80.6721 71.2393C80.386 71.3295 80.1223 71.4791 79.8983 71.6782C79.6743 71.8774 79.495 72.1215 79.3723 72.3946C79.2495 72.6677 79.186 72.9637 79.186 73.263C79.186 73.5623 79.2495 73.8582 79.3723 74.1314C79.495 74.4045 79.6743 74.6486 79.8983 74.8477C80.1223 75.0469 80.386 75.1965 80.6721 75.2867C80.9582 75.377 81.2602 75.4059 81.5582 75.3715Z" fill="#68BBD8"/>
<path d="M28.6327 32.527C32.888 27.5775 37.8437 23.2731 43.3436 19.7495" stroke="#433939" stroke-width="0.923554" stroke-linecap="round" stroke-linejoin="round"/>
<path d="M12.541 75.9056C12.5206 61.1533 17.4182 46.813 26.4628 35.1415" stroke="#433939" stroke-width="0.923554" stroke-linecap="round" stroke-linejoin="round"/>
<path d="M51.2345 136.504C41.4929 131.975 32.9858 125.175 26.4306 116.679C19.8755 108.183 15.4644 98.2386 13.5695 87.6851" stroke="#433939" stroke-width="0.923554" stroke-linecap="round" stroke-linejoin="round"/>
</svg>
