<svg width="171" height="149" viewBox="0 0 171 149" fill="none" xmlns="http://www.w3.org/2000/svg">
<g clip-path="url(#clip0_1_2272)">
<path fill-rule="evenodd" clip-rule="evenodd" d="M80.9482 17.8588C92.4645 6.75 122.143 -8.80836 148.939 17.8588C182.319 51.1549 148.089 121.455 80.9482 147.441C58.3252 138.36 36.7644 123.755 21.0755 105.064C12.1385 94.3641 4.9617 81.8932 1.92709 68.1813C-1.27442 53.9245 -1.28959 34.4917 8.19355 22.5354C15.598 13.1065 25.4149 5.22141 37.2802 2.51231C53.7278 -1.2562 69.2195 6.87108 80.9482 17.8588ZM80.9482 38.3813C88.292 31.2983 107.213 21.37 124.298 38.3813C145.661 59.6454 123.766 104.429 80.9482 121.077C66.208 115.27 53.106 105.972 42.7729 93.9858C36.8988 87.2275 32.7362 79.162 30.6345 70.4666C28.6013 61.3859 28.5861 48.9906 34.6401 41.3628C39.2831 35.3544 45.5192 30.2691 53.1057 28.5892C63.5903 26.1979 73.4679 31.374 80.9482 38.3813Z" fill="#F8DCDB"/>
<path d="M156.525 17.7983L157.602 16.7237L156.525 17.7983ZM88.5347 17.7983L87.4878 18.9031L88.5499 19.8868L89.5816 18.888L88.5347 17.7983ZM88.5347 147.381L87.9733 148.788L88.5195 149L89.0809 148.788L88.5347 147.381ZM28.6619 105.004L29.8303 104.035L28.6619 105.004ZM9.51358 68.1056L11.0309 67.7727L9.51358 68.1056ZM15.78 22.4749L16.9635 23.4132L15.78 22.4749ZM44.8667 2.4518L45.2005 3.96526L44.8667 2.4518ZM131.884 38.3208L132.961 37.2462L131.884 38.3208ZM88.5347 38.3208L87.5029 39.4256L88.5499 40.4093L89.5968 39.4105L88.5347 38.3208ZM88.5347 120.956L87.9733 122.348L88.5195 122.575L89.0809 122.363L88.5347 120.956ZM50.3594 93.9252L51.5277 92.9566L50.3594 93.9252ZM38.221 70.4061L39.7383 70.0883L38.221 70.4061ZM42.2266 41.3023L43.4101 42.2406L42.2266 41.3023ZM60.6922 28.5438L61.026 30.0573L60.6922 28.5438ZM157.602 16.7237C143.84 3.02692 129.229 0.121074 116.559 2.13397C105.65 4.03341 95.5382 9.07926 87.4726 16.648L89.521 18.888C97.1305 11.7233 106.678 6.94037 116.984 5.13062C128.728 3.25393 142.353 5.88735 155.387 18.8728L157.602 16.7237ZM89.0809 148.788C122.977 135.666 148.696 111.36 161.593 86.0401C174.49 60.72 174.975 34.0528 157.602 16.7237L155.448 18.8728C171.516 34.8852 171.531 59.9784 158.892 84.6629C146.253 109.347 121.217 133.184 88.0037 145.973L89.0809 148.788ZM27.4936 105.942C43.3646 124.875 65.1379 139.617 88.0037 148.788L89.1265 145.973C66.7007 136.892 45.3674 122.499 29.8606 104.035L27.4936 105.942ZM8.02662 68.4386C11.1371 82.4532 18.3898 95.136 27.4936 105.942L29.8303 104.005C20.9389 93.4712 13.9593 81.2122 11.0005 67.7878L8.02662 68.4386ZM14.5965 21.5214C9.60462 27.8022 7.17693 35.9598 6.37276 44.2233C5.6785 52.3319 6.23628 60.4988 8.02662 68.4386L11.0612 67.7727C9.31256 60.1705 8.7496 52.3447 9.3922 44.5714C10.166 36.6106 12.4268 29.0887 16.9787 23.3829L14.5965 21.5214ZM44.5329 0.968611C32.2124 3.78364 22.1224 11.9412 14.5814 21.5365L16.9787 23.4132C24.2769 14.1508 33.7904 6.53814 45.2005 3.91986L44.5329 0.968611ZM89.521 16.648C77.686 5.55439 61.6936 -2.95125 44.5329 0.968611L45.2005 3.91986C60.935 0.317824 75.8652 8.06673 87.4878 18.9031L89.521 16.648ZM132.916 37.2008C124.009 28.3471 114.526 26.4401 106.272 27.7568C99.2138 29.0068 92.6808 32.3019 87.4878 37.2311L89.5968 39.3499C94.3632 34.8581 100.345 31.8589 106.803 30.7232C114.116 29.5578 122.628 31.1924 130.822 39.3348L132.916 37.2008ZM89.0809 122.363C110.763 113.948 127.287 98.3748 135.617 82.09C143.947 65.8052 144.28 48.5366 132.961 37.2462L130.822 39.3499C140.821 49.3236 140.912 65.0787 132.916 80.6673C124.92 96.256 109.064 111.391 88.0037 119.563L89.0809 122.363ZM49.191 94.8939C59.7083 107.046 73.0277 116.467 88.0037 122.348L89.0961 119.563C74.6231 113.845 61.7537 104.716 51.5884 92.9566L49.191 94.8939ZM36.6733 70.6785C38.8339 79.6366 43.1278 87.943 49.191 94.8939L51.5884 92.9566C45.8385 86.3981 41.7581 78.5538 39.6927 70.0883L36.6733 70.6785ZM40.9673 40.3639C37.8046 44.688 35.9463 49.8235 35.6112 55.1656C35.1582 60.381 35.5216 65.6351 36.6885 70.7391L39.6472 70.0883C38.5548 65.2912 38.217 60.3538 38.6458 55.4531C38.9191 50.6918 40.551 46.1076 43.3494 42.2406L40.9673 40.3639ZM60.3736 27.0606C52.347 28.8919 45.8226 34.189 40.9673 40.3791L43.3494 42.2406C47.9013 36.3987 53.9706 31.6464 61.0412 30.0119L60.3736 27.0606ZM89.521 37.2159C81.9344 30.0724 71.4954 24.4878 60.2977 27.0606L60.9653 30.0119C70.7367 27.772 80.1137 32.5696 87.4423 39.4256L89.521 37.2159Z" fill="#433939"/>
<path d="M31.046 84.4502L28.7995 88.8909L32.4441 86.8147C32.681 86.6798 32.8866 86.6291 33.061 86.6627C33.2397 86.6974 33.3785 86.801 33.4773 86.9735C33.5793 87.1517 33.5998 87.3263 33.539 87.4975C33.4809 87.6672 33.3334 87.8194 33.0966 87.9544L28.2775 90.6995C27.7397 91.0058 27.3434 90.9364 27.0884 90.4911C27.0247 90.3798 26.984 90.2701 26.9665 90.162C26.9462 90.0555 26.9485 89.9434 26.9736 89.8258C26.9986 89.7082 27.038 89.5898 27.0917 89.4706C27.1482 89.3499 27.2061 89.2283 27.2654 89.106L29.5035 84.7476L25.9133 86.7927C25.6792 86.9261 25.4712 86.9726 25.2892 86.9323C25.1073 86.892 24.9677 86.787 24.8705 86.6173C24.7701 86.4419 24.7496 86.2673 24.8088 86.0933C24.8709 85.9177 25.0176 85.764 25.2488 85.6323L29.976 82.9395C30.1766 82.8252 30.3468 82.7578 30.4865 82.7372C30.6422 82.7187 30.7941 82.7484 30.9422 82.8264C31.0931 82.9029 31.2092 83.012 31.2905 83.154C31.3542 83.2653 31.3903 83.3702 31.3987 83.4688C31.4086 83.5701 31.3997 83.6675 31.3719 83.7608C31.3456 83.857 31.3013 83.9634 31.2388 84.0802C31.1779 84.1998 31.1136 84.3231 31.046 84.4502Z" fill="#433939"/>
<path d="M34.2408 99.0308L34.7316 98.2172L32.9514 95.9545L32.0272 96.2486C31.6666 96.3632 31.408 96.4225 31.2513 96.4265C31.0972 96.4285 30.9545 96.346 30.823 96.179C30.7115 96.0373 30.6649 95.8713 30.6833 95.6811C30.7016 95.4909 30.7767 95.3441 30.9086 95.2409C30.9847 95.1814 31.0732 95.1325 31.1743 95.0943C31.2753 95.056 31.421 95.0095 31.6114 94.9545L36.3526 93.5435C36.4885 93.5026 36.6506 93.4534 36.8389 93.3959C37.0318 93.339 37.2013 93.3045 37.3474 93.2923C37.4956 93.2827 37.6396 93.3069 37.7796 93.365C37.9241 93.4237 38.0571 93.5302 38.1785 93.6846C38.302 93.8415 38.3741 93.9957 38.3949 94.1471C38.4202 94.299 38.4109 94.4434 38.3668 94.5801C38.3248 94.7193 38.2661 94.8531 38.191 94.9815C38.1203 95.1105 38.0218 95.2796 37.8956 95.4888L35.4413 99.7597C35.257 100.088 35.1027 100.301 34.9785 100.398C34.8492 100.499 34.6872 100.538 34.4925 100.515C34.3024 100.492 34.1476 100.404 34.0281 100.252C33.9584 100.164 33.9151 100.075 33.8983 99.986C33.879 99.8989 33.879 99.813 33.8984 99.7283C33.9203 99.6416 33.9672 99.5293 34.0389 99.3913C34.1152 99.2539 34.1825 99.1337 34.2408 99.0308ZM34.0326 95.5866L35.3409 97.2494L36.982 94.609L34.0326 95.5866Z" fill="#433939"/>
<path d="M44.7226 103.197L43.6403 102.075L39.9451 105.623C39.7323 105.828 39.5282 105.933 39.3328 105.938C39.1398 105.941 38.9708 105.868 38.8261 105.718C38.6791 105.565 38.6109 105.391 38.6215 105.194C38.6343 104.999 38.7459 104.801 38.9564 104.599L42.6515 101.051L41.5692 99.9293C41.4 99.7539 41.3123 99.5869 41.3063 99.4282C41.3025 99.2673 41.3643 99.1258 41.4915 99.0036C41.6233 98.877 41.7697 98.8209 41.9307 98.8353C42.0939 98.852 42.2567 98.9446 42.4193 99.113L45.5726 102.38C45.7441 102.558 45.8317 102.727 45.8355 102.888C45.8414 103.051 45.7808 103.194 45.6536 103.316C45.5264 103.438 45.3811 103.493 45.2179 103.481C45.0569 103.467 44.8918 103.372 44.7226 103.197Z" fill="#433939"/>
<path d="M46.4423 109.007L48.6484 106.432C48.8361 106.213 49.0258 106.09 49.2173 106.064C49.4112 106.039 49.5887 106.096 49.7498 106.233C49.9182 106.377 50.0043 106.545 50.0081 106.737C50.0142 106.932 49.9235 107.139 49.7357 107.359L47.4796 109.993C47.223 110.292 47.0411 110.571 46.9338 110.829C46.8311 111.087 46.8172 111.345 46.8921 111.603C46.969 111.858 47.1613 112.117 47.4688 112.379C47.8935 112.741 48.2897 112.884 48.6573 112.81C49.0271 112.733 49.408 112.466 49.8002 112.008L52.0751 109.352C52.265 109.131 52.4546 109.008 52.644 108.984C52.8355 108.957 53.013 109.014 53.1766 109.153C53.3401 109.293 53.4249 109.46 53.4311 109.655C53.4419 109.849 53.3523 110.057 53.1625 110.279L50.9564 112.854C50.5976 113.273 50.2567 113.587 49.9338 113.797C49.6134 114.008 49.2489 114.123 48.8405 114.142C48.4908 114.155 48.1512 114.094 47.8215 113.956C47.4919 113.818 47.1538 113.602 46.8072 113.306C46.3947 112.955 46.0772 112.608 45.8545 112.267C45.6339 111.923 45.5089 111.578 45.4795 111.233C45.4522 110.885 45.5188 110.529 45.6792 110.165C45.8416 109.797 46.096 109.412 46.4423 109.007Z" fill="#433939"/>
<path d="M57.0627 117.349L56.6521 117.059L55.3359 118.916C55.1626 119.16 54.981 119.302 54.7912 119.341C54.6013 119.381 54.4195 119.339 54.2458 119.217C54.0589 119.085 53.957 118.922 53.9401 118.729C53.9232 118.536 53.9976 118.322 54.1634 118.088L57.3157 113.643C57.4946 113.391 57.6807 113.248 57.8739 113.215C58.0672 113.182 58.2902 113.254 58.5428 113.433L60.4496 114.778C60.7127 114.964 60.9294 115.134 61.0995 115.29C61.2714 115.442 61.4082 115.606 61.5098 115.78C61.6373 115.984 61.7205 116.207 61.7594 116.447C61.7983 116.687 61.7862 116.927 61.7231 117.166C61.6645 117.405 61.5607 117.629 61.4117 117.839C61.1061 118.27 60.7397 118.528 60.3123 118.613C59.8876 118.7 59.3897 118.622 58.8185 118.381C58.9482 118.638 59.0314 118.941 59.0681 119.29C59.1048 119.639 59.1102 119.988 59.0843 120.336C59.063 120.684 59.0232 120.985 58.965 121.24C58.9114 121.493 58.8585 121.657 58.8063 121.731C58.7523 121.807 58.6733 121.865 58.5692 121.906C58.4697 121.946 58.3629 121.958 58.2489 121.94C58.133 121.926 58.0198 121.879 57.9092 121.801C57.7776 121.709 57.6895 121.599 57.6447 121.473C57.5981 121.349 57.5754 121.217 57.5767 121.076C57.5806 120.937 57.5925 120.736 57.6124 120.474L57.6959 119.363C57.7306 118.957 57.7339 118.633 57.7058 118.388C57.6804 118.146 57.6189 117.948 57.5212 117.797C57.4234 117.645 57.2706 117.496 57.0627 117.349ZM59.4553 115.395L58.3736 114.632L57.2474 116.22L58.2975 116.961C58.5791 117.16 58.8327 117.303 59.0584 117.391C59.2859 117.477 59.4906 117.497 59.6726 117.452C59.8591 117.406 60.025 117.281 60.1703 117.076C60.284 116.916 60.3428 116.746 60.347 116.568C60.3529 116.387 60.305 116.215 60.2031 116.053C60.1072 115.898 59.858 115.679 59.4553 115.395Z" fill="#433939"/>
<path d="M67.3106 126.716L67.4642 125.787L64.9971 124.356L64.2544 124.966C63.9645 125.203 63.7483 125.352 63.6056 125.413C63.4645 125.472 63.3029 125.448 63.1208 125.342C62.9662 125.253 62.8626 125.117 62.8098 124.935C62.757 124.754 62.7723 124.591 62.8559 124.448C62.9041 124.365 62.9677 124.288 63.0467 124.215C63.1257 124.143 63.2427 124.047 63.3977 123.927L67.244 120.891C67.354 120.804 67.4851 120.699 67.6374 120.577C67.7941 120.454 67.9374 120.36 68.0674 120.296C68.2002 120.232 68.3417 120.202 68.4918 120.204C68.6462 120.205 68.8076 120.255 68.9759 120.352C69.147 120.452 69.2699 120.567 69.3445 120.699C69.4234 120.829 69.4677 120.966 69.4772 121.108C69.4895 121.251 69.4846 121.396 69.4625 121.542C69.4447 121.686 69.416 121.878 69.3764 122.117L68.6823 126.947C68.633 127.317 68.569 127.569 68.4903 127.704C68.4083 127.845 68.2735 127.94 68.0858 127.989C67.9024 128.038 67.7279 128.014 67.5623 127.918C67.4658 127.862 67.3934 127.796 67.3453 127.72C67.2956 127.647 67.2641 127.568 67.251 127.483C67.2394 127.395 67.2413 127.275 67.2568 127.122C67.2767 126.967 67.2946 126.832 67.3106 126.716ZM65.8574 123.622L67.6704 124.673L68.2135 121.641L65.8574 123.622Z" fill="#433939"/>
<path d="M76.9451 125.54L74.71 130.16L77.3192 131.416C77.5272 131.516 77.6617 131.643 77.7226 131.797C77.7864 131.953 77.7813 132.107 77.7073 132.26C77.6319 132.416 77.5155 132.516 77.3583 132.561C77.2024 132.604 77.019 132.574 76.808 132.473L73.7004 130.977C73.4201 130.842 73.2479 130.683 73.1837 130.499C73.1224 130.316 73.1588 130.086 73.2928 129.809L75.6579 124.921C75.7836 124.661 75.9356 124.494 76.114 124.419C76.2954 124.347 76.4814 124.356 76.6721 124.448C76.8657 124.541 76.9903 124.681 77.0459 124.868C77.1058 125.053 77.0722 125.277 76.9451 125.54Z" fill="#433939"/>
<path d="M93.586 133.663L91.0035 128.744C90.8693 128.488 90.827 128.266 90.8764 128.078C90.9259 127.889 91.043 127.746 91.2278 127.65C91.4182 127.55 91.6052 127.534 91.7888 127.601C91.9738 127.664 92.1341 127.824 92.2698 128.082L94.8523 133.001C94.9879 133.26 95.0296 133.484 94.9773 133.674C94.9279 133.863 94.8079 134.007 94.6175 134.106C94.4356 134.201 94.2514 134.216 94.0649 134.151C93.8798 134.081 93.7202 133.918 93.586 133.663Z" fill="#433939"/>
<path d="M97.7648 125.005L102.298 127.083L100.078 123.524C99.9338 123.293 99.8751 123.09 99.9019 122.915C99.9298 122.735 100.028 122.593 100.197 122.488C100.371 122.38 100.546 122.353 100.719 122.407C100.891 122.459 101.05 122.6 101.194 122.832L104.129 127.537C104.457 128.063 104.403 128.46 103.967 128.731C103.858 128.799 103.749 128.843 103.642 128.865C103.536 128.889 103.424 128.891 103.305 128.87C103.186 128.849 103.066 128.814 102.945 128.765C102.822 128.713 102.698 128.66 102.573 128.605L98.1223 126.533L100.309 130.038C100.452 130.267 100.506 130.473 100.473 130.656C100.44 130.839 100.34 130.982 100.174 131.085C100.002 131.191 99.8281 131.218 99.6516 131.166C99.4734 131.11 99.3138 130.969 99.173 130.744L96.2936 126.128C96.1714 125.932 96.0973 125.765 96.0714 125.626C96.0467 125.471 96.0706 125.319 96.143 125.168C96.2137 125.015 96.3185 124.895 96.4574 124.809C96.5664 124.741 96.6701 124.701 96.7684 124.689C96.8695 124.676 96.9673 124.681 97.0619 124.705C97.1592 124.728 97.2675 124.768 97.3868 124.827C97.5089 124.883 97.6349 124.942 97.7648 125.005Z" fill="#433939"/>
<path d="M112.818 118.77L113.644 119.837C113.753 119.979 113.828 120.103 113.866 120.211C113.903 120.316 113.91 120.432 113.887 120.559C113.866 120.684 113.822 120.823 113.754 120.976C113.558 121.418 113.336 121.801 113.089 122.124C112.842 122.448 112.534 122.752 112.167 123.035C111.738 123.365 111.297 123.6 110.842 123.74C110.388 123.88 109.94 123.92 109.497 123.861C109.055 123.802 108.628 123.645 108.217 123.392C107.809 123.137 107.435 122.789 107.094 122.348C106.759 121.916 106.517 121.47 106.368 121.011C106.219 120.552 106.173 120.1 106.23 119.656C106.287 119.212 106.445 118.786 106.703 118.377C106.959 117.966 107.316 117.584 107.772 117.233C108.147 116.944 108.519 116.738 108.886 116.617C109.252 116.493 109.583 116.438 109.881 116.451C110.179 116.464 110.439 116.52 110.661 116.619C110.884 116.719 111.046 116.834 111.148 116.966C111.258 117.107 111.298 117.27 111.27 117.453C111.243 117.632 111.155 117.778 111.008 117.891C110.927 117.954 110.834 117.995 110.728 118.016C110.625 118.035 110.522 118.029 110.419 118C110.111 117.89 109.865 117.816 109.683 117.779C109.5 117.742 109.297 117.749 109.073 117.8C108.852 117.849 108.615 117.971 108.362 118.166C108.1 118.368 107.902 118.593 107.767 118.842C107.631 119.089 107.555 119.355 107.541 119.64C107.528 119.921 107.578 120.216 107.692 120.525C107.808 120.831 107.982 121.135 108.215 121.436C108.721 122.089 109.259 122.476 109.831 122.598C110.405 122.717 110.961 122.57 111.498 122.156C111.76 121.955 111.978 121.732 112.153 121.488C112.331 121.242 112.489 120.965 112.627 120.657L111.927 119.753L111.052 120.427C110.842 120.589 110.658 120.68 110.5 120.701C110.344 120.72 110.208 120.653 110.09 120.501C109.994 120.377 109.959 120.241 109.985 120.091C110.014 119.94 110.105 119.805 110.26 119.686L111.542 118.698C111.699 118.577 111.843 118.489 111.974 118.433C112.104 118.376 112.24 118.371 112.38 118.416C112.523 118.46 112.669 118.578 112.818 118.77Z" fill="#433939"/>
<path d="M118.405 113.773L118.04 114.115L119.595 115.763C119.799 115.98 119.902 116.185 119.903 116.378C119.904 116.57 119.827 116.739 119.673 116.884C119.507 117.04 119.328 117.107 119.135 117.085C118.943 117.063 118.749 116.948 118.553 116.741L114.83 112.793C114.619 112.569 114.516 112.36 114.522 112.165C114.528 111.971 114.643 111.768 114.868 111.558L116.562 109.968C116.796 109.748 117.006 109.571 117.192 109.436C117.375 109.299 117.562 109.199 117.753 109.134C117.978 109.05 118.212 109.013 118.455 109.023C118.698 109.033 118.93 109.092 119.151 109.201C119.373 109.305 119.572 109.45 119.748 109.637C120.109 110.019 120.288 110.427 120.286 110.86C120.287 111.29 120.112 111.76 119.763 112.268C120.04 112.192 120.353 112.171 120.702 112.205C121.051 112.238 121.393 112.302 121.728 112.396C122.064 112.485 122.351 112.584 122.588 112.691C122.826 112.793 122.975 112.877 123.037 112.942C123.101 113.01 123.142 113.098 123.162 113.208C123.181 113.313 123.171 113.419 123.132 113.526C123.094 113.636 123.026 113.737 122.928 113.829C122.811 113.939 122.687 114.003 122.554 114.022C122.424 114.043 122.29 114.039 122.153 114.01C122.017 113.978 121.824 113.927 121.571 113.856L120.5 113.555C120.111 113.441 119.794 113.373 119.549 113.352C119.307 113.329 119.102 113.35 118.934 113.415C118.766 113.48 118.59 113.599 118.405 113.773ZM116.968 111.058L116.007 111.959L117.337 113.37L118.27 112.494C118.521 112.259 118.711 112.041 118.842 111.839C118.971 111.634 119.032 111.439 119.024 111.253C119.016 111.062 118.926 110.876 118.755 110.694C118.621 110.552 118.467 110.461 118.293 110.422C118.117 110.38 117.939 110.393 117.76 110.46C117.59 110.523 117.326 110.722 116.968 111.058Z" fill="#433939"/>
<path d="M125.804 101.939L123.68 104.357L124.983 105.497L126.939 103.271C127.083 103.107 127.227 103.018 127.372 103.004C127.517 102.985 127.649 103.029 127.77 103.134C127.891 103.24 127.955 103.366 127.962 103.513C127.967 103.658 127.896 103.814 127.75 103.98L125.795 106.206L127.305 107.526L129.502 105.025C129.65 104.857 129.801 104.765 129.955 104.75C130.108 104.731 130.25 104.778 130.381 104.892C130.506 105.002 130.571 105.135 130.574 105.292C130.577 105.443 130.505 105.604 130.357 105.772L127.794 108.689C127.589 108.922 127.389 109.045 127.194 109.058C127.002 109.069 126.789 108.973 126.558 108.77L122.567 105.281C122.412 105.146 122.307 105.014 122.25 104.883C122.191 104.751 122.183 104.618 122.224 104.484C122.265 104.345 122.352 104.199 122.485 104.048L124.974 101.214C125.125 101.043 125.274 100.951 125.424 100.936C125.573 100.917 125.709 100.962 125.832 101.069C125.957 101.179 126.022 101.31 126.025 101.462C126.028 101.609 125.954 101.768 125.804 101.939Z" fill="#433939"/>
<path d="M128.91 96.3608L129.987 94.8427C130.268 94.4478 130.545 94.135 130.818 93.9043C131.092 93.6736 131.412 93.5144 131.777 93.4267C132.715 93.1903 133.708 93.442 134.756 94.1818C135.102 94.4259 135.396 94.6789 135.639 94.9406C135.882 95.2023 136.074 95.4774 136.216 95.7656C136.354 96.0521 136.445 96.3572 136.486 96.6809C136.516 96.9333 136.507 97.1806 136.461 97.4228C136.415 97.6651 136.334 97.9041 136.218 98.14C136.103 98.3733 135.952 98.622 135.765 98.8861L134.688 100.404C134.537 100.616 134.393 100.753 134.254 100.816C134.112 100.877 133.972 100.884 133.832 100.837C133.692 100.785 133.529 100.693 133.343 100.562L129.119 97.5797C128.867 97.4022 128.725 97.2174 128.692 97.0254C128.659 96.8334 128.732 96.6119 128.91 96.3608ZM130.154 96.5616L134.064 99.322L134.69 98.4393C134.827 98.2458 134.93 98.0904 134.997 97.9732C135.065 97.8559 135.119 97.7237 135.161 97.5764C135.202 97.4291 135.216 97.2855 135.201 97.1456C135.147 96.5229 134.717 95.9267 133.91 95.357C133.342 94.9557 132.855 94.7415 132.449 94.7143C132.046 94.6846 131.717 94.7684 131.463 94.9659C131.206 95.1614 130.952 95.4371 130.699 95.7927L130.154 96.5616Z" fill="#433939"/>
<path d="M140 91.1021L135.189 88.3228C134.939 88.1784 134.785 88.0133 134.726 87.8274C134.667 87.6415 134.69 87.4584 134.795 87.2781C134.902 87.0923 135.052 86.9787 135.243 86.9372C135.433 86.8913 135.654 86.9413 135.907 87.0873L140.717 89.8666C140.97 90.0126 141.125 90.1799 141.182 90.3686C141.241 90.5545 141.217 90.7403 141.109 90.9261C141.006 91.1036 140.858 91.2145 140.665 91.2588C140.472 91.2987 140.25 91.2464 140 91.1021Z" fill="#433939"/>
<path d="M140.31 79.2213L138.968 82.146L140.543 82.8653L141.779 80.1724C141.87 79.9742 141.983 79.8477 142.117 79.7928C142.25 79.7336 142.39 79.7374 142.536 79.804C142.681 79.8706 142.779 79.9733 142.828 80.1121C142.875 80.2496 142.851 80.4189 142.759 80.62L141.523 83.3129L143.348 84.1461L144.736 81.121C144.83 80.9169 144.948 80.7859 145.091 80.7279C145.233 80.6656 145.382 80.6704 145.54 80.7423C145.692 80.8116 145.791 80.9207 145.84 81.0696C145.886 81.2142 145.863 81.3885 145.769 81.5925L144.15 85.1205C144.02 85.4032 143.863 85.5785 143.681 85.6466C143.499 85.7117 143.268 85.6803 142.988 85.5524L138.166 83.3504C137.98 83.2652 137.841 83.1682 137.749 83.0596C137.655 82.9496 137.609 82.8243 137.61 82.6837C137.609 82.5389 137.651 82.3747 137.735 82.1911L139.308 78.7637C139.403 78.5568 139.52 78.4251 139.659 78.3687C139.796 78.3079 139.939 78.3116 140.088 78.3795C140.24 78.4488 140.339 78.5557 140.385 78.7004C140.43 78.8407 140.405 79.0144 140.31 79.2213Z" fill="#433939"/>
<path d="M142.528 72.4145L147.29 70.9392L143.262 69.7675C143 69.6914 142.821 69.5791 142.724 69.4307C142.625 69.2783 142.603 69.1066 142.659 68.9158C142.717 68.7188 142.828 68.5826 142.994 68.5073C143.157 68.431 143.369 68.431 143.631 68.5071L148.956 70.0564C149.55 70.2293 149.775 70.562 149.631 71.0544C149.595 71.1775 149.545 71.283 149.479 71.3707C149.416 71.4594 149.334 71.5356 149.232 71.5994C149.129 71.6631 149.017 71.7172 148.893 71.7615C148.767 71.8049 148.639 71.8479 148.51 71.8904L143.814 73.3145L147.781 74.4687C148.04 74.5439 148.218 74.6608 148.315 74.8194C148.412 74.978 148.434 75.1511 148.379 75.3389C148.322 75.5328 148.21 75.6689 148.044 75.7474C147.874 75.8249 147.661 75.8265 147.406 75.7522L142.182 74.2324C141.96 74.168 141.794 74.0927 141.682 74.0067C141.56 73.908 141.476 73.7783 141.43 73.6178C141.38 73.4564 141.378 73.2972 141.424 73.1402C141.46 73.0171 141.511 72.9183 141.576 72.8437C141.642 72.7661 141.718 72.7049 141.805 72.6599C141.892 72.6119 142 72.5697 142.128 72.5334C142.256 72.4939 142.39 72.4543 142.528 72.4145Z" fill="#433939"/>
<path d="M145.622 59.1441L145.466 60.6947L150.563 61.2067C150.857 61.2362 151.069 61.3235 151.199 61.4688C151.326 61.6137 151.379 61.7898 151.358 61.9972C151.337 62.2078 151.248 62.3729 151.091 62.4925C150.934 62.6089 150.71 62.6525 150.42 62.6233L145.323 62.1113L145.166 63.662C145.142 63.9044 145.071 64.0794 144.954 64.1869C144.833 64.2941 144.686 64.3388 144.51 64.3212C144.328 64.3029 144.191 64.2279 144.098 64.0961C144.005 63.9611 143.97 63.7771 143.994 63.5442L144.45 59.0263C144.475 58.7807 144.547 58.6043 144.668 58.4971C144.788 58.3868 144.937 58.3404 145.112 58.358C145.288 58.3756 145.423 58.4505 145.52 58.5827C145.613 58.7145 145.647 58.9016 145.622 59.1441Z" fill="#433939"/>
<path d="M148.926 48.7566C149.348 48.7056 149.741 48.7692 150.104 48.9476C150.467 49.1228 150.769 49.4084 151.01 49.8044C151.252 50.2004 151.407 50.6857 151.477 51.2603C151.561 51.9492 151.5 52.5332 151.294 53.0123C151.145 53.3524 150.927 53.6412 150.64 53.8789C150.35 54.1137 150.057 54.249 149.762 54.2846C149.59 54.3054 149.437 54.2643 149.302 54.1614C149.164 54.0558 149.083 53.9109 149.061 53.7267C149.043 53.5775 149.075 53.4464 149.158 53.3333C149.241 53.217 149.371 53.111 149.55 53.0154C149.761 52.8996 149.935 52.7819 150.072 52.6623C150.209 52.5395 150.315 52.3785 150.39 52.1793C150.463 51.9805 150.481 51.7287 150.443 51.4239C150.393 51.0049 150.254 50.6769 150.029 50.44C149.8 50.2003 149.54 50.0981 149.248 50.1334C149.016 50.1614 148.837 50.2555 148.712 50.4157C148.583 50.573 148.494 50.769 148.445 51.0036C148.396 51.235 148.351 51.5432 148.311 51.9282C148.254 52.444 148.169 52.8811 148.055 53.2396C147.937 53.5953 147.755 53.8895 147.51 54.1221C147.261 54.3519 146.934 54.4912 146.531 54.54C146.147 54.5864 145.793 54.5229 145.469 54.3495C145.145 54.176 144.88 53.9005 144.673 53.5229C144.463 53.1456 144.325 52.6887 144.26 52.1522C144.208 51.7237 144.217 51.3473 144.287 51.0231C144.353 50.6962 144.463 50.4188 144.616 50.1909C144.765 49.9635 144.931 49.7904 145.113 49.6718C145.295 49.5531 145.478 49.4827 145.663 49.4604C145.831 49.44 145.991 49.4819 146.142 49.5861C146.289 49.6874 146.374 49.827 146.396 50.0047C146.415 50.1666 146.391 50.2953 146.322 50.3906C146.249 50.4831 146.127 50.5897 145.955 50.7104C145.707 50.8692 145.52 51.0463 145.396 51.2418C145.268 51.4376 145.228 51.7323 145.276 52.126C145.321 52.4911 145.437 52.7765 145.627 52.9823C145.812 53.1854 146.018 53.2732 146.243 53.246C146.383 53.2291 146.499 53.1764 146.591 53.0879C146.684 52.9995 146.758 52.8842 146.815 52.742C146.872 52.5998 146.913 52.458 146.937 52.3165C146.962 52.175 146.995 51.9423 147.036 51.6184C147.08 51.2137 147.139 50.8458 147.211 50.5149C147.284 50.1808 147.386 49.8931 147.517 49.6517C147.649 49.4071 147.829 49.2081 148.058 49.0548C148.284 48.8986 148.573 48.7992 148.926 48.7566Z" fill="#433939"/>
<path d="M58.2949 80.8943H112.918C112.259 84.9963 110.565 88.8638 107.996 92.1335C105.427 95.4031 102.066 97.9675 98.2303 99.5856H72.1024C72.1024 99.5856 58.6894 93.1231 58.2949 80.8943Z" fill="#ABC6C6"/>
<path d="M72.1023 99.5856L71.0857 103.46H99.5958L98.5337 99.4645L72.1023 99.5856Z" fill="#ABC6C6"/>
<path d="M85.5911 77.6101C85.5911 77.6101 67.9904 73.2968 76.4873 57.0573C76.4873 57.0573 82.2834 47.9766 85.5911 45.5853C89.1309 49.3641 92.3107 53.4631 95.0894 57.8292C98.2303 63.2323 99.3379 74.1594 85.5911 77.6101Z" fill="#77AA9A"/>
<path d="M80.1289 75.1281C80.1289 75.1281 66.3822 81.5905 63.3476 66.5921C63.3476 66.5921 62.3461 57.693 63.1958 54.3483C67.5035 54.9655 71.7447 55.9788 75.8653 57.3752C80.7359 59.1308 87.2603 65.6841 80.1289 75.1281Z" fill="#77AA9A"/>
<path d="M90.8259 75.1281C90.8259 75.1281 104.482 81.5906 107.607 66.5317C107.607 66.5317 108.594 57.6325 107.744 54.2878C103.441 54.9057 99.2051 55.919 95.0895 57.3147C90.2038 59.1308 83.6946 65.6841 90.8259 75.1281Z" fill="#77AA9A"/>
<path d="M98.3213 100.115C98.188 100.116 98.0586 100.071 97.9551 99.9869C97.8515 99.9031 97.7803 99.7862 97.7535 99.6559C97.7267 99.5257 97.7459 99.3902 97.8079 99.2725C97.87 99.1548 97.971 99.0622 98.0937 99.0105C106.105 95.5144 111.461 88.84 112.22 81.4846H58.7804C59.5391 88.8249 64.8496 95.4992 72.8913 98.9953C72.9631 99.0249 73.0281 99.0686 73.0824 99.1239C73.1368 99.1791 73.1794 99.2448 73.2078 99.3168C73.2361 99.3889 73.2496 99.4659 73.2473 99.5433C73.2451 99.6207 73.2272 99.6969 73.1948 99.7672C73.1653 99.8369 73.1219 99.8999 73.0673 99.9524C73.0127 100.005 72.948 100.046 72.8771 100.073C72.8062 100.1 72.7306 100.112 72.6548 100.109C72.579 100.106 72.5046 100.087 72.4361 100.055C63.8179 96.3014 58.1128 88.9611 57.5666 80.9398C57.5599 80.8601 57.57 80.7799 57.5961 80.7044C57.6222 80.6288 57.6638 80.5595 57.7183 80.5009C57.7733 80.4437 57.8392 80.3982 57.9122 80.367C57.9852 80.3358 58.0637 80.3195 58.1432 80.3192H112.857C112.937 80.3167 113.016 80.3316 113.09 80.363C113.163 80.3944 113.229 80.4415 113.282 80.5009C113.336 80.5595 113.378 80.6288 113.404 80.7044C113.43 80.7799 113.44 80.8601 113.434 80.9398C112.887 88.9762 107.182 96.3014 98.6248 100.07C98.5292 100.111 98.4247 100.126 98.3213 100.115V100.115Z" fill="#433939"/>
<path d="M99.6414 103.914H71.3133C71.2243 103.914 71.1362 103.896 71.0551 103.859C70.9739 103.823 70.9016 103.769 70.843 103.702C70.7916 103.631 70.7557 103.55 70.7374 103.464C70.7191 103.378 70.7189 103.289 70.7368 103.203L71.632 99.404C71.6626 99.2786 71.7346 99.1672 71.8365 99.0876C71.9383 99.0079 72.064 98.9648 72.1934 98.9651H98.7462C98.8755 98.9648 99.0012 99.0079 99.1031 99.0876C99.2049 99.1672 99.2769 99.2786 99.3076 99.404L100.142 103.203C100.164 103.289 100.166 103.378 100.148 103.465C100.129 103.552 100.091 103.633 100.036 103.702C99.9373 103.822 99.7956 103.898 99.6414 103.914V103.914ZM72.1023 102.764H98.8979L98.291 100.115H72.7244L72.1023 102.764Z" fill="#433939"/>
<path d="M85.5912 78.2005H85.4395C84.9388 78.0643 73.4376 74.553 73.4376 65.4117C73.4376 56.2705 84.7264 45.7368 85.1967 45.2827C85.3061 45.1817 85.4497 45.1255 85.5988 45.1255C85.7479 45.1255 85.8915 45.1817 86.0009 45.2827C86.4713 45.7216 97.76 56.4369 97.76 65.4117C97.76 74.3866 86.2588 78.0643 85.7581 78.2005H85.5912ZM85.5912 46.4178C83.5732 48.4156 74.5908 57.7688 74.5908 65.3209C74.5908 72.8731 84.2105 76.4903 85.5912 76.9443C86.9871 76.4903 96.6068 73.0396 96.6068 65.3209C96.6068 57.6023 87.6244 48.4307 85.5912 46.4784V46.4178Z" fill="#433939"/>
<path d="M85.5911 78.2004C85.4368 78.1965 85.2902 78.1326 85.1825 78.0223C85.0748 77.912 85.0145 77.7641 85.0145 77.6102V53.7581C85.0009 53.6737 85.0057 53.5873 85.0288 53.505C85.0519 53.4227 85.0926 53.3463 85.1481 53.2812C85.2037 53.2162 85.2727 53.1639 85.3505 53.128C85.4283 53.0922 85.513 53.0736 85.5987 53.0736C85.6844 53.0736 85.7691 53.0922 85.8469 53.128C85.9247 53.1639 85.9937 53.2162 86.0493 53.2812C86.1049 53.3463 86.1456 53.4227 86.1686 53.505C86.1917 53.5873 86.1966 53.6737 86.1829 53.7581V77.6102C86.1829 77.7667 86.1205 77.9169 86.0096 78.0275C85.8986 78.1382 85.7481 78.2004 85.5911 78.2004Z" fill="#433939"/>
<path d="M85.5002 71.4049C85.3475 71.4028 85.2012 71.3434 85.0905 71.2384L80.5386 66.6981C80.4299 66.5897 80.3689 66.4427 80.3689 66.2894C80.3689 66.1362 80.4299 65.9892 80.5386 65.8808C80.6472 65.7724 80.7946 65.7115 80.9483 65.7115C81.1019 65.7115 81.2493 65.7724 81.3579 65.8808L85.9098 70.4212C85.964 70.4747 86.0069 70.5383 86.0363 70.6084C86.0656 70.6786 86.0807 70.7538 86.0807 70.8298C86.0807 70.9058 86.0656 70.9811 86.0363 71.0512C86.0069 71.1213 85.964 71.185 85.9098 71.2384C85.8 71.3447 85.6532 71.4044 85.5002 71.4049Z" fill="#433939"/>
<path d="M85.5002 62.6269C85.3475 62.6248 85.2012 62.5653 85.0906 62.4604L82.2077 59.5848C82.0974 59.4742 82.0355 59.3246 82.0355 59.1686C82.0355 59.0126 82.0974 58.863 82.2077 58.7524C82.3196 58.6503 82.4657 58.5937 82.6173 58.5937C82.769 58.5937 82.9151 58.6503 83.027 58.7524L85.9099 61.6431C85.964 61.6966 86.007 61.7602 86.0363 61.8304C86.0657 61.9005 86.0807 61.9758 86.0807 62.0518C86.0807 62.1277 86.0657 62.203 86.0363 62.2731C86.007 62.3433 85.964 62.4069 85.9099 62.4604C85.8 62.5666 85.6532 62.6263 85.5002 62.6269Z" fill="#433939"/>
<path d="M85.6974 71.4049C85.5444 71.4044 85.3975 71.3447 85.2877 71.2384C85.2335 71.185 85.1906 71.1213 85.1613 71.0512C85.1319 70.9811 85.1168 70.9058 85.1168 70.8298C85.1168 70.7538 85.1319 70.6786 85.1613 70.6084C85.1906 70.5383 85.2335 70.4747 85.2877 70.4212L89.8396 65.8808C89.9482 65.7724 90.0956 65.7115 90.2493 65.7115C90.4029 65.7115 90.5503 65.7724 90.6589 65.8808C90.7676 65.9892 90.8286 66.1362 90.8286 66.2894C90.8286 66.4427 90.7676 66.5897 90.6589 66.6981L86.107 71.2384C85.9963 71.3434 85.85 71.4028 85.6974 71.4049V71.4049Z" fill="#433939"/>
<path d="M85.6974 62.6269C85.5444 62.6263 85.3975 62.5666 85.2877 62.4604C85.2335 62.4069 85.1906 62.3433 85.1613 62.2731C85.1319 62.203 85.1168 62.1277 85.1168 62.0518C85.1168 61.9758 85.1319 61.9005 85.1613 61.8304C85.1906 61.7602 85.2335 61.6966 85.2877 61.6431L88.1706 58.7524C88.2824 58.6503 88.4286 58.5937 88.5802 58.5937C88.7319 58.5937 88.878 58.6503 88.9899 58.7524C89.1002 58.863 89.1621 59.0126 89.1621 59.1686C89.1621 59.3246 89.1002 59.4742 88.9899 59.5848L86.107 62.4604C85.9963 62.5653 85.85 62.6248 85.6974 62.6269Z" fill="#433939"/>
<path d="M97.3805 77.0047C95.2225 76.9861 93.0814 76.6233 91.0382 75.9302C90.9665 75.9033 90.9007 75.8627 90.8448 75.8105C90.7888 75.7583 90.7437 75.6957 90.712 75.6261C90.6803 75.5565 90.6626 75.4814 90.66 75.4051C90.6574 75.3287 90.6699 75.2525 90.6968 75.181C90.7237 75.1094 90.7645 75.0439 90.8168 74.9881C90.8691 74.9322 90.9319 74.8872 91.0016 74.8556C91.0714 74.824 91.1467 74.8063 91.2233 74.8038C91.2998 74.8012 91.3761 74.8136 91.4479 74.8405C91.5389 74.8405 100.552 78.1247 104.755 72.6157C108.487 67.6213 107.243 57.0422 106.879 54.4542C102.867 55.0187 98.9511 56.1288 95.2411 57.7535C95.1023 57.8218 94.942 57.8322 94.7954 57.7825C94.6489 57.7329 94.5281 57.6272 94.4597 57.4887C94.3913 57.3502 94.3809 57.1903 94.4307 57.0441C94.4804 56.8979 94.5864 56.7775 94.7253 56.7092C98.7277 54.9496 102.964 53.7771 107.304 53.2283C107.451 53.218 107.597 53.2615 107.714 53.3507C107.831 53.4398 107.912 53.5684 107.941 53.7126C108.032 54.2574 110.232 67.1672 105.68 73.2513C104.695 74.4891 103.428 75.475 101.985 76.1277C100.542 76.7803 98.9633 77.081 97.3805 77.0047V77.0047Z" fill="#433939"/>
<path d="M97.2288 68.1056C97.1042 68.1079 96.9821 68.0708 96.8798 67.9997C96.7564 67.9064 96.6746 67.7686 96.6519 67.6158C96.6292 67.463 96.6675 67.3074 96.7585 67.1824L102.464 59.6151C102.509 59.5525 102.566 59.4996 102.632 59.4594C102.698 59.4193 102.771 59.3928 102.847 59.3815C102.924 59.3702 103.002 59.3744 103.077 59.3937C103.151 59.413 103.222 59.4472 103.283 59.4941C103.404 59.5896 103.483 59.7285 103.503 59.8811C103.522 60.0338 103.482 60.1882 103.389 60.3113L97.6992 67.8786C97.6434 67.9499 97.572 68.0074 97.4905 68.0467C97.4089 68.0861 97.3194 68.1062 97.2288 68.1056Z" fill="#433939"/>
<path d="M73.6197 77.0048C72.0295 77.1004 70.4395 76.8151 68.9824 76.1727C67.5254 75.5303 66.2436 74.5494 65.2442 73.312C60.6922 67.2581 62.8923 54.3181 62.9985 53.7732C63.0245 53.6275 63.1045 53.4968 63.2225 53.4071C63.3405 53.3174 63.4881 53.2752 63.6358 53.2889C67.9704 53.8366 72.2023 55.0092 76.1991 56.7699C76.3379 56.8361 76.4447 56.9546 76.4959 57.0994C76.5471 57.2441 76.5386 57.4032 76.4722 57.5417C76.4058 57.6802 76.287 57.7867 76.1418 57.8378C75.9967 57.8889 75.8372 57.8804 75.6984 57.8141C71.994 56.1823 68.0838 55.0621 64.0758 54.4845C63.6965 57.012 62.4523 67.5911 66.2001 72.646C70.3271 78.155 79.4158 74.9011 79.5068 74.8708C79.6497 74.8167 79.8082 74.8214 79.9476 74.8838C80.087 74.9463 80.1959 75.0613 80.2503 75.2038C80.3002 75.3505 80.2919 75.5108 80.227 75.6515C80.1621 75.7923 80.0455 75.9029 79.9013 75.9605C77.8763 76.639 75.7558 76.9916 73.6197 77.0048V77.0048Z" fill="#433939"/>
<path d="M73.7714 68.1056C73.6829 68.1062 73.5956 68.086 73.5165 68.0465C73.4374 68.007 73.3688 67.9495 73.3162 67.8786L67.6111 60.3113C67.5641 60.2501 67.5299 60.1802 67.5105 60.1056C67.4911 60.031 67.487 59.9533 67.4983 59.877C67.5096 59.8008 67.5362 59.7276 67.5764 59.6618C67.6167 59.596 67.6697 59.539 67.7325 59.494C67.7926 59.4475 67.8615 59.4136 67.9351 59.3945C68.0087 59.3753 68.0854 59.3713 68.1606 59.3826C68.2358 59.3939 68.3079 59.4204 68.3726 59.4603C68.4372 59.5003 68.4931 59.553 68.5367 59.6151L74.2417 67.1824C74.2888 67.2436 74.323 67.3135 74.3424 67.3881C74.3617 67.4627 74.3659 67.5404 74.3546 67.6167C74.3433 67.6929 74.3167 67.7661 74.2765 67.8319C74.2362 67.8977 74.1831 67.9547 74.1204 67.9997C74.0181 68.0708 73.896 68.1078 73.7714 68.1056V68.1056Z" fill="#433939"/>
<path d="M74.2418 68.817L69.0374 68.1056C68.9615 68.0963 68.8881 68.072 68.8216 68.0341C68.7551 67.9962 68.6969 67.9455 68.6503 67.885C68.6037 67.8244 68.5696 67.7551 68.5501 67.6813C68.5306 67.6075 68.5261 67.5305 68.5367 67.4549C68.5593 67.3035 68.64 67.1668 68.7617 67.0736C68.8835 66.9804 69.0367 66.938 69.1892 66.9554L74.348 67.6516C74.424 67.6609 74.4974 67.6852 74.5638 67.7231C74.6303 67.761 74.6885 67.8117 74.7351 67.8723C74.7817 67.9329 74.8158 68.0021 74.8353 68.0759C74.8548 68.1498 74.8594 68.2268 74.8487 68.3024C74.8299 68.4481 74.7573 68.5816 74.645 68.6768C74.5328 68.772 74.389 68.8219 74.2418 68.817V68.817Z" fill="#433939"/>
<path d="M96.9709 68.817C96.8322 68.7946 96.7059 68.7237 96.6148 68.6169C96.5237 68.5101 96.4736 68.3745 96.4736 68.2343C96.4736 68.0941 96.5237 67.9584 96.6148 67.8517C96.7059 67.7449 96.8322 67.674 96.9709 67.6516L102.084 66.9857C102.237 66.9656 102.392 67.007 102.514 67.1006C102.637 67.1943 102.717 67.3326 102.737 67.4851C102.757 67.6376 102.715 67.7919 102.621 67.9139C102.528 68.036 102.389 68.1158 102.236 68.1359L97.1075 68.8018L96.9709 68.817Z" fill="#433939"/>
<path d="M46.809 39.8645L56.1859 40.7574L46.809 41.6655C45.9656 41.8032 45.1868 42.2016 44.5824 42.8044C43.9781 43.4072 43.5787 44.1841 43.4406 45.0254L42.4847 54.3785L41.5895 45.0254C41.4505 44.1819 41.0489 43.4035 40.4416 42.8005C39.8343 42.1974 39.0521 41.8003 38.2059 41.6655L28.829 40.7574L38.2059 39.8645C39.0524 39.7244 39.8338 39.3237 40.4406 38.7185C41.0473 38.1132 41.4491 37.3338 41.5895 36.4895L42.4847 27.1363L43.3951 36.4895C43.5373 37.3381 43.9435 38.1207 44.5562 38.7264C45.1688 39.332 45.957 39.7302 46.809 39.8645V39.8645Z" fill="#F8CA42" stroke="#433939" stroke-width="0.307851" stroke-miterlimit="10"/>
<path d="M125.329 84.1483L130.534 84.6477L125.329 85.1472C124.859 85.2257 124.425 85.4488 124.088 85.7852C123.75 86.1216 123.527 86.5546 123.448 87.0239L122.902 92.215L122.447 87.0239C122.371 86.5559 122.15 86.1232 121.815 85.7866C121.481 85.4501 121.049 85.2265 120.58 85.1472L115.315 84.6477L120.535 84.1483C121.002 84.0721 121.434 83.8514 121.768 83.5174C122.103 83.1834 122.325 82.7529 122.401 82.2867L122.902 77.0804L123.402 82.2867C123.485 82.7606 123.715 83.1962 124.062 83.5308C124.408 83.8654 124.852 84.0816 125.329 84.1483V84.1483Z" fill="#F8CA42" stroke="#433939" stroke-width="0.307851" stroke-miterlimit="10"/>
</g>
<defs>
<clipPath id="clip0_1_2272">
<rect width="171" height="149" fill="white"/>
</clipPath>
</defs>
</svg>
