<svg width="189" height="149" viewBox="0 0 189 149" fill="none" xmlns="http://www.w3.org/2000/svg">
<g clip-path="url(#clip0_1_2270)">
<path fill-rule="evenodd" clip-rule="evenodd" d="M86.1311 19.3787C97.2946 8.43718 126.064 -6.88685 152.038 19.3787C184.396 52.1733 151.215 121.415 86.1311 147.009C64.2012 138.065 43.3009 123.68 28.0927 105.271C19.3707 94.6721 12.4726 82.3891 9.53095 68.8836C6.42752 54.8416 6.41281 35.776 15.6054 23.9252C22.783 14.6383 32.358 6.87198 43.801 4.20369C59.7446 0.491939 74.7617 8.49681 86.1311 19.3787ZM86.1311 39.5921C93.2499 32.6158 111.606 22.8519 128.167 39.5921C148.758 60.5359 127.638 104.66 86.1311 120.982C71.8501 115.248 59.1526 106.093 49.1253 94.2995C43.4252 87.6528 39.3891 79.7121 37.3588 71.1494C35.2997 62.1905 35.2997 49.982 41.1829 42.4691C45.7572 36.5064 51.8317 31.6021 59.1563 29.9027C69.3197 27.5326 78.8947 32.6307 86.1311 39.5324V39.5921Z" fill="#CFE2CD"/>
<path d="M159.392 19.2594L160.437 18.2159L159.392 19.2594ZM93.4851 19.2594L92.4849 20.3476L93.4998 21.3165L94.5147 20.3327L93.4851 19.2594ZM93.4851 146.89L92.9409 148.276L93.4851 148.5L94.0293 148.291L93.4851 146.89ZM35.4466 105.151L36.5792 104.197L35.4466 105.151ZM16.8849 68.824L18.3557 68.5109L16.8849 68.824ZM22.9594 23.8506L24.1214 24.7748L22.9594 23.8506ZM51.155 4.14403L51.4933 5.6347L51.155 4.14403ZM135.521 39.4877L136.551 38.4293L135.521 39.4877ZM93.4998 39.4877L92.4849 40.5759L93.5145 41.5448L94.5147 40.561L93.4998 39.4877ZM93.4998 120.863L92.9409 122.249L93.4851 122.473L94.0293 122.249L93.4998 120.863ZM56.4793 94.2547L57.6119 93.3007L56.4793 94.2547ZM44.7128 71.0898L46.1836 70.7618L44.7128 71.0898ZM48.5369 42.4243L49.6842 43.3485L48.5369 42.4243ZM66.4956 29.8133L66.8339 31.3039L66.4956 29.8133ZM160.437 18.1861C147.111 4.77011 132.947 1.78879 120.725 3.81609C110.12 5.69352 100.294 10.6909 92.4702 18.1861L94.5147 20.3327C101.889 13.2814 111.138 8.57111 121.122 6.78251C132.506 4.93409 145.714 7.54275 158.363 20.3177L160.437 18.1861ZM94.0293 148.291C126.887 135.367 151.759 111.412 164.32 86.4585C176.88 61.5048 177.292 35.2691 160.437 18.201L158.363 20.3028C173.924 36.0741 173.939 60.7893 161.702 85.102C149.464 109.415 125.181 132.803 92.9556 145.489L94.0293 148.291ZM34.3288 106.12C49.7136 124.739 70.8198 139.258 92.9409 148.276L94.044 145.519C72.3053 136.575 51.6109 122.398 36.5792 104.197L34.3288 106.12ZM15.4582 69.1519C18.3999 82.9406 25.4892 95.4472 34.3288 106.12L36.5792 104.197C27.9455 93.7926 21.2091 81.7182 18.3263 68.5706L15.4582 69.1519ZM21.8122 22.9413C16.9732 29.1425 14.6199 37.1772 13.855 45.3013C13.1657 53.2876 13.7066 61.3341 15.4582 69.1519L18.3999 68.496C16.7285 61.0046 16.2076 53.2966 16.8555 45.6441C17.5909 37.8032 19.7971 30.3797 24.2096 24.7748L21.8122 22.9413ZM50.8314 2.69809C38.8884 5.47073 29.1074 13.5054 21.8122 22.9562L24.1214 24.7897C31.1666 15.6669 40.418 8.16883 51.4786 5.60489L50.8314 2.69809ZM94.5 18.1712C82.9835 7.2148 67.481 -1.17764 50.8314 2.69809L51.4786 5.60489C66.7162 2.0571 81.2479 9.6744 92.4702 20.3476L94.5 18.1712ZM136.551 38.4293C127.961 29.7089 118.724 27.8158 110.738 29.1127C103.88 30.3302 97.5274 33.5651 92.4702 38.4144L94.5147 40.561C99.1351 36.1368 104.934 33.1827 111.194 32.0642C118.298 30.9164 126.549 32.5114 134.477 40.5312L136.551 38.4293ZM94.0293 122.234C115.091 113.961 131.05 98.6074 139.125 82.5828C147.199 66.5582 147.538 49.5497 136.551 38.4293L134.477 40.5312C144.169 50.3546 144.258 65.8725 136.506 81.2263C128.755 96.5801 113.385 111.442 92.9556 119.477L94.0293 122.234ZM55.3615 95.2087C65.5457 107.166 78.4413 116.44 92.9409 122.234L94.044 119.462C79.9905 113.857 67.4888 104.88 57.6119 93.3007L55.3615 95.2087ZM43.2126 71.3581C45.3091 80.1834 49.4768 88.3654 55.3615 95.2087L57.6119 93.3007C52.0447 86.8307 48.0903 79.1014 46.0807 70.7618L43.2126 71.3581ZM47.375 41.4554C44.303 45.7054 42.5008 50.7606 42.183 56.0192C41.7468 61.1603 42.094 66.3389 43.2126 71.373L46.0807 70.7171C45.029 65.9912 44.7016 61.1293 45.1099 56.3024C45.3792 51.6182 46.9609 47.1091 49.6694 43.3038L47.375 41.4554ZM66.1867 28.3971C58.4208 30.2008 52.0816 35.4182 47.375 41.5001L49.6989 43.3336C54.1113 37.5796 59.9946 32.899 66.8486 31.3039L66.1867 28.3971ZM94.5147 38.3995C87.1017 31.3039 77.0414 25.863 66.1867 28.3971L66.8339 31.3039C76.2912 29.0978 85.3956 33.8083 92.4849 40.5759L94.5147 38.3995Z" fill="#433939"/>
<path d="M37.7909 92.1005L37.074 91.006L35.4178 92.1204C35.181 92.2797 34.9645 92.3442 34.7683 92.3139C34.5721 92.2836 34.4178 92.1826 34.3054 92.0109C34.1876 91.8312 34.1526 91.6461 34.2003 91.4555C34.2506 91.2632 34.3929 91.0883 34.627 90.9307L39.1367 87.8964C39.3974 87.7209 39.6232 87.656 39.814 87.7015C40.0048 87.747 40.1863 87.9012 40.3586 88.1641L41.3628 89.6971C41.6597 90.1505 41.8536 90.5225 41.9443 90.8131C42.036 91.0993 42.0617 91.3815 42.0216 91.6597C41.9833 91.9406 41.8822 92.2018 41.7185 92.4434C41.5547 92.685 41.3332 92.8997 41.0538 93.0877C40.4579 93.4887 39.8843 93.6079 39.3332 93.4454C38.7847 93.2811 38.2707 92.8328 37.7909 92.1005ZM40.283 90.0062L39.7559 89.2015L37.968 90.4045L38.4951 91.2093C38.6796 91.4909 38.8627 91.7059 39.0442 91.8543C39.2275 92.0054 39.4181 92.0858 39.6162 92.0956C39.8142 92.1053 40.021 92.0377 40.2365 91.8927C40.4946 91.719 40.6547 91.5011 40.7168 91.239C40.7773 90.951 40.6327 90.5401 40.283 90.0062Z" fill="#433939"/>
<path d="M42.9072 102.128L43.3589 101.291L41.5099 99.0997L40.6095 99.4346C40.2581 99.5652 40.0052 99.6359 39.8507 99.6467C39.6987 99.6555 39.5544 99.579 39.4179 99.4172C39.3021 99.28 39.2494 99.1156 39.2598 98.9241C39.2702 98.7326 39.3384 98.5823 39.4644 98.473C39.5371 98.41 39.6226 98.3572 39.7208 98.3145C39.819 98.2718 39.961 98.2187 40.1467 98.1554L44.7703 96.5345C44.9027 96.4876 45.0608 96.4313 45.2444 96.3655C45.4325 96.3 45.5984 96.258 45.7422 96.2395C45.8881 96.2234 46.0313 96.2414 46.1718 96.2936C46.3168 96.3461 46.4524 96.4471 46.5785 96.5966C46.7068 96.7486 46.7842 96.9 46.8108 97.0509C46.842 97.2021 46.8386 97.3472 46.8006 97.4862C46.7647 97.6276 46.7123 97.7644 46.6432 97.8963C46.5787 98.0287 46.4883 98.2025 46.3721 98.4178L44.1218 102.806C43.9531 103.143 43.8094 103.363 43.6907 103.466C43.5671 103.573 43.4088 103.619 43.2157 103.604C43.027 103.59 42.8707 103.509 42.7466 103.362C42.6742 103.276 42.6279 103.189 42.6077 103.1C42.5851 103.014 42.5816 102.928 42.5973 102.842C42.6155 102.754 42.6572 102.639 42.7225 102.498C42.7922 102.357 42.8538 102.233 42.9072 102.128ZM42.5625 98.6838L43.9212 100.294L45.4347 97.5754L42.5625 98.6838Z" fill="#433939"/>
<path d="M50.216 106.72L49.8549 106.373L48.3087 108.029C48.1052 108.247 47.9078 108.362 47.7167 108.375C47.5255 108.387 47.3535 108.32 47.2008 108.173C47.0364 108.015 46.9595 107.839 46.9699 107.645C46.9803 107.451 47.0829 107.249 47.2777 107.041L50.9807 103.075C51.1908 102.85 51.3926 102.735 51.5862 102.729C51.7799 102.724 51.9878 102.828 52.21 103.041L53.8867 104.649C54.1182 104.871 54.3062 105.071 54.4508 105.25C54.5976 105.426 54.7086 105.608 54.7836 105.796C54.8798 106.017 54.9302 106.25 54.9346 106.494C54.9391 106.738 54.8938 106.974 54.7987 107.203C54.7082 107.432 54.5753 107.64 54.4002 107.827C54.0413 108.212 53.647 108.415 53.2173 108.439C52.7899 108.464 52.3138 108.316 51.7889 107.995C51.8799 108.269 51.9189 108.582 51.9061 108.934C51.8933 109.286 51.8499 109.633 51.776 109.975C51.7065 110.317 51.6256 110.611 51.5332 110.855C51.4453 111.1 51.3708 111.255 51.3095 111.321C51.246 111.389 51.1606 111.435 51.0531 111.461C50.9502 111.487 50.8442 111.483 50.7351 111.449C50.6238 111.418 50.5196 111.356 50.4224 111.263C50.3067 111.152 50.2357 111.031 50.2096 110.899C50.1812 110.769 50.1775 110.635 50.1984 110.495C50.2217 110.357 50.2613 110.16 50.3173 109.903L50.5541 108.81C50.6446 108.413 50.6931 108.09 50.6999 107.844C50.7089 107.599 50.6762 107.394 50.6018 107.23C50.5274 107.065 50.3988 106.895 50.216 106.72ZM52.8283 105.12L51.8771 104.208L50.5542 105.625L51.4776 106.51C51.7252 106.748 51.9532 106.926 52.1616 107.046C52.3721 107.164 52.5695 107.213 52.7537 107.194C52.9425 107.175 53.1222 107.075 53.2929 106.892C53.4264 106.749 53.5076 106.589 53.5366 106.412C53.5677 106.233 53.5447 106.056 53.4678 105.88C53.3956 105.713 53.1824 105.46 52.8283 105.12Z" fill="#433939"/>
<path d="M58.9748 117.294L59.2497 116.384L56.9993 114.608L56.1841 115.116C55.8659 115.315 55.6323 115.434 55.4831 115.476C55.3358 115.515 55.1791 115.469 55.013 115.338C54.872 115.227 54.7875 115.076 54.7593 114.886C54.7312 114.697 54.7679 114.536 54.8695 114.404C54.9282 114.327 55.0013 114.258 55.089 114.197C55.1767 114.135 55.3052 114.055 55.4745 113.956L59.6805 111.442C59.8009 111.37 59.9445 111.283 60.1112 111.182C60.2824 111.08 60.4366 111.006 60.5738 110.959C60.7135 110.914 60.8574 110.903 61.0056 110.926C61.1582 110.948 61.3113 111.02 61.4648 111.141C61.6209 111.264 61.7271 111.397 61.7834 111.539C61.8442 111.681 61.8699 111.824 61.8605 111.968C61.8537 112.114 61.8296 112.258 61.7884 112.401C61.7516 112.544 61.6979 112.732 61.6271 112.966L60.3007 117.716C60.203 118.08 60.1062 118.324 60.0105 118.449C59.9109 118.579 59.7649 118.655 59.5726 118.679C59.3849 118.703 59.2155 118.655 59.0644 118.536C58.9763 118.466 58.9135 118.39 58.876 118.307C58.8365 118.227 58.8159 118.143 58.8141 118.056C58.8143 117.966 58.8322 117.846 58.8678 117.694C58.9079 117.542 58.9436 117.409 58.9748 117.294ZM57.9474 113.99L59.6012 115.295L60.5399 112.329L57.9474 113.99Z" fill="#433939"/>
<path d="M66.2798 123.488L64.4767 122.313C64.2165 122.144 64.0669 121.964 64.028 121.775C63.9934 121.584 64.0576 121.36 64.2206 121.103L67.0559 116.633C67.2223 116.371 67.3978 116.22 67.5826 116.18C67.7717 116.138 67.9937 116.201 68.2486 116.367L70.1603 117.613C70.442 117.796 70.675 117.973 70.8593 118.142C71.0436 118.312 71.1858 118.5 71.286 118.707C71.3724 118.882 71.4281 119.069 71.4531 119.269C71.4798 119.466 71.4715 119.661 71.4284 119.855C71.387 120.046 71.3114 120.228 71.2016 120.401C70.8242 120.995 70.2529 121.239 69.4877 121.13C70.1053 121.884 70.186 122.62 69.7297 123.34C69.5188 123.672 69.2439 123.917 68.905 124.075C68.5679 124.23 68.2155 124.277 67.8478 124.217C67.62 124.176 67.3791 124.096 67.1251 123.976C66.8728 123.854 66.591 123.691 66.2798 123.488ZM67.8662 120.79L66.6226 119.98L65.5214 121.716L66.8052 122.552C67.6128 123.078 68.2027 123.048 68.5749 122.461C68.7653 122.161 68.7988 121.875 68.6753 121.604C68.5517 121.332 68.282 121.061 67.8662 120.79ZM68.1457 117.578L67.1706 119.116L68.2653 119.829C68.5631 120.023 68.8105 120.144 69.0075 120.192C69.2072 120.242 69.4006 120.215 69.5876 120.111C69.7268 120.042 69.8409 119.936 69.9301 119.796C70.1205 119.496 70.1406 119.228 69.9904 118.992C69.8419 118.754 69.5503 118.493 69.1156 118.21L68.1457 117.578Z" fill="#433939"/>
<path d="M79.9385 124.7L77.1152 123.172L76.3097 124.7L78.9094 126.107C79.1007 126.211 79.2197 126.331 79.2663 126.469C79.3172 126.606 79.3054 126.745 79.2308 126.887C79.1562 127.028 79.0487 127.119 78.9081 127.16C78.769 127.197 78.6024 127.163 78.4083 127.058L75.8086 125.651L74.8757 127.421L77.7961 129.002C77.993 129.109 78.1161 129.235 78.1654 129.382C78.2189 129.527 78.2054 129.677 78.1249 129.829C78.0473 129.977 77.9333 130.069 77.7828 130.108C77.6366 130.145 77.465 130.111 77.2681 130.004L73.8623 128.16C73.5894 128.013 73.4245 127.845 73.3677 127.658C73.3137 127.472 73.3582 127.244 73.5014 126.972L75.9669 122.294C76.0623 122.112 76.1666 121.98 76.2797 121.895C76.3944 121.808 76.5214 121.77 76.6607 121.78C76.8044 121.788 76.9649 121.841 77.1422 121.937L80.4508 123.728C80.6506 123.836 80.7744 123.961 80.8224 124.103C80.8746 124.244 80.8627 124.387 80.7866 124.531C80.7091 124.679 80.5972 124.771 80.451 124.808C80.3091 124.844 80.1383 124.808 79.9385 124.7Z" fill="#433939"/>
<path d="M86.5843 127.446L87.462 132.389L89.1209 128.522C89.2287 128.271 89.3623 128.106 89.5215 128.029C89.685 127.95 89.858 127.95 90.0405 128.031C90.2289 128.114 90.3503 128.243 90.4047 128.418C90.4603 128.59 90.4343 128.802 90.3265 129.053L88.1329 134.167C87.8881 134.737 87.5302 134.919 87.0592 134.711C86.9415 134.659 86.8431 134.595 86.7641 134.518C86.6839 134.444 86.6184 134.352 86.5677 134.241C86.5169 134.131 86.4772 134.012 86.4484 133.883C86.4208 133.751 86.3939 133.618 86.3677 133.484L85.5328 128.613L83.8985 132.422C83.792 132.67 83.6541 132.833 83.4847 132.909C83.3154 132.986 83.1409 132.984 82.9613 132.905C82.7759 132.824 82.6545 132.695 82.5971 132.518C82.5411 132.339 82.5657 132.126 82.6709 131.881L84.8226 126.865C84.9139 126.652 85.0092 126.496 85.1083 126.395C85.2213 126.287 85.3603 126.22 85.5253 126.194C85.6916 126.166 85.8499 126.184 86 126.25C86.1178 126.302 86.2096 126.366 86.2756 126.44C86.3444 126.516 86.3958 126.601 86.4298 126.693C86.4666 126.786 86.4952 126.899 86.5156 127.031C86.5389 127.165 86.5618 127.303 86.5843 127.446Z" fill="#433939"/>
<path d="M104.854 123.838L102.464 125.323L103.398 126.867L105.396 125.626C105.581 125.51 105.744 125.468 105.885 125.497C106.028 125.521 106.141 125.604 106.226 125.744C106.311 125.884 106.332 126.024 106.289 126.163C106.246 126.303 106.133 126.43 105.951 126.543L103.953 127.785L105.155 129.773C105.308 130.025 105.365 130.249 105.325 130.443C105.286 130.633 105.178 130.783 105.001 130.893C104.821 131.005 104.637 131.035 104.448 130.982C104.262 130.928 104.093 130.776 103.942 130.527L101.134 125.884C101.027 125.708 100.967 125.55 100.952 125.408C100.936 125.263 100.967 125.132 101.047 125.015C101.127 124.894 101.253 124.779 101.424 124.673L104.284 122.896C104.478 122.776 104.647 122.731 104.793 122.761C104.94 122.787 105.055 122.87 105.14 123.01C105.226 123.152 105.248 123.297 105.206 123.444C105.165 123.587 105.048 123.718 104.854 123.838Z" fill="#433939"/>
<path d="M112.298 122.308L111.898 122.609L113.235 124.438C113.411 124.679 113.488 124.895 113.466 125.088C113.444 125.281 113.349 125.441 113.179 125.568C112.997 125.705 112.813 125.751 112.626 125.707C112.439 125.663 112.261 125.526 112.092 125.296L108.891 120.915C108.709 120.667 108.633 120.445 108.662 120.251C108.691 120.057 108.828 119.868 109.074 119.683L110.932 118.288C111.189 118.095 111.416 117.942 111.616 117.829C111.813 117.713 112.009 117.634 112.204 117.591C112.436 117.533 112.671 117.523 112.909 117.561C113.147 117.599 113.369 117.685 113.575 117.82C113.781 117.949 113.96 118.118 114.111 118.325C114.421 118.75 114.55 119.178 114.497 119.611C114.446 120.042 114.219 120.491 113.814 120.96C114.096 120.916 114.407 120.931 114.747 121.005C115.087 121.079 115.417 121.182 115.736 121.315C116.057 121.443 116.327 121.575 116.549 121.709C116.771 121.839 116.908 121.941 116.961 122.013C117.016 122.088 117.047 122.181 117.053 122.293C117.06 122.4 117.037 122.505 116.986 122.608C116.936 122.714 116.857 122.807 116.749 122.888C116.621 122.984 116.491 123.034 116.358 123.038C116.227 123.043 116.096 123.024 115.964 122.979C115.834 122.932 115.649 122.858 115.409 122.758L114.389 122.332C114.019 122.174 113.714 122.069 113.475 122.02C113.239 121.969 113.035 121.966 112.862 122.012C112.689 122.057 112.501 122.156 112.298 122.308ZM111.204 119.425L110.15 120.217L111.293 121.782L112.317 121.013C112.591 120.807 112.805 120.611 112.958 120.424C113.109 120.234 113.192 120.045 113.206 119.858C113.221 119.667 113.155 119.47 113.007 119.268C112.892 119.11 112.751 119.002 112.584 118.942C112.416 118.88 112.239 118.872 112.055 118.919C111.88 118.962 111.596 119.131 111.204 119.425Z" fill="#433939"/>
<path d="M120.798 111.517L118.413 113.678L119.558 114.976L121.754 112.987C121.916 112.841 122.068 112.769 122.213 112.773C122.357 112.772 122.482 112.831 122.588 112.952C122.694 113.072 122.742 113.206 122.732 113.354C122.719 113.5 122.631 113.647 122.467 113.795L120.271 115.784L121.597 117.289L124.064 115.054C124.231 114.903 124.39 114.83 124.544 114.834C124.697 114.834 124.831 114.898 124.946 115.028C125.056 115.153 125.103 115.294 125.088 115.451C125.072 115.603 124.981 115.755 124.815 115.906L121.938 118.512C121.708 118.721 121.496 118.82 121.302 118.809C121.111 118.796 120.914 118.674 120.71 118.443L117.204 114.467C117.068 114.313 116.981 114.168 116.941 114.031C116.899 113.891 116.907 113.757 116.964 113.627C117.021 113.493 117.124 113.358 117.274 113.223L120.069 110.691C120.238 110.538 120.396 110.464 120.545 110.467C120.694 110.467 120.823 110.528 120.931 110.65C121.041 110.775 121.089 110.914 121.073 111.066C121.058 111.214 120.966 111.364 120.798 111.517Z" fill="#433939"/>
<path d="M127.786 104.454L125.613 106.818L126.869 108.004L128.87 105.827C129.017 105.667 129.162 105.582 129.306 105.572C129.449 105.558 129.579 105.606 129.695 105.716C129.812 105.826 129.871 105.955 129.874 106.103C129.875 106.248 129.801 106.403 129.651 106.565L127.651 108.742L129.106 110.115L131.353 107.67C131.505 107.505 131.657 107.418 131.809 107.408C131.962 107.394 132.101 107.446 132.226 107.564C132.347 107.678 132.407 107.814 132.406 107.971C132.405 108.124 132.328 108.283 132.177 108.448L129.556 111.299C129.346 111.528 129.145 111.645 128.951 111.652C128.761 111.657 128.553 111.553 128.33 111.343L124.485 107.712C124.336 107.572 124.235 107.435 124.183 107.302C124.129 107.168 124.124 107.033 124.169 106.9C124.214 106.761 124.304 106.618 124.441 106.47L126.987 103.7C127.14 103.532 127.291 103.444 127.439 103.434C127.587 103.42 127.72 103.468 127.839 103.58C127.96 103.695 128.02 103.828 128.018 103.981C128.017 104.129 127.939 104.287 127.786 104.454Z" fill="#433939"/>
<path d="M89.9111 73.0426V44.9584C87.6422 47.3171 85.9333 50.1685 84.9139 53.2963C83.8945 56.4241 83.5915 59.7462 84.0278 63.0104C85.1456 74.8164 89.9111 73.0426 89.9111 73.0426Z" fill="#549391"/>
<path d="M91.1907 44.9882C94.2339 48.3536 96.1714 52.5933 96.7356 57.1222C97.7652 64.9482 95.0001 72.3568 91.1907 73.0425V44.9882Z" fill="#549391"/>
<path d="M64.9365 68.1383C64.9365 68.1383 82.454 64.501 87.8666 77.917C87.8666 77.917 90.97 93.6883 73.5114 85.3703C73.5408 85.43 64.51 72.0736 64.9365 68.1383Z" fill="#549391"/>
<path d="M116.003 68.1383C116.003 68.1383 98.5448 64.501 93.0734 77.917C93.0734 77.917 89.9847 93.6883 107.443 85.3703C107.443 85.43 116.43 72.0736 116.003 68.1383Z" fill="#549391"/>
<path d="M64.2012 91.3182C64.2012 91.3182 77.718 84.4611 86.0869 92.615C86.0869 92.615 92.132 103.124 81.6745 104.302C78.5866 104.088 75.5961 103.118 72.9599 101.474C70.3237 99.8304 68.1206 97.5628 66.5398 94.8659L64.2012 91.3182Z" fill="#549391"/>
<path d="M116.915 91.3182C116.915 91.3182 103.384 84.4611 95.0294 92.615C95.0294 92.615 88.9844 103.124 99.4419 104.302C102.53 104.088 105.52 103.118 108.156 101.474C110.793 99.8304 112.996 97.5628 114.577 94.8659L116.915 91.3182Z" fill="#549391"/>
<path d="M68.2902 97.9814L69.408 99.3677C69.9898 100.076 70.6189 100.744 71.2906 101.365C73.7187 103.567 76.8577 104.791 80.1155 104.809C80.8552 104.811 81.5935 104.746 82.3218 104.615C83.3143 104.473 84.272 104.144 85.1457 103.646C86.2112 103.011 87.1015 102.113 87.7344 101.037L89.867 102.096V107.328H91.1908V102.111L93.294 101.067C93.9201 102.149 94.812 103.047 95.8827 103.676C96.751 104.174 97.7039 104.503 98.6919 104.645C99.4202 104.776 100.159 104.841 100.898 104.838C104.156 104.821 107.295 103.596 109.723 101.395C110.395 100.773 111.024 100.106 111.606 99.3975L112.738 98.0112C114.416 95.83 116.244 93.7727 118.21 91.8547L118.93 91.169L118.033 90.7516C114.739 89.261 109.032 87.1144 103.413 87.7703C106.784 86.6736 109.651 84.3819 111.488 81.3157C112 80.439 112.452 79.5275 112.841 78.5878L113.591 76.7543C114.67 73.8933 115.948 71.1137 117.415 68.4364L117.916 67.5718L116.93 67.4376C111.973 66.7519 102.737 66.3644 96.5151 71.537C94.5246 73.0254 93.0476 75.1118 92.2939 77.4996C91.8911 78.7789 91.7615 80.1303 91.9137 81.4642C92.0658 82.798 92.4963 84.0838 93.1764 85.2362L91.1908 87.2635V74.3692C94.6619 73.7432 97.5741 68.2873 98.1036 63.3532C98.205 62.612 98.2639 61.8654 98.2801 61.1172C98.2801 60.4166 98.1772 59.7905 98.1036 59.2092C97.0299 49.7882 92.3821 43.6466 90.8525 43.0951C90.6858 43.036 90.5043 43.036 90.3377 43.0951C88.8669 43.5423 84.1456 49.7136 82.9836 59.2092C82.9836 59.7905 82.8512 60.4166 82.8071 61.1769C82.763 61.9371 82.8071 62.6675 82.9248 63.4725C83.469 68.4066 86.3665 73.9071 89.8376 74.4885V87.3827L87.8961 85.266C88.5733 84.1096 89.0008 82.8208 89.1503 81.4846C89.2999 80.1484 89.1682 78.7953 88.7639 77.5145C88.0142 75.1287 86.5425 73.0426 84.5574 71.5519C78.3358 66.3346 69.1285 66.7221 64.1277 67.4078L63.157 67.542L63.6571 68.4066C65.1188 71.0869 66.3965 73.8661 67.4812 76.7245L68.2313 78.558C68.6141 79.5005 69.0665 80.4124 69.5845 81.2859C71.4155 84.3641 74.2919 86.6592 77.674 87.7405C72.0407 87.0548 66.2898 89.2312 62.9658 90.7218L62.0686 91.1392L62.804 91.8249C64.7708 93.7462 66.6039 95.8033 68.2902 97.9814V97.9814ZM84.4691 102.453C83.7374 102.86 82.9408 103.132 82.1158 103.258C80.3394 103.552 78.5206 103.437 76.7942 102.92C75.0679 102.404 73.4784 101.501 72.1437 100.277C71.5161 99.7001 70.9311 99.0773 70.3934 98.4136L69.2756 97.0422C67.9077 95.328 66.4811 93.5839 64.8632 91.9591C65.6574 91.9591 66.4516 92.0634 67.2459 92.1678C70.4568 92.6375 73.5683 93.645 76.4532 95.1491C77.0562 95.4472 77.674 95.7901 78.4241 96.2075C79.6449 96.8783 81.1745 97.6981 83.4984 98.8907L86.44 100.381C85.9775 101.24 85.31 101.968 84.4986 102.498L84.4691 102.453ZM111.782 97.1317L110.65 98.518C110.112 99.1817 109.527 99.8045 108.899 100.381C107.567 101.604 105.98 102.507 104.256 103.023C102.532 103.539 100.716 103.655 98.942 103.363C98.1118 103.239 97.31 102.966 96.574 102.558C95.716 102.064 94.9969 101.356 94.4854 100.501L97.427 99.0099C99.7509 97.8323 101.281 96.9975 102.501 96.3267C103.266 95.9093 103.884 95.5665 104.472 95.2684C107.362 93.7625 110.478 92.7549 113.694 92.287C114.474 92.1827 115.268 92.123 116.062 92.0783C114.606 93.6882 113.253 95.4025 111.782 97.1317ZM114.886 90.8262C114.444 90.8262 114.018 90.8262 113.591 90.9603C110.237 91.4271 106.985 92.4653 103.972 94.0311L101.942 95.1044C100.736 95.7752 99.2214 96.595 96.9123 97.7578C95.7356 98.354 94.7502 98.8459 93.9706 99.2484C93.6395 97.2991 94.0665 95.2955 95.162 93.6584C96.2966 91.9955 97.9247 90.7424 99.8098 90.0808C101.643 89.3412 103.602 88.9764 105.575 89.0076C108.768 89.0685 111.927 89.6836 114.915 90.8262H114.886ZM99.3538 88.7989C97.2282 89.569 95.3995 91.0047 94.1324 92.8982C93.4394 93.9009 92.9632 95.0408 92.7351 96.243C92.5069 97.4452 92.532 98.6828 92.8087 99.8745L91.1908 100.59V89.1268L94.1324 86.2796C95.1356 87.2289 96.3687 87.8923 97.7065 88.2026C98.294 88.3459 98.8966 88.416 99.5009 88.4113C99.8539 88.4113 100.222 88.4113 100.604 88.4113C100.18 88.5156 99.7627 88.645 99.3538 88.7989ZM112.459 76.2177L111.782 78.0363C111.42 78.9149 110.997 79.7667 110.517 80.5853C109.489 82.3197 108.087 83.7958 106.416 84.9032C104.745 86.0107 102.849 86.7207 100.869 86.9803C99.9459 87.1348 99.0024 87.1095 98.0889 86.9057C96.9987 86.6719 95.9859 86.1587 95.1473 85.4151C96.0739 84.5654 97.0152 83.7008 97.9271 82.8213C100.016 80.8089 101.354 79.4226 102.443 78.3493C103.104 77.6636 103.649 77.0972 104.193 76.5903C106.77 74.0469 109.754 71.9652 113.018 70.4339C113.871 70.0463 114.753 69.7035 115.636 69.3755C114.356 71.5519 113.385 73.922 112.459 76.2177ZM93.647 77.8872C94.3323 75.7469 95.6587 73.8764 97.4418 72.5357C101.501 69.1668 107.134 68.3619 111.547 68.3619C112.415 68.3619 113.224 68.3619 113.974 68.3619C113.43 68.5855 112.885 68.7942 112.371 69.0476C108.978 70.6404 105.875 72.8025 103.193 75.4425C102.648 75.9642 102.09 76.5307 101.413 77.2313C100.339 78.3344 99.0008 79.7058 97.0005 81.7033C96.1033 82.553 95.2061 83.4027 94.2942 84.2374C93.2812 82.2837 93.0494 80.0096 93.647 77.8872V77.8872ZM96.7946 59.2539C96.7946 59.8203 96.9123 60.4166 96.9564 61.0725C96.9616 61.7898 96.9223 62.5068 96.8387 63.2191C96.3975 67.3482 93.8971 72.2674 91.2349 72.9978V44.9882C94.413 49.0969 96.3446 54.0531 96.7946 59.2539V59.2539ZM84.3074 63.2191C84.2337 62.5209 84.1944 61.8194 84.1897 61.1172C84.1897 60.4514 84.2485 59.8402 84.3662 59.2837C84.8196 54.0773 86.7448 49.1138 89.9112 44.9882V73.0425C87.2637 72.2674 84.7633 67.3482 84.3074 63.2191ZM83.719 72.5357C85.5009 73.8743 86.8231 75.7462 87.499 77.8872C88.1551 80.0213 87.9488 82.3319 86.9254 84.312C86.0282 83.4772 85.1163 82.6275 84.2338 81.7778C82.16 79.7803 80.8215 78.4089 79.7478 77.3058C79.0712 76.6052 78.5123 76.0388 77.9681 75.517C75.2858 72.877 72.1829 70.7149 68.7902 69.1221C68.2607 68.8687 67.7165 68.66 67.187 68.4364C71.776 68.1532 78.8653 68.5706 83.719 72.5357ZM70.717 80.5853C70.2265 79.7702 69.7987 78.918 69.4374 78.0363C69.1874 77.44 68.952 76.8288 68.702 76.2177C67.7607 73.922 66.7899 71.5519 65.628 69.2712C66.5105 69.5991 67.393 69.942 68.2313 70.3295C71.4921 71.8668 74.4752 73.9479 77.0562 76.486C77.5857 76.9928 78.1446 77.5593 78.8065 78.245C79.8802 79.3481 81.2334 80.7344 83.3219 82.717C84.2338 83.5965 85.1604 84.461 86.087 85.3107C85.251 86.0583 84.2371 86.5721 83.1454 86.8014C82.2317 87.0034 81.2885 87.0287 80.3656 86.8759C78.3947 86.6281 76.5041 85.934 74.8339 84.845C73.1637 83.7561 71.7567 82.3002 70.717 80.5853V80.5853ZM81.6599 88.4113C83.6516 88.4177 85.571 87.6556 87.0284 86.2796L89.97 89.1268V100.605L88.2491 99.8745C88.5241 98.6974 88.5523 97.4749 88.3319 96.286C88.1115 95.0972 87.6474 93.9684 86.9695 92.9727C85.6949 91.0742 83.8552 89.638 81.7187 88.8734C81.3053 88.6973 80.883 88.5431 80.4538 88.4113C80.8555 88.4337 81.2582 88.4337 81.6599 88.4113V88.4113ZM81.2628 90.0361C83.141 90.7032 84.7628 91.9555 85.8958 93.6137C86.9914 95.2508 87.4184 97.2543 87.0872 99.2037C86.3371 98.846 85.3369 98.354 84.1456 97.713C81.8364 96.5503 80.3362 95.7305 79.1154 95.0597L77.1004 93.9864C74.0895 92.4318 70.8432 91.399 67.4959 90.9305C67.0694 90.9305 66.6281 90.8262 66.1869 90.7964C70.0846 89.4399 76.1443 87.9492 81.2628 90.0361V90.0361Z" fill="#433939"/>
<path d="M162.452 82.8362L172.747 83.8499L162.452 84.8486C161.523 85.0104 160.666 85.4599 160 86.1353C159.334 86.8107 158.89 87.6787 158.731 88.62L157.745 99.0546L156.745 88.62C156.586 87.6685 156.135 86.792 155.456 86.115C154.778 85.438 153.906 84.9949 152.965 84.8486L142.669 83.8499L152.965 82.8362C153.916 82.691 154.797 82.2406 155.477 81.5511C156.157 80.8616 156.602 79.9694 156.745 79.0052L157.745 68.5706L158.731 79.0052C158.875 79.9591 159.312 80.8427 159.98 81.5304C160.648 82.2181 161.513 82.675 162.452 82.8362V82.8362Z" fill="#F8CA42" stroke="#433939" stroke-width="0.307851" stroke-miterlimit="10"/>
<path d="M172.571 22.6283L188.971 24.2233L172.571 25.8183C171.099 26.0656 169.74 26.7734 168.685 27.8427C167.63 28.912 166.932 30.2891 166.688 31.781L165.114 48.4019L163.525 31.781C163.284 30.2882 162.586 28.91 161.53 27.8403C160.475 26.7706 159.115 26.0634 157.642 25.8183L141.198 24.2233L157.598 22.6283C159.07 22.381 160.429 21.6732 161.484 20.6039C162.539 19.5346 163.237 18.1575 163.481 16.6656L165.099 0L166.673 16.6209C166.912 18.1221 167.609 19.5095 168.667 20.5874C169.726 21.6652 171.091 22.3791 172.571 22.6283Z" fill="#F8CA42" stroke="#433939" stroke-width="0.307851" stroke-miterlimit="10"/>
<path d="M23.6507 40.9039L36.0056 42.1113L23.6507 43.3187C22.5472 43.5052 21.5287 44.0365 20.7376 44.8382C19.9465 45.64 19.4223 46.6723 19.2383 47.7907L18.0469 60.3123L16.8556 47.7907C16.6695 46.6732 16.1446 45.6421 15.3539 44.8407C14.5632 44.0392 13.5458 43.5073 12.4431 43.3187L0 42.1113L12.3696 40.9039C13.4714 40.7132 14.4876 40.1806 15.278 39.3795C16.0684 38.5785 16.5939 37.5485 16.782 36.4319L18.0175 23.8506L19.2089 36.3871C19.3883 37.517 19.9138 38.5611 20.7109 39.3717C21.508 40.1823 22.5365 40.7183 23.6507 40.9039V40.9039Z" fill="#F8CA42" stroke="#433939" stroke-width="0.307851" stroke-miterlimit="10"/>
</g>
<defs>
<clipPath id="clip0_1_2270">
<rect width="189" height="148.5" fill="white"/>
</clipPath>
</defs>
</svg>
