<svg width="154" height="148" viewBox="0 0 154 148" fill="none" xmlns="http://www.w3.org/2000/svg">
<path fill-rule="evenodd" clip-rule="evenodd" d="M74.2733 147.96C88.9325 147.96 103.263 143.623 115.451 135.499C127.64 127.375 137.14 115.827 142.75 102.317C148.359 88.8065 149.827 73.9401 146.967 59.5976C144.107 45.2551 137.048 32.0806 126.683 21.7402C116.317 11.3999 103.111 4.35798 88.7331 1.50508C74.3556 -1.34783 59.4529 0.116387 45.9095 5.71256C32.3662 11.3087 20.7905 20.7855 12.6463 32.9445C4.50211 45.1035 0.155151 59.3986 0.155151 74.0221C0.155151 93.6316 7.96401 112.438 21.8639 126.304C35.7637 140.17 54.616 147.96 74.2733 147.96V147.96ZM131.201 74.0221C131.22 85.6681 127.637 97.0366 120.942 106.577L40.0324 28.5912C48.4954 22.261 58.5576 18.4057 69.0925 17.4567C79.6274 16.5078 90.2191 18.5027 99.6819 23.2182C109.145 27.9337 117.105 35.1836 122.672 44.1563C128.238 53.1289 131.191 63.4701 131.201 74.0221V74.0221ZM74.2733 130.853C86.624 130.885 98.6472 126.892 108.514 119.481L27.562 41.467C21.5935 49.9863 18.0814 59.9753 17.4076 70.3472C16.7339 80.719 18.9244 91.0766 23.7407 100.293C28.557 109.51 35.8148 117.232 44.7245 122.62C53.6341 128.008 63.8543 130.856 74.2733 130.853V130.853Z" fill="#F8DCDB"/>
<path d="M79.9097 146.554C120.066 146.554 152.619 114.08 152.619 74.0221C152.619 33.9638 120.066 1.49005 79.9097 1.49005C39.7535 1.49005 7.20056 33.9638 7.20056 74.0221C7.20056 114.08 39.7535 146.554 79.9097 146.554Z" stroke="#433939" stroke-width="2.46281"/>
<path d="M126.621 106.577L124.662 108.601L126.973 110.879L128.918 108.236L126.621 106.577ZM45.6688 28.5912L43.9638 26.3421L41.3288 28.3241L43.7101 30.6153L45.6688 28.5912ZM120.999 113.395L123.028 115.349L118.97 111.441L120.999 113.395ZM120.787 113.606L118.758 111.652L122.816 115.559L120.787 113.606ZM114.151 119.481L115.841 121.73L118.519 119.72L116.151 117.429L114.151 119.481ZM33.1983 41.467L35.1569 39.4429L32.7756 37.1657L30.8874 39.8505L33.1983 41.467ZM134.019 74.0221C134.034 85.0854 130.629 95.8843 124.268 104.947L128.918 108.236C135.944 98.2066 139.694 86.2576 139.655 74.0221H134.019ZM79.9097 20.0026C94.2642 20.0138 108.027 25.71 118.173 35.8394C128.319 45.9689 134.019 59.7025 134.019 74.0221H139.655C139.655 58.2113 133.362 43.0475 122.159 31.8636C110.955 20.6798 95.759 14.3911 79.9097 14.3799V20.0026ZM47.3597 30.8402C56.7334 23.7811 68.1648 19.9749 79.9097 20.0026V14.3799C66.9425 14.3616 54.3228 18.5612 43.9638 26.3421L47.3597 30.8402ZM43.7101 30.6153L124.662 108.601L128.58 104.553L47.6133 26.567L43.7101 30.6153ZM118.97 111.441L118.758 111.652L122.816 115.559L123.028 115.349L118.97 111.441ZM112.446 117.204C103.076 124.26 91.6497 128.066 79.9097 128.042V133.664C92.8725 133.683 105.488 129.483 115.841 121.702L112.446 117.204ZM79.9097 128.042C72.7972 128.043 65.7541 126.648 59.1825 123.934C52.6109 121.22 46.6397 117.241 41.6098 112.225C36.5798 107.208 32.5898 101.253 29.8676 94.6977C27.1453 88.1429 25.7442 81.1172 25.7442 74.0221H20.1078C20.1078 81.8556 21.6548 89.6124 24.6603 96.8494C27.6658 104.086 32.071 110.662 37.6242 116.2C43.1775 121.739 49.7702 126.132 57.0256 129.128C64.281 132.125 72.057 133.666 79.9097 133.664V128.042ZM25.7442 74.0221C25.7286 62.9588 29.1336 52.1599 35.4951 43.0976L30.8874 39.8646C23.8548 49.8771 20.0904 61.8105 20.1078 74.0362L25.7442 74.0221ZM116.109 117.429L35.1569 39.4429L31.2397 43.4912L112.192 121.477L116.109 117.429Z" fill="#433939"/>
<path d="M60.7703 131.14L58.1524 130.073L57.4655 131.75L59.6538 132.642C59.8566 132.724 59.9884 132.832 60.049 132.964C60.1138 133.095 60.115 133.237 60.0528 133.389C59.9905 133.541 59.8903 133.641 59.7522 133.689C59.6142 133.737 59.4452 133.72 59.2453 133.639L57.057 132.747L56.1723 134.907C56.06 135.181 55.9137 135.36 55.7334 135.443C55.5574 135.524 55.3724 135.525 55.1785 135.446C54.9816 135.366 54.848 135.233 54.7776 135.048C54.7102 134.864 54.7321 134.636 54.8432 134.365L56.9094 129.321C56.9875 129.13 57.0794 128.986 57.1849 128.89C57.2917 128.791 57.4157 128.739 57.557 128.734C57.7025 128.727 57.8693 128.762 58.0572 128.839L61.1897 130.116C61.4015 130.202 61.5386 130.313 61.601 130.45C61.6675 130.585 61.6697 130.729 61.6074 130.881C61.5439 131.036 61.4404 131.14 61.2969 131.193C61.1576 131.244 60.9821 131.226 60.7703 131.14Z" fill="#433939"/>
<path d="M66.044 136.019L65.5587 135.894L64.991 138.092C64.9163 138.381 64.7975 138.578 64.6346 138.682C64.4717 138.786 64.2875 138.811 64.0822 138.759C63.8613 138.702 63.7087 138.586 63.6243 138.412C63.54 138.238 63.5335 138.012 63.6051 137.735L64.9646 132.473C65.0418 132.174 65.1645 131.976 65.3328 131.876C65.5012 131.777 65.7346 131.766 66.0333 131.842L68.2873 132.422C68.5984 132.502 68.8607 132.584 69.0744 132.669C69.2889 132.751 69.4743 132.855 69.6307 132.981C69.8221 133.127 69.9785 133.304 70.1 133.515C70.2215 133.725 70.2953 133.953 70.3215 134.199C70.3515 134.442 70.3344 134.688 70.2701 134.937C70.1384 135.447 69.8884 135.817 69.5204 136.047C69.1554 136.279 68.664 136.383 68.0462 136.36C68.2582 136.554 68.4433 136.807 68.6014 137.119C68.7595 137.432 68.8883 137.755 68.9878 138.089C69.0912 138.421 69.161 138.716 69.1972 138.974C69.2372 139.23 69.246 139.401 69.2235 139.488C69.2002 139.579 69.1474 139.661 69.065 139.736C68.9865 139.809 68.891 139.857 68.7786 139.881C68.6654 139.909 68.5435 139.906 68.4128 139.872C68.2572 139.832 68.1362 139.761 68.0497 139.659C67.9624 139.56 67.8944 139.445 67.8455 139.313C67.7998 139.182 67.7397 138.991 67.6653 138.739L67.3486 137.673C67.2371 137.283 67.1249 136.979 67.012 136.761C66.9023 136.543 66.775 136.381 66.6301 136.274C66.4852 136.167 66.2898 136.082 66.044 136.019ZM67.5798 133.349L66.3012 133.021L65.8154 134.901L67.0568 135.22C67.3896 135.305 67.6769 135.349 67.9184 135.352C68.1608 135.351 68.3588 135.298 68.5124 135.191C68.6698 135.082 68.7799 134.907 68.8426 134.664C68.8916 134.474 68.8864 134.296 68.8269 134.128C68.7682 133.957 68.6626 133.814 68.51 133.698C68.3659 133.588 68.0558 133.472 67.5798 133.349Z" fill="#433939"/>
<path d="M79.1717 135.351L75.9703 135.025L75.7939 136.748L78.7418 137.048C78.9587 137.07 79.1147 137.136 79.2099 137.246C79.3086 137.353 79.3498 137.486 79.3334 137.645C79.3171 137.805 79.2511 137.93 79.1353 138.021C79.0199 138.11 78.8522 138.142 78.632 138.12L75.6842 137.82L75.48 139.815L78.7915 140.153C79.0148 140.175 79.1769 140.245 79.2778 140.362C79.3822 140.475 79.4256 140.618 79.408 140.791C79.391 140.957 79.3197 141.086 79.1941 141.18C79.0719 141.271 78.8992 141.305 78.6759 141.282L74.8141 140.888C74.5046 140.857 74.2883 140.766 74.1652 140.614C74.0452 140.464 74.0009 140.235 74.0323 139.929L74.572 134.656C74.5929 134.451 74.6402 134.289 74.7139 134.167C74.7879 134.043 74.8916 133.958 75.0251 133.914C75.1621 133.866 75.3311 133.853 75.5321 133.873L79.2839 134.256C79.5104 134.279 79.6726 134.347 79.7707 134.46C79.8722 134.57 79.9146 134.707 79.898 134.869C79.881 135.035 79.8115 135.163 79.6894 135.254C79.5708 135.342 79.3982 135.374 79.1717 135.351Z" fill="#433939"/>
<path d="M88.4554 135.392L85.24 135.522L85.3103 137.252L88.2709 137.132C88.4888 137.123 88.6526 137.166 88.7624 137.261C88.8753 137.353 88.9349 137.479 88.9414 137.639C88.948 137.8 88.9004 137.933 88.7988 138.04C88.6971 138.143 88.5357 138.2 88.3147 138.209L85.354 138.328L85.4354 140.333L88.7613 140.198C88.9856 140.189 89.156 140.235 89.2724 140.336C89.3919 140.434 89.4552 140.57 89.4622 140.743C89.469 140.909 89.4169 141.048 89.3058 141.158C89.1978 141.265 89.0317 141.323 88.8074 141.332L84.9288 141.489C84.6179 141.502 84.3909 141.442 84.2475 141.31C84.1073 141.177 84.031 140.957 84.0185 140.65L83.8034 135.353C83.7951 135.148 83.8187 134.98 83.8744 134.85C83.9299 134.716 84.0206 134.618 84.1465 134.555C84.2754 134.489 84.4407 134.451 84.6426 134.443L88.4107 134.291C88.6382 134.282 88.8085 134.326 88.9216 134.424C89.0378 134.519 89.0992 134.648 89.1058 134.812C89.1126 134.978 89.062 135.115 88.954 135.222C88.8491 135.326 88.6829 135.382 88.4554 135.392Z" fill="#433939"/>
<path d="M53.8621 14.5278C54.0074 14.9286 54.0339 15.3263 53.9417 15.7208C53.8525 16.1142 53.6417 16.4731 53.3092 16.7975C52.9768 17.1219 52.5377 17.3826 51.9919 17.5795C51.3376 17.8156 50.7531 17.8868 50.2383 17.7931C49.8723 17.7241 49.5408 17.5762 49.2438 17.3494C48.9487 17.1185 48.7503 16.863 48.6487 16.5827C48.5897 16.42 48.5952 16.2612 48.6652 16.1065C48.7372 15.9476 48.8606 15.8366 49.0355 15.7735C49.1772 15.7224 49.3127 15.7246 49.442 15.7802C49.5743 15.8347 49.7073 15.9383 49.8411 16.0911C50.002 16.2716 50.1564 16.4152 50.3043 16.5221C50.4551 16.6278 50.6364 16.6953 50.8482 16.7245C51.0589 16.7507 51.309 16.7116 51.5984 16.6072C51.9964 16.4636 52.2857 16.2552 52.4663 15.9822C52.6488 15.705 52.6898 15.4279 52.5893 15.1506C52.5096 14.9306 52.3772 14.7773 52.1924 14.6907C52.0095 14.5999 51.7978 14.557 51.5575 14.5619C51.3202 14.5657 51.009 14.5912 50.6237 14.6382C50.1068 14.6986 49.6603 14.7131 49.2842 14.6819C48.9099 14.6465 48.5814 14.5351 48.2985 14.3475C48.0176 14.1557 47.8078 13.8685 47.669 13.4858C47.5368 13.1212 47.5188 12.7613 47.6151 12.4062C47.7114 12.0512 47.9207 11.7303 48.243 11.4436C48.5642 11.1539 48.9795 10.9172 49.4891 10.7333C49.8962 10.5864 50.266 10.5109 50.5987 10.5067C50.9332 10.4985 51.2291 10.5434 51.4863 10.6414C51.7424 10.7364 51.949 10.8595 52.1061 11.0107C52.2632 11.1619 52.3734 11.3249 52.4368 11.4997C52.4947 11.6594 52.4899 11.8247 52.4223 11.9957C52.3566 12.1625 52.2393 12.2763 52.0705 12.3373C51.9167 12.3928 51.7854 12.3975 51.6767 12.3516C51.5699 12.3015 51.4381 12.2059 51.2812 12.0649C51.0699 11.8583 50.8547 11.7161 50.6356 11.6384C50.4154 11.5577 50.1184 11.5848 49.7445 11.7197C49.3977 11.8448 49.1452 12.0229 48.9868 12.2538C48.8304 12.4806 48.791 12.701 48.8685 12.915C48.9166 13.0476 48.9943 13.149 49.1016 13.2194C49.209 13.2897 49.3385 13.3367 49.4903 13.3603C49.6421 13.3839 49.7899 13.3919 49.9337 13.3843C50.0776 13.3767 50.3124 13.3567 50.6383 13.3243C51.0438 13.2768 51.4165 13.2514 51.7563 13.2481C52.0991 13.2437 52.4033 13.2787 52.669 13.3532C52.9377 13.4267 53.1729 13.5582 53.3747 13.7478C53.5783 13.9333 53.7408 14.1933 53.8621 14.5278Z" fill="#433939"/>
<path d="M58.2961 12.3866L57.6196 9.0636C57.562 8.78079 57.5817 8.55595 57.6786 8.38907C57.7787 8.22156 57.9325 8.11679 58.1399 8.07477C58.3568 8.03083 58.5425 8.06683 58.697 8.18277C58.8546 8.29807 58.9622 8.49712 59.0198 8.77993L59.7117 12.1784C59.7903 12.5649 59.8987 12.8799 60.0366 13.1235C60.1771 13.3634 60.372 13.5333 60.6215 13.6333C60.8703 13.7301 61.1927 13.7384 61.5887 13.6582C62.1355 13.5474 62.4927 13.3245 62.6601 12.9896C62.8269 12.6515 62.8502 12.1871 62.7299 11.5963L62.0323 8.16961C61.9741 7.88366 61.9938 7.65882 62.0913 7.49509C62.1883 7.32821 62.342 7.22345 62.5526 7.18078C62.7632 7.13812 62.9473 7.17444 63.1049 7.28974C63.2651 7.40126 63.3743 7.59999 63.4325 7.88595L64.109 11.209C64.219 11.7494 64.2574 12.2112 64.2241 12.5942C64.194 12.9766 64.0606 13.3341 63.8239 13.6667C63.6198 13.9501 63.3621 14.179 63.0507 14.3534C62.7393 14.5277 62.3604 14.6601 61.9141 14.7505C61.383 14.8581 60.9142 14.8942 60.5077 14.8588C60.1006 14.8202 59.7517 14.706 59.4611 14.5162C59.1698 14.3233 58.9296 14.0513 58.7403 13.7003C58.5504 13.3461 58.4023 12.9082 58.2961 12.3866Z" fill="#433939"/>
<path d="M70.573 7.03595L70.8799 12.1592L73.7705 11.9869C74.001 11.9732 74.1804 12.0187 74.3087 12.1235C74.4403 12.2281 74.5112 12.3652 74.5213 12.5348C74.5317 12.7077 74.4793 12.8522 74.3642 12.9683C74.2489 13.0811 74.0744 13.1445 73.8407 13.1585L70.3979 13.3637C70.0874 13.3822 69.8592 13.3268 69.7133 13.1973C69.5706 13.0677 69.49 12.8492 69.4716 12.5419L69.1469 7.12097C69.1296 6.83288 69.1807 6.61299 69.3001 6.46131C69.4227 6.30944 69.5897 6.2272 69.801 6.21461C70.0154 6.20182 70.1926 6.26354 70.3325 6.39976C70.4754 6.53259 70.5555 6.74466 70.573 7.03595Z" fill="#433939"/>
<path d="M83.2772 7.47409L80.4699 7.28072L80.3453 9.08023L82.692 9.24187C82.9095 9.25686 83.0676 9.31757 83.1663 9.42402C83.2685 9.52748 83.3139 9.66079 83.3026 9.82395C83.2913 9.98711 83.2279 10.1129 83.1125 10.2014C82.9971 10.2899 82.8322 10.3267 82.6179 10.312L80.2713 10.1503L80.1108 12.4681C80.0905 12.7624 80.0081 12.9769 79.8638 13.1116C79.7229 13.2434 79.5484 13.3021 79.3405 13.2878C79.1293 13.2732 78.9616 13.1893 78.8372 13.0361C78.716 12.8831 78.6654 12.6611 78.6856 12.3699L79.0603 6.95701C79.0744 6.75227 79.1163 6.58801 79.186 6.46423C79.2558 6.33725 79.3568 6.24938 79.4887 6.20061C79.6241 6.14886 79.7925 6.12993 79.9941 6.14381L83.3533 6.37519C83.5804 6.39084 83.7448 6.4536 83.8465 6.56346C83.9516 6.67035 83.9985 6.80537 83.9872 6.96852C83.9757 7.13488 83.9104 7.26538 83.7914 7.36004C83.6757 7.45172 83.5043 7.48974 83.2772 7.47409Z" fill="#433939"/>
<path d="M91.4575 13.9098L91.2977 12.9767L88.4841 12.4266L87.9793 13.2493C87.7822 13.5702 87.626 13.7831 87.5106 13.8879C87.3959 13.9897 87.2346 14.0202 87.0269 13.9796C86.8507 13.9452 86.7076 13.8502 86.5976 13.6947C86.4876 13.5392 86.4487 13.3797 86.4809 13.2161C86.4994 13.1217 86.5343 13.0272 86.5856 12.9327C86.6368 12.8381 86.7163 12.7083 86.8239 12.5431L89.4771 8.39583C89.5528 8.27667 89.6429 8.13418 89.7474 7.96836C89.8556 7.80001 89.9608 7.66374 90.063 7.55955C90.1683 7.45598 90.2926 7.38063 90.4358 7.33348C90.5829 7.28381 90.7524 7.27774 90.9443 7.31528C91.1395 7.35344 91.2941 7.42289 91.4083 7.52364C91.5263 7.62185 91.6132 7.73687 91.669 7.86868C91.7279 8.0011 91.7709 8.1402 91.7978 8.28596C91.8285 8.4292 91.8643 8.62083 91.9054 8.86085L92.8361 13.6794C92.911 14.047 92.9333 14.3078 92.903 14.462C92.8714 14.6225 92.7747 14.7571 92.6128 14.866C92.4546 14.9723 92.2812 15.007 92.0923 14.9701C91.9822 14.9485 91.8918 14.9096 91.8211 14.8533C91.7499 14.8002 91.694 14.7353 91.6535 14.6588C91.6136 14.5791 91.5757 14.4639 91.54 14.3131C91.508 14.1598 91.4805 14.0254 91.4575 13.9098ZM89.0591 11.446L91.1268 11.8503L90.6446 8.79077L89.0591 11.446Z" fill="#433939"/>
<path d="M102.26 11.6947L100.78 11.2087L99.1751 16.0739C99.0827 16.354 98.9514 16.5422 98.7813 16.6382C98.6122 16.7312 98.4286 16.7452 98.2306 16.6802C98.0295 16.6142 97.8876 16.4917 97.8048 16.3127C97.7251 16.1346 97.7309 15.907 97.8223 15.6299L99.4267 10.7648L97.9459 10.2788C97.7143 10.2028 97.5588 10.0961 97.4792 9.95859C97.4006 9.81804 97.3889 9.66402 97.4441 9.49652C97.5014 9.32293 97.6045 9.20489 97.7534 9.14238C97.9054 9.08088 98.0926 9.08663 98.315 9.15962L102.629 10.5755C102.864 10.6525 103.021 10.7613 103.099 10.9018C103.181 11.0434 103.194 11.1979 103.139 11.3654C103.084 11.5329 102.981 11.6494 102.831 11.7149C102.682 11.7774 102.492 11.7707 102.26 11.6947Z" fill="#433939"/>
<path d="M111.647 15.6434L108.75 14.2431L107.993 15.8008L110.661 17.0902C110.857 17.1851 110.982 17.3002 111.033 17.4357C111.09 17.5697 111.083 17.7088 111.013 17.853C110.942 17.9973 110.837 18.0925 110.697 18.1388C110.559 18.1821 110.39 18.1557 110.19 18.0594L107.523 16.77L106.646 18.5743L109.643 20.0228C109.845 20.1204 109.974 20.2413 110.029 20.3853C110.088 20.5279 110.079 20.677 110.004 20.8328C109.931 20.9828 109.819 21.0803 109.669 21.1252C109.523 21.1687 109.349 21.1416 109.147 21.0439L105.652 19.3547C105.372 19.2193 105.2 19.0596 105.136 18.8756C105.075 18.693 105.112 18.4632 105.247 18.1863L107.562 13.4181C107.652 13.2335 107.752 13.0967 107.863 13.0078C107.975 12.9161 108.102 12.8722 108.243 12.8761C108.388 12.8785 108.551 12.9236 108.733 13.0115L112.128 14.6526C112.333 14.7517 112.463 14.8711 112.516 15.0108C112.574 15.1491 112.567 15.2918 112.495 15.4389C112.422 15.5889 112.313 15.6856 112.167 15.7291C112.025 15.7711 111.852 15.7425 111.647 15.6434Z" fill="#433939"/>
<path d="M27.5901 28.8864C31.8412 23.9288 36.7975 19.6192 42.301 16.0948" stroke="#433939" stroke-width="0.923554" stroke-linecap="round" stroke-linejoin="round"/>
<path d="M11.5123 72.3072C11.4869 57.5563 16.3795 43.2159 25.42 31.543" stroke="#433939" stroke-width="0.923554" stroke-linecap="round" stroke-linejoin="round"/>
<path d="M50.1919 132.849C40.4523 128.319 31.9474 121.519 25.3947 113.023C18.8419 104.527 14.4334 94.5829 12.541 84.0304" stroke="#433939" stroke-width="0.923554" stroke-linecap="round" stroke-linejoin="round"/>
<path d="M64.4802 40.9751C66.922 39.9568 69.5084 39.3259 72.1457 39.1055L69.5248 40.1317L71.3143 41.0875C71.3143 41.0875 73.8225 43.0976 73.7802 43.7302C73.738 44.3627 70.9621 46.5415 70.2716 46.8226C69.5811 47.1037 68.3975 47.7503 68.3975 47.7503L70.9339 49.9713C70.9339 49.9713 73.2589 51.7705 70.6802 52.9794C68.1016 54.1883 68.1157 55.5939 68.1157 55.5939L70.0884 57.8149C70.0884 57.8149 70.0884 60.092 69.0739 59.9515C68.0593 59.8109 65.2975 58.4052 65.2975 56.9996L63.8884 55.5939C63.8884 55.5939 62.9302 53.0778 63.4093 53.6401C63.8884 54.2023 66.7066 51.3769 66.7066 51.3769L63.2684 48.3969C63.0461 47.9536 62.9864 47.4465 63.0997 46.9639C63.2129 46.4812 63.492 46.0532 63.8884 45.7543C65.3053 44.6942 66.9346 43.9511 68.6652 43.5755L64.4802 40.9751Z" fill="#E2E3EA"/>
<path d="M92.2674 110.204C91.1722 109.938 90.1902 109.332 89.4632 108.473C88.7362 107.614 88.302 106.546 88.2233 105.425C88.1105 104.019 87.4905 103.26 86.3773 103.288C85.2642 103.316 84.7005 104.019 84.5737 105.425C84.4754 106.778 83.867 108.044 82.871 108.968C81.8751 109.892 80.5653 110.406 79.2051 110.406C77.8449 110.406 76.5351 109.892 75.5391 108.968C74.5431 108.044 73.9348 106.778 73.8364 105.425C73.8776 104.997 73.7773 104.567 73.5508 104.202C73.3244 103.836 72.9842 103.555 72.5824 103.4C71.3142 102.965 70.2996 103.808 70.1869 105.312C70.1261 106.681 69.5442 107.976 68.5597 108.932C67.5752 109.888 66.2624 110.433 64.8887 110.457C63.5149 110.451 62.1935 109.93 61.1862 108.998C60.1788 108.066 59.5591 106.791 59.4496 105.425C59.3651 104.019 59.4496 102.613 59.4496 101.208C59.4912 100.223 59.2784 99.2447 58.8318 98.366C58.3852 97.4872 57.7197 96.7377 56.8992 96.1894C53.8432 94.1427 51.188 91.5559 49.0646 88.5566C46.9761 85.3455 45.7086 81.6726 45.3728 77.8596C44.5979 72.2971 44.8654 66.6394 46.1619 61.1744C47.2473 56.6027 49.4568 52.3726 52.5908 48.8658C55.7249 45.3589 59.685 42.6858 64.1137 41.0875C64.4059 40.9301 64.7418 40.8723 65.07 40.9231C65.3982 40.9738 65.7007 41.1303 65.9314 41.3686C66.7346 42.1277 67.6364 42.7743 68.6651 43.5895L64.9733 45.4169C64.5834 45.5856 64.2066 45.7829 63.846 46.0073C63.5867 46.1673 63.3727 46.3908 63.2243 46.6565C63.0759 46.9221 62.998 47.2213 62.998 47.5254C62.998 47.8296 63.0759 48.1287 63.2243 48.3943C63.3727 48.66 63.5867 48.8835 63.846 49.0435C64.3392 49.409 64.8605 49.7182 65.3678 50.0696L66.9319 51.138C65.8751 51.8408 64.9169 52.4593 63.9869 53.1059C63.7 53.2417 63.4537 53.4501 63.2727 53.7104C63.0916 53.9707 62.9821 54.2738 62.955 54.5895C62.9279 54.9052 62.9842 55.2224 63.1183 55.5096C63.2524 55.7968 63.4595 56.044 63.7192 56.2264C64.7619 57.2947 65.8328 58.349 66.9037 59.4032C67.0574 59.6171 67.2558 59.795 67.4853 59.9247C67.7148 60.0543 67.9698 60.1326 68.2327 60.1541C68.4955 60.1756 68.7599 60.1398 69.0075 60.0491C69.2551 59.9584 69.48 59.8151 69.6665 59.6291C69.853 59.443 69.9966 59.2187 70.0875 58.9717C70.1784 58.7248 70.2143 58.461 70.1928 58.1988C70.1712 57.9366 70.0928 57.6822 69.9628 57.4532C69.8328 57.2243 69.6544 57.0263 69.4401 56.873C68.8764 56.2967 68.2564 55.7345 67.566 55.0879C68.6792 54.3569 69.6796 53.6822 70.6801 53.0356C72.4555 51.8548 72.4696 50.5476 70.6801 49.3668L68.3973 47.7925L72.371 45.8105C74.1323 44.9109 74.2873 43.5474 72.7796 42.3104L69.3837 39.5975C77.331 38.1918 84.9823 38.0512 92.5069 40.6517C99.1768 43.5061 104.438 48.8857 107.133 55.608C109.386 60.7979 110.417 66.4332 110.149 72.0823C110.152 76.1824 109.549 80.2605 108.359 84.185C106.834 88.436 104.209 92.209 100.75 95.1211C99.7386 96.021 98.6753 96.8611 97.5655 97.6372C96.9596 98.0029 96.4699 98.5323 96.1532 99.1642C95.8365 99.7961 95.7057 100.505 95.776 101.208C95.8858 102.775 95.8196 104.35 95.5787 105.902C95.3867 107.272 94.8268 108.564 93.9583 109.642C93.7845 109.915 93.5214 110.121 93.2132 110.223C92.9051 110.326 92.571 110.319 92.2674 110.204V110.204Z" fill="#E2E3EA" stroke="#433939" stroke-width="1.2314"/>
<path d="M92.2675 110.204C93.0706 110.302 93.5075 109.81 93.9302 109.262C94.9958 107.688 95.5381 105.819 95.4802 103.92C95.5377 102.984 95.5377 102.045 95.4802 101.109C95.4182 100.342 95.5776 99.5726 95.9396 98.8926C96.3017 98.2126 96.8512 97.6502 97.5234 97.2717C101.146 94.8336 104.178 91.6212 106.401 87.8678C107.837 85.2769 108.792 82.4481 109.219 79.5182C109.761 76.1828 109.973 72.8024 109.853 69.4256C109.529 61.5117 107.401 54.2023 102.173 48.0455C99.8958 45.3329 97.1103 43.0889 93.9725 41.4389C93.4594 41.2308 92.9836 40.9412 92.5634 40.5814C95.0076 41.1746 97.3297 42.1877 99.4256 43.5755C107.147 48.2704 111.375 55.3127 112.868 64.07C113.679 69.1123 113.679 74.2511 112.868 79.2933C112.388 82.4519 111.265 85.479 109.569 88.1888C107.873 90.8986 105.639 93.2337 103.005 95.0508L101.455 96.2034C100.703 96.7248 100.094 97.4242 99.6807 98.2388C99.2674 99.0533 99.0636 99.9576 99.0875 100.87C99.0875 102.374 99.0875 103.864 99.0875 105.368C99.0372 106.167 98.8088 106.944 98.4189 107.643C98.0289 108.342 97.4873 108.945 96.8336 109.409C96.18 109.872 95.4307 110.184 94.6407 110.322C93.8507 110.459 93.0399 110.419 92.2675 110.204V110.204Z" fill="#E2E3EA" stroke="#433939" stroke-width="1.2314"/>
<path d="M104.428 80.3335C104.42 83.2419 103.272 86.032 101.229 88.1068C100.485 88.9212 99.5773 89.5696 98.5646 90.0092C97.5519 90.4489 96.4574 90.6701 95.353 90.6581C94.2486 90.6462 93.1593 90.4014 92.1564 89.9399C91.1535 89.4784 90.2597 88.8106 89.5337 87.9803C87.5769 85.7768 86.4824 82.9432 86.4514 79.9995C86.4203 77.0559 87.4547 74.1998 89.3646 71.9558C90.1461 71.0075 91.1377 70.2532 92.2612 69.7523C93.3847 69.2514 94.6095 69.0176 95.839 69.0694C97.0685 69.1212 98.2692 69.4571 99.3464 70.0507C100.424 70.6443 101.348 71.4793 102.046 72.4899C103.722 74.7529 104.563 77.5234 104.428 80.3335V80.3335Z" fill="#433939"/>
<path d="M54.0106 79.1387C54.0725 76.4314 55.1366 73.8427 56.9978 71.8714C57.7462 70.9889 58.6806 70.282 59.7343 69.8011C60.788 69.3201 61.9351 69.077 63.0938 69.0891C64.2525 69.1012 65.3942 69.3682 66.4376 69.8709C67.481 70.3737 68.4004 71.1 69.1301 71.9979C70.986 74.2168 72.0025 77.015 72.0025 79.9048C72.0025 82.7946 70.986 85.5927 69.1301 87.8116C65.2833 92.0286 59.2665 91.4804 56.0537 86.6449C54.5941 84.4213 53.8787 81.7933 54.0106 79.1387V79.1387Z" fill="#433939"/>
<path d="M79.2052 88.8518C79.6724 88.8802 80.1155 89.0689 80.4593 89.386C81.0511 89.9623 81.657 90.5105 82.2065 91.1149C82.3818 91.2804 82.5214 91.4799 82.6168 91.701C82.7122 91.9221 82.7614 92.1604 82.7614 92.4011C82.7614 92.6419 82.7122 92.8801 82.6168 93.1012C82.5214 93.3224 82.3818 93.5218 82.2065 93.6873C82.0439 93.8526 81.8498 93.9839 81.6357 94.0736C81.4216 94.1632 81.1917 94.2094 80.9595 94.2094C80.7273 94.2094 80.4974 94.1632 80.2833 94.0736C80.0691 93.9839 79.8751 93.8526 79.7124 93.6873C79.2615 93.2796 79.0361 93.3078 78.5992 93.6873C78.2629 94.0172 77.809 94.2003 77.3373 94.1964C76.8656 94.1924 76.4148 94.0017 76.084 93.6662C75.7533 93.3307 75.5697 92.8778 75.5737 92.4073C75.5776 91.9367 75.7688 91.487 76.1052 91.1571C76.6688 90.5245 77.3029 89.9482 77.9088 89.3438C78.2683 89.0309 78.7281 88.8564 79.2052 88.8518V88.8518Z" fill="#433939"/>
<path d="M95.4239 72.7148C96.1728 72.7346 96.9061 72.9324 97.5629 73.2917C98.2197 73.6511 98.7811 74.1618 99.2002 74.7811C100.247 76.2753 100.808 78.054 100.808 79.8767C100.808 81.6993 100.247 83.478 99.2002 84.9722C98.7955 85.6139 98.2342 86.1428 97.5688 86.5094C96.9035 86.876 96.1558 87.0682 95.3957 87.0682C94.6356 87.0682 93.888 86.876 93.2226 86.5094C92.5572 86.1428 91.9959 85.6139 91.5912 84.9722C89.238 81.9078 89.4212 76.4679 92.493 73.8675C92.8807 73.4914 93.3395 73.1959 93.8426 72.9981C94.3457 72.8002 94.8832 72.7039 95.4239 72.7148V72.7148Z" fill="#433939"/>
<path d="M62.9019 72.7289C63.7025 72.7244 64.4908 72.925 65.1915 73.3114C65.8922 73.6978 66.4817 74.2571 66.9037 74.9358C67.9634 76.5081 68.4852 78.38 68.3913 80.2723C68.2973 82.1646 67.5926 83.9759 66.3823 85.4361C65.9894 85.9679 65.4768 86.4002 64.8857 86.6981C64.2946 86.996 63.6416 87.1512 62.9794 87.1512C62.3171 87.1512 61.6642 86.996 61.0731 86.6981C60.482 86.4002 59.9693 85.9679 59.5764 85.4361C56.5892 82.3014 57.0682 75.8916 60.4642 73.5863C61.1555 73.0326 62.0153 72.7302 62.9019 72.7289Z" fill="#433939"/>
</svg>
