<svg width="26" height="28" viewBox="0 0 26 28" fill="none" xmlns="http://www.w3.org/2000/svg">
<path d="M19.6297 2.41756H19.377V1.44323C19.377 0.649381 18.7276 0 17.9338 0C17.14 0 16.4906 0.649381 16.4906 1.44323V2.41756H8.91296V1.44323C8.91296 0.649381 8.26358 0 7.46974 0C6.67589 0 6.02651 0.649381 6.02651 1.44323L6.02626 2.41756H5.77355C2.5981 2.41756 0 5.01559 0 8.1911V21.4339C0 24.6093 2.59804 27.2074 5.77355 27.2074H19.6658C22.8413 27.2074 25.4394 24.6094 25.4394 21.4339V8.1911C25.4034 5.01566 22.8414 2.41756 19.6299 2.41756H19.6297ZM19.6297 24.3205H5.77353C4.18577 24.3205 2.88676 23.0215 2.88676 21.4337V12.1601H22.5525V21.4337C22.5165 23.0212 21.2174 24.3202 19.6297 24.3202V24.3205Z" fill="#482F28"/>
<path d="M18.7999 18.6553H6.6035C5.80966 18.6553 5.16028 19.3047 5.16028 20.0985C5.16028 20.8923 5.80966 21.5417 6.6035 21.5417H18.7638C19.5576 21.5417 20.207 20.8923 20.207 20.0985C20.2072 19.3049 19.5939 18.6553 18.8 18.6553H18.7999Z" fill="#482F28"/>
<path d="M8.66027 17.4646H16.7791C17.573 17.4646 18.2224 16.8152 18.2224 16.0214C18.2224 15.2275 17.573 14.5781 16.7791 14.5781L8.66027 14.5779C7.86642 14.5779 7.21704 15.2273 7.21704 16.0211C7.21679 16.815 7.83018 17.4646 8.66027 17.4646V17.4646Z" fill="#482F28"/>
</svg>
