<svg width="30" height="28" viewBox="0 0 30 28" fill="none" xmlns="http://www.w3.org/2000/svg">
<path d="M28.2252 25.3286H26.7797C26.4833 26.1101 25.9539 26.7838 25.2616 27.2609C24.5692 27.7379 23.7467 27.9958 22.9032 28C22.0568 28.0073 21.2291 27.7544 20.5343 27.2765C19.8393 26.7985 19.3115 26.119 19.0236 25.3318H15.0925C14.7947 26.1144 14.2632 26.7889 13.5686 27.2655C12.874 27.7423 12.0492 27.9983 11.2038 28C10.3574 28.0073 9.5297 27.7544 8.83491 27.2765C8.13991 26.7985 7.61213 26.119 7.32422 25.3318H5.61865C5.14765 25.3309 4.69627 25.1452 4.36342 24.8155C4.03058 24.4856 3.8437 24.0386 3.8437 23.5727V16.3932C4.54653 16.9681 5.43981 17.2645 6.35102 17.2253C7.26201 17.1861 8.12597 16.8138 8.77562 16.1807C10.6474 14.362 13.6864 10.8351 14.1943 6.74854H17.7535C18.2243 6.74854 18.6759 6.93279 19.0096 7.26123C19.3433 7.58988 19.532 8.03559 19.5344 8.50135V8.7048H23.8888C24.534 8.70314 25.1349 9.0297 25.4794 9.56934L29.5585 15.9262C29.8462 16.3734 29.9992 16.8921 30 17.4219V23.5726C29.9994 24.0381 29.8121 24.4842 29.4792 24.8133C29.1466 25.1426 28.6956 25.3279 28.225 25.3285L28.2252 25.3286ZM11.2041 22.3761C10.7955 22.383 10.4059 22.5466 10.1169 22.8323C9.82816 23.1182 9.66279 23.5035 9.65583 23.9078C9.65583 24.314 9.81887 24.7034 10.1093 24.9907C10.3996 25.2781 10.7934 25.4394 11.204 25.4394C11.6145 25.4394 12.0083 25.2781 12.2987 24.9907C12.5889 24.7034 12.7522 24.314 12.7522 23.9078C12.7522 23.5015 12.5889 23.1119 12.2987 22.8248C12.0083 22.5375 11.6145 22.3762 11.204 22.3762L11.2041 22.3761ZM22.9032 25.4484C23.3139 25.4415 23.706 25.2768 23.9966 24.9895C24.2871 24.702 24.4535 24.3142 24.4605 23.9078C24.4564 23.5013 24.2909 23.1125 23.9994 22.8258C23.7079 22.5393 23.3141 22.3776 22.9032 22.3761C22.4923 22.383 22.1002 22.5475 21.8097 22.835C21.519 23.1223 21.3528 23.5103 21.3459 23.9167C21.3499 24.3232 21.5155 24.712 21.807 24.9985C22.0983 25.2852 22.4921 25.4467 22.9032 25.4484V25.4484ZM26.5923 15.9895L23.7106 11.5023H23.7104C23.6456 11.3998 23.5303 11.3393 23.4081 11.3439H20.7956C20.6068 11.3439 20.4539 11.4952 20.4539 11.682V16.1691C20.4539 16.3557 20.6068 16.5072 20.7956 16.5072H26.3049C26.4287 16.5063 26.5424 16.4392 26.6021 16.3317C26.6618 16.2244 26.658 16.0934 26.5922 15.9895H26.5923Z" fill="#482F28"/>
<path d="M6.193 3.58278e-06H6.55896C8.00232 0.104544 9.35188 0.748082 10.3337 1.79995C11.3158 2.85204 11.8568 4.23383 11.8475 5.66572C11.8113 9.41696 8.66044 12.944 7.07593 14.4846V14.4844C6.83843 14.7156 6.51868 14.8452 6.18541 14.8452C5.85235 14.8452 5.53236 14.7156 5.29488 14.4844C3.7013 12.9349 0.526241 9.37209 0.526241 5.59981V5.60001C0.526241 4.11369 1.12356 2.68826 2.18645 1.63804C3.24934 0.587611 4.69059 -0.00165251 6.19302 3.48089e-06L6.193 3.58278e-06ZM6.193 7.83763C6.79373 7.83763 7.36977 7.60162 7.79457 7.18137C8.21917 6.76112 8.45793 6.19126 8.45793 5.59697C8.45793 5.00268 8.21916 4.43281 7.79457 4.01278C7.36976 3.59252 6.79373 3.35653 6.193 3.35653C5.59228 3.35653 5.01623 3.59253 4.59144 4.01278C4.16684 4.43283 3.92807 5.00268 3.92807 5.59697C3.92744 6.19168 4.16558 6.76236 4.59041 7.18324C5.01522 7.60413 5.5919 7.84056 6.19306 7.84056L6.193 7.83763Z" fill="#482F28"/>
</svg>
