<svg width="140" height="24" viewBox="0 0 140 24" fill="none" xmlns="http://www.w3.org/2000/svg">
<path d="M6.67736 20.4704C6.53205 20.5477 6.3633 20.5735 6.20158 20.5454C5.79377 20.4751 5.51955 20.0883 5.58986 19.6805L6.67736 20.4704ZM6.67736 20.4704L12 17.6719L6.67736 20.4704ZM18.1124 20.4141C18.2256 20.3318 18.3135 20.2195 18.3661 20.0899C18.4188 19.9602 18.434 19.8184 18.4102 19.6805L17.393 13.7532L21.6985 9.55553C21.841 9.41655 21.9226 9.22666 21.9252 9.02758C21.9279 8.8285 21.8514 8.63651 21.7125 8.49381C21.5977 8.37662 21.4477 8.29928 21.2836 8.27584L17.3227 20.4704C17.4464 20.5357 17.586 20.5651 17.7256 20.5551C17.8651 20.5452 17.9991 20.4963 18.1124 20.4141ZM18.1124 20.4141L18.0242 20.2927C17.9337 20.3585 17.8265 20.3975 17.7149 20.4055C17.6033 20.4134 17.4917 20.39 17.3927 20.3377L17.3925 20.3376L12.0698 17.5392L12 17.5025L11.9302 17.5392L6.60756 20.3376L6.60688 20.338C6.49165 20.3993 6.35683 20.4201 6.22728 20.3976L6.22706 20.3976C5.90052 20.3413 5.68151 20.0318 5.73768 19.706L5.7377 19.7059L6.75489 13.7786L6.76822 13.7008L6.71176 13.6458L2.40657 9.44839C2.40652 9.44835 2.40648 9.44831 2.40643 9.44826C2.31242 9.35607 2.25078 9.23614 2.2321 9.10541L2.23186 9.10375C2.18154 8.77763 2.40869 8.47336 2.73819 8.42425C2.73828 8.42424 2.73837 8.42422 2.73847 8.42421L8.68878 7.55944L8.76684 7.54809L8.80173 7.47735L11.4619 2.08438L11.462 2.08425C11.52 1.9663 11.6155 1.87081 11.7334 1.81277L11.7336 1.81269C12.0293 1.66669 12.3898 1.78808 12.5383 2.08478C12.5384 2.08489 12.5385 2.085 12.5385 2.08511L15.1983 7.47735L15.2332 7.54809L15.3113 7.55944L21.262 8.42428L21.2624 8.42433C21.3931 8.44301 21.513 8.50463 21.6052 8.59863C21.7162 8.71281 21.7773 8.86637 21.7752 9.02559C21.7731 9.18492 21.7079 9.33689 21.5938 9.44812L21.5937 9.44812L17.2883 13.6458L17.2318 13.7008L17.2451 13.7786L18.2623 19.7059L18.2624 19.7061C18.2814 19.8164 18.2692 19.9298 18.2271 20.0334C18.1851 20.1371 18.1147 20.2269 18.0242 20.2927L18.1124 20.4141Z" fill="#FFC01F" stroke="#222222" stroke-width="0.3"/>
<path d="M35.6774 20.4704C35.532 20.5477 35.3633 20.5735 35.2016 20.5454C34.7938 20.4751 34.5195 20.0883 34.5899 19.6805L35.6774 20.4704ZM35.6774 20.4704L41 17.6719L35.6774 20.4704ZM47.1124 20.4141C47.2256 20.3318 47.3135 20.2195 47.3661 20.0899C47.4188 19.9602 47.434 19.8184 47.4102 19.6805L46.393 13.7532L50.6985 9.55553C50.841 9.41655 50.9226 9.22666 50.9252 9.02758C50.9279 8.8285 50.8514 8.63651 50.7125 8.49381C50.5977 8.37662 50.4477 8.29928 50.2836 8.27584L46.3227 20.4704C46.4464 20.5357 46.586 20.5651 46.7256 20.5551C46.8651 20.5452 46.9991 20.4963 47.1124 20.4141ZM47.1124 20.4141L47.0242 20.2927C46.9337 20.3585 46.8265 20.3975 46.7149 20.4055C46.6033 20.4134 46.4917 20.39 46.3927 20.3377L46.3925 20.3376L41.0698 17.5392L41 17.5025L40.9302 17.5392L35.6076 20.3376L35.6069 20.338C35.4917 20.3993 35.3568 20.4201 35.2273 20.3976L35.2271 20.3976C34.9005 20.3413 34.6815 20.0318 34.7377 19.706L34.7377 19.7059L35.7549 13.7786L35.7682 13.7008L35.7118 13.6458L31.4066 9.44839C31.4065 9.44835 31.4065 9.44831 31.4064 9.44826C31.3124 9.35607 31.2508 9.23614 31.2321 9.10541L31.2319 9.10375C31.1815 8.77763 31.4087 8.47336 31.7382 8.42425C31.7383 8.42424 31.7384 8.42422 31.7385 8.42421L37.6888 7.55944L37.7668 7.54809L37.8017 7.47735L40.4619 2.08438L40.462 2.08425C40.52 1.9663 40.6155 1.87081 40.7334 1.81277L40.7336 1.81269C41.0293 1.66669 41.3898 1.78808 41.5383 2.08478C41.5384 2.08489 41.5385 2.085 41.5385 2.08511L44.1983 7.47735L44.2332 7.54809L44.3113 7.55944L50.262 8.42428L50.2624 8.42433C50.3931 8.44301 50.513 8.50463 50.6052 8.59863C50.7162 8.71281 50.7773 8.86637 50.7752 9.02559C50.7731 9.18492 50.7079 9.33689 50.5938 9.44812L50.5937 9.44812L46.2883 13.6458L46.2318 13.7008L46.2451 13.7786L47.2623 19.7059L47.2624 19.7061C47.2814 19.8164 47.2692 19.9298 47.2271 20.0334C47.1851 20.1371 47.1147 20.2269 47.0242 20.2927L47.1124 20.4141Z" fill="#FFC01F" stroke="#222222" stroke-width="0.3"/>
<path d="M64.6774 20.4704C64.532 20.5477 64.3633 20.5735 64.2016 20.5454C63.7938 20.4751 63.5195 20.0883 63.5899 19.6805L64.6774 20.4704ZM64.6774 20.4704L70 17.6719L64.6774 20.4704ZM76.1124 20.4141C76.2256 20.3318 76.3135 20.2195 76.3661 20.0899C76.4188 19.9602 76.434 19.8184 76.4102 19.6805L75.393 13.7532L79.6985 9.55553C79.841 9.41655 79.9226 9.22666 79.9252 9.02758C79.9279 8.8285 79.8514 8.63651 79.7125 8.49381C79.5977 8.37662 79.4477 8.29928 79.2836 8.27584L75.3227 20.4704C75.4464 20.5357 75.586 20.5651 75.7256 20.5551C75.8651 20.5452 75.9991 20.4963 76.1124 20.4141ZM76.1124 20.4141L76.0242 20.2927C75.9337 20.3585 75.8265 20.3975 75.7149 20.4055C75.6033 20.4134 75.4917 20.39 75.3927 20.3377L75.3925 20.3376L70.0698 17.5392L70 17.5025L69.9302 17.5392L64.6076 20.3376L64.6069 20.338C64.4917 20.3993 64.3568 20.4201 64.2273 20.3976L64.2271 20.3976C63.9005 20.3413 63.6815 20.0318 63.7377 19.706L63.7377 19.7059L64.7549 13.7786L64.7682 13.7008L64.7118 13.6458L60.4066 9.44839C60.4065 9.44835 60.4065 9.44831 60.4064 9.44826C60.3124 9.35607 60.2508 9.23614 60.2321 9.10541L60.2319 9.10375C60.1815 8.77763 60.4087 8.47336 60.7382 8.42425C60.7383 8.42424 60.7384 8.42422 60.7385 8.42421L66.6888 7.55944L66.7668 7.54809L66.8017 7.47735L69.4619 2.08438L69.462 2.08425C69.52 1.9663 69.6155 1.87081 69.7334 1.81277L69.7336 1.81269C70.0293 1.66669 70.3898 1.78808 70.5383 2.08478C70.5384 2.08489 70.5385 2.085 70.5385 2.08511L73.1983 7.47735L73.2332 7.54809L73.3113 7.55944L79.262 8.42428L79.2624 8.42433C79.3931 8.44301 79.513 8.50463 79.6052 8.59863C79.7162 8.71281 79.7773 8.86637 79.7752 9.02559C79.7731 9.18492 79.7079 9.33689 79.5938 9.44812L79.5937 9.44812L75.2883 13.6458L75.2318 13.7008L75.2451 13.7786L76.2623 19.7059L76.2624 19.7061C76.2814 19.8164 76.2692 19.9298 76.2271 20.0334C76.1851 20.1371 76.1147 20.2269 76.0242 20.2927L76.1124 20.4141Z" fill="#FFC01F" stroke="#222222" stroke-width="0.3"/>
<path d="M93.6774 20.4704C93.532 20.5477 93.3633 20.5735 93.2016 20.5454C92.7938 20.4751 92.5195 20.0883 92.5899 19.6805L93.6774 20.4704ZM93.6774 20.4704L99 17.6719L93.6774 20.4704ZM105.112 20.4141C105.226 20.3318 105.313 20.2195 105.366 20.0899C105.419 19.9602 105.434 19.8184 105.41 19.6805L104.393 13.7532L108.698 9.55553C108.841 9.41655 108.923 9.22666 108.925 9.02758C108.928 8.8285 108.851 8.63651 108.713 8.49381C108.598 8.37662 108.448 8.29928 108.284 8.27584L104.323 20.4704C104.446 20.5357 104.586 20.5651 104.726 20.5551C104.865 20.5452 104.999 20.4963 105.112 20.4141ZM105.112 20.4141L105.024 20.2927C104.934 20.3585 104.827 20.3975 104.715 20.4055C104.603 20.4134 104.492 20.39 104.393 20.3377L104.392 20.3376L99.0698 17.5392L99 17.5025L98.9302 17.5392L93.6076 20.3376L93.6069 20.338C93.4917 20.3993 93.3568 20.4201 93.2273 20.3976L93.2271 20.3976C92.9005 20.3413 92.6815 20.0318 92.7377 19.706L92.7377 19.7059L93.7549 13.7786L93.7682 13.7008L93.7118 13.6458L89.4066 9.44839C89.4065 9.44835 89.4065 9.44831 89.4064 9.44826C89.3124 9.35607 89.2508 9.23614 89.2321 9.10541L89.2319 9.10375C89.1815 8.77763 89.4087 8.47336 89.7382 8.42425C89.7383 8.42424 89.7384 8.42422 89.7385 8.42421L95.6888 7.55944L95.7668 7.54809L95.8017 7.47735L98.4619 2.08438L98.462 2.08425C98.52 1.9663 98.6155 1.87081 98.7334 1.81277L98.7336 1.81269C99.0293 1.66669 99.3898 1.78808 99.5383 2.08478C99.5384 2.08489 99.5385 2.085 99.5385 2.08511L102.198 7.47735L102.233 7.54809L102.311 7.55944L108.262 8.42428L108.262 8.42433C108.393 8.44301 108.513 8.50463 108.605 8.59863C108.716 8.71281 108.777 8.86637 108.775 9.02559C108.773 9.18492 108.708 9.33689 108.594 9.44812L108.594 9.44812L104.288 13.6458L104.232 13.7008L104.245 13.7786L105.262 19.7059L105.262 19.7061C105.281 19.8164 105.269 19.9298 105.227 20.0334C105.185 20.1371 105.115 20.2269 105.024 20.2927L105.112 20.4141Z" fill="#FFC01F" stroke="#222222" stroke-width="0.3"/>
<path d="M122.677 20.4704C122.532 20.5477 122.363 20.5735 122.202 20.5454C121.794 20.4751 121.52 20.0883 121.59 19.6805L122.677 20.4704ZM122.677 20.4704L128 17.6719L122.677 20.4704ZM134.112 20.4141C134.226 20.3318 134.313 20.2195 134.366 20.0899C134.419 19.9602 134.434 19.8184 134.41 19.6805L133.393 13.7532L137.698 9.55553C137.841 9.41655 137.923 9.22666 137.925 9.02758C137.928 8.8285 137.851 8.63651 137.713 8.49381C137.598 8.37662 137.448 8.29928 137.284 8.27584L133.323 20.4704C133.446 20.5357 133.586 20.5651 133.726 20.5551C133.865 20.5452 133.999 20.4963 134.112 20.4141ZM134.112 20.4141L134.024 20.2927C133.934 20.3585 133.827 20.3975 133.715 20.4055C133.603 20.4134 133.492 20.39 133.393 20.3377L133.392 20.3376L128.07 17.5392L128 17.5025L127.93 17.5392L122.608 20.3376L122.607 20.338C122.492 20.3993 122.357 20.4201 122.227 20.3976L122.227 20.3976C121.901 20.3413 121.682 20.0318 121.738 19.706L121.738 19.7059L122.755 13.7786L122.768 13.7008L122.712 13.6458L118.407 9.44839C118.407 9.44835 118.406 9.44831 118.406 9.44826C118.312 9.35607 118.251 9.23614 118.232 9.10541L118.232 9.10375C118.182 8.77763 118.409 8.47336 118.738 8.42425C118.738 8.42424 118.738 8.42422 118.738 8.42421L124.689 7.55944L124.767 7.54809L124.802 7.47735L127.462 2.08438L127.462 2.08425C127.52 1.9663 127.615 1.87081 127.733 1.81277L127.734 1.81269C128.029 1.66669 128.39 1.78808 128.538 2.08478C128.538 2.08489 128.538 2.085 128.539 2.08511L131.198 7.47735L131.233 7.54809L131.311 7.55944L137.262 8.42428L137.262 8.42433C137.393 8.44301 137.513 8.50463 137.605 8.59863C137.716 8.71281 137.777 8.86637 137.775 9.02559C137.773 9.18492 137.708 9.33689 137.594 9.44812L137.594 9.44812L133.288 13.6458L133.232 13.7008L133.245 13.7786L134.262 19.7059L134.262 19.7061C134.281 19.8164 134.269 19.9298 134.227 20.0334C134.185 20.1371 134.115 20.2269 134.024 20.2927L134.112 20.4141Z" fill="#FFC01F" stroke="#222222" stroke-width="0.3"/>
</svg>
