<svg width="22" height="34" viewBox="0 0 22 34" fill="none" xmlns="http://www.w3.org/2000/svg">
<path d="M5.54964 18.7019C5.55673 18.3673 5.83 18.0996 6.16465 18.0996C6.4993 18.0996 6.77256 18.3673 6.77966 18.7019C6.77257 19.0366 6.4993 19.3043 6.16465 19.3043C5.83 19.3043 5.55674 19.0366 5.54964 18.7019ZM12.4863 24.4017C12.1476 24.4057 11.8749 24.6812 11.8749 25.0201C11.8749 25.3588 12.1476 25.6345 12.4863 25.6382C12.8249 25.6345 13.0976 25.3588 13.0976 25.0201C13.0976 24.6812 12.8249 24.4054 12.4863 24.4017ZM6.11624 31.2828C5.26681 31.2831 3.14174 31.2825 2.26799 31.2828C1.66717 31.2825 1.09104 31.0437 0.666009 30.6187C0.241302 30.1937 0.00227399 29.6175 0.00195816 29.0167V9.94127C0.000724443 9.3568 0.226183 8.79457 0.630843 8.37293L3.61553 5.24328C4.34867 4.33526 5.85352 4.5598 6.86947 4.53851C7.40182 5.21027 7.75372 6.00697 7.8919 6.85293C4.37669 8.37129 5.46702 13.6954 9.32206 13.7066C13.2317 13.6893 14.2618 8.27014 10.6692 6.81132C10.5946 6.02821 10.3987 5.26145 10.0888 4.53851H13.3911C14.0104 4.53882 14.6026 4.79359 15.0285 5.24328L18.02 8.37293C18.4466 8.82262 18.6733 9.4256 18.6489 10.0449V29.0162C18.6471 29.6179 18.4065 30.1941 17.9805 30.6188C17.5546 31.0435 16.9775 31.2822 16.3758 31.2822L6.11624 31.2828ZM14.4826 25.0235H14.4829C14.4765 24.3132 14.0937 23.6597 13.4775 23.3065C12.8612 22.9534 12.104 22.9534 11.4878 23.3065C10.8716 23.6597 10.4892 24.3132 10.4827 25.0235C10.4892 25.7338 10.8719 26.3874 11.4878 26.7405C12.1041 27.0937 12.8615 27.0937 13.4775 26.7405C14.0937 26.3871 14.4765 25.7338 14.4829 25.0235H14.4826ZM4.16756 18.702C4.17589 19.4095 4.55834 20.06 5.17269 20.4116C5.78705 20.7632 6.54151 20.7629 7.15588 20.4116C7.77027 20.06 8.15273 19.4095 8.16102 18.702C8.15269 17.9942 7.77024 17.3437 7.15588 16.9921C6.54149 16.6408 5.78707 16.6408 5.17269 16.9924C4.55831 17.3437 4.17585 17.9942 4.16756 18.702V18.702ZM4.87911 26.9997H4.87941C5.06046 26.9988 5.23411 26.9269 5.36303 26.7995L14.2616 17.9009C14.5213 17.6286 14.5154 17.1987 14.2483 16.9334C13.9812 16.6681 13.551 16.6654 13.2805 16.9269L4.38901 25.8184C4.19562 26.0179 4.13918 26.3134 4.2459 26.5703C4.35262 26.8269 4.60151 26.996 4.87972 26.9997L4.87911 26.9997ZM21.758 13.2721L20.0307 11.4619V29.0174C20.0289 29.9856 19.643 30.9133 18.9577 31.5974C18.2727 32.2812 17.344 32.6652 16.3759 32.6652H6.11606C6.04821 32.9446 6.10866 33.2398 6.28138 33.4698C6.4538 33.6996 6.72028 33.8405 7.00742 33.8535H21.1156C21.3516 33.855 21.5786 33.7613 21.7448 33.5938C21.9114 33.426 22.0033 33.1984 21.9999 32.9621V13.8867C22.0005 13.6585 21.9139 13.4385 21.7581 13.2717L21.758 13.2721ZM1.52181 1.38177C5.08076 1.379 8.43308 3.73788 8.63111 7.33015C5.36793 8.14902 5.92893 12.9716 9.32199 13.0161V13.0164C10.2648 13.0074 11.1439 12.5389 11.6771 11.7613C12.2101 10.9838 12.3304 9.99497 11.9988 9.11254C11.6673 8.22979 10.9261 7.56457 10.0129 7.33014C9.81457 3.00348 5.94221 0.015081 1.52175 0C1.14022 0 0.830866 0.309357 0.830866 0.690882C0.830866 1.07241 1.14022 1.38176 1.52175 1.38176L1.52181 1.38177Z" fill="#482F28"/>
</svg>
