<svg width="32" height="32" viewBox="0 0 32 32" fill="none" xmlns="http://www.w3.org/2000/svg">
<path d="M16 0C11.7567 0 7.68669 1.68587 4.68621 4.68621C1.68587 7.68677 0 11.7564 0 16C0 20.2436 1.68587 24.3133 4.68621 27.3138C7.68677 30.3141 11.7564 32 16 32C20.2436 32 24.3133 30.3141 27.3138 27.3138C30.3141 24.3132 32 20.2436 32 16C31.9947 11.7581 30.3074 7.69195 27.3079 4.69222C24.3085 1.69249 20.2421 0.0054089 16.0002 0.000150167L16 0ZM23.6845 9.70913L16.3616 20.9493C16.0188 21.5746 15.5566 22.1264 15.0008 22.573C14.1953 23.1141 13.1652 23.1939 12.2861 22.7834C11.6672 22.4339 11.1225 21.9673 10.682 21.4094L8.48632 18.9708C7.93403 18.3595 8.01297 17.2881 9.01219 17.2224L9.01249 17.2221C9.47967 17.2356 9.93427 17.3768 10.3272 17.6297L12.411 18.7208V18.7211C12.6757 18.8957 12.9876 18.9852 13.3048 18.9773C13.6347 18.8939 13.9281 18.7046 14.1397 18.4382L23.0863 9.26168C23.1444 9.20299 23.2084 9.15017 23.277 9.1038C23.4414 8.99199 23.6321 8.93301 23.77 9.05773C23.908 9.18274 23.8161 9.50495 23.6847 9.70862L23.6845 9.70913Z" fill="#482F28"/>
</svg>
