<svg width="28" height="28" viewBox="0 0 28 28" fill="none" xmlns="http://www.w3.org/2000/svg">
<g clip-path="url(#clip0_1708_821)">
<path d="M8.80858 25.3751C19.372 25.3751 25.1514 16.6213 25.1514 9.03229C25.1514 8.7862 25.1459 8.53464 25.135 8.28854C26.2592 7.47549 27.2295 6.46842 28.0001 5.31464C26.953 5.78049 25.8413 6.08473 24.703 6.21698C25.9016 5.49851 26.799 4.36984 27.229 3.04018C26.1014 3.70844 24.8682 4.17984 23.5824 4.43417C22.716 3.51361 21.5705 2.90409 20.323 2.69985C19.0755 2.49561 17.7955 2.70801 16.6808 3.30423C15.5661 3.90045 14.6788 4.84728 14.1562 5.99832C13.6336 7.14936 13.5047 8.44051 13.7895 9.67214C11.5063 9.55756 9.27265 8.96444 7.23337 7.93124C5.19409 6.89803 3.3947 5.4478 1.95186 3.67456C1.21853 4.93891 0.994127 6.43504 1.32426 7.85889C1.6544 9.28275 2.5143 10.5275 3.7292 11.3401C2.81713 11.3111 1.92503 11.0656 1.12662 10.6237V10.6948C1.12581 12.0216 1.58451 13.3078 2.42476 14.3347C3.265 15.3616 4.43494 16.0658 5.73569 16.3276C4.89079 16.5588 4.00404 16.5925 3.14405 16.426C3.51109 17.5671 4.22523 18.5652 5.18679 19.2808C6.14836 19.9965 7.30937 20.3942 8.5078 20.4182C6.47322 22.0164 3.95993 22.8833 1.37272 22.8792C0.913896 22.8785 0.455527 22.8503 6.10352e-05 22.7949C2.62839 24.4812 5.68585 25.3767 8.80858 25.3751Z" fill="white"/>
</g>
<defs>
<clipPath id="clip0_1708_821">
<rect width="28" height="28" fill="white"/>
</clipPath>
</defs>
</svg>
