<svg width="28" height="28" viewBox="0 0 28 28" fill="none" xmlns="http://www.w3.org/2000/svg">
<g clip-path="url(#clip0_1708_828)">
<path d="M27.721 8.4001C27.721 8.4001 27.4475 6.46963 26.6053 5.62197C25.5389 4.50635 24.3468 4.50088 23.7999 4.43525C19.8843 4.15088 14.0053 4.15088 14.0053 4.15088H13.9944C13.9944 4.15088 8.1155 4.15088 4.19988 4.43525C3.653 4.50088 2.46082 4.50635 1.39441 5.62197C0.552222 6.46963 0.284253 8.4001 0.284253 8.4001C0.284253 8.4001 -0.00012207 10.6696 -0.00012207 12.9337V15.0556C-0.00012207 17.3196 0.278784 19.5892 0.278784 19.5892C0.278784 19.5892 0.552222 21.5196 1.38894 22.3673C2.45535 23.4829 3.85535 23.4446 4.47878 23.5649C6.72097 23.7782 13.9999 23.8438 13.9999 23.8438C13.9999 23.8438 19.8843 23.8329 23.7999 23.554C24.3468 23.4884 25.5389 23.4829 26.6053 22.3673C27.4475 21.5196 27.721 19.5892 27.721 19.5892C27.721 19.5892 27.9999 17.3251 27.9999 15.0556V12.9337C27.9999 10.6696 27.721 8.4001 27.721 8.4001ZM11.1069 17.6313V9.76182L18.6702 13.7103L11.1069 17.6313Z" fill="white"/>
</g>
<defs>
<clipPath id="clip0_1708_828">
<rect width="28" height="28" fill="white"/>
</clipPath>
</defs>
</svg>
