<svg width="36" height="24" viewBox="0 0 36 24" fill="none" xmlns="http://www.w3.org/2000/svg">
<mask id="mask0_1708_766" style="mask-type:alpha" maskUnits="userSpaceOnUse" x="0" y="0" width="36" height="24">
<rect width="36" height="24" fill="#016FD0"/>
</mask>
<g mask="url(#mask0_1708_766)">
<rect width="36" height="24" rx="3" fill="#F1F9FF"/>
<path d="M8.62268 16.8609V12.1599H13.7424L14.2917 12.8561L14.8592 12.1599H33.4425V16.5367C33.4425 16.5367 32.9566 16.8562 32.3945 16.8609H22.1045L21.4852 16.1199V16.8609H19.4558V15.5959C19.4558 15.5959 19.1785 15.7725 18.5792 15.7725H17.8884V16.8609H14.8157L14.2672 16.1498L13.7103 16.8609H8.62268Z" fill="white"/>
<path d="M2.64429 8.61683L3.79881 6H5.79543L6.45063 7.46584V6H8.93262L9.32266 7.05946L9.7008 6H20.8423V6.53263C20.8423 6.53263 21.428 6 22.3906 6L26.0056 6.01228L26.6495 7.45894V6H28.7266L29.2983 6.83099V6H31.3944V10.701H29.2983L28.7504 9.86735V10.701H25.6987L25.3919 9.95998H24.5715L24.2696 10.701H22.2001C21.3718 10.701 20.8423 10.1793 20.8423 10.1793V10.701H17.722L17.1027 9.95998V10.701H5.49964L5.19297 9.95998H4.3752L4.07069 10.701H2.64429V8.61683Z" fill="white"/>
<path d="M4.20661 6.57959L2.64941 10.0996H3.66323L3.95055 9.39471H5.62089L5.90672 10.0996H6.94287L5.38716 6.57959H4.20661ZM4.78274 7.3988L5.29188 8.63051H4.27211L4.78274 7.3988Z" fill="#016FD0"/>
<path d="M7.05005 10.0984V6.57837L8.49074 6.58357L9.32869 8.85304L10.1466 6.57837H11.5757V10.0984H10.6706V7.50468L9.71114 10.0984H8.91733L7.95519 7.50468V10.0984H7.05005Z" fill="#016FD0"/>
<path d="M12.1958 10.0984V6.57837H15.1494V7.36574H13.1105V7.96785H15.1018V8.70891H13.1105V9.33417H15.1494V10.0984H12.1958Z" fill="#016FD0"/>
<path d="M15.6726 6.57959V10.0996H16.5778V8.84907H16.9589L18.0442 10.0996H19.1503L17.9593 8.80276C18.4481 8.76266 18.9523 8.3548 18.9523 7.72157C18.9523 6.98084 18.3543 6.57959 17.6869 6.57959H15.6726ZM16.5778 7.36696H17.6124C17.8606 7.36696 18.0412 7.55572 18.0412 7.73749C18.0412 7.97134 17.8072 8.10802 17.6258 8.10802H16.5778V7.36696Z" fill="#016FD0"/>
<path d="M20.2474 10.0984H19.3232V6.57837H20.2474V10.0984Z" fill="#016FD0"/>
<path d="M22.4386 10.0984H22.2391C21.2739 10.0984 20.6879 9.35907 20.6879 8.35285C20.6879 7.32177 21.2673 6.57837 22.4863 6.57837H23.4867V7.41206H22.4497C21.9549 7.41206 21.6049 7.78748 21.6049 8.36154C21.6049 9.04323 22.0051 9.32954 22.5815 9.32954H22.8197L22.4386 10.0984Z" fill="#016FD0"/>
<path d="M24.4089 6.57959L22.8517 10.0996H23.8655L24.1528 9.39471H25.8232L26.109 10.0996H27.1451L25.5894 6.57959H24.4089ZM24.985 7.3988L25.4942 8.63051H24.4744L24.985 7.3988Z" fill="#016FD0"/>
<path d="M27.2498 10.0984V6.57837H28.4005L29.8699 8.78996V6.57837H30.7751V10.0984H29.6615L28.1549 7.8289V10.0984H27.2498Z" fill="#016FD0"/>
<path d="M9.24231 16.259V12.739H12.1959V13.5264H10.157V14.1285H12.1483V14.8696H10.157V15.4948H12.1959V16.259H9.24231Z" fill="#016FD0"/>
<path d="M23.7144 16.259V12.739H26.668V13.5264H24.629V14.1285H26.6108V14.8696H24.629V15.4948H26.668V16.259H23.7144Z" fill="#016FD0"/>
<path d="M12.311 16.259L13.7491 14.5207L12.2767 12.739H13.4171L14.2939 13.8405L15.1738 12.739H16.2695L14.8165 14.499L16.2572 16.259H15.1171L14.2657 15.1749L13.435 16.259H12.311Z" fill="#016FD0"/>
<path d="M16.3636 12.739V16.259H17.2926V15.1474H18.2454C19.0516 15.1474 19.6627 14.7316 19.6627 13.923C19.6627 13.2531 19.1834 12.739 18.363 12.739H16.3636ZM17.2926 13.5351H18.296C18.5565 13.5351 18.7426 13.6903 18.7426 13.9403C18.7426 14.1753 18.5574 14.3456 18.293 14.3456H17.2926V13.5351Z" fill="#016FD0"/>
<path d="M20.0563 12.739V16.259H20.9614V15.0085H21.3425L22.4278 16.259H23.5339L22.343 14.9622C22.8318 14.9221 23.3359 14.5142 23.3359 13.881C23.3359 13.1403 22.7379 12.739 22.0705 12.739H20.0563ZM20.9614 13.5264H21.9961C22.2443 13.5264 22.4248 13.7151 22.4248 13.8969C22.4248 14.1308 22.1909 14.2674 22.0095 14.2674H20.9614V13.5264Z" fill="#016FD0"/>
<path d="M27.088 16.259V15.4948H28.8994C29.1675 15.4948 29.2835 15.354 29.2835 15.1996C29.2835 15.0516 29.1678 14.902 28.8994 14.902H28.0808C27.3693 14.902 26.973 14.4805 26.973 13.8477C26.973 13.2833 27.3359 12.739 28.3933 12.739H30.1559L29.7748 13.531H28.2504C27.9589 13.531 27.8692 13.6797 27.8692 13.8217C27.8692 13.9676 27.9801 14.1285 28.2027 14.1285H29.0602C29.8534 14.1285 30.1976 14.5659 30.1976 15.1388C30.1976 15.7546 29.8141 16.259 29.017 16.259H27.088Z" fill="#016FD0"/>
<path d="M30.4094 16.259V15.4948H32.2208C32.4889 15.4948 32.6049 15.354 32.6049 15.1996C32.6049 15.0516 32.4892 14.902 32.2208 14.902H31.4023C30.6907 14.902 30.2944 14.4805 30.2944 13.8477C30.2944 13.2833 30.6573 12.739 31.7147 12.739H33.4413L33.0962 13.531H31.5718C31.2804 13.531 31.1907 13.6797 31.1907 13.8217C31.1907 13.9676 31.3015 14.1285 31.5241 14.1285H32.3816C33.1748 14.1285 33.519 14.5659 33.519 15.1388C33.519 15.7546 33.1355 16.259 32.3385 16.259H30.4094Z" fill="#016FD0"/>
</g>
</svg>
