<svg width="36" height="24" viewBox="0 0 36 24" fill="none" xmlns="http://www.w3.org/2000/svg">
<g clip-path="url(#clip0_1708_763)">
<path d="M0 3C0 1.34315 1.34315 0 3 0H33C34.6569 0 36 1.34315 36 3V21C36 22.6569 34.6569 24 33 24H3C1.34315 24 0 22.6569 0 21V3Z" fill="#E6E6E6"/>
<path d="M27.9078 18.8464C29.2905 18.8464 29.9413 18.3188 30.5097 16.7196L33 9.7349H31.5582L29.8882 15.1387H29.8589L28.189 9.74221H26.7063L29.1087 16.3903L28.98 16.7947C28.8892 17.3735 28.3695 17.7864 27.7846 17.7437C27.673 17.7437 27.4565 17.7321 27.3686 17.7205V18.8184C27.5474 18.8428 27.7279 18.8544 27.9078 18.8537V18.8464ZM23.1029 15.3486C22.3466 15.3486 21.8666 14.9826 21.8666 14.4288C21.8666 13.8549 22.3295 13.5206 23.2145 13.4676L24.7905 13.3682V13.8841C24.7558 14.7344 24.0379 15.3961 23.1877 15.3614C23.159 15.3601 23.131 15.3577 23.1029 15.3553V15.3486ZM22.7223 16.4324C23.5805 16.4556 24.3831 16.0085 24.8143 15.2662H24.8436V16.3641H26.1561V11.8171C26.1561 10.4985 25.1016 9.6489 23.478 9.6489C21.9721 9.6489 20.8584 10.5101 20.8175 11.6939H22.0953C22.2478 11.092 22.8199 10.6949 23.4371 10.762C24.3044 10.762 24.7905 11.1664 24.7905 11.9105V12.4143L23.0218 12.5198C21.375 12.6192 20.4845 13.2931 20.4845 14.4654C20.4833 15.6541 21.4031 16.4391 22.7217 16.4391L22.7223 16.4324ZM15.1161 8.42236H16.7506C17.9814 8.42236 18.6847 9.07863 18.6847 10.2332C18.6847 11.3878 17.9814 12.0495 16.7451 12.0495H15.1161V8.42236ZM13.698 7.22692V16.3622H15.1161V13.248H17.0794C18.6786 13.334 20.0442 12.1075 20.1302 10.5083C20.1351 10.4174 20.1357 10.3271 20.132 10.2362C20.2076 8.65474 18.9872 7.3117 17.4057 7.23546C17.3124 7.23119 17.2197 7.2318 17.1263 7.23607L13.698 7.22692ZM8.99128 8.93164C8.17644 8.88467 7.4793 9.39456 7.09262 9.39456C6.70593 9.39456 6.10821 8.95542 5.46353 8.96762C4.60965 8.98958 3.8314 9.46226 3.41848 10.21C2.5396 11.722 3.18977 13.9604 4.03938 15.1906C4.45534 15.8005 4.95425 16.4684 5.60991 16.4446C6.23081 16.4214 6.47721 16.0402 7.22741 16.0402C7.9776 16.0402 8.20022 16.4446 8.85649 16.4324C9.53594 16.4208 9.9641 15.8225 10.3813 15.2125C10.6753 14.7807 10.904 14.308 11.0607 13.8097C10.2599 13.4596 9.74087 12.671 9.7366 11.797C9.7488 11.0261 10.1526 10.3149 10.8088 9.91055C10.3904 9.31649 9.71891 8.95176 8.9925 8.92615L8.99128 8.93164ZM8.48261 8.12472C8.12581 8.57423 7.57994 8.83222 7.00601 8.82185C6.96941 8.26195 7.15971 7.7112 7.53359 7.29279C7.90563 6.86097 8.43016 6.59017 8.99738 6.53711C9.03764 7.11287 8.85283 7.68131 8.48139 8.12289" fill="black"/>
</g>
<defs>
<clipPath id="clip0_1708_763">
<rect width="36" height="24" fill="white"/>
</clipPath>
</defs>
</svg>
