<svg width="36" height="24" viewBox="0 0 36 24" fill="none" xmlns="http://www.w3.org/2000/svg">
<g clip-path="url(#clip0_1708_743)">
<path d="M0 3C0 1.34315 1.34315 0 3 0H33C34.6569 0 36 1.34315 36 3V21C36 22.6569 34.6569 24 33 24H3C1.34315 24 0 22.6569 0 21V3Z" fill="#E4E5E7"/>
<path d="M17.188 12.8065V16.2743H16.0802V7.71029H19.0183C19.369 7.70302 19.7177 7.76479 20.0442 7.89204C20.3708 8.01929 20.6687 8.2095 20.9208 8.45169C21.1755 8.67918 21.3782 8.95817 21.5153 9.26992C21.6523 9.58166 21.7206 9.91893 21.7156 10.2591C21.7229 10.601 21.6556 10.9405 21.5184 11.2542C21.3813 11.5679 21.1774 11.8485 20.9208 12.0767C20.4071 12.5632 19.7729 12.8062 19.0183 12.8058H17.188V12.8065ZM17.188 8.76465V11.7542H19.0458C19.2495 11.7602 19.4522 11.7239 19.6409 11.6476C19.8297 11.5714 20.0003 11.4569 20.1419 11.3114C20.2828 11.1753 20.3948 11.0127 20.4713 10.8329C20.5477 10.6532 20.5871 10.46 20.5871 10.2649C20.5871 10.0697 20.5477 9.87659 20.4713 9.69684C20.3948 9.51709 20.2828 9.35439 20.1419 9.21837C20.0021 9.06982 19.832 8.95249 19.6431 8.87415C19.4541 8.79581 19.2505 8.75825 19.0458 8.76397H17.188V8.76465Z" fill="#5F6368"/>
<path d="M24.2683 10.2234C25.0871 10.2234 25.7335 10.4407 26.2073 10.8753C26.6812 11.3099 26.9179 11.9057 26.9174 12.6628V16.2742H25.8578V15.461H25.8096C25.3509 16.1307 24.7408 16.4655 23.9793 16.4655C23.3293 16.4655 22.7855 16.2742 22.3479 15.8915C22.1379 15.7159 21.97 15.4959 21.8564 15.2477C21.7429 14.9994 21.6865 14.7291 21.6915 14.4565C21.6915 13.8502 21.9222 13.368 22.3837 13.01C22.8451 12.6519 23.4612 12.4724 24.2318 12.4715C24.8897 12.4715 25.4314 12.5911 25.8571 12.8302V12.5788C25.8583 12.3929 25.8179 12.2091 25.7388 12.0407C25.6596 11.8723 25.5438 11.7235 25.3995 11.6051C25.1066 11.3426 24.7248 11.1994 24.3302 11.2039C23.7114 11.2039 23.2217 11.4632 22.8612 11.9816L21.8855 11.3714C22.4222 10.606 23.2165 10.2234 24.2683 10.2234ZM22.835 14.4804C22.8343 14.6205 22.8673 14.7586 22.9312 14.8834C22.9951 15.0082 23.0881 15.1161 23.2025 15.1979C23.4475 15.3893 23.7516 15.4907 24.0633 15.4849C24.5307 15.4841 24.9789 15.2994 25.3094 14.9711C25.6764 14.628 25.8598 14.2256 25.8598 13.7637C25.5144 13.4903 25.0328 13.3537 24.4149 13.3537C23.9649 13.3537 23.5896 13.4614 23.2892 13.6769C22.9857 13.8955 22.835 14.1613 22.835 14.4804Z" fill="#5F6368"/>
<path d="M33 10.4148L29.3009 18.8572H28.1573L29.53 15.9032L27.0977 10.4148H28.3018L30.0598 14.624H30.0839L31.7938 10.4148H33Z" fill="#5F6368"/>
<path d="M12.7113 12.059C12.7118 11.7237 12.6832 11.389 12.626 11.0586H7.95398V12.9534H10.6299C10.5752 13.2561 10.4593 13.5446 10.2892 13.8015C10.1192 14.0585 9.89847 14.2786 9.64046 14.4485V15.6785H11.2375C12.1726 14.8223 12.7113 13.5561 12.7113 12.059Z" fill="#4285F4"/>
<path d="M7.954 16.8667C9.29093 16.8667 10.4166 16.4307 11.2375 15.6791L9.64048 14.4491C9.19598 14.7484 8.6235 14.9192 7.954 14.9192C6.66178 14.9192 5.56499 14.0542 5.17278 12.8884H3.52759V14.156C3.93993 14.9708 4.57221 15.6558 5.35384 16.1345C6.13548 16.6131 7.03569 16.8667 7.954 16.8667Z" fill="#34A853"/>
<path d="M5.17273 12.8886C4.96538 12.2777 4.96538 11.6162 5.17273 11.0053V9.73779H3.52753C3.18065 10.4233 3 11.1798 3 11.947C3 12.7141 3.18065 13.4706 3.52753 14.1561L5.17273 12.8886Z" fill="#FBBC04"/>
<path d="M7.954 8.97439C8.66051 8.96292 9.34318 9.22802 9.85447 9.71237L11.2685 8.30815C10.3718 7.47182 9.18402 7.01267 7.954 7.02693C7.03569 7.02698 6.13548 7.28048 5.35384 7.75915C4.57221 8.23782 3.93993 8.92281 3.52759 9.73765L5.17278 11.0052C5.56499 9.83946 6.66178 8.97439 7.954 8.97439Z" fill="#EA4335"/>
</g>
<defs>
<clipPath id="clip0_1708_743">
<rect width="36" height="24" fill="white"/>
</clipPath>
</defs>
</svg>
