<svg width="36" height="24" viewBox="0 0 36 24" fill="none" xmlns="http://www.w3.org/2000/svg">
<g clip-path="url(#clip0_1708_737)">
<path d="M0 3C0 1.34315 1.34315 0 3 0H33C34.6569 0 36 1.34315 36 3V21C36 22.6569 34.6569 24 33 24H3C1.34315 24 0 22.6569 0 21V3Z" fill="#CCEFFF"/>
<path d="M21.9367 19.077H14.0624V4.92554H21.9367V19.077Z" fill="#6C6BBD"/>
<path d="M14.5668 12C14.5668 9.12932 15.9108 6.57219 18.0039 4.92428C16.4733 3.71924 14.5416 3 12.4422 3C7.47216 3 3.44336 7.02937 3.44336 12C3.44336 16.9706 7.47216 21 12.4422 21C14.5416 21 16.4733 20.2808 18.0039 19.0757C15.9108 17.4278 14.5668 14.8707 14.5668 12Z" fill="#EB001B"/>
<path d="M32.5565 12C32.5565 16.9706 28.5277 21 23.5576 21C21.4583 21 19.5265 20.2808 17.9954 19.0757C20.089 17.4278 21.4331 14.8707 21.4331 12C21.4331 9.12932 20.089 6.57219 17.9954 4.92428C19.5265 3.71924 21.4583 3 23.5576 3C28.5277 3 32.5565 7.02937 32.5565 12Z" fill="#0099DF"/>
</g>
<defs>
<clipPath id="clip0_1708_737">
<rect width="36" height="24" fill="white"/>
</clipPath>
</defs>
</svg>
