<svg width="36" height="24" viewBox="0 0 36 24" fill="none" xmlns="http://www.w3.org/2000/svg">
<g clip-path="url(#clip0_1708_728)">
<path d="M0 3C0 1.34315 1.34315 0 3 0H33C34.6569 0 36 1.34315 36 3V21C36 22.6569 34.6569 24 33 24H3C1.34315 24 0 22.6569 0 21V3Z" fill="#CCDEFF"/>
<path d="M8.07812 8.63807C7.70209 8.37956 7.21141 8.25 6.60608 8.25H4.26255C4.07698 8.25 3.97445 8.34281 3.95498 8.52824L3.00299 14.5041C2.99309 14.5628 3.00778 14.6165 3.04691 14.6653C3.08581 14.7142 3.13475 14.7385 3.19335 14.7385H4.30651C4.50175 14.7385 4.60907 14.6459 4.62877 14.4603L4.89237 12.8492C4.902 12.7711 4.93634 12.7076 4.99494 12.6587C5.0535 12.6099 5.12674 12.578 5.21463 12.5634C5.30251 12.5489 5.38538 12.5416 5.46364 12.5416C5.54167 12.5416 5.63439 12.5465 5.74197 12.5562C5.84929 12.566 5.91769 12.5707 5.94702 12.5707C6.78673 12.5707 7.44583 12.3341 7.92438 11.8604C8.4027 11.3869 8.64213 10.7303 8.64213 9.89032C8.64213 9.31422 8.45396 8.89683 8.07812 8.63793V8.63807ZM6.86982 10.4324C6.82084 10.7743 6.69405 10.9987 6.489 11.1062C6.28391 11.2138 5.99098 11.2673 5.61021 11.2673L5.12683 11.2819L5.37589 9.71465C5.39532 9.60733 5.45876 9.55361 5.56625 9.55361H5.84463C6.23502 9.55361 6.51837 9.60989 6.69414 9.72199C6.86982 9.83436 6.92842 10.0712 6.86982 10.4324Z" fill="#003087"/>
<path d="M32.8094 8.25H31.7257C31.618 8.25 31.5546 8.30372 31.5352 8.41122L30.5832 14.5044L30.5685 14.5337C30.5685 14.5827 30.588 14.6289 30.6272 14.6729C30.666 14.7167 30.7151 14.7387 30.7736 14.7387H31.7404C31.9256 14.7387 32.0282 14.6461 32.048 14.4605L33 8.46982V8.45527C33 8.3185 32.9363 8.25018 32.8094 8.25018V8.25Z" fill="#009CDE"/>
<path d="M19.7151 10.6084C19.7151 10.5597 19.6955 10.5132 19.6567 10.4694C19.6175 10.4254 19.5735 10.4033 19.5248 10.4033H18.397C18.2894 10.4033 18.2015 10.4524 18.1333 10.5498L16.5807 12.8348L15.9363 10.6377C15.8872 10.4816 15.7799 10.4033 15.6141 10.4033H14.5153C14.4664 10.4033 14.4225 10.4253 14.3837 10.4694C14.3445 10.5132 14.3251 10.5597 14.3251 10.6084C14.3251 10.628 14.4203 10.916 14.6107 11.4726C14.801 12.0293 15.0061 12.6299 15.2258 13.2744C15.4455 13.9187 15.5602 14.2607 15.57 14.2994C14.7692 15.3932 14.369 15.9791 14.369 16.0571C14.369 16.1841 14.4324 16.2475 14.5594 16.2475H15.6873C15.7946 16.2475 15.8825 16.1988 15.9509 16.1011L19.686 10.7108C19.7054 10.6915 19.7151 10.6575 19.7151 10.6083V10.6084Z" fill="#003087"/>
<path d="M30.2172 10.4033H29.104C28.9671 10.4033 28.8844 10.5645 28.8551 10.8868C28.6009 10.4963 28.1374 10.3008 27.4635 10.3008C26.7605 10.3008 26.1623 10.5645 25.6693 11.0918C25.1761 11.6191 24.9297 12.2393 24.9297 12.9521C24.9297 13.5283 25.0981 13.9872 25.4349 14.3288C25.7718 14.6708 26.2233 14.8415 26.7899 14.8415C27.073 14.8415 27.3611 14.7828 27.654 14.6657C27.9469 14.5486 28.1762 14.3924 28.3425 14.197C28.3425 14.2068 28.3325 14.2506 28.3132 14.3287C28.2935 14.407 28.2839 14.4657 28.2839 14.5045C28.2839 14.6609 28.3472 14.7388 28.4743 14.7388H29.485C29.6703 14.7388 29.7779 14.6462 29.8071 14.4605L30.4077 10.6376C30.4173 10.579 30.4027 10.5254 30.3637 10.4765C30.3245 10.4278 30.2757 10.4033 30.2172 10.4033ZM28.3058 13.2889C28.0568 13.533 27.7565 13.655 27.405 13.655C27.1217 13.655 26.8924 13.5771 26.7166 13.4207C26.5407 13.2648 26.4528 13.05 26.4528 12.7763C26.4528 12.4152 26.5749 12.1098 26.8191 11.8608C27.0629 11.6118 27.3659 11.4874 27.7272 11.4874C28.0004 11.4874 28.2275 11.5679 28.4083 11.7289C28.5887 11.8901 28.6794 12.1123 28.6794 12.3955C28.6793 12.747 28.5548 13.0449 28.3058 13.2889Z" fill="#009CDE"/>
<path d="M13.5781 10.4033H12.4649C12.328 10.4033 12.2451 10.5645 12.2158 10.8868C11.9522 10.4963 11.4883 10.3008 10.8243 10.3008C10.1213 10.3008 9.5231 10.5645 9.03005 11.0918C8.53686 11.6191 8.29041 12.2393 8.29041 12.9521C8.29041 13.5283 8.45887 13.9872 8.79577 14.3288C9.13266 14.6708 9.58416 14.8415 10.1506 14.8415C10.4239 14.8415 10.7072 14.7828 11.0001 14.6657C11.293 14.5486 11.5274 14.3924 11.7032 14.197C11.664 14.3141 11.6446 14.4167 11.6446 14.5045C11.6446 14.6609 11.708 14.7388 11.835 14.7388H12.8456C13.031 14.7388 13.1385 14.6462 13.1678 14.4605L13.7683 10.6376C13.778 10.579 13.7634 10.5254 13.7244 10.4765C13.6853 10.4278 13.6366 10.4033 13.5781 10.4033ZM11.6666 13.2962C11.4176 13.5357 11.1123 13.655 10.7512 13.655C10.4679 13.655 10.2408 13.5771 10.0701 13.4207C9.89912 13.2648 9.81374 13.05 9.81374 12.7763C9.81374 12.4152 9.93574 12.1098 10.18 11.8608C10.4239 11.6118 10.7266 11.4873 11.0881 11.4873C11.3613 11.4873 11.5884 11.5679 11.7692 11.7289C11.9497 11.8901 12.0401 12.1123 12.0401 12.3955C12.0401 12.7568 11.9156 13.0572 11.6666 13.2962Z" fill="#003087"/>
<path d="M24.7172 8.63807C24.3412 8.37956 23.8507 8.25 23.2452 8.25H20.9163C20.721 8.25 20.6135 8.34281 20.5941 8.52824L19.642 14.5041C19.6321 14.5628 19.6468 14.6165 19.686 14.6653C19.7247 14.7142 19.7738 14.7385 19.8324 14.7385H21.0334C21.1505 14.7385 21.2286 14.6751 21.2678 14.5481L21.5314 12.8492C21.5412 12.7711 21.5753 12.7076 21.634 12.6587C21.6926 12.6099 21.7658 12.578 21.8537 12.5634C21.9415 12.5489 22.0244 12.5416 22.1027 12.5416C22.1808 12.5416 22.2735 12.5465 22.381 12.5562C22.4883 12.566 22.5569 12.5707 22.586 12.5707C23.4259 12.5707 24.0849 12.3341 24.5634 11.8604C25.0419 11.3869 25.2811 10.7303 25.2811 9.89032C25.2811 9.31422 25.0931 8.89679 24.7172 8.63793V8.63807ZM23.216 11.0475C23.0011 11.194 22.6788 11.2672 22.2493 11.2672L21.7805 11.2819L22.0295 9.71456C22.0489 9.60729 22.1123 9.55347 22.2199 9.55347H22.4834C22.6983 9.55347 22.8691 9.56328 22.9963 9.58275C23.123 9.60236 23.2452 9.6633 23.3624 9.76577C23.4797 9.86834 23.5382 10.0173 23.5382 10.2125C23.5382 10.6228 23.4306 10.901 23.216 11.0475Z" fill="#009CDE"/>
</g>
<defs>
<clipPath id="clip0_1708_728">
<rect width="36" height="24" fill="white"/>
</clipPath>
</defs>
</svg>
