<svg width="19" height="21" viewBox="0 0 17 20" fill="none" xmlns="http://www.w3.org/2000/svg">
<path d="M14.6686 5.20626H12.7095V4.672C12.7095 2.33837 10.8343 0.45459 8.51128 0.45459C6.18827 0.45459 4.31307 2.33837 4.31307 4.672V5.20626H2.35396C1.5703 5.20626 0.954559 5.82481 0.954559 6.61206V15.8904C0.954559 17.9147 2.57787 19.5455 4.59305 19.5455H12.4297C14.4448 19.5455 16.0682 17.9148 16.0682 15.8904V6.61206C16.068 5.85308 15.4523 5.20626 14.6686 5.20626ZM5.99231 4.70027C5.99231 3.29446 7.11173 2.16992 8.51113 2.16992C9.91053 2.16992 11.03 3.29446 11.03 4.70027V5.23452H5.99211L5.99231 4.70027ZM14.3887 15.8905C14.3887 16.987 13.5211 17.8585 12.4296 17.8585H4.59295C3.50142 17.8585 2.63384 16.987 2.63384 15.8905V6.89332H4.31322V9.73299C4.31322 10.2109 4.67713 10.5765 5.15291 10.5765C5.62868 10.5765 5.9926 10.211 5.9926 9.73299L5.99241 6.89332H11.0303V9.73299C11.0303 10.2109 11.3942 10.5765 11.8699 10.5765C12.3457 10.5765 12.7096 10.211 12.7096 9.73299L12.7094 6.89332H14.3888L14.3887 15.8905Z" fill="#fff"/>
</svg>