<svg width="85" height="85" viewBox="0 0 82 85" fill="none" xmlns="http://www.w3.org/2000/svg">
<path d="M71.9811 62.062L78.6756 64.975L78.0853 65.7394L74.7402 64.2062C73.9138 63.8317 73.1027 63.4419 72.4839 63.1221L72.473 63.1396C72.9584 63.6609 73.4875 64.3508 74.0603 65.1108L76.3013 68.0435L75.7175 68.8013L72.3659 67.2835C71.581 66.9265 70.8005 66.5607 70.1468 66.1884L70.1358 66.2037C70.6584 66.7973 71.159 67.4368 71.7231 68.153L73.9728 71.0791L73.4022 71.8194L69.0295 65.8949L69.6133 65.1393L73.0721 66.6899C73.7941 67.0004 74.4984 67.3507 75.1819 67.739L75.195 67.7237C74.6647 67.1347 74.1662 66.5176 73.7017 65.8752L71.4039 62.8089L71.9811 62.062Z" fill="#1D1D1B"/>
<path d="M65.3937 69.3552L65.8769 69.7933L65.9009 69.7714C65.8753 69.4712 65.9214 69.1692 66.0354 68.8903C66.1495 68.6115 66.3282 68.364 66.5568 68.1681C67.322 67.4804 68.1965 67.6688 68.6885 68.2141C69.5083 69.1296 69.1454 70.3605 67.6784 71.6681L67.7483 71.7469C68.0304 72.058 68.6229 72.5442 69.3925 71.8499C69.7389 71.5355 69.9923 71.1316 70.1249 70.6825L70.6868 70.9957C70.5154 71.5579 70.1905 72.0609 69.7488 72.4478C68.5923 73.4882 67.6019 72.9516 66.9219 72.1938L65.6517 70.7789C65.3849 70.4705 65.0923 70.1854 64.7771 69.9269L65.3937 69.3552ZM67.228 71.1972C67.991 70.5401 68.7234 69.6378 68.0654 68.9041C67.9941 68.8102 67.9034 68.7329 67.7996 68.6774C67.6958 68.6219 67.5812 68.5895 67.4637 68.5824C67.3462 68.5754 67.2286 68.5938 67.1188 68.6364C67.0091 68.6791 66.9099 68.745 66.8279 68.8296C66.6232 69.004 66.4794 69.2393 66.4172 69.5012C66.3551 69.7631 66.378 70.0381 66.4825 70.2861C66.5215 70.3784 66.5746 70.4641 66.6399 70.5401L67.228 71.1972Z" fill="#1D1D1B"/>
<path d="M66.7098 76.5919L65.8637 75.4004L64.7859 76.167L64.3792 75.5932L65.4571 74.8266L63.8698 72.5882C63.5047 72.0757 63.1527 71.8873 62.7329 72.1852C62.5841 72.2873 62.4502 72.4097 62.335 72.5488L61.8977 72.0056C62.0594 71.7784 62.2609 71.5825 62.4924 71.4274C62.6367 71.3117 62.8041 71.2286 62.9833 71.1836C63.1625 71.1387 63.3493 71.1329 63.5309 71.1668C63.9026 71.2368 64.2415 71.55 64.5869 72.0428L66.1939 74.3031L66.8345 73.8476L67.2411 74.4214L66.6005 74.8792L67.3067 75.8713L66.7098 76.5919Z" fill="#1D1D1B"/>
<path d="M58.1088 74.3798C58.4104 73.9781 58.7962 73.6476 59.2392 73.4117C60.5772 72.6626 61.9546 73.0853 62.711 74.4433C63.4675 75.8012 63.0915 77.3256 61.6441 78.136C61.2613 78.3544 60.8365 78.4888 60.3979 78.5302L60.2339 77.8031C60.6056 77.7933 60.9682 77.6861 61.2856 77.4921C62.3022 76.9226 62.4334 75.8647 61.9174 74.9361C61.3424 73.9089 60.3301 73.6438 59.4512 74.1366C59.105 74.3246 58.8059 74.589 58.5767 74.9098L58.1088 74.3798Z" fill="#1D1D1B"/>
<path d="M59.9366 81.5459L59.0752 81.8788L57.9361 78.9155H57.9164C57.8676 79.2278 57.7345 79.5209 57.5316 79.7631C57.3251 80.0239 57.0536 80.2256 56.7446 80.3479C56.1083 80.5932 54.9386 80.5932 54.309 78.9549L53.2158 76.1295L54.0772 75.7966L55.1245 78.5234C55.4196 79.29 55.9509 79.8266 56.7642 79.5134C57.0219 79.4087 57.2401 79.2254 57.3881 78.9896C57.536 78.7537 57.6061 78.4772 57.5885 78.1993C57.5856 78.0481 57.5521 77.8991 57.4901 77.7612L56.4057 74.9052L57.2693 74.5723L59.9366 81.5459Z" fill="#1D1D1B"/>
<path d="M48.7688 77.168L52.1708 83.7977L51.1979 83.9554L49.5559 80.6833C49.1034 79.7875 48.7076 78.9771 48.3906 78.1886H48.3687C48.3032 79.0297 48.1501 79.9583 47.9905 80.922L47.363 84.5687L46.3989 84.7242L47.7741 77.3257L48.7688 77.168Z" fill="#1D1D1B"/>
<path d="M44.8907 77.6343L45.1488 82.7156L44.2257 82.7638L43.9677 77.6803L44.8907 77.6343ZM44.1929 84.2049C44.1858 84.1281 44.195 84.0506 44.22 83.9775C44.245 83.9045 44.2852 83.8376 44.3379 83.7813C44.3906 83.725 44.4547 83.6806 44.5258 83.6509C44.597 83.6212 44.6736 83.607 44.7507 83.6092C44.8248 83.6041 44.8991 83.6142 44.9692 83.6387C45.0393 83.6632 45.1036 83.7017 45.1584 83.7519C45.2132 83.8021 45.2573 83.8628 45.288 83.9305C45.3186 83.9982 45.3353 84.0715 45.3369 84.1458C45.3429 84.2222 45.3332 84.2991 45.3084 84.3716C45.2837 84.4441 45.2444 84.5109 45.193 84.5677C45.1416 84.6245 45.0792 84.6702 45.0095 84.7019C44.9398 84.7337 44.8644 84.7509 44.7879 84.7525C44.7114 84.7593 44.6343 84.7498 44.5617 84.7248C44.4891 84.6998 44.4226 84.6597 44.3664 84.6072C44.3103 84.5548 44.2659 84.491 44.236 84.4202C44.2061 84.3494 44.1914 84.273 44.1929 84.1962V84.2049Z" fill="#1D1D1B"/>
<path d="M37.7803 84.9409L38.1717 78.8083C38.2001 78.3571 38.222 77.8424 38.2132 77.4941L39.0397 77.5467L39.0265 78.4228H39.0462C39.2317 78.1212 39.4983 77.878 39.8153 77.7211C40.1324 77.5642 40.4872 77.5 40.839 77.5358C42.0634 77.6146 42.9401 78.7141 42.8417 80.256C42.7433 81.9468 41.6305 82.9171 40.3952 82.8383C39.6212 82.7879 39.1206 82.3871 38.915 81.9622H38.8954L38.6964 85L37.7803 84.9409ZM38.985 80.5604C38.9745 80.6906 38.9804 80.8216 39.0025 80.9503C39.049 81.2583 39.1997 81.541 39.4293 81.7511C39.6589 81.9612 39.9536 82.086 40.264 82.1045C41.2172 82.1659 41.836 81.3642 41.9059 80.2407C41.9715 79.2135 41.5233 78.3308 40.5286 78.2695C40.2116 78.2502 39.8977 78.3404 39.6391 78.5249C39.3805 78.7095 39.1929 78.9772 39.1074 79.2835C39.0693 79.4125 39.0465 79.5456 39.0397 79.68L38.985 80.5604Z" fill="#1D1D1B"/>
<path d="M35.9832 79.5047C36.2302 78.2804 35.5612 77.6058 34.6605 77.4065C34.1925 77.2891 33.7048 77.2741 33.2306 77.3627L33.2175 76.6815C33.7878 76.5784 34.3733 76.5971 34.9359 76.7363C36.4664 77.0714 37.1551 78.2695 36.8271 79.7763C36.4992 81.2832 35.3601 82.2644 33.9149 81.9468C32.2948 81.5898 32.1768 80.0698 32.3845 79.1565C32.418 79.0157 32.4589 78.8768 32.5069 78.7404L35.9832 79.5047ZM33.1978 79.5726C33.0622 80.1443 33.1125 81.0926 34.127 81.3248C35.0409 81.5241 35.6246 80.7707 35.8323 80.1596L33.1978 79.5726Z" fill="#1D1D1B"/>
<path d="M26.9121 76.9248C27.5789 75.1726 29.0984 74.8616 30.2353 75.2997C31.5209 75.7881 32.1527 77.1088 31.5821 78.6113C30.9787 80.2036 29.586 80.7424 28.2698 80.2408C26.9077 79.7239 26.3611 78.3791 26.9121 76.9248ZM30.6988 78.309C31.0945 77.2687 30.7928 76.2546 29.9489 75.9326C29.105 75.6107 28.213 76.1517 27.8063 77.2314C27.5002 78.0374 27.5155 79.2136 28.5365 79.6013C29.5576 79.9889 30.3556 79.2136 30.6988 78.309Z" fill="#1D1D1B"/>
<path d="M19.9399 71.4645C19.2031 72.3275 18.1056 72.4326 17.2923 71.7339C16.479 71.0352 16.4396 69.9511 17.1764 69.0903C17.9132 68.2296 18.9648 68.0828 19.8262 68.8209C20.6395 69.5196 20.6592 70.6279 19.9399 71.4645Z" fill="#1D1D1B"/>
<path d="M12.7294 61.1068L7.30948 66.0085L6.8591 65.1543L9.63355 62.7451C10.3157 62.1472 11.0066 61.5668 11.551 61.1375V61.1178C10.8754 61.3368 10.0205 61.5427 9.10883 61.7551L5.51232 62.583L5.07505 61.7376L7.84732 59.2977C8.50322 58.7304 9.15912 58.1697 9.76254 57.7295L9.75161 57.7098C8.99733 57.9441 8.20806 58.1347 7.32479 58.3493L3.71516 59.1838L3.27789 58.3559L10.4687 56.8228L10.906 57.6704L8.08782 60.1847C7.5071 60.7147 6.89686 61.2112 6.26004 61.6719L6.27098 61.6916C7.02172 61.4564 7.78436 61.2612 8.55569 61.1068L12.2724 60.2789L12.7294 61.1068Z" fill="#1D1D1B"/>
<path d="M8.82243 52.0853L8.23431 52.346V52.3766C8.51789 52.476 8.77373 52.6417 8.98058 52.86C9.18743 53.0782 9.33933 53.3428 9.42367 53.6316C9.73413 54.6128 9.20504 55.3334 8.50323 55.5568C7.33135 55.927 6.36281 55.0881 5.77906 53.2111L5.68068 53.2418C5.28058 53.3688 4.58751 53.7083 4.9089 54.7005C5.05493 55.1485 5.32299 55.5467 5.68286 55.8503L5.1647 56.2358C4.72412 55.846 4.40081 55.3409 4.23114 54.7771C3.76327 53.2943 4.66841 52.6132 5.63039 52.3066L7.43193 51.7305C7.82177 51.6167 8.20135 51.4702 8.56663 51.2925L8.82243 52.0853ZM6.39342 53.003C6.67764 53.9711 7.19143 55.0093 8.14248 54.7114C8.25689 54.6851 8.36431 54.6345 8.45743 54.5629C8.55056 54.4913 8.62721 54.4005 8.68218 54.2966C8.73715 54.1927 8.76914 54.0782 8.77599 53.9608C8.78284 53.8434 8.76437 53.7259 8.72186 53.6163C8.64753 53.3575 8.49277 53.1292 8.28006 52.9646C8.06735 52.7999 7.80778 52.7075 7.53906 52.7008C7.43932 52.6975 7.3397 52.71 7.2439 52.738L6.39342 53.003Z" fill="#1D1D1B"/>
<path d="M1.70157 50.2939L3.13361 50.0158L2.88219 48.7148L3.57088 48.5812L3.82449 49.88L6.51149 49.3565C7.13022 49.2361 7.44724 48.993 7.34885 48.4805C7.31671 48.3025 7.26159 48.1295 7.18488 47.9658L7.85608 47.7927C7.99699 48.0329 8.0919 48.2974 8.13593 48.5724C8.18242 48.7517 8.18948 48.939 8.15664 49.1212C8.1238 49.3035 8.05183 49.4764 7.94572 49.6281C7.72709 49.9391 7.30294 50.1165 6.71482 50.2326L3.99721 50.7692L4.14588 51.5424L3.45719 51.676L3.30633 50.9028L2.11041 51.135L1.70157 50.2939Z" fill="#1D1D1B"/>
<path d="M7.2636 43.3662C7.50624 43.806 7.64743 44.2947 7.67681 44.7964C7.80581 46.3296 6.85257 47.4072 5.30465 47.5364C3.75673 47.6656 2.52801 46.6931 2.39027 45.0373C2.34925 44.5983 2.40217 44.1555 2.5455 43.7385L3.27355 43.8875C3.12888 44.2331 3.07687 44.6106 3.12269 44.9826C3.21889 46.1456 4.1284 46.7019 5.1844 46.6143C6.35627 46.5179 7.01436 45.7032 6.93346 44.6979C6.90264 44.3055 6.78381 43.9252 6.58584 43.5852L7.2636 43.3662Z" fill="#1D1D1B"/>
<path d="M-0.00158691 42.0522L0.0552576 41.1279L3.21887 41.3206V41.2987C2.96113 41.1273 2.7548 40.8888 2.62201 40.6088C2.46453 40.3121 2.38905 39.9787 2.40337 39.6429C2.44491 38.9618 2.93028 37.8908 4.67934 38.0025L7.69648 38.1865L7.65056 39.1129L4.73837 38.9355C3.92287 38.8851 3.20794 39.1545 3.15984 40.0197C3.1484 40.2969 3.22384 40.5707 3.37557 40.8029C3.5273 41.035 3.74772 41.2138 4.00595 41.3141C4.14435 41.3727 4.29297 41.4032 4.44322 41.4039L7.50408 41.59L7.43193 42.5143L-0.00158691 42.0522Z" fill="#1D1D1B"/>
<path d="M8.61693 33.7029L1.18341 34.0446L1.44577 33.0918L5.09912 32.956C6.10046 32.9188 6.99904 32.8947 7.84953 32.9341V32.9122C7.11929 32.5027 6.33877 31.977 5.53202 31.4295L2.47116 29.3422L2.73133 28.4004L8.8771 32.7283L8.61693 33.7029Z" fill="#1D1D1B"/>
<path d="M4.13057 26.6155C4.26764 26.6734 4.37672 26.7826 4.43459 26.9198C4.49246 27.0571 4.49453 27.2116 4.44037 27.3504C4.38621 27.4892 4.2801 27.6013 4.14464 27.6628C4.00918 27.7244 3.85508 27.7305 3.71517 27.6799C3.6441 27.6542 3.57894 27.6144 3.52358 27.5629C3.46822 27.5114 3.4238 27.4492 3.39298 27.3801C3.36216 27.311 3.34557 27.2364 3.34421 27.1607C3.34284 27.085 3.35673 27.0098 3.38503 26.9396C3.40937 26.8668 3.44871 26.8 3.50051 26.7434C3.55232 26.6868 3.61542 26.6418 3.68572 26.6112C3.75603 26.5806 3.83196 26.5652 3.9086 26.5659C3.98524 26.5667 4.06087 26.5836 4.13057 26.6155ZM9.81503 29.9643L5.09037 28.0983L5.42925 27.2375L10.1539 29.1036L9.81503 29.9643Z" fill="#1D1D1B"/>
<path d="M6.10048 20.4609L11.5182 23.352C11.9161 23.571 12.3752 23.7901 12.6966 23.9324L12.3075 24.664L11.5095 24.2872V24.3048C11.7076 24.5983 11.819 24.9418 11.831 25.2959C11.843 25.65 11.755 26.0003 11.5772 26.3066C11 27.4017 9.63796 27.7368 8.27588 27.0119C6.77606 26.2256 6.33879 24.8085 6.92692 23.7134C7.29203 23.0257 7.86266 22.7366 8.33273 22.7234L8.34366 22.7059L5.66541 21.2779L6.10048 20.4609ZM9.58331 23.3674C9.46948 23.3044 9.34831 23.2559 9.22256 23.2228C8.92306 23.1372 8.60327 23.1576 8.31699 23.2804C8.0307 23.4033 7.79537 23.6211 7.65059 23.8974C7.21333 24.7406 7.67683 25.6364 8.66723 26.1664C9.57456 26.6505 10.5628 26.6045 11.0307 25.7284C11.1793 25.4468 11.227 25.1227 11.1657 24.8101C11.1044 24.4976 10.9379 24.2156 10.694 24.0113C10.5934 23.9238 10.4817 23.8501 10.3616 23.7923L9.58331 23.3674Z" fill="#1D1D1B"/>
<path d="M11.7871 21.0697C12.7994 21.8012 13.6892 21.4705 14.2423 20.7302C14.5388 20.3509 14.7512 19.9126 14.8654 19.4446L15.4973 19.7118C15.3543 20.2704 15.0958 20.7927 14.7386 21.2449C13.8029 22.4999 12.4189 22.6335 11.1924 21.7158C9.96589 20.7981 9.53737 19.3613 10.4228 18.1786C11.4154 16.847 12.8475 17.3682 13.5974 17.9289C13.712 18.0159 13.8208 18.1103 13.9231 18.2115L11.7871 21.0697ZM12.8803 18.5006C12.4146 18.1414 11.5335 17.7953 10.9126 18.6298C10.3551 19.3789 10.7989 20.2221 11.2668 20.6667L12.8803 18.5006Z" fill="#1D1D1B"/>
<path d="M17.8869 13.8663C19.1987 15.2046 18.8555 16.7136 17.9831 17.5678C17.0036 18.5359 15.541 18.5644 14.4128 17.4211C13.2191 16.2077 13.3087 14.714 14.3101 13.724C15.3486 12.7033 16.7959 12.7581 17.8869 13.8663ZM15.0556 16.7399C15.8383 17.5328 16.8834 17.6817 17.5262 17.0465C18.169 16.4114 18.04 15.3688 17.2354 14.5541C16.632 13.9408 15.5585 13.459 14.7823 14.2343C14.0062 15.0096 14.3779 16.0522 15.0556 16.7399Z" fill="#1D1D1B"/>
<path d="M27.7429 8.81992C27.3275 7.76424 27.7429 6.74141 28.7442 6.34717C29.7456 5.95293 30.7119 6.42602 31.1317 7.4817C31.5515 8.53739 31.182 9.53831 30.1282 9.95446C29.1312 10.3465 28.1452 9.8559 27.7429 8.81992Z" fill="#1D1D1B"/>
<path d="M42.3629 7.18609L41.0183 0L41.9759 0.061326L42.5881 3.6927C42.7411 4.58631 42.8745 5.47991 42.9576 6.16983H42.9772C43.1368 5.47334 43.4145 4.64763 43.7096 3.7606L44.8772 0.256255L45.8304 0.315391L46.4688 3.94238C46.6153 4.79438 46.7508 5.64418 46.8077 6.39761H46.8295C47.0241 5.63104 47.2668 4.86446 47.5488 3.98838L48.7076 0.484037L49.639 0.543173L47.1925 7.49272L46.2392 7.4314L45.5833 3.6927C45.4344 2.91956 45.3293 2.1386 45.2685 1.35355H45.2554C45.0655 2.1231 44.8349 2.88199 44.5645 3.62699L43.327 7.24523L42.3629 7.18609Z" fill="#1D1D1B"/>
<path d="M52.0921 8.55937L52.173 7.91764H52.1423C51.9098 8.10772 51.6355 8.23963 51.342 8.30247C51.0485 8.36531 50.7443 8.35727 50.4545 8.27902C49.4554 8.02934 49.1208 7.19924 49.2957 6.48524C49.5909 5.29157 50.8131 4.90171 52.7152 5.39013L52.7414 5.28719C52.842 4.87981 52.9119 4.11761 51.9019 3.86793C51.4485 3.75691 50.9733 3.77358 50.5288 3.91611L50.4698 3.27438C51.0315 3.10022 51.6306 3.08732 52.1992 3.23715C53.7078 3.61167 53.8193 4.73306 53.5744 5.72304L53.1262 7.55625C53.0185 7.95066 52.9454 8.35373 52.9076 8.76087L52.0921 8.55937ZM52.5818 6.00558C51.6089 5.74056 50.4567 5.63981 50.2184 6.59913C50.1807 6.71088 50.1676 6.82949 50.18 6.94679C50.1924 7.06409 50.23 7.17732 50.2903 7.27867C50.3505 7.38002 50.432 7.4671 50.529 7.53392C50.626 7.60074 50.7364 7.64572 50.8524 7.66576C51.1116 7.73815 51.3871 7.72577 51.6387 7.63044C51.8904 7.53511 52.1051 7.3618 52.2517 7.13573C52.3055 7.0512 52.3461 6.95885 52.3719 6.86195L52.5818 6.00558Z" fill="#1D1D1B"/>
<path d="M57.3239 3.40353L56.8167 4.7746L58.0564 5.23454L57.8115 5.89161L56.5718 5.42947L55.6186 8.00517C55.4 8.59652 55.4415 8.99514 55.9225 9.17474C56.0913 9.23944 56.2676 9.28214 56.4472 9.30177L56.2461 9.95884C55.9676 9.95325 55.6926 9.89607 55.435 9.79019C55.258 9.73687 55.0947 9.64558 54.9565 9.52265C54.8183 9.39972 54.7085 9.24811 54.6348 9.07837C54.4839 8.73013 54.5517 8.27456 54.7616 7.71168L55.7257 5.1097L54.9889 4.83593L55.2338 4.17886L55.9684 4.45921L56.4057 3.31592L57.3239 3.40353Z" fill="#1D1D1B"/>
<path d="M60.3411 11.7658C59.8395 11.743 59.3491 11.6099 58.9047 11.3759C57.5338 10.6882 57.1075 9.31053 57.8115 7.91974C58.5155 6.52896 59.976 5.98359 61.4583 6.72608C61.8543 6.91918 62.2046 7.19471 62.4859 7.53427L61.9786 8.07963C61.7604 7.77822 61.4682 7.53832 61.1303 7.38314C60.0875 6.86187 59.1386 7.35029 58.6642 8.30084C58.1394 9.35433 58.4914 10.3399 59.3922 10.7933C59.7421 10.9698 60.1266 11.0663 60.5182 11.0758L60.3411 11.7658Z" fill="#1D1D1B"/>
<path d="M65.2319 6.2312L65.9884 6.75904L64.1781 9.3654L64.1956 9.37635C64.4802 9.24152 64.7964 9.18772 65.1095 9.22084C65.4414 9.24606 65.761 9.35781 66.0365 9.54499C66.5962 9.93485 67.2521 10.9051 66.2551 12.3463L64.5301 14.8322L63.7714 14.3043L65.4374 11.8951C65.9053 11.2227 66.0496 10.478 65.3347 9.98085C65.1044 9.82654 64.8317 9.7484 64.5548 9.75744C64.2779 9.76648 64.0108 9.86222 63.7911 10.0312C63.6697 10.1193 63.5665 10.2301 63.4872 10.3576L61.7381 12.8785L60.9795 12.3507L65.2319 6.2312Z" fill="#1D1D1B"/>
<path d="M67.8708 17.9597L71.4498 11.4241L72.1254 12.1447L70.337 15.3314C69.8494 16.2075 69.4012 16.9894 68.9268 17.6968L68.9399 17.7122C69.6745 17.296 70.525 16.8996 71.4148 16.4966L74.7818 14.9635L75.4486 15.6775L68.5617 18.6781L67.8708 17.9597Z" fill="#1D1D1B"/>
<path d="M70.4332 20.9144L74.491 17.8481L75.0463 18.5862L70.9885 21.6525L70.4332 20.9144ZM76.251 17.8175C76.1293 17.9005 75.9805 17.9334 75.8353 17.9094C75.69 17.8854 75.5596 17.8063 75.471 17.6886C75.3825 17.5708 75.3425 17.4234 75.3595 17.277C75.3765 17.1305 75.4491 16.9962 75.5623 16.902C75.622 16.8541 75.6909 16.819 75.7647 16.7988C75.8384 16.7786 75.9155 16.7736 75.9913 16.7843C76.067 16.7949 76.1398 16.821 76.2051 16.8608C76.2704 16.9006 76.327 16.9534 76.3712 17.0159C76.4191 17.0751 76.4541 17.1437 76.474 17.2173C76.494 17.2909 76.4985 17.3678 76.4872 17.4432C76.4758 17.5186 76.449 17.5908 76.4084 17.6552C76.3677 17.7196 76.3141 17.7749 76.251 17.8175Z" fill="#1D1D1B"/>
<path d="M80.4553 22.7037L75.1666 25.827C74.7774 26.046 74.3401 26.3285 74.0581 26.53L73.6361 25.816L74.3751 25.332L74.3642 25.3123C74.011 25.3282 73.6605 25.244 73.3531 25.0692C73.0456 24.8945 72.7936 24.6363 72.626 24.3245C72.0007 23.2644 72.4183 21.9153 73.7476 21.1377C75.1972 20.2617 76.6248 20.6449 77.2458 21.7138C77.6393 22.384 77.589 23.0279 77.3551 23.4331L77.366 23.4506L79.9787 21.9175L80.4553 22.7037ZM76.1613 24.1646C76.2753 24.1004 76.3811 24.0224 76.4762 23.9325C76.7048 23.7208 76.8539 23.4369 76.8984 23.1283C76.943 22.8197 76.8804 22.5051 76.721 22.2372C76.2357 21.4115 75.2256 21.3611 74.257 21.9218C73.3716 22.4453 72.895 23.3126 73.4 24.1734C73.5624 24.447 73.8136 24.6565 74.1117 24.7669C74.4097 24.8773 74.7365 24.8819 75.0376 24.7801C75.1656 24.7398 75.2883 24.6839 75.4027 24.6136L76.1613 24.1646Z" fill="#1D1D1B"/>
<path d="M76.9725 27.2485C75.8225 27.7347 75.641 28.6678 75.9864 29.5263C76.1508 29.9807 76.4128 30.3935 76.7539 30.7353L76.1985 31.1296C75.7923 30.7152 75.4779 30.2196 75.2759 29.6753C74.6943 28.2231 75.2999 26.9703 76.7232 26.3899C78.1465 25.8095 79.6004 26.206 80.1514 27.5814C80.7701 29.1146 79.5808 30.0783 78.7128 30.4287C78.5785 30.4805 78.4412 30.5244 78.3018 30.5601L76.9725 27.2485ZM78.5947 29.5198C79.1435 29.3007 79.9065 28.7357 79.5108 27.7676C79.1632 26.8915 78.2121 26.8389 77.5912 27.0098L78.5947 29.5198Z" fill="#1D1D1B"/>
<path d="M79.9459 36.2128C78.1159 36.6508 77.0206 35.5689 76.7363 34.3708C76.4193 33.0304 77.1539 31.7645 78.7172 31.3943C80.3722 31.0001 81.5987 31.8543 81.9223 33.2253C82.259 34.6468 81.4566 35.8536 79.9459 36.2128ZM78.9642 32.2967C77.882 32.5551 77.2151 33.3721 77.4207 34.2526C77.6262 35.133 78.5838 35.5667 79.6966 35.2995C80.534 35.1002 81.496 34.4234 81.2445 33.3655C80.9931 32.3076 79.9021 32.0733 78.9642 32.2967Z" fill="#1D1D1B"/>
<path d="M78.7609 49.4616C79.854 49.7266 80.4597 50.6574 80.2104 51.7C79.9612 52.7425 79.0167 53.2747 77.9148 53.0141C76.8129 52.7535 76.2029 51.8796 76.4652 50.7757C76.7145 49.7288 77.6896 49.2053 78.7609 49.4616Z" fill="#1D1D1B"/>
</svg>
