<svg width="26" height="26" viewBox="0 0 26 26" fill="none" xmlns="http://www.w3.org/2000/svg">
<path d="M20.2519 5.74782C20.6019 6.09751 20.7384 6.60751 20.6103 7.08533C20.4823 7.5632 20.1092 7.93636 19.6313 8.06425C19.1535 8.19242 18.6435 8.05585 18.2938 7.70591C18.2323 7.63973 18.1753 7.56934 18.1227 7.49575C18.0716 7.41945 18.0288 7.33745 17.9955 7.25176C17.9612 7.16977 17.9353 7.08457 17.9182 6.99739C17.9004 6.90824 17.891 6.8176 17.8906 6.72673C17.8923 6.36049 18.037 6.00904 18.2938 5.74781C18.359 5.68459 18.4294 5.6273 18.5045 5.57618C18.7712 5.3996 19.0905 5.32033 19.4086 5.35169C19.7269 5.38281 20.0248 5.52283 20.252 5.74781L20.2519 5.74782ZM13.0004 7.65066C11.5817 7.65066 10.2212 8.21422 9.21804 9.2176C8.21466 10.2207 7.6511 11.5813 7.6511 13C7.6511 14.4187 8.21466 15.7793 9.21804 16.7824C10.2212 17.7858 11.5817 18.3493 13.0004 18.3493C14.4192 18.3493 15.7797 17.7858 16.7828 16.7824C17.7862 15.7793 18.3498 14.4187 18.3498 13C18.3478 11.5819 17.7835 10.2224 16.7806 9.21981C15.778 8.21693 14.4185 7.65262 13.0004 7.65066ZM26 13C26 16.4478 24.6304 19.7546 22.1924 22.1924C19.7544 24.6302 16.4479 26 13 26C9.5521 26 6.24544 24.6304 3.80763 22.1924C1.36982 19.7544 0 16.4479 0 13C0 9.5521 1.36963 6.24544 3.80763 3.80763C6.24563 1.36981 9.5521 0 13 0C16.4466 0.00419827 19.7508 1.37506 22.1879 3.81205C24.6249 6.2493 25.9958 9.5533 26 13ZM24.3404 13C24.3404 9.99231 23.1457 7.10784 21.0189 4.98101C18.8923 2.85419 16.0078 1.65943 12.9999 1.65943C9.99193 1.65943 7.10771 2.85419 4.98089 4.98101C2.85406 7.10759 1.65931 9.99206 1.65931 13C1.65931 16.0079 2.85406 18.8922 4.98089 21.019C7.10746 23.1458 9.99193 24.3406 12.9999 24.3406C16.0066 24.3371 18.8891 23.1413 21.0151 21.0153C23.1411 18.8894 24.3369 16.0069 24.3404 13.0001L24.3404 13Z" fill="#66463E"/>
</svg>
