<svg width="185" height="160" viewBox="0 0 185 160" fill="none" xmlns="http://www.w3.org/2000/svg">
<path fill-rule="evenodd" clip-rule="evenodd" d="M168.249 156.572C168.249 156.572 164.649 146.397 153.813 150.124C142.976 153.851 140.656 154.069 140.656 154.069C140.656 154.069 140.694 115.433 125.652 118.02C110.599 120.607 131.574 147.797 132.627 154.202C133.679 160.607 104.904 164.815 102.307 139.771C99.7162 114.732 109.019 107.805 99.1455 105.214C89.278 102.629 87.4756 118.111 89.4087 126.266C91.3418 134.422 101.915 149.288 99.6312 153.849C97.3478 158.41 72.7366 149.508 74.7553 133.106C76.774 116.704 90.4153 89.2114 76.0683 84.9533C61.7236 80.7013 55.3594 94.3337 57.9087 107.05C60.4586 119.767 68.5245 135.907 65.1469 140.07C61.77 144.233 21.8885 94.1083 40.5729 74.0261C49.9958 63.9032 56.7638 60.3987 60.7622 57.3282C55.1494 37.271 1.46316 56.6433 0.583035 42.3337C-1.11011 15.0054 48.757 43.7174 64.8158 45.9766C64.7188 45.2595 64.5938 44.5036 64.4354 43.6799C61.3619 27.4574 75.7503 -12.7107 113.653 5.53407C151.557 23.7783 155.158 32.1104 134.184 32.1949C113.21 32.282 98.6498 44.7335 103.914 53.3286C109.178 61.9237 124.619 54.0291 136.993 47.1072C149.363 40.1803 164.633 40.3568 171.829 53.8652C179.025 67.3737 189.03 96.139 169.111 82.0169C149.192 67.8948 129.27 58.1608 121.729 65.8752C114.182 73.5952 117.079 84.3801 135.415 85.5204C153.752 86.6606 181.657 85.7873 184.642 105.608C187.626 125.428 164.108 105.606 153.318 101.656C142.523 97.709 126.975 96.2359 133.489 107.268C140 118.304 173.764 115.778 175.955 124.988C178.151 134.194 165.249 133.753 168.235 156.565L168.249 156.572ZM90.7176 43.1135C86.4791 47.3502 80.6459 48.3911 77.6909 45.4375C74.7347 42.4826 75.7718 36.6477 80.0104 32.411C84.249 28.1742 90.0821 27.1333 93.0426 30.0925C95.9988 33.0474 94.9562 38.8768 90.7176 43.1135ZM103.664 81.2638C101.302 83.625 98.0491 84.2082 96.3998 82.5597C94.7505 80.911 95.3288 77.6648 97.6963 75.2983C100.058 72.9372 103.312 72.3539 104.961 74.0024C106.61 75.6511 106.032 78.8974 103.664 81.2638Z" fill="#482F28" fill-opacity="0.1"/>
</svg>
