<svg width="27" height="27" viewBox="0 0 27 27" fill="none" xmlns="http://www.w3.org/2000/svg">
<path d="M12.2344 13.5C12.2344 13.8357 12.3677 14.1576 12.6051 14.3949C12.8424 14.6323 13.1644 14.7656 13.5 14.7656C13.8357 14.7656 14.1576 14.6323 14.395 14.3949C14.6323 14.1576 14.7657 13.8357 14.7657 13.5C14.7657 13.1643 14.6323 12.8424 14.395 12.6051C14.1576 12.3677 13.8357 12.2344 13.5 12.2344C13.1644 12.2344 12.8424 12.3677 12.6051 12.6051C12.3677 12.8424 12.2344 13.1643 12.2344 13.5ZM17.5078 13.5C17.5078 13.8357 17.6412 14.1576 17.8785 14.3949C18.1159 14.6323 18.4378 14.7656 18.7735 14.7656C19.1091 14.7656 19.431 14.6323 19.6684 14.3949C19.9057 14.1576 20.0391 13.8357 20.0391 13.5C20.0391 13.1643 19.9057 12.8424 19.6684 12.6051C19.431 12.3677 19.1091 12.2344 18.7735 12.2344C18.4378 12.2344 18.1159 12.3677 17.8785 12.6051C17.6412 12.8424 17.5078 13.1643 17.5078 13.5ZM6.96097 13.5C6.96097 13.8357 7.09431 14.1576 7.33166 14.3949C7.56901 14.6323 7.89093 14.7656 8.22659 14.7656C8.56225 14.7656 8.88417 14.6323 9.12152 14.3949C9.35887 14.1576 9.49222 13.8357 9.49222 13.5C9.49222 13.1643 9.35887 12.8424 9.12152 12.6051C8.88417 12.3677 8.56225 12.2344 8.22659 12.2344C7.89093 12.2344 7.56901 12.3677 7.33166 12.6051C7.09431 12.8424 6.96097 13.1643 6.96097 13.5ZM24.3949 8.92266C23.7991 7.50674 22.9448 6.23584 21.8558 5.14424C20.7744 4.05896 19.4907 3.19629 18.0774 2.60508C16.6272 1.996 15.0873 1.6875 13.5 1.6875H13.4473C11.8494 1.69541 10.3017 2.01182 8.84622 2.63408C7.44495 3.23135 6.17328 4.09556 5.10208 5.17852C4.02366 6.26748 3.17727 7.53311 2.59192 8.94375C1.98548 10.4045 1.67962 11.9575 1.68753 13.5554C1.69647 15.3865 2.12968 17.1906 2.95315 18.8262V22.834C2.95315 23.1557 3.08094 23.4642 3.3084 23.6916C3.53586 23.9191 3.84436 24.0469 4.16604 24.0469H8.17649C9.81203 24.8703 11.6162 25.3036 13.4473 25.3125H13.5027C15.0821 25.3125 16.614 25.0066 18.0563 24.4081C19.4625 23.8239 20.7414 22.9713 21.8215 21.8979C22.9105 20.8195 23.7674 19.5592 24.3659 18.1538C24.9882 16.6983 25.3046 15.1506 25.3125 13.5527C25.3204 11.947 25.0093 10.3887 24.3949 8.92266ZM20.4109 20.4715C18.5625 22.3014 16.1104 23.3086 13.5 23.3086H13.4552C11.8653 23.3007 10.2859 22.9052 8.89104 22.1616L8.66956 22.043H4.95706V18.3305L4.83841 18.109C4.09485 16.7142 3.69934 15.1348 3.69143 13.5448C3.68089 10.916 4.68548 8.44805 6.52854 6.58916C8.36897 4.73027 10.829 3.70195 13.4578 3.69141H13.5027C14.821 3.69141 16.0998 3.94717 17.3048 4.45342C18.4808 4.94648 19.5355 5.65576 20.4425 6.56279C21.3469 7.46719 22.0588 8.52451 22.5519 9.70049C23.0634 10.9187 23.3192 12.2106 23.3139 13.5448C23.2981 16.171 22.2671 18.6311 20.4109 20.4715Z" fill="white"/>
</svg>
