<svg width="21" height="20" viewBox="0 0 21 20" fill="none" xmlns="http://www.w3.org/2000/svg">
<path fill-rule="evenodd" clip-rule="evenodd" d="M15.7245 16.5745C14.1669 17.8356 12.183 18.591 10.0226 18.591C5.01442 18.591 0.954559 14.5311 0.954559 9.52261C0.954559 4.51446 5.0145 0.45459 10.0226 0.45459C15.0311 0.45459 19.091 4.51454 19.091 9.52261C19.091 11.683 18.3356 13.6667 17.0744 15.2246L19.766 17.916C20.1386 18.2888 20.1386 18.8932 19.766 19.266C19.3932 19.6387 18.7888 19.6387 18.416 19.266L15.7245 16.5745ZM2.8634 9.52248C2.8634 5.56866 6.06874 2.36331 10.0226 2.36331C13.9764 2.36331 17.1817 5.56866 17.1817 9.52248C17.1817 11.444 16.4247 13.1887 15.1928 14.4746C15.1516 14.5043 15.1121 14.5377 15.075 14.5749C15.0378 14.612 15.0044 14.6515 14.9747 14.6927C13.6887 15.9246 11.944 16.6816 10.0226 16.6816C6.06878 16.6816 2.86344 13.4763 2.86344 9.52244L2.8634 9.52248Z" fill="#222222"/>
</svg>
