<svg width="94" height="22" viewBox="0 0 94 22" fill="none" xmlns="http://www.w3.org/2000/svg">
<path d="M24.3831 7.0192C23.6355 5.45506 22.218 4.44468 20.0819 4.44468C19.4263 4.45608 18.782 4.61752 18.1989 4.91647C17.6157 5.21546 17.1092 5.64403 16.7184 6.16911L16.6404 6.26382V0.133584C16.6404 0.0981552 16.6264 0.0641798 16.6012 0.0391286C16.5761 0.0140766 16.542 0 16.5065 0H13.4864C13.4513 0.000636592 13.4179 0.0149902 13.3933 0.0399732C13.3686 0.0649562 13.3549 0.0985721 13.3549 0.133584V17.718C13.3549 17.7528 13.3687 17.7861 13.3934 17.8107C13.4181 17.8353 13.4515 17.8491 13.4864 17.8491H16.7208C16.7559 17.8491 16.7896 17.8354 16.8147 17.8109C16.8397 17.7863 16.8541 17.753 16.8548 17.718V10.2203C16.8548 8.76307 17.829 7.73082 19.3878 7.73082C21.0927 7.73082 21.5238 9.12981 21.5238 10.5555V17.718C21.5238 17.7528 21.5376 17.7861 21.5623 17.8107C21.5869 17.8353 21.6204 17.8491 21.6553 17.8491H24.8823C24.9175 17.8491 24.9512 17.8354 24.9763 17.8109C25.0013 17.7863 25.0158 17.753 25.0165 17.718V10.128C25.0165 9.86815 25.0165 9.61312 24.9823 9.3654C24.9268 8.55358 24.7238 7.75856 24.3831 7.0192Z" fill="#5A31F4"/>
<path d="M8.23303 9.62517C8.23303 9.62517 6.58658 9.23898 5.98013 9.08354C5.37365 8.9281 4.31418 8.59778 4.31418 7.79871C4.31418 6.99964 5.16906 6.7446 6.03614 6.7446C6.90321 6.7446 7.86771 6.95349 7.9432 7.91287C7.94625 7.94745 7.96221 7.97958 7.9879 8.00301C8.01362 8.0264 8.0472 8.03928 8.08202 8.03917L11.2702 8.02702C11.2889 8.02706 11.3075 8.02325 11.3247 8.01582C11.3419 8.00839 11.3574 7.9975 11.3702 7.9838C11.383 7.97015 11.3929 7.95397 11.3991 7.93634C11.4054 7.91868 11.4079 7.89994 11.4066 7.88127C11.2093 4.81131 8.50824 3.7135 6.01664 3.7135C3.06229 3.7135 0.901953 5.65653 0.901953 7.79871C0.901953 9.36285 1.34523 10.8298 4.83052 11.8499C5.44185 12.0272 6.27239 12.258 6.9982 12.4596C7.87012 12.7025 8.34018 13.0692 8.34018 13.6472C8.34018 14.3176 7.36597 14.7839 6.40879 14.7839C5.02295 14.7839 4.03897 14.2714 3.9586 13.3509C3.95441 13.3172 3.93797 13.2862 3.91236 13.2638C3.88677 13.2414 3.85382 13.2292 3.81976 13.2295L0.638911 13.244C0.620263 13.244 0.601806 13.2478 0.584637 13.255C0.567468 13.2623 0.551942 13.2729 0.538985 13.2863C0.526028 13.2997 0.515904 13.3155 0.50922 13.3329C0.502537 13.3502 0.499431 13.3688 0.500086 13.3874C0.64622 16.2849 3.452 17.8466 6.06782 17.8466C9.96473 17.8466 11.7256 15.6607 11.7256 13.6132C11.7305 12.6514 11.5089 10.4607 8.23303 9.62517Z" fill="#5A31F4"/>
<path d="M49.2479 4.43976C47.6285 4.43976 46.2716 5.33354 45.3973 6.41197V4.56606C45.3973 4.53169 45.3837 4.49868 45.3595 4.47417C45.3357 4.44964 45.3027 4.43554 45.2681 4.43494H42.2433C42.2085 4.43494 42.1748 4.44872 42.1502 4.47331C42.1256 4.49793 42.1116 4.53131 42.1116 4.56606V21.8105C42.1124 21.8447 42.1267 21.8776 42.1513 21.9015C42.1759 21.9257 42.209 21.9392 42.2433 21.9392H45.4802C45.5143 21.9392 45.5471 21.9257 45.5713 21.9015C45.5955 21.8774 45.6091 21.8445 45.6091 21.8105V16.1417H45.6579C46.1716 16.9237 47.5771 17.8612 49.4137 17.8612C52.867 17.8612 55.746 15.005 55.746 11.1457C55.7486 7.44177 52.8843 4.43976 49.2479 4.43976ZM48.9483 14.5751C48.2668 14.592 47.595 14.4059 47.0199 14.0406C46.4448 13.6753 45.9915 13.1474 45.7184 12.5242C45.4454 11.901 45.3646 11.2108 45.4869 10.5416C45.6087 9.87249 45.9281 9.25481 46.4036 8.76741C46.8793 8.27994 47.4898 7.9449 48.1573 7.80501C48.8246 7.66512 49.5187 7.72669 50.1508 7.9819C50.7831 8.23709 51.3244 8.67436 51.7065 9.23786C52.0883 9.80138 52.293 10.4655 52.2949 11.1457C52.3018 11.5902 52.2206 12.0318 52.0563 12.445C51.892 12.8583 51.6471 13.2351 51.3361 13.5537C51.0254 13.8724 50.6543 14.1266 50.2443 14.3019C49.8346 14.4772 49.3943 14.57 48.9483 14.5751Z" fill="#5A31F4"/>
<path d="M32.5326 3.68237C29.5149 3.68237 28.0097 4.70489 26.8014 5.52341L26.765 5.54768C26.7028 5.59019 26.6589 5.65462 26.6423 5.72801C26.6254 5.80143 26.6371 5.87839 26.6749 5.94358L27.8685 7.99344C27.8907 8.03181 27.9214 8.06478 27.9579 8.08996C27.9946 8.11515 28.0363 8.13197 28.0803 8.13919C28.1233 8.14692 28.1673 8.14504 28.2094 8.13369C28.2516 8.12235 28.2906 8.10187 28.3239 8.07359L28.4187 7.99589C29.0398 7.47613 30.036 6.78148 32.4473 6.59203C33.7892 6.4852 34.9486 6.83493 35.8036 7.63157C36.7436 8.49623 37.3064 9.89277 37.3064 11.367C37.3064 14.08 35.7036 15.785 33.1292 15.819C31.0077 15.8069 29.5829 14.7042 29.5829 13.0745C29.5829 12.2098 29.9751 11.6464 30.7399 11.0829C30.7983 11.0412 30.8395 10.9799 30.8561 10.9103C30.8728 10.8406 30.8635 10.7673 30.83 10.704L29.7585 8.68322C29.7386 8.64706 29.7118 8.61515 29.6796 8.58931C29.6475 8.56347 29.6105 8.54421 29.5708 8.53265C29.5302 8.52061 29.4877 8.51721 29.4458 8.52261C29.4037 8.52806 29.3633 8.54223 29.3272 8.56424C28.1241 9.27586 26.6481 10.5777 26.7285 13.0793C26.8259 16.2635 29.4807 18.6947 32.9318 18.7943H33.1048H33.3411C37.4424 18.6607 40.4042 15.6247 40.4042 11.5079C40.4042 7.72871 37.6422 3.68237 32.5326 3.68237Z" fill="#5A31F4"/>
<path d="M68.5013 5.62524H66.4454C66.3975 5.62587 66.3513 5.64527 66.3172 5.67928C66.2828 5.7133 66.2634 5.75928 66.2632 5.80741V10.1088C66.2634 10.1567 66.2831 10.2024 66.3174 10.236C66.3515 10.2696 66.3975 10.2885 66.4454 10.2885H68.5013C69.7532 10.2885 70.6763 9.30484 70.6763 7.95687C70.6763 6.60889 69.7532 5.62524 68.5013 5.62524Z" fill="#5A31F4"/>
<path d="M74.8167 13.2345C74.8167 13.8587 75.3451 14.206 76.2657 14.206C77.5175 14.206 78.2578 13.5308 78.2578 12.3334V11.9885L76.3827 12.0857C75.3937 12.1342 74.8167 12.5447 74.8167 13.2345Z" fill="#5A31F4"/>
<path d="M90.0386 0.0389619H62.4192C61.9664 0.0389615 61.5174 0.128 61.0991 0.300985C60.6804 0.47397 60.3001 0.727515 59.9801 1.04713C59.6596 1.36674 59.4056 1.74616 59.2324 2.1637C59.059 2.58124 58.9703 3.02872 58.9707 3.48056V18.5584C58.9707 19.4708 59.3339 20.3458 59.9807 20.9911C60.6275 21.6365 61.5047 21.9994 62.4192 22H90.0386C90.4923 22.0013 90.9419 21.9134 91.3615 21.7414C91.7809 21.5693 92.1623 21.3163 92.4838 20.9972C92.8049 20.678 93.0604 20.2987 93.2349 19.8811C93.4092 19.4635 93.499 19.0157 93.4999 18.5633V3.48541C93.5005 3.03214 93.4118 2.58314 93.2381 2.16424C93.0645 1.74535 92.8095 1.36482 92.4879 1.04453C92.1664 0.724246 91.7843 0.470522 91.3641 0.29795C90.9439 0.125377 90.4934 0.0373601 90.0386 0.0389619ZM68.6055 11.9813H66.4331C66.3847 11.9813 66.3385 12.0005 66.3039 12.0346C66.2698 12.0688 66.2504 12.1152 66.2504 12.1635V15.248C66.2504 15.2963 66.2312 15.3427 66.197 15.3768C66.1627 15.411 66.1165 15.4302 66.0679 15.4302H64.5381C64.4902 15.4295 64.4437 15.4101 64.4096 15.3761C64.3755 15.3421 64.3565 15.2961 64.3556 15.248V4.12174C64.3556 4.07346 64.3749 4.02712 64.4094 3.99294C64.4435 3.95879 64.4897 3.9396 64.5381 3.9396H68.6055C70.9097 3.9396 72.5585 5.61303 72.5585 7.96167C72.5585 10.3103 70.9218 11.9861 68.6181 11.9861L68.6055 11.9813ZM80.0529 15.2456C80.0533 15.2697 80.049 15.2936 80.0397 15.316C80.0306 15.3384 80.0172 15.3588 80.0004 15.376C79.9831 15.3931 79.963 15.4068 79.9406 15.4161C79.9185 15.4254 79.8943 15.4302 79.8702 15.4302H78.4259C78.4017 15.4302 78.3777 15.4254 78.3555 15.4161C78.333 15.4068 78.3127 15.3931 78.2959 15.376C78.279 15.3588 78.2654 15.3384 78.2566 15.316C78.2475 15.2936 78.243 15.2697 78.2434 15.2456V14.9129C78.2456 14.8836 78.2387 14.8544 78.2229 14.8296C78.2076 14.8048 78.1844 14.7856 78.1568 14.7749C78.1296 14.7643 78.0996 14.7628 78.0713 14.7706C78.0428 14.7783 78.0177 14.795 77.9998 14.8181C77.5686 15.2869 76.8672 15.6269 75.7492 15.6269C74.103 15.6269 73.0139 14.772 73.0139 13.2953C72.9982 12.9352 73.0727 12.5769 73.231 12.2528C73.3891 11.9288 73.6262 11.6493 73.9203 11.4397C74.5144 10.9952 75.435 10.7645 76.8013 10.711L78.2505 10.6625V10.2398C78.2505 9.38734 77.6757 9.02547 76.7525 9.02547C75.8295 9.02547 75.2473 9.35092 75.1113 9.88283C75.1002 9.92039 75.0771 9.95325 75.0452 9.97614C75.0136 9.99906 74.975 10.0106 74.9357 10.0091H73.5061C73.4798 10.0098 73.4536 10.0047 73.4294 9.99419C73.4057 9.98368 73.3839 9.96805 73.3664 9.94837C73.3491 9.92866 73.3361 9.90547 73.3288 9.88027C73.3212 9.8551 73.3193 9.82863 73.3234 9.80268C73.5378 8.53971 74.585 7.58033 76.8186 7.58033C79.1908 7.58033 80.0455 8.68059 80.0455 10.7815L80.0529 15.2456ZM89.05 8.02722L85.8351 16.579C85.1044 18.5657 83.8257 19.0758 82.4251 19.0758C82.1614 19.0822 81.8979 19.0503 81.6433 18.9811C81.6036 18.9704 81.5688 18.9471 81.5433 18.9146C81.5185 18.8821 81.5049 18.8423 81.5045 18.8013V17.5019C81.5045 17.4747 81.5103 17.4479 81.5217 17.4232C81.5334 17.3986 81.55 17.3768 81.571 17.3594C81.5921 17.342 81.6165 17.3294 81.6429 17.3226C81.6692 17.3157 81.6969 17.3148 81.7237 17.3197C81.9446 17.3615 82.1687 17.3827 82.3935 17.3829C82.7807 17.4023 83.1634 17.2915 83.4802 17.0682C83.7966 16.8449 84.0289 16.5221 84.1397 16.1515L84.2349 15.8528C84.2496 15.8128 84.2496 15.7689 84.2349 15.7289L81.2293 8.02967C81.2201 8.00215 81.2175 7.97282 81.222 7.94414C81.2263 7.91543 81.2373 7.88815 81.2537 7.8645C81.2708 7.84086 81.2931 7.8215 81.3188 7.80797C81.3444 7.79447 81.3732 7.78719 81.4021 7.78678H82.8637C82.901 7.78715 82.9373 7.79865 82.9682 7.81988C82.9991 7.84107 83.0228 7.871 83.0364 7.9058L85.0776 13.3366C85.0912 13.372 85.1149 13.4026 85.1463 13.4242C85.1778 13.4458 85.2149 13.4573 85.2529 13.4573C85.2907 13.4573 85.3283 13.4458 85.3594 13.4242C85.3907 13.4026 85.4149 13.372 85.4281 13.3366L87.1991 7.92038C87.2107 7.88345 87.2343 7.85128 87.2658 7.82856C87.2973 7.80582 87.3351 7.79374 87.374 7.79408H88.8723C88.901 7.79395 88.9295 7.80067 88.9556 7.81355C88.9813 7.82647 89.004 7.84525 89.0213 7.8684C89.0385 7.89155 89.05 7.9184 89.055 7.94685C89.0601 7.97525 89.0584 8.00446 89.05 8.03208V8.02722Z" fill="#5A31F4"/>
</svg>
