<svg width="67" height="88" viewBox="0 0 67 88" fill="none" xmlns="http://www.w3.org/2000/svg">
<path d="M33.3006 5.53102C37.6647 5.53102 41.793 6.7738 45.0968 9.18555C45.0968 9.0625 45.1092 8.94151 45.1092 8.81846C45.1092 3.9478 39.7135 0 33.0607 0C26.4079 0 21.0122 3.9478 21.0122 8.81846C21.0122 8.83692 21.0122 8.85537 21.0122 8.87588C24.4186 6.58103 28.7007 5.53102 33.3006 5.53102Z" fill="url(#paint0_linear_1_2689)" fill-opacity="0.5"/>
<path d="M29.2726 31.8695C29.305 31.8934 29.3435 31.9079 29.3838 31.9113C29.424 31.9146 29.4644 31.9067 29.5003 31.8884C29.5363 31.8701 29.5665 31.8421 29.5875 31.8076C29.6085 31.7731 29.6194 31.7335 29.6191 31.6931V30.5754C29.6194 30.5009 29.6008 30.4275 29.5649 30.3622C29.529 30.2969 29.4771 30.2418 29.4141 30.2021C28.7291 29.792 26.6865 28.5492 24.4121 28.6517C22.63 28.7317 20.571 30.0504 19.6071 30.7989C19.5882 30.8144 19.5753 30.8359 19.5707 30.8598C19.566 30.8838 19.5698 30.9086 19.5815 30.93C19.5932 30.9514 19.612 30.968 19.6346 30.9771C19.6573 30.9861 19.6824 30.9869 19.7055 30.9794C20.7433 30.598 22.9069 29.8925 24.6275 29.9191C26.4527 29.9478 28.4768 31.287 29.2726 31.8695Z" fill="url(#paint1_linear_1_2689)" fill-opacity="0.5"/>
<path d="M36.9282 31.8696C37.7219 31.2871 39.7481 29.9459 41.5835 29.9193C43.3 29.8926 45.4616 30.5981 46.5055 30.9795C46.5287 30.987 46.5537 30.9862 46.5764 30.9772C46.599 30.9682 46.6178 30.9515 46.6295 30.9301C46.6412 30.9087 46.645 30.8839 46.6403 30.86C46.6357 30.836 46.6228 30.8145 46.6039 30.7991C45.64 30.0505 43.5831 28.7318 41.7989 28.6519C39.5266 28.5493 37.4819 29.7921 36.7969 30.2023C36.7339 30.242 36.682 30.2971 36.6461 30.3624C36.6102 30.4277 36.5916 30.501 36.5919 30.5755V31.6932C36.5935 31.7316 36.6052 31.769 36.6258 31.8015C36.6464 31.834 36.6751 31.8605 36.7092 31.8783C36.7433 31.8962 36.7814 31.9048 36.8199 31.9033C36.8583 31.9017 36.8957 31.8901 36.9282 31.8696Z" fill="url(#paint2_linear_1_2689)" fill-opacity="0.5"/>
<path d="M24.505 16.9376C24.5347 16.9378 24.5641 16.9315 24.5911 16.9191C25.2427 16.6046 25.9319 16.3751 26.6419 16.2362C26.6689 16.2311 26.6945 16.2207 26.7175 16.2057C26.7404 16.1907 26.7601 16.1713 26.7755 16.1486C26.791 16.1259 26.8018 16.1005 26.8074 16.0736C26.8129 16.0468 26.8132 16.0191 26.8081 15.9922C26.8029 15.9652 26.7926 15.9396 26.7775 15.9167C26.7625 15.8937 26.7431 15.874 26.7204 15.8586C26.6978 15.8431 26.6723 15.8323 26.6455 15.8268C26.6186 15.8212 26.5909 15.8209 26.564 15.8261C25.8207 15.9717 25.0996 16.2137 24.4189 16.5459C24.3943 16.5572 24.3722 16.5732 24.3539 16.593C24.3356 16.6128 24.3213 16.636 24.312 16.6614C24.3026 16.6867 24.2984 16.7137 24.2995 16.7407C24.3006 16.7676 24.307 16.7941 24.3184 16.8186C24.3349 16.8542 24.3612 16.8844 24.3943 16.9055C24.4274 16.9265 24.4658 16.9377 24.505 16.9376Z" fill="url(#paint3_linear_1_2689)" fill-opacity="0.5"/>
<path d="M64.1673 74.4339C62.5267 72.1616 59.8381 71.1957 57.2069 70.7856C58.3225 60.5315 53.7985 51.6967 51.0894 48.6594C50.9802 47.9664 50.6346 47.3325 50.1113 46.8653C49.588 46.398 48.9191 46.1262 48.2182 46.0959V46.0611C48.2181 45.7838 48.1802 45.5078 48.1054 45.2407C48.2736 44.8798 48.4336 44.5107 48.5894 44.1354C48.7298 44.1776 48.8755 44.1997 49.0222 44.201C50.3839 44.201 51.9466 42.5173 52.7669 40.0584C53.6877 37.2959 53.2694 34.7509 51.8133 34.2648C51.6196 34.2016 51.4157 34.1758 51.2124 34.189C52.1558 31.7916 52.5475 29.105 52.4983 25.3705C52.3281 12.8442 43.4542 6.13806 33.3068 6.13806C23.1595 6.13806 14.5215 11.2302 13.5802 23.5863C13.1864 28.7707 13.9185 32.3084 14.5604 34.1951C14.338 34.1717 14.1131 34.1948 13.9001 34.2628C12.444 34.7488 12.0236 37.2939 12.9444 40.0563C13.2075 40.8547 13.578 41.6137 14.0457 42.3122C13.3115 43.8462 12.364 46.5492 11.8267 49.933C11.3017 49.0368 10.5265 48.0873 9.72054 47.7591C9.52037 47.6698 9.3021 47.6284 9.08312 47.6384C8.86414 47.6484 8.65052 47.7094 8.4593 47.8165L8.41623 47.8412C8.25989 47.9112 8.1304 48.0299 8.04709 48.1795C7.98933 48.3008 7.96159 48.4341 7.96623 48.5683C7.97087 48.7026 8.00775 48.8337 8.07375 48.9506C8.27883 49.3464 8.52082 49.7217 8.75256 50.0847C9.06073 50.5331 9.32708 51.0089 9.54827 51.5059C10.6443 54.3854 11.4014 57.3827 11.8042 60.4372C11.8122 60.5029 11.8377 60.5652 11.878 60.6177C12.2975 63.0149 13.024 65.348 14.0395 67.5596C14.3369 68.2015 14.4928 69.2228 14.5543 70.4697C11.2504 70.4697 5.17391 70.4697 2.3397 74.4175C1.02103 76.253 -0.432986 80.0039 0.120731 87.4483L0.133035 87.6001C0.140314 87.7038 0.18672 87.8009 0.262866 87.8717C0.339011 87.9425 0.439211 87.9818 0.543196 87.9815H0.573957C0.627688 87.9776 0.680127 87.9632 0.728274 87.939C0.776422 87.9149 0.819337 87.8814 0.854569 87.8407C0.8898 87.7999 0.916658 87.7526 0.933608 87.7015C0.950558 87.6504 0.957269 87.5964 0.953357 87.5427L0.941053 87.3909C0.405793 80.1905 1.76137 76.6221 3.00826 74.8974C5.60458 71.2757 11.2115 71.2818 14.583 71.2921C14.6363 74.274 14.2631 78.2156 13.9678 81.3985C13.7196 84.0235 13.5043 86.2917 13.5432 87.5857C13.5464 87.6924 13.5911 87.7936 13.6676 87.8678C13.7442 87.9421 13.8467 87.9836 13.9534 87.9836H13.9596C14.0658 87.9799 14.1665 87.935 14.2403 87.8585C14.3142 87.782 14.3554 87.6798 14.3554 87.5734V87.5755C14.3184 86.3327 14.5297 84.0891 14.7655 81.4887C15.2639 76.212 15.8853 69.6453 14.7655 67.2315C10.8977 58.8335 12.0667 49.4018 14.2446 43.8749C15.0178 41.9143 15.6638 41.1166 15.8381 41.0427H15.9017C15.9283 41.1658 15.9201 41.5247 15.6269 42.5726C15.4648 43.1469 15.268 43.7457 15.0608 44.3794C14.6281 45.694 14.181 47.0557 13.9514 48.481C13.9473 48.513 13.9473 48.5454 13.9514 48.5774C13.5699 50.4231 13.3669 52.2442 13.3546 52.3468C13.3486 52.4004 13.3532 52.4546 13.3682 52.5064C13.3833 52.5582 13.4083 52.6066 13.4421 52.6487C13.4758 52.6908 13.5175 52.7258 13.5647 52.7518C13.612 52.7777 13.6639 52.7941 13.7176 52.8H13.7627C13.8641 52.8006 13.9621 52.7637 14.0379 52.6962C14.1136 52.6288 14.1617 52.5357 14.1728 52.435C14.3446 50.9514 14.5923 49.4777 14.9152 48.0196C15.0075 47.6586 15.1039 47.2956 15.2023 46.9347C15.2023 46.9039 15.2208 46.8732 15.2311 46.8424V46.8117C16.2565 43.1346 17.5895 39.5867 18.5534 39.1765C18.5839 39.1567 18.6195 39.1462 18.6559 39.1462C18.6923 39.1462 18.7279 39.1567 18.7584 39.1765C18.8835 39.3631 18.6005 40.3475 18.3729 41.1391C18.2293 41.6375 18.0673 42.2014 17.9094 42.8331C17.571 43.8298 17.1301 45.2305 16.7363 46.7891C16.2782 48.7592 15.9941 50.7658 15.8873 52.7856C15.8829 52.8941 15.9216 52.9999 15.995 53.0799C16.0684 53.1598 16.1706 53.2074 16.279 53.2122H16.2975C16.4031 53.2123 16.5048 53.1716 16.5812 53.0987C16.6576 53.0257 16.7029 52.9261 16.7076 52.8205C16.7076 52.798 16.7815 51.2578 17.0583 49.4141L17.9443 45.4725C18.3688 43.9918 18.7913 42.7798 19.0312 42.1215C19.388 41.2458 19.7162 40.8643 19.8515 40.811C19.8688 40.8259 19.884 40.8432 19.8966 40.8623C20.3068 41.418 19.6916 44.0841 19.1912 46.2272C18.4713 49.33 17.7905 52.2606 18.6026 53.4193C18.6999 53.5618 18.827 53.6816 18.9749 53.7705C19.1229 53.8593 19.2883 53.9151 19.4598 53.9341C19.5026 53.9412 19.5462 53.9412 19.589 53.9341C20.0115 53.8521 20.1038 53.4399 20.4668 51.51C20.6561 50.3837 20.9067 49.2684 21.2174 48.1693C21.6398 46.8178 22.3412 44.5722 22.7616 44.3999C22.9339 44.6768 22.6098 46.0816 22.3699 47.1131C22.2592 47.593 22.132 48.1385 22.0172 48.6984C21.324 52.033 21.4019 52.9477 21.4758 54.0079C21.4963 54.2827 21.5188 54.5678 21.527 54.9082C21.5578 56.1531 21.8736 57.8101 22.2407 59.7297C22.7206 62.246 23.2661 65.0966 23.221 67.5002C23.1595 70.8778 23.221 74.0627 23.2825 77.7542C23.3379 80.7709 23.3933 83.8902 23.3933 87.5734C23.3933 87.6822 23.4365 87.7865 23.5134 87.8635C23.5903 87.9404 23.6946 87.9836 23.8034 87.9836C23.9122 87.9836 24.0165 87.9404 24.0934 87.8635C24.1704 87.7865 24.2136 87.6822 24.2136 87.5734C24.2136 83.882 24.1582 80.7586 24.1028 77.7296C24.0372 74.0381 23.9798 70.8676 24.0413 67.5043C24.0413 67.2725 24.0413 67.0346 24.0413 66.7947C24.5045 65.9025 24.8308 64.9457 25.0093 63.9564C25.6203 60.8724 25.6759 57.7041 25.1734 54.6006C27.6241 56.5386 30.0358 57.5784 32.464 57.7527L32.8741 57.7732L33.3007 57.7527C35.5689 57.5907 37.8248 56.6699 40.1073 54.9718C40.414 55.3116 40.7701 55.6033 41.1635 55.8372C40.8719 58.5455 40.9874 61.2822 41.506 63.9564C42.0925 67.0326 43.727 69.1859 46.3048 70.3262C46.4033 72.217 46.5776 74.1427 46.9878 75.8162C47.7383 78.8801 47.9147 79.7988 48.1567 81.0724C48.3864 82.2783 48.6735 83.7815 49.5492 87.6555C49.57 87.748 49.6223 87.8304 49.6971 87.8888C49.7719 87.9471 49.8646 87.9777 49.9594 87.9754C49.9894 87.9783 50.0196 87.9783 50.0496 87.9754C50.1421 87.9546 50.2246 87.9023 50.2829 87.8275C50.3412 87.7527 50.3718 87.66 50.3695 87.5652C50.3693 87.5349 50.3658 87.5046 50.3593 87.475C49.4856 83.6154 49.2006 82.1203 48.9729 80.9124C48.7268 79.6266 48.5505 78.6975 47.7937 75.6152C47.2215 73.2814 47.1231 70.3815 47.037 67.8221C46.9714 65.8677 46.9139 64.1799 46.6678 62.9617C46.6022 62.6254 46.5591 62.3465 46.5202 62.0717C46.3643 61.0196 46.231 60.1111 44.8201 57.0103C44.5822 56.4894 44.3402 55.9849 44.1269 55.544C43.6531 54.5637 43.003 53.2204 43.1404 52.9723C43.1859 52.944 43.2368 52.9257 43.2898 52.9187C43.3429 52.9116 43.3968 52.9159 43.4481 52.9313C44.0387 53.1158 44.738 54.5022 45.2938 55.6137C45.4599 55.9439 45.626 56.272 45.7901 56.5796C46.2812 57.5505 46.716 58.5488 47.0923 59.5697C47.7076 61.1263 47.8799 61.5959 48.3372 61.5836C48.3805 61.5816 48.4234 61.5733 48.4643 61.559C48.6276 61.502 48.7767 61.4106 48.9016 61.291C49.0265 61.1714 49.1242 61.0264 49.1883 60.8658C49.7215 59.5574 48.4131 56.8483 47.0247 53.9813C46.0669 52.0022 44.8754 49.5372 45.1523 48.9035C45.1666 48.8748 45.1789 48.8543 45.1851 48.844C45.3328 48.8666 45.7368 49.166 46.2782 49.9412C46.6576 50.5298 47.3364 51.6208 48.0788 52.9723L49.8097 56.6186C50.4864 58.3556 50.8986 59.8425 50.9027 59.863C50.9262 59.95 50.9777 60.0269 51.0492 60.0818C51.1208 60.1367 51.2084 60.1664 51.2985 60.1665C51.3354 60.1662 51.372 60.1607 51.4072 60.1501C51.504 60.1214 51.5868 60.058 51.6397 59.9722C51.6927 59.8863 51.7121 59.7839 51.6944 59.6845C51.1448 57.7383 50.4249 55.8443 49.5431 54.0243C48.815 52.5888 48.0767 51.3214 47.5251 50.4231C47.2339 49.8427 46.9508 49.328 46.7047 48.8748C46.3089 48.1529 45.8147 47.2526 45.8844 47.0516C45.9079 47.0248 45.9384 47.0052 45.9725 46.9951C46.0066 46.9849 46.0429 46.9846 46.0772 46.9942C47.1026 47.1685 49.1903 50.3411 50.9848 53.6942C50.9848 53.7044 50.9848 53.7167 50.9991 53.727C51.0135 53.7372 51.0319 53.7844 51.0483 53.8131C51.2247 54.1412 51.3949 54.4714 51.5631 54.8016C52.2 56.1536 52.7681 57.5369 53.2653 58.9463C53.293 59.027 53.3453 59.0971 53.4148 59.1467C53.4842 59.1964 53.5675 59.2231 53.6529 59.2231C53.6982 59.2228 53.7432 59.2152 53.7862 59.2006C53.8889 59.1651 53.9734 59.0904 54.0211 58.9927C54.0688 58.8951 54.0757 58.7825 54.0405 58.6797C54.0077 58.5812 53.4088 56.8544 52.6275 55.1318C52.6224 55.1009 52.6142 55.0707 52.6029 55.0415C52.0655 53.7024 51.3273 52.4739 50.6156 51.2865C50.2731 50.7143 49.9491 50.175 49.6661 49.6459C49.2559 48.8727 49.0509 48.399 49.0652 48.2349C49.1017 48.2184 49.1404 48.2074 49.1801 48.2021C49.2559 48.1898 49.6128 48.3005 50.2608 48.9712C53.0602 51.8648 58.3779 62.0655 55.9477 73.5152C55.4063 76.0684 56.7127 79.7927 57.8652 83.0801C58.4538 84.7556 59.0075 86.3389 59.2598 87.5919L59.2782 87.6698C59.3042 87.7711 59.3678 87.8587 59.4562 87.9146C59.5446 87.9706 59.651 87.9906 59.7536 87.9707C59.8563 87.9508 59.9475 87.8924 60.0085 87.8075C60.0696 87.7226 60.0959 87.6176 60.0821 87.514C59.8258 86.1891 59.2495 84.5464 58.6466 82.8074C57.5289 79.6225 56.2615 76.013 56.7557 73.6854C56.9054 72.982 57.0244 72.2826 57.1208 71.5915C59.5817 71.9709 62.0427 72.8548 63.5111 74.9159C64.7416 76.6406 66.1115 80.209 65.5762 87.4094V87.5611C65.5723 87.6149 65.579 87.6688 65.596 87.72C65.6129 87.7711 65.6398 87.8184 65.675 87.8592C65.7103 87.8999 65.7532 87.9333 65.8013 87.9575C65.8495 87.9817 65.9019 87.9961 65.9556 88H65.9844C66.0883 88.0003 66.1885 87.961 66.2647 87.8902C66.3408 87.8194 66.3872 87.7223 66.3945 87.6186V87.4668C66.938 80.0203 65.484 76.2694 64.1673 74.4339ZM10.305 51.2229C10.0661 50.6757 9.77565 50.1524 9.43754 49.6602C9.21605 49.3116 8.9843 48.9486 8.79153 48.5835H8.80178L8.86126 48.5507C8.94548 48.5057 9.03952 48.4821 9.13504 48.4821C9.23056 48.4821 9.3246 48.5057 9.40882 48.5507C10.3214 48.9158 11.3427 50.6015 11.6196 51.4362C11.5068 52.4309 11.4309 53.4727 11.4145 54.5493C11.0884 53.3845 10.7193 52.2832 10.305 51.2229ZM50.39 41.9943C50.39 42.2231 50.3222 42.4467 50.1951 42.6369C50.068 42.8271 49.8874 42.9754 49.676 43.0629C49.4647 43.1505 49.2321 43.1734 49.0077 43.1287C48.7834 43.0841 48.5773 42.974 48.4155 42.8122C48.2537 42.6504 48.1436 42.4443 48.099 42.22C48.0543 41.9956 48.0772 41.763 48.1648 41.5517C48.2523 41.3403 48.4006 41.1597 48.5908 41.0326C48.781 40.9055 49.0046 40.8377 49.2334 40.8377C49.5393 40.8382 49.8325 40.9597 50.0492 41.1756C50.2659 41.3915 50.3884 41.6843 50.39 41.9902V41.9943ZM51.5467 35.0544C52.408 35.3415 52.7977 37.3636 51.9815 39.8102C51.7472 40.5308 51.4168 41.2165 50.9991 41.8487C50.9707 41.5149 50.8486 41.196 50.6469 40.9286C50.4452 40.6612 50.172 40.4562 49.8589 40.3373C50.1503 39.2305 50.3837 38.1092 50.5582 36.9781C50.6368 36.9896 50.7122 37.017 50.7799 37.0586C50.8476 37.1002 50.9061 37.1551 50.952 37.22C51.1017 37.4579 51.0832 37.8927 50.8966 38.4792C50.8222 38.7093 50.7166 38.928 50.5828 39.1293C50.5677 39.1517 50.5571 39.1768 50.5517 39.2032C50.5463 39.2296 50.5462 39.2569 50.5514 39.2834C50.5565 39.3098 50.5668 39.335 50.5817 39.3575C50.5966 39.38 50.6158 39.3993 50.6382 39.4144C50.6721 39.4372 50.7121 39.4494 50.753 39.4493C50.7868 39.4491 50.82 39.4406 50.8497 39.4245C50.8794 39.4084 50.9047 39.3852 50.9232 39.357C51.0792 39.1245 51.2014 38.8711 51.2862 38.6043C51.518 37.8784 51.5221 37.3533 51.2965 36.9986C51.219 36.8852 51.1189 36.7891 51.0024 36.7163C50.8859 36.6436 50.7556 36.5959 50.6197 36.5761C50.6423 36.4264 50.6607 36.2746 50.6792 36.1249L50.915 35.0995C51.1134 35.0099 51.3368 34.9925 51.5467 35.0503V35.0544ZM15.2659 29.7961C15.8012 25.7212 18.1534 19.8702 23.2046 17.5528C23.254 17.5305 23.2925 17.4894 23.3118 17.4387C23.331 17.3879 23.3293 17.3316 23.3071 17.2821C23.2959 17.2576 23.2799 17.2355 23.26 17.2172C23.2402 17.1988 23.217 17.1846 23.1916 17.1752C23.1663 17.1659 23.1393 17.1616 23.1124 17.1627C23.0854 17.1638 23.0589 17.1703 23.0344 17.1816C17.8069 19.577 15.6146 25.2331 14.9604 29.0763C15.083 24.3586 17.057 19.8786 20.4559 16.6045C23.8547 13.3304 28.4054 11.5253 33.1244 11.5791C37.8434 11.633 42.3517 13.5416 45.6749 16.8924C48.9982 20.2433 50.8694 24.7672 50.8843 29.4865C50.8843 29.5418 50.8843 29.5952 50.8843 29.6505C50.3572 25.8155 48.2182 19.6959 42.7221 17.1775C42.6975 17.164 42.6703 17.1557 42.6423 17.1531C42.6143 17.1505 42.5861 17.1537 42.5594 17.1624C42.5327 17.1712 42.5081 17.1854 42.4871 17.204C42.4661 17.2227 42.4492 17.2455 42.4373 17.271C42.4255 17.2965 42.419 17.3241 42.4184 17.3522C42.4176 17.3803 42.4227 17.4082 42.4333 17.4343C42.4438 17.4603 42.4596 17.4839 42.4797 17.5036C42.4997 17.5233 42.5236 17.5387 42.5498 17.5487C47.5989 19.8641 49.9512 25.7109 50.4905 29.7859C49.5152 26.5736 47.621 23.717 45.0415 21.5683C41.6306 18.7574 37.3411 17.2332 32.9213 17.2616C25.4892 17.2678 17.6736 21.1787 15.2659 29.7961ZM15.7068 40.2347C15.5633 40.2614 15.1593 40.3373 14.4764 41.496C14.1628 40.9614 13.907 40.3949 13.7135 39.8061C12.8931 37.3595 13.2889 35.3354 14.1482 35.0503C14.4143 34.98 14.6973 35.0176 14.9357 35.1549L14.9686 35.2964C14.9788 35.4215 14.9911 35.5445 15.0055 35.6676C15.0321 35.8973 15.0649 36.1229 15.0957 36.3505C14.9077 36.3803 14.7358 36.4745 14.6097 36.6171C14.341 36.9247 14.2713 37.4579 14.4046 38.2454C14.4471 38.5178 14.5236 38.7837 14.6322 39.0371C14.6479 39.0741 14.6742 39.1058 14.7077 39.128C14.7413 39.1502 14.7806 39.1621 14.8209 39.1622C14.8484 39.1621 14.8756 39.1565 14.9009 39.1458C14.9509 39.1245 14.9904 39.0843 15.0108 39.0339C15.0312 38.9835 15.0307 38.9271 15.0096 38.8771C14.9134 38.6545 14.8445 38.421 14.8045 38.1819C14.6753 37.3615 14.8045 37.0293 14.9214 36.8878C14.9836 36.8214 15.0656 36.7768 15.1552 36.7607C15.3288 37.9242 15.5643 39.0777 15.8606 40.2163L15.7068 40.2347ZM22.8088 48.8768C22.9236 48.3251 23.0426 47.8104 23.1595 47.3121C23.6311 45.2756 23.9429 43.9303 22.9954 43.6206L22.9564 43.6083C21.8552 43.3581 21.285 45.1813 20.4237 47.9416C20.104 49.0711 19.8459 50.2172 19.6505 51.3747C19.5726 51.7849 19.4865 52.2442 19.4065 52.6052C19.3224 52.6523 19.2383 52.6934 19.1522 52.7323C18.7707 51.6372 19.4373 48.7661 19.9725 46.424C20.717 43.2145 21.1435 41.2068 20.5385 40.3865C20.4969 40.3316 20.451 40.2802 20.4011 40.2327C20.5612 39.9567 20.7755 39.716 21.0312 39.5251C21.2868 39.3342 21.5784 39.197 21.8885 39.1219C22.1986 39.0468 22.5207 39.0352 22.8353 39.088C23.15 39.1407 23.4507 39.2566 23.7193 39.4288C23.413 39.6092 23.1518 39.8569 22.9553 40.1532C22.7589 40.4495 22.6324 40.7866 22.5854 41.139C22.5385 41.4913 22.5723 41.8498 22.6843 42.1872C22.7964 42.5246 22.9837 42.8321 23.2321 43.0864C23.4804 43.3407 23.7834 43.5352 24.1181 43.6551C24.4527 43.7751 24.8103 43.8173 25.1637 43.7787C25.5171 43.7401 25.857 43.6216 26.1579 43.4322C26.4587 43.2428 26.7125 42.9874 26.9001 42.6854C27.248 43.0022 27.4948 43.4145 27.6097 43.8708C27.3647 43.8219 27.1118 43.828 26.8694 43.8888C26.6271 43.9496 26.4012 44.0635 26.2083 44.2223C26.0153 44.3811 25.8601 44.5808 25.7538 44.8069C25.6476 45.0331 25.5929 45.28 25.5938 45.5299C25.5947 45.6761 25.6147 45.8216 25.6532 45.9626C25.2658 45.9672 24.8872 46.0793 24.5596 46.2863C24.2321 46.4933 23.9684 46.7872 23.7979 47.1351C23.6274 47.4831 23.5568 47.8716 23.594 48.2573C23.6312 48.643 23.7747 49.0108 24.0085 49.3198C23.8528 49.5591 23.6712 49.7805 23.4671 49.9801C23.438 50.0086 23.4149 50.0426 23.3991 50.0801C23.3833 50.1176 23.3752 50.1579 23.3752 50.1986C23.3752 50.2392 23.3833 50.2795 23.3991 50.317C23.4149 50.3545 23.438 50.3885 23.4671 50.417C23.7218 50.6745 23.8977 50.9994 23.974 51.3534C24.0503 51.7075 24.0239 52.076 23.8979 52.4156C23.7718 52.7551 23.5514 53.0516 23.2625 53.2701C22.9737 53.4887 22.6284 53.6201 22.2674 53.649C22.2017 52.7549 22.2099 51.7643 22.8088 48.8768ZM24.9191 39.72C25.2614 39.72 25.596 39.8215 25.8807 40.0117C26.1653 40.2019 26.3872 40.4722 26.5182 40.7885C26.6492 41.1047 26.6835 41.4528 26.6167 41.7885C26.5499 42.1243 26.385 42.4327 26.143 42.6748C25.9009 42.9168 25.5925 43.0817 25.2567 43.1485C24.921 43.2153 24.573 43.181 24.2567 43.05C23.9404 42.919 23.6701 42.6971 23.4799 42.4125C23.2897 42.1278 23.1882 41.7932 23.1882 41.4509C23.1882 40.9918 23.3705 40.5515 23.6951 40.2269C24.0197 39.9023 24.46 39.72 24.9191 39.72ZM27.1749 48.0647C27.1749 48.3584 27.0879 48.6454 26.9247 48.8896C26.7616 49.1338 26.5297 49.3241 26.2584 49.4365C25.9871 49.5488 25.6885 49.5782 25.4005 49.5209C25.1125 49.4637 24.8479 49.3222 24.6403 49.1146C24.4326 48.9069 24.2912 48.6424 24.2339 48.3544C24.1766 48.0663 24.206 47.7678 24.3184 47.4965C24.4308 47.2252 24.6211 46.9933 24.8653 46.8301C25.1094 46.667 25.3965 46.5799 25.6902 46.5799C25.7942 46.5804 25.898 46.5914 25.9998 46.6127C26.2249 46.8834 26.5289 47.0769 26.8694 47.1664C27.0652 47.4248 27.1704 47.7405 27.1688 48.0647H27.1749ZM26.2172 45.534C26.2168 45.321 26.2796 45.1126 26.3977 44.9353C26.5157 44.7579 26.6837 44.6196 26.8804 44.5378C27.0771 44.456 27.2937 44.4344 27.5027 44.4757C27.7117 44.517 27.9037 44.6194 28.0545 44.7699C28.2053 44.9204 28.308 45.1122 28.3497 45.3211C28.3914 45.5301 28.3702 45.7466 28.2888 45.9435C28.2074 46.1404 28.0694 46.3086 27.8923 46.427C27.7152 46.5454 27.5069 46.6086 27.2939 46.6086C27.0087 46.6086 26.7351 46.4955 26.5333 46.294C26.3314 46.0925 26.2178 45.8192 26.2172 45.534ZM24.189 63.8251C24.116 64.2097 24.0208 64.5897 23.9039 64.9633C23.7173 63.1689 23.3625 61.3026 23.0364 59.5882C22.6898 57.7835 22.3658 56.0772 22.3371 54.9021C22.3371 54.6642 22.3186 54.4571 22.3043 54.2622C22.9016 54.2154 23.4624 53.9564 23.8854 53.5321L24.1787 53.7946C24.1662 53.8521 24.1662 53.9115 24.1787 53.969C24.1951 54.0141 25.2656 58.1608 24.189 63.8251ZM32.8762 56.9754C30.0707 56.8832 27.2652 55.5399 24.3674 52.8636C24.5767 52.4408 24.6626 51.9674 24.6151 51.498C24.5675 51.0286 24.3886 50.5821 24.0987 50.2098C24.2259 50.0665 24.3437 49.9151 24.4515 49.7566C24.8253 50.032 25.2802 50.1754 25.7444 50.164C26.2086 50.1527 26.6559 49.9874 27.0159 49.6941C27.3759 49.4008 27.6282 48.9961 27.7331 48.5437C27.838 48.0914 27.7895 47.617 27.5954 47.1952C27.9209 47.1374 28.2223 46.9851 28.462 46.7574C28.7016 46.5296 28.8691 46.2364 28.9434 45.9142C29.0177 45.5921 28.9956 45.2551 28.8799 44.9454C28.7642 44.6357 28.56 44.3668 28.2926 44.1723C28.2555 43.7702 28.1372 43.3798 27.9447 43.0248C27.7522 42.6698 27.4896 42.3576 27.1729 42.1071C27.2346 41.8938 27.2664 41.6729 27.2672 41.4509C27.2685 41.0978 27.1898 40.7491 27.037 40.4308C26.8842 40.1125 26.6613 39.833 26.385 39.6131C26.1088 39.3933 25.7863 39.2389 25.4418 39.1615C25.0974 39.0841 24.7398 39.0857 24.3961 39.1663C24.0597 38.8754 23.6623 38.6636 23.2332 38.5465C22.8042 38.4295 22.3543 38.4101 21.9168 38.4897C21.4792 38.5694 21.0651 38.7462 20.7049 39.007C20.3446 39.2678 20.0474 39.606 19.8351 39.9968C19.7966 39.9978 19.7583 40.0013 19.7203 40.0071C19.6427 40.0204 19.5675 40.0445 19.4967 40.0789C19.6669 39.2934 19.6444 38.7725 19.185 38.4915C19.0457 38.403 18.8868 38.3502 18.7223 38.3377C18.5578 38.3252 18.3927 38.3534 18.2416 38.4198C17.7248 38.6248 17.2162 39.3242 16.722 40.2655C16.3088 38.7248 16.0093 37.1558 15.8258 35.5712C15.6351 33.9306 15.752 31.9515 16.0575 30.0176C18.3647 21.8144 25.8255 18.0881 32.9192 18.0881C39.8346 18.0881 47.2338 22.1589 49.6866 29.9828C49.9963 31.9269 50.1173 33.9265 49.9245 35.5691C49.7423 37.141 49.4462 38.6975 49.0386 40.2265C48.6983 40.2626 48.3758 40.3965 48.1101 40.612C47.8444 40.8276 47.6468 41.1155 47.5414 41.441C47.4359 41.7665 47.4271 42.1156 47.5159 42.446C47.6047 42.7764 47.7874 43.074 48.0419 43.3027C47.9106 43.637 47.7773 43.9672 47.6317 44.2912C47.3199 43.8601 46.9006 43.5182 46.4156 43.2995C45.9306 43.0807 45.3968 42.9928 44.8672 43.0443C44.7439 42.5759 44.4532 42.169 44.0502 41.9003C43.6471 41.6317 43.1596 41.5201 42.6798 41.5865C42.2 41.6529 41.7612 41.8928 41.4463 42.2608C41.1314 42.6288 40.9622 43.0994 40.9707 43.5837C40.9714 43.7662 40.9976 43.9478 41.0486 44.1231C40.6093 44.2995 40.222 44.5848 39.9232 44.9521C39.6243 45.3194 39.4238 45.7566 39.3403 46.2226C39.2569 46.6887 39.2933 47.1683 39.4461 47.6165C39.5989 48.0646 39.8631 48.4665 40.2139 48.7845C39.506 49.5094 39.0608 50.4503 38.9493 51.4574C38.8378 52.4645 39.0664 53.48 39.5987 54.3422C37.3387 56.0321 35.1054 56.9016 32.8762 56.9754ZM44.2992 46.7214C44.2998 47.1195 44.1917 47.5102 43.9865 47.8514C43.7814 48.1925 43.487 48.4712 43.1351 48.6573C42.7832 48.8434 42.3871 48.9299 41.9897 48.9075C41.5922 48.885 41.2085 48.7545 40.8798 48.5299C40.5511 48.3054 40.2899 47.9953 40.1245 47.6332C39.9591 47.2711 39.8957 46.8707 39.9411 46.4752C39.9866 46.0797 40.1392 45.7042 40.3824 45.389C40.6256 45.0739 40.9503 44.8312 41.3214 44.687C41.5013 44.9575 41.7452 45.1795 42.0313 45.3333C42.3175 45.4871 42.6372 45.568 42.962 45.5689C43.2604 45.5672 43.5544 45.497 43.8213 45.3638C44.1282 45.7468 44.2966 46.2224 44.2992 46.7132V46.7214ZM42.9661 44.9536C42.696 44.9536 42.4319 44.8735 42.2073 44.7234C41.9827 44.5734 41.8076 44.3601 41.7043 44.1105C41.6009 43.8609 41.5738 43.5863 41.6265 43.3213C41.6792 43.0564 41.8093 42.813 42.0003 42.622C42.1914 42.431 42.4347 42.3009 42.6997 42.2482C42.9646 42.1955 43.2392 42.2225 43.4888 42.3259C43.7384 42.4293 43.9517 42.6044 44.1018 42.829C44.2519 43.0536 44.332 43.3177 44.332 43.5878C44.3293 43.9484 44.1842 44.2934 43.9284 44.5477C43.6726 44.8019 43.3268 44.9449 42.9661 44.9454V44.9536ZM44.0613 57.3876C45.423 60.3818 45.5501 61.237 45.7019 62.2275C45.7429 62.5106 45.786 62.8038 45.8578 63.1586C46.0895 64.3132 46.149 66.0482 46.2105 67.8857C46.2269 68.382 46.2454 68.8927 46.2659 69.4074C44.4099 68.4599 42.8738 66.7619 42.316 63.8333C41.8367 61.3339 41.7165 58.7788 41.9592 56.2454C42.4482 56.4202 42.9636 56.5097 43.4829 56.5099C43.5404 56.5099 43.5957 56.5099 43.6511 56.5099C43.7823 56.7765 43.9218 57.0698 44.0613 57.3794V57.3876ZM48.4131 60.5849C48.4068 60.6025 48.3993 60.6196 48.3905 60.6361C48.2388 60.3203 48.0234 59.7686 47.8409 59.299C47.4534 58.2486 47.0056 57.2215 46.4997 56.2228C46.391 56.0177 46.2823 55.8126 46.1756 55.5973C46.3478 55.4723 46.5109 55.3352 46.6637 55.1871C47.7055 57.3384 48.774 59.7235 48.4131 60.5849ZM49.0283 47.39C48.8809 47.4051 48.7395 47.4562 48.6165 47.5388C48.4934 47.6214 48.3926 47.733 48.3228 47.8637L48.3105 47.8904C47.5558 46.9511 46.8196 46.2805 46.2126 46.178C46.051 46.1469 45.8842 46.1558 45.7269 46.2041C45.5696 46.2524 45.4265 46.3385 45.3102 46.4548C44.9226 46.8322 45.0149 47.3449 45.3553 48.075C45.2788 48.0565 45.2001 48.0489 45.1215 48.0524C44.9599 48.0626 44.8049 48.1204 44.676 48.2186C44.5472 48.3168 44.4503 48.4509 44.3976 48.6041C43.9874 49.5372 44.8488 51.4014 46.2823 54.3668L46.3869 54.5842C46.2387 54.7494 46.0768 54.9017 45.9029 55.0395C45.2179 53.6839 44.5534 52.4493 43.6819 52.1684C43.523 52.1188 43.3555 52.103 43.1902 52.1221C43.0249 52.1412 42.8655 52.1946 42.7221 52.2791C41.8751 52.7897 42.4575 54.0141 43.3517 55.866C42.5831 55.8408 41.8388 55.5904 41.2112 55.1459C40.5837 54.7014 40.1005 54.0823 39.8218 53.3656C39.543 52.6488 39.481 51.866 39.6433 51.1143C39.8056 50.3626 40.1852 49.6751 40.7349 49.1373C41.2962 49.4584 41.9515 49.5751 42.5891 49.4672C43.2268 49.3594 43.8073 49.0338 44.2318 48.5459C44.6563 48.0581 44.8985 47.4381 44.9172 46.7916C44.9358 46.1452 44.7297 45.5123 44.334 45.0008C44.7091 44.6464 44.93 44.1588 44.9493 43.6432C45.0269 43.635 45.105 43.6309 45.183 43.6309C45.8247 43.6314 46.4399 43.8865 46.8936 44.3402C47.3473 44.794 47.6025 45.4092 47.603 46.0508C47.6027 46.1551 47.5952 46.2593 47.5804 46.3625C47.5746 46.408 47.5789 46.4543 47.5931 46.4979C47.6073 46.5415 47.631 46.5814 47.6625 46.6148C47.6941 46.6481 47.7328 46.674 47.7758 46.6903C47.8187 46.7066 47.8648 46.7131 47.9106 46.7091C47.9721 46.7091 48.0357 46.7091 48.1013 46.7091C48.4803 46.7094 48.8539 46.7991 49.1917 46.9708C49.5295 47.1426 49.822 47.3916 50.0455 47.6976C49.6558 47.4371 49.3195 47.3367 49.0283 47.39Z" fill="url(#paint4_linear_1_2689)" fill-opacity="0.5"/>
<path d="M29.1993 36.2622C29.1769 36.2285 29.1482 36.1996 29.1146 36.177C29.0811 36.1545 29.0435 36.1388 29.0038 36.1308C28.9642 36.1228 28.9234 36.1227 28.8838 36.1304C28.8441 36.1382 28.8064 36.1537 28.7727 36.1761C27.5956 36.8854 26.2504 37.2677 24.8762 37.2835C22.3291 37.2835 21.1847 35.7987 21.1376 35.7372C21.0875 35.6763 21.016 35.6368 20.9377 35.6271C20.8595 35.6174 20.7805 35.6381 20.717 35.6849C20.6536 35.7318 20.6106 35.8012 20.5969 35.8789C20.5831 35.9565 20.5998 36.0365 20.6433 36.1023C20.6987 36.1761 22.0051 37.8988 24.8762 37.8988C26.3715 37.8874 27.8355 37.4691 29.1111 36.6888C29.1449 36.6666 29.1741 36.638 29.1968 36.6045C29.2196 36.571 29.2355 36.5334 29.2437 36.4938C29.2519 36.4542 29.2522 36.4133 29.2446 36.3736C29.2369 36.3338 29.2215 36.296 29.1993 36.2622Z" fill="url(#paint5_linear_1_2689)" fill-opacity="0.5"/>
<path d="M45.3921 36.1003C45.4356 36.0346 45.4523 35.9546 45.4386 35.8769C45.4248 35.7993 45.3818 35.7298 45.3184 35.683C45.2549 35.6361 45.1759 35.6154 45.0977 35.6252C45.0194 35.6349 44.9479 35.6743 44.8978 35.7353C44.8507 35.7968 43.7084 37.2816 41.1613 37.2816C39.7871 37.2653 38.4421 36.883 37.2647 36.1741C37.1968 36.1287 37.1135 36.1122 37.0333 36.1281C36.9531 36.1441 36.8826 36.1913 36.8372 36.2592C36.7917 36.3272 36.7752 36.4105 36.7911 36.4907C36.8071 36.5709 36.8543 36.6414 36.9223 36.6868C38.1985 37.4674 39.6632 37.8857 41.1592 37.8968C44.0324 37.8989 45.3367 36.1762 45.3921 36.1003Z" fill="url(#paint6_linear_1_2689)" fill-opacity="0.5"/>
<path d="M31.1984 45.8355L31.3892 45.8211C31.6075 45.7797 31.8327 45.7916 32.0454 45.856L32.1049 45.8806C32.4093 46.0325 32.7414 46.1211 33.0811 46.1411C33.3799 46.1359 33.6726 46.0555 33.9322 45.9073C33.9711 45.8868 34.006 45.8683 34.0368 45.856C34.2495 45.7917 34.4746 45.7798 34.693 45.8211L34.8837 45.8355C35.4231 45.8745 35.8251 45.7268 36.0753 45.4028C36.5777 44.7486 36.1921 43.7826 36.0609 43.5017C36.0264 43.4277 35.9638 43.3705 35.8871 43.3426C35.8104 43.3147 35.7257 43.3185 35.6518 43.353C35.5778 43.3875 35.5206 43.45 35.4927 43.5268C35.4648 43.6035 35.4685 43.6882 35.5031 43.7621C35.6876 44.1579 35.8189 44.726 35.5872 45.0275C35.4703 45.1813 35.2529 45.2449 34.9248 45.2326L34.7504 45.2182C34.4301 45.164 34.1012 45.1922 33.7948 45.3002C33.7517 45.3187 33.7045 45.3433 33.6533 45.37C33.4797 45.4731 33.2828 45.5302 33.0811 45.5361C32.8273 45.5159 32.58 45.4462 32.353 45.331L32.2874 45.3023C31.981 45.1942 31.6521 45.166 31.3317 45.2203L31.1574 45.2346C30.8293 45.2572 30.6119 45.1936 30.495 45.0295C30.2633 44.7281 30.3945 44.16 30.5791 43.7642C30.5962 43.7276 30.6059 43.6879 30.6077 43.6475C30.6095 43.6072 30.6033 43.5668 30.5895 43.5288C30.5757 43.4908 30.5545 43.4559 30.5272 43.4261C30.4999 43.3963 30.467 43.3722 30.4304 43.3551C30.3938 43.338 30.3542 43.3282 30.3138 43.3265C30.2734 43.3247 30.233 43.3308 30.1951 43.3447C30.1571 43.3585 30.1222 43.3796 30.0923 43.4069C30.0625 43.4342 30.0384 43.4671 30.0213 43.5037C29.89 43.7847 29.5045 44.7506 30.0069 45.4048C30.2571 45.7268 30.6591 45.8724 31.1984 45.8355Z" fill="url(#paint7_linear_1_2689)" fill-opacity="0.5"/>
<path d="M36.7538 48.5056C36.1776 48.3744 35.6526 48.1139 35.066 48.1283C34.5123 48.1406 33.9996 48.3867 33.4828 48.5917C33.3925 48.6323 33.2947 48.6532 33.1957 48.6532C33.0967 48.6532 32.9989 48.6323 32.9086 48.5917C32.3897 48.3867 31.8832 48.1426 31.3233 48.1344C30.7347 48.1221 30.2118 48.3846 29.6355 48.5179C29.1884 48.6266 27.9948 48.0688 27.9108 48.2595C27.8615 48.3826 28.3209 48.4995 28.5383 48.8501C28.7557 49.2008 29.0367 50.2529 29.8508 51.2332C30.4948 52.0412 31.6966 52.4924 33.169 52.4637C34.6333 52.4883 35.8351 52.0412 36.4811 51.2332C37.2747 50.2775 37.6541 49.1988 37.8654 48.7989C38.0766 48.399 38.4457 48.3559 38.4457 48.2595C38.4478 47.9806 37.203 48.6102 36.7538 48.5056Z" fill="url(#paint8_linear_1_2689)" fill-opacity="0.5"/>
<path d="M34.0758 53.9177C33.4807 53.7682 32.8572 53.7738 32.265 53.9341C32.2106 53.9414 32.1613 53.9701 32.128 54.0137C32.0948 54.0574 32.0802 54.1125 32.0876 54.1669C32.0949 54.2212 32.1235 54.2705 32.1672 54.3038C32.2109 54.337 32.2659 54.3516 32.3203 54.3442H32.3736C32.8975 54.2021 33.449 54.1971 33.9753 54.3299C34.0281 54.3432 34.084 54.335 34.1307 54.3072C34.1774 54.2793 34.2112 54.234 34.2245 54.1812C34.2378 54.1285 34.2296 54.0726 34.2018 54.0258C34.1739 53.9791 34.1286 53.9454 34.0758 53.932V53.9177Z" fill="url(#paint9_linear_1_2689)" fill-opacity="0.5"/>
<path d="M9.51971 42.384C9.51971 42.6813 9.60788 42.9719 9.77305 43.2191C9.93823 43.4663 10.173 43.659 10.4477 43.7728C10.7224 43.8866 11.0246 43.9163 11.3162 43.8583C11.6078 43.8003 11.8757 43.6572 12.0859 43.4469C12.2961 43.2367 12.4393 42.9688 12.4973 42.6772C12.5553 42.3856 12.5255 42.0834 12.4118 41.8087C12.298 41.534 12.1053 41.2993 11.8581 41.1341C11.6109 40.9689 11.3203 40.8807 11.023 40.8807C10.6243 40.8807 10.2419 41.0391 9.96 41.321C9.67809 41.6029 9.51971 41.9853 9.51971 42.384ZM11.023 41.496C11.1986 41.496 11.3703 41.5481 11.5163 41.6456C11.6623 41.7432 11.7761 41.8819 11.8434 42.0442C11.9106 42.2064 11.9281 42.385 11.8939 42.5572C11.8596 42.7295 11.775 42.8877 11.6509 43.0119C11.5267 43.1361 11.3684 43.2207 11.1962 43.2549C11.0239 43.2892 10.8454 43.2716 10.6831 43.2044C10.5209 43.1372 10.3822 43.0234 10.2846 42.8773C10.187 42.7313 10.135 42.5596 10.135 42.384C10.135 42.1485 10.2285 41.9226 10.395 41.7561C10.5616 41.5895 10.7874 41.496 11.023 41.496Z" fill="url(#paint10_linear_1_2689)" fill-opacity="0.5"/>
<path d="M9.85755 39.6215C10.0697 39.6215 10.2771 39.5586 10.4534 39.4407C10.6298 39.3228 10.7673 39.1553 10.8485 38.9593C10.9296 38.7634 10.9509 38.5477 10.9095 38.3396C10.8681 38.1316 10.766 37.9405 10.616 37.7905C10.466 37.6405 10.2749 37.5383 10.0668 37.4969C9.85874 37.4555 9.64308 37.4768 9.44709 37.558C9.2511 37.6391 9.08359 37.7766 8.96574 37.953C8.84788 38.1294 8.78497 38.3368 8.78497 38.5489C8.78552 38.8332 8.89869 39.1057 9.09972 39.3067C9.30075 39.5077 9.57325 39.6209 9.85755 39.6215ZM9.85755 38.0916C9.948 38.0916 10.0364 38.1184 10.1116 38.1686C10.1868 38.2189 10.2454 38.2903 10.2801 38.3739C10.3147 38.4574 10.3237 38.5494 10.3061 38.6381C10.2884 38.7268 10.2449 38.8083 10.1809 38.8723C10.117 38.9362 10.0355 38.9798 9.94677 38.9974C9.85805 39.0151 9.7661 39.006 9.68253 38.9714C9.59897 38.9368 9.52754 38.8782 9.47729 38.803C9.42704 38.7278 9.40021 38.6393 9.40021 38.5489C9.40021 38.4888 9.41205 38.4294 9.43503 38.3739C9.45801 38.3184 9.4917 38.268 9.53417 38.2255C9.57663 38.183 9.62705 38.1494 9.68253 38.1264C9.73802 38.1034 9.79749 38.0916 9.85755 38.0916Z" fill="url(#paint11_linear_1_2689)" fill-opacity="0.5"/>
<path d="M9.09896 46.2148C9.3111 46.2148 9.51847 46.1519 9.69485 46.0341C9.87124 45.9162 10.0087 45.7487 10.0899 45.5527C10.1711 45.3567 10.1923 45.1411 10.1509 44.933C10.1095 44.725 10.0074 44.5339 9.85739 44.3839C9.70739 44.2339 9.51627 44.1317 9.30821 44.0903C9.10015 44.0489 8.8845 44.0702 8.68851 44.1514C8.49252 44.2325 8.32501 44.37 8.20716 44.5464C8.0893 44.7228 8.0264 44.9301 8.0264 45.1423C8.02694 45.4266 8.14011 45.6991 8.34114 45.9001C8.54217 46.1011 8.81467 46.2143 9.09896 46.2148ZM9.09896 44.6849C9.18942 44.6849 9.27784 44.7118 9.35304 44.762C9.42825 44.8123 9.48687 44.8837 9.52149 44.9673C9.5561 45.0508 9.56515 45.1428 9.54751 45.2315C9.52986 45.3202 9.48631 45.4017 9.42235 45.4657C9.35839 45.5296 9.2769 45.5732 9.18819 45.5908C9.09947 45.6085 9.00752 45.5994 8.92396 45.5648C8.84039 45.5302 8.76897 45.4716 8.71871 45.3964C8.66846 45.3211 8.64164 45.2327 8.64164 45.1423C8.64164 45.021 8.68982 44.9047 8.77558 44.8189C8.86135 44.7331 8.97767 44.6849 9.09896 44.6849Z" fill="url(#paint12_linear_1_2689)" fill-opacity="0.5"/>
<path d="M25.606 47.4597C25.5889 47.4973 25.5796 47.538 25.5786 47.5792C25.5777 47.6205 25.5851 47.6615 25.6004 47.6999C25.6157 47.7382 25.6387 47.773 25.6679 47.8023C25.697 47.8315 25.7318 47.8545 25.7701 47.8699C25.8076 47.8856 25.8412 47.9093 25.8685 47.9395C25.8958 47.9696 25.9161 48.0053 25.928 48.0442C25.938 48.0709 25.9419 48.0995 25.9395 48.1279C25.937 48.1563 25.9282 48.1837 25.9137 48.2083C25.8914 48.2421 25.876 48.2799 25.8684 48.3196C25.8608 48.3594 25.8611 48.4002 25.8693 48.4399C25.8774 48.4795 25.8934 48.5171 25.9161 48.5506C25.9389 48.584 25.968 48.6127 26.0018 48.6348C26.0521 48.6669 26.1104 48.684 26.17 48.6841C26.2213 48.684 26.2717 48.6713 26.3168 48.6469C26.3619 48.6226 26.4002 48.5874 26.4284 48.5446C26.4922 48.4446 26.5332 48.3317 26.5484 48.214C26.5637 48.0963 26.5528 47.9767 26.5166 47.8637C26.4785 47.7386 26.4132 47.6235 26.3252 47.5267C26.2373 47.4298 26.1289 47.3538 26.008 47.3039C25.9339 47.272 25.8503 47.2705 25.7751 47.2996C25.7 47.3288 25.6392 47.3863 25.606 47.4597Z" fill="url(#paint13_linear_1_2689)" fill-opacity="0.5"/>
<path d="M40.7759 45.5463C40.5261 45.8351 40.369 46.1924 40.3247 46.5717C40.2956 46.7765 40.3115 46.9851 40.3714 47.1831C40.4312 47.3812 40.5336 47.5637 40.6713 47.7181C40.729 47.7757 40.8072 47.808 40.8887 47.808C40.9702 47.808 41.0484 47.7757 41.1061 47.7181C41.1348 47.6896 41.1577 47.6558 41.1733 47.6185C41.1889 47.5812 41.1969 47.5411 41.1969 47.5007C41.1969 47.4602 41.1889 47.4202 41.1733 47.3829C41.1577 47.3456 41.1348 47.3117 41.1061 47.2833C41.0354 47.1931 40.9839 47.0896 40.9547 46.9788C40.9254 46.8681 40.919 46.7526 40.9359 46.6393C40.9639 46.3829 41.0682 46.1407 41.2353 45.9441C41.2883 45.8821 41.3145 45.8016 41.3082 45.7202C41.3018 45.6389 41.2634 45.5634 41.2014 45.5104C41.1707 45.4841 41.1352 45.4642 41.0968 45.4516C41.0583 45.4391 41.0178 45.4343 40.9776 45.4375C40.8962 45.4438 40.8207 45.4822 40.7677 45.5442L40.7759 45.5463Z" fill="url(#paint14_linear_1_2689)" fill-opacity="0.5"/>
<path d="M42.5621 42.6055C42.4373 42.6697 42.3281 42.7604 42.2422 42.8714C42.1564 42.9823 42.0958 43.1107 42.0649 43.2476C42.034 43.3845 42.0335 43.5265 42.0634 43.6635C42.0934 43.8006 42.153 43.9295 42.2381 44.041C42.2618 44.0749 42.2921 44.1036 42.3272 44.1254C42.3623 44.1473 42.4014 44.1618 42.4423 44.1682C42.4831 44.1746 42.5248 44.1727 42.5649 44.1626C42.605 44.1526 42.6426 44.1345 42.6756 44.1096C42.7085 44.0846 42.7361 44.0533 42.7567 44.0174C42.7772 43.9816 42.7904 43.9419 42.7953 43.9009C42.8002 43.8598 42.7968 43.8182 42.7853 43.7785C42.7737 43.7388 42.7543 43.7019 42.7282 43.6698C42.6971 43.63 42.6752 43.5838 42.6641 43.5345C42.6531 43.4851 42.6532 43.434 42.6644 43.3847C42.6755 43.3354 42.6976 43.2892 42.7288 43.2495C42.7601 43.2098 42.7998 43.1775 42.8451 43.1551C42.881 43.1365 42.913 43.111 42.9391 43.0801C42.9652 43.0492 42.985 43.0134 42.9972 42.9748C43.0095 42.9363 43.0141 42.8957 43.0107 42.8553C43.0073 42.815 42.996 42.7758 42.9774 42.7398C42.9588 42.7039 42.9333 42.6719 42.9024 42.6458C42.8715 42.6197 42.8357 42.5999 42.7971 42.5877C42.7586 42.5754 42.718 42.5708 42.6776 42.5742C42.6373 42.5776 42.598 42.5889 42.5621 42.6075V42.6055Z" fill="url(#paint15_linear_1_2689)" fill-opacity="0.5"/>
<path d="M40.8563 51.1081C40.8955 51.0363 40.9045 50.9519 40.8814 50.8734C40.8584 50.795 40.8051 50.7289 40.7333 50.6898C40.6615 50.6506 40.5771 50.6416 40.4986 50.6646C40.4201 50.6877 40.3541 50.741 40.3149 50.8128C40.1463 51.1298 40.0618 51.4848 40.0693 51.8438C40.0769 52.2028 40.1762 52.5539 40.358 52.8636C40.3853 52.9093 40.4241 52.9472 40.4705 52.9734C40.5168 52.9997 40.5692 53.0134 40.6225 53.0133C40.678 53.0131 40.7325 52.9982 40.7804 52.9702C40.8151 52.9494 40.8452 52.9219 40.8692 52.8894C40.8932 52.8569 40.9106 52.8199 40.9203 52.7807C40.93 52.7415 40.9319 52.7007 40.9258 52.6607C40.9198 52.6208 40.9059 52.5824 40.885 52.5478C40.7594 52.3296 40.6909 52.0833 40.6859 51.8316C40.6809 51.58 40.7395 51.3311 40.8563 51.1081Z" fill="url(#paint16_linear_1_2689)" fill-opacity="0.5"/>
<path d="M46.4318 44.4676C46.3411 44.3851 46.2321 44.3253 46.1137 44.2932C45.9953 44.2611 45.8709 44.2576 45.7509 44.2831C45.6715 44.3018 45.6028 44.3514 45.56 44.4208C45.5171 44.4902 45.5035 44.5738 45.5223 44.6532C45.541 44.7326 45.5906 44.8013 45.66 44.8442C45.7294 44.8871 45.813 44.9007 45.8925 44.8819C45.9177 44.8801 45.943 44.8837 45.9667 44.8926C45.9904 44.9014 46.012 44.9153 46.0299 44.9332C46.0996 45.0029 46.1523 45.0878 46.1837 45.1813C46.205 45.2407 46.2439 45.2921 46.2952 45.3287C46.3465 45.3654 46.4077 45.3855 46.4708 45.3864C46.5101 45.3856 46.549 45.378 46.5856 45.3638C46.6612 45.3333 46.7215 45.2741 46.7534 45.1991C46.7854 45.1241 46.7862 45.0395 46.7558 44.9639C46.6899 44.7746 46.5786 44.6042 46.4318 44.4676Z" fill="url(#paint17_linear_1_2689)" fill-opacity="0.5"/>
<path d="M11.0435 42.2527C11.0604 42.2628 11.0744 42.2772 11.0838 42.2946C11.0932 42.3119 11.0977 42.3315 11.0968 42.3512C11.0882 42.4322 11.112 42.5133 11.1632 42.5768C11.2143 42.6402 11.2885 42.6808 11.3695 42.6896H11.4023C11.4782 42.6895 11.5513 42.6614 11.6077 42.6107C11.6642 42.5599 11.6998 42.4902 11.7079 42.4148C11.7218 42.274 11.6943 42.1322 11.6287 42.0069C11.5631 41.8816 11.4623 41.7781 11.3388 41.7093C11.267 41.6701 11.1826 41.6611 11.1041 41.6842C11.0256 41.7072 10.9596 41.7605 10.9204 41.8323C10.8812 41.9041 10.8722 41.9885 10.8953 42.067C10.9184 42.1455 10.9717 42.2115 11.0435 42.2507V42.2527Z" fill="url(#paint18_linear_1_2689)" fill-opacity="0.5"/>
<path d="M39.2436 40.7126C38.9463 40.7126 38.6557 40.8008 38.4084 40.966C38.1612 41.1312 37.9686 41.3659 37.8548 41.6406C37.741 41.9153 37.7112 42.2176 37.7692 42.5092C37.8272 42.8008 37.9704 43.0686 38.1806 43.2788C38.3909 43.4891 38.6587 43.6322 38.9503 43.6902C39.2419 43.7482 39.5442 43.7185 39.8189 43.6047C40.0935 43.4909 40.3283 43.2983 40.4935 43.051C40.6587 42.8038 40.7468 42.5132 40.7468 42.2159C40.7468 41.8172 40.5885 41.4348 40.3065 41.1529C40.0246 40.871 39.6423 40.7126 39.2436 40.7126ZM39.2436 43.1018C39.0679 43.1018 38.8961 43.0497 38.75 42.952C38.604 42.8544 38.4902 42.7156 38.423 42.5532C38.3559 42.3908 38.3384 42.2122 38.3728 42.0398C38.4072 41.8675 38.492 41.7093 38.6164 41.5852C38.7408 41.4611 38.8992 41.3767 39.0716 41.3427C39.244 41.3086 39.4226 41.3265 39.5848 41.394C39.7471 41.4615 39.8856 41.5757 39.9829 41.722C40.0803 41.8683 40.132 42.0402 40.1316 42.2159C40.1305 42.4509 40.0365 42.6759 39.8702 42.8419C39.7038 43.0078 39.4786 43.1013 39.2436 43.1018Z" fill="url(#paint19_linear_1_2689)" fill-opacity="0.5"/>
<path d="M45.8207 40.1178C45.6085 40.1178 45.4012 40.1807 45.2248 40.2986C45.0484 40.4164 44.9109 40.5839 44.8298 40.7799C44.7486 40.9759 44.7273 41.1916 44.7687 41.3996C44.8101 41.6077 44.9123 41.7988 45.0623 41.9488C45.2123 42.0988 45.4034 42.2009 45.6114 42.2423C45.8195 42.2837 46.0351 42.2625 46.2311 42.1813C46.4271 42.1001 46.5946 41.9626 46.7125 41.7863C46.8303 41.6099 46.8932 41.4025 46.8932 41.1904C46.8927 40.9061 46.7795 40.6336 46.5785 40.4325C46.3775 40.2315 46.105 40.1183 45.8207 40.1178ZM45.8207 41.6477C45.7302 41.6477 45.6418 41.6209 45.5666 41.5706C45.4914 41.5204 45.4328 41.4489 45.3982 41.3654C45.3635 41.2818 45.3545 41.1899 45.3721 41.1011C45.3898 41.0124 45.4333 40.9309 45.4973 40.867C45.5613 40.803 45.6427 40.7595 45.7315 40.7418C45.8202 40.7242 45.9121 40.7332 45.9957 40.7678C46.0793 40.8025 46.1507 40.8611 46.2009 40.9363C46.2512 41.0115 46.278 41.0999 46.278 41.1904C46.278 41.2504 46.2662 41.3099 46.2432 41.3654C46.2202 41.4209 46.1865 41.4713 46.1441 41.5138C46.1016 41.5562 46.0512 41.5899 45.9957 41.6129C45.9402 41.6359 45.8807 41.6477 45.8207 41.6477Z" fill="url(#paint20_linear_1_2689)" fill-opacity="0.5"/>
<path d="M39.5617 41.5514C39.4905 41.5154 39.408 41.5085 39.3317 41.5321C39.2555 41.5558 39.1914 41.6082 39.153 41.6782C39.1147 41.7482 39.1051 41.8305 39.1262 41.9075C39.1474 41.9845 39.1977 42.0502 39.2664 42.0908C39.283 42.1018 39.2966 42.1167 39.3059 42.1343C39.3152 42.1518 39.32 42.1714 39.3198 42.1913C39.3111 42.2723 39.335 42.3535 39.3861 42.4169C39.4373 42.4803 39.5115 42.5209 39.5925 42.5297H39.6253C39.7015 42.5296 39.7749 42.5012 39.8314 42.45C39.8878 42.3989 39.9233 42.3286 39.9309 42.2528C39.9437 42.1128 39.9156 41.972 39.8501 41.8475C39.7846 41.723 39.6845 41.6202 39.5617 41.5514Z" fill="url(#paint21_linear_1_2689)" fill-opacity="0.5"/>
<path d="M24.3302 42.0927C24.3971 42.0926 24.462 42.0702 24.5148 42.0292C24.5797 41.9799 24.6225 41.9069 24.6336 41.8261C24.6448 41.7454 24.6234 41.6635 24.5742 41.5985C24.5312 41.5404 24.5012 41.4736 24.4864 41.4028C24.4715 41.332 24.4721 41.2589 24.4881 41.1883C24.5043 41.1191 24.5352 41.0541 24.5788 40.9979C24.6223 40.9416 24.6774 40.8954 24.7403 40.8623C24.7763 40.8438 24.8083 40.8185 24.8344 40.7877C24.8606 40.7569 24.8804 40.7212 24.8928 40.6827C24.9052 40.6443 24.9099 40.6037 24.9066 40.5635C24.9033 40.5232 24.8921 40.484 24.8736 40.448C24.8552 40.412 24.8298 40.3801 24.799 40.3539C24.7682 40.3278 24.7326 40.3079 24.6941 40.2955C24.6557 40.2832 24.6151 40.2785 24.5749 40.2818C24.5346 40.2851 24.4953 40.2962 24.4594 40.3147C24.317 40.3882 24.1923 40.4918 24.0941 40.6185C23.9958 40.7451 23.9264 40.8916 23.8907 41.0479C23.855 41.2041 23.8538 41.3662 23.8872 41.523C23.9206 41.6797 23.9878 41.8273 24.0841 41.9553C24.1113 41.9961 24.1478 42.0298 24.1906 42.0537C24.2334 42.0776 24.2812 42.0909 24.3302 42.0927Z" fill="url(#paint22_linear_1_2689)" fill-opacity="0.5"/>
<path d="M26.935 44.6809C26.8251 44.7375 26.7288 44.8174 26.6531 44.9152C26.5773 45.0129 26.5239 45.1261 26.4965 45.2467C26.4692 45.3672 26.4685 45.4924 26.4947 45.6132C26.5209 45.7341 26.5732 45.8478 26.6479 45.9463C26.6766 45.9843 26.7138 46.0151 26.7565 46.0361C26.7993 46.0572 26.8464 46.0678 26.894 46.0673C26.9605 46.067 27.0252 46.0454 27.0786 46.0057C27.1436 45.9565 27.1863 45.8835 27.1975 45.8027C27.2086 45.722 27.1872 45.6401 27.1381 45.5751C27.1183 45.5475 27.1045 45.5161 27.0974 45.483C27.0904 45.4498 27.0902 45.4155 27.0971 45.3823C27.1049 45.3497 27.1196 45.3192 27.1401 45.2927C27.1606 45.2662 27.1865 45.2443 27.216 45.2285C27.2886 45.1912 27.3435 45.1266 27.3685 45.049C27.3935 44.9713 27.3866 44.8868 27.3493 44.8142C27.3121 44.7416 27.2475 44.6868 27.1698 44.6618C27.0921 44.6368 27.0077 44.6437 26.935 44.6809Z" fill="url(#paint23_linear_1_2689)" fill-opacity="0.5"/>
<path d="M4.94833 38.6638C5.35007 38.5175 5.783 38.4783 6.20447 38.5503C6.62593 38.6222 7.02139 38.8027 7.35187 39.0739C7.41417 39.126 7.49443 39.1515 7.57536 39.145C7.6563 39.1385 7.73144 39.1004 7.78459 39.0391C7.81095 39.0083 7.83096 38.9726 7.84348 38.934C7.856 38.8955 7.86077 38.8548 7.85753 38.8144C7.85429 38.774 7.8431 38.7347 7.8246 38.6986C7.8061 38.6625 7.78065 38.6305 7.74973 38.6043C7.33642 38.2603 6.83971 38.0314 6.3097 37.9407C5.77969 37.85 5.23513 37.9006 4.73094 38.0875C4.65452 38.1163 4.59268 38.1743 4.55903 38.2487C4.52538 38.3232 4.52267 38.4079 4.5515 38.4843C4.58032 38.5607 4.63833 38.6226 4.71275 38.6562C4.78717 38.6899 4.87191 38.6926 4.94833 38.6638Z" fill="url(#paint24_linear_1_2689)" fill-opacity="0.5"/>
<path d="M5.58183 36.334C6.00929 36.351 6.42495 36.479 6.78782 36.7056C7.15069 36.9322 7.44823 37.2494 7.65109 37.626C7.67718 37.6759 7.71636 37.7177 7.76441 37.747C7.81247 37.7762 7.86759 37.7919 7.92385 37.7922C7.97373 37.7916 8.02283 37.7797 8.06741 37.7573C8.13864 37.7197 8.19218 37.6556 8.21637 37.5788C8.24057 37.502 8.23346 37.4187 8.19661 37.3471C7.94508 36.8716 7.57223 36.471 7.11588 36.1861C6.65954 35.9012 6.13595 35.7421 5.59824 35.725C5.55763 35.723 5.51705 35.7293 5.47894 35.7435C5.44083 35.7576 5.40597 35.7793 5.37647 35.8073C5.34697 35.8353 5.32343 35.8689 5.30726 35.9062C5.2911 35.9435 5.28265 35.9837 5.28242 36.0244C5.28185 36.1049 5.3129 36.1825 5.36888 36.2404C5.42486 36.2983 5.50132 36.3319 5.58183 36.334Z" fill="url(#paint25_linear_1_2689)" fill-opacity="0.5"/>
<path d="M56.2759 53.8727C56.227 53.9137 56.192 53.9688 56.1758 54.0306C56.1596 54.0923 56.163 54.1575 56.1855 54.2173C56.2081 54.277 56.2486 54.3282 56.3016 54.3638C56.3545 54.3995 56.4172 54.4178 56.481 54.4162C56.5557 54.4173 56.6284 54.3918 56.6861 54.3444C57.0187 54.0733 57.4159 53.8931 57.8389 53.8212C58.262 53.7493 58.6964 53.7883 59.0999 53.9342C59.1763 53.9631 59.2611 53.9604 59.3355 53.9267C59.4099 53.893 59.4679 53.8312 59.4967 53.7548C59.5256 53.6784 59.5228 53.5936 59.4892 53.5192C59.4555 53.4448 59.3937 53.3868 59.3173 53.358C58.8099 53.1684 58.2615 53.1162 57.7274 53.2066C57.1934 53.297 56.6927 53.5268 56.2759 53.8727Z" fill="url(#paint26_linear_1_2689)" fill-opacity="0.5"/>
<path d="M55.9559 53.0193C56.0002 53.0426 56.0495 53.0546 56.0995 53.0542C56.1556 53.0543 56.2106 53.0391 56.2587 53.0102C56.3068 52.9813 56.346 52.9397 56.3722 52.8901C56.5771 52.5134 56.8762 52.1963 57.2404 51.9698C57.6045 51.7433 58.0212 51.6152 58.4497 51.5981C58.4901 51.5972 58.5299 51.5883 58.5669 51.5719C58.6038 51.5556 58.6372 51.5322 58.6651 51.5029C58.693 51.4737 58.7149 51.4393 58.7295 51.4016C58.7441 51.3639 58.7511 51.3237 58.7501 51.2833C58.7492 51.2429 58.7403 51.2031 58.724 51.1661C58.7076 51.1292 58.6842 51.0958 58.655 51.0679C58.6257 51.04 58.5913 51.0181 58.5536 51.0035C58.5159 50.9889 58.4757 50.9819 58.4353 50.9829C57.8965 51.001 57.3719 51.1603 56.914 51.445C56.4562 51.7297 56.0812 52.1298 55.8267 52.6051C55.7891 52.6772 55.7816 52.7612 55.8058 52.8389C55.83 52.9165 55.884 52.9814 55.9559 53.0193Z" fill="url(#paint27_linear_1_2689)" fill-opacity="0.5"/>
<defs>
<linearGradient id="paint0_linear_1_2689" x1="32.6057" y1="3.02706" x2="32.6435" y2="9.18811" gradientUnits="userSpaceOnUse">
<stop stop-color="#482F28"/>
<stop offset="1" stop-color="#482F28" stop-opacity="0"/>
</linearGradient>
<linearGradient id="paint1_linear_1_2689" x1="24.4042" y1="29.7221" x2="24.4156" y2="31.913" gradientUnits="userSpaceOnUse">
<stop stop-color="#482F28"/>
<stop offset="1" stop-color="#482F28" stop-opacity="0"/>
</linearGradient>
<linearGradient id="paint2_linear_1_2689" x1="41.4273" y1="29.7194" x2="41.4387" y2="31.9044" gradientUnits="userSpaceOnUse">
<stop stop-color="#482F28"/>
<stop offset="1" stop-color="#482F28" stop-opacity="0"/>
</linearGradient>
<linearGradient id="paint3_linear_1_2689" x1="25.5081" y1="16.1899" x2="25.5134" y2="16.9379" gradientUnits="userSpaceOnUse">
<stop stop-color="#482F28"/>
<stop offset="1" stop-color="#482F28" stop-opacity="0"/>
</linearGradient>
<linearGradient id="paint4_linear_1_2689" x1="31.9998" y1="33.1153" x2="33.0866" y2="88.0033" gradientUnits="userSpaceOnUse">
<stop stop-color="#482F28"/>
<stop offset="1" stop-color="#482F28" stop-opacity="0"/>
</linearGradient>
<linearGradient id="paint5_linear_1_2689" x1="24.7576" y1="36.3741" x2="24.7641" y2="37.8994" gradientUnits="userSpaceOnUse">
<stop stop-color="#482F28"/>
<stop offset="1" stop-color="#482F28" stop-opacity="0"/>
</linearGradient>
<linearGradient id="paint6_linear_1_2689" x1="40.9508" y1="36.3722" x2="40.9572" y2="37.8975" gradientUnits="userSpaceOnUse">
<stop stop-color="#482F28"/>
<stop offset="1" stop-color="#482F28" stop-opacity="0"/>
</linearGradient>
<linearGradient id="paint7_linear_1_2689" x1="32.917" y1="44.2524" x2="32.9301" y2="46.1418" gradientUnits="userSpaceOnUse">
<stop stop-color="#482F28"/>
<stop offset="1" stop-color="#482F28" stop-opacity="0"/>
</linearGradient>
<linearGradient id="paint8_linear_1_2689" x1="32.9774" y1="49.557" x2="32.9967" y2="52.4661" gradientUnits="userSpaceOnUse">
<stop stop-color="#482F28"/>
<stop offset="1" stop-color="#482F28" stop-opacity="0"/>
</linearGradient>
<linearGradient id="paint9_linear_1_2689" x1="33.1177" y1="53.9864" x2="33.1192" y2="54.3463" gradientUnits="userSpaceOnUse">
<stop stop-color="#482F28"/>
<stop offset="1" stop-color="#482F28" stop-opacity="0"/>
</linearGradient>
<linearGradient id="paint10_linear_1_2689" x1="10.9662" y1="41.8715" x2="10.9986" y2="43.8876" gradientUnits="userSpaceOnUse">
<stop stop-color="#482F28"/>
<stop offset="1" stop-color="#482F28" stop-opacity="0"/>
</linearGradient>
<linearGradient id="paint11_linear_1_2689" x1="9.81704" y1="38.1832" x2="9.84018" y2="39.6217" gradientUnits="userSpaceOnUse">
<stop stop-color="#482F28"/>
<stop offset="1" stop-color="#482F28" stop-opacity="0"/>
</linearGradient>
<linearGradient id="paint12_linear_1_2689" x1="9.05846" y1="44.7766" x2="9.08161" y2="46.2151" gradientUnits="userSpaceOnUse">
<stop stop-color="#482F28"/>
<stop offset="1" stop-color="#482F28" stop-opacity="0"/>
</linearGradient>
<linearGradient id="paint13_linear_1_2689" x1="26.0484" y1="47.7419" x2="26.0702" y2="48.684" gradientUnits="userSpaceOnUse">
<stop stop-color="#482F28"/>
<stop offset="1" stop-color="#482F28" stop-opacity="0"/>
</linearGradient>
<linearGradient id="paint14_linear_1_2689" x1="40.791" y1="46.218" x2="40.8517" y2="47.8064" gradientUnits="userSpaceOnUse">
<stop stop-color="#482F28"/>
<stop offset="1" stop-color="#482F28" stop-opacity="0"/>
</linearGradient>
<linearGradient id="paint15_linear_1_2689" x1="42.5083" y1="43.1" x2="42.5367" y2="44.1717" gradientUnits="userSpaceOnUse">
<stop stop-color="#482F28"/>
<stop offset="1" stop-color="#482F28" stop-opacity="0"/>
</linearGradient>
<linearGradient id="paint16_linear_1_2689" x1="40.4828" y1="51.4302" x2="40.5526" y2="53.0109" gradientUnits="userSpaceOnUse">
<stop stop-color="#482F28"/>
<stop offset="1" stop-color="#482F28" stop-opacity="0"/>
</linearGradient>
<linearGradient id="paint17_linear_1_2689" x1="46.1222" y1="44.6354" x2="46.1329" y2="45.3866" gradientUnits="userSpaceOnUse">
<stop stop-color="#482F28"/>
<stop offset="1" stop-color="#482F28" stop-opacity="0"/>
</linearGradient>
<linearGradient id="paint18_linear_1_2689" x1="11.2814" y1="42.0071" x2="11.2949" y2="42.6896" gradientUnits="userSpaceOnUse">
<stop stop-color="#482F28"/>
<stop offset="1" stop-color="#482F28" stop-opacity="0"/>
</linearGradient>
<linearGradient id="paint19_linear_1_2689" x1="39.1868" y1="41.7034" x2="39.2193" y2="43.7195" gradientUnits="userSpaceOnUse">
<stop stop-color="#482F28"/>
<stop offset="1" stop-color="#482F28" stop-opacity="0"/>
</linearGradient>
<linearGradient id="paint20_linear_1_2689" x1="45.7802" y1="40.8247" x2="45.8033" y2="42.2632" gradientUnits="userSpaceOnUse">
<stop stop-color="#482F28"/>
<stop offset="1" stop-color="#482F28" stop-opacity="0"/>
</linearGradient>
<linearGradient id="paint21_linear_1_2689" x1="39.5091" y1="41.8516" x2="39.5226" y2="42.5297" gradientUnits="userSpaceOnUse">
<stop stop-color="#482F28"/>
<stop offset="1" stop-color="#482F28" stop-opacity="0"/>
</linearGradient>
<linearGradient id="paint22_linear_1_2689" x1="24.3656" y1="40.8779" x2="24.3994" y2="42.0923" gradientUnits="userSpaceOnUse">
<stop stop-color="#482F28"/>
<stop offset="1" stop-color="#482F28" stop-opacity="0"/>
</linearGradient>
<linearGradient id="paint23_linear_1_2689" x1="26.9122" y1="45.115" x2="26.9362" y2="46.0671" gradientUnits="userSpaceOnUse">
<stop stop-color="#482F28"/>
<stop offset="1" stop-color="#482F28" stop-opacity="0"/>
</linearGradient>
<linearGradient id="paint24_linear_1_2689" x1="6.13228" y1="38.3085" x2="6.13734" y2="39.1464" gradientUnits="userSpaceOnUse">
<stop stop-color="#482F28"/>
<stop offset="1" stop-color="#482F28" stop-opacity="0"/>
</linearGradient>
<linearGradient id="paint25_linear_1_2689" x1="6.70079" y1="36.406" x2="6.71643" y2="37.7926" gradientUnits="userSpaceOnUse">
<stop stop-color="#482F28"/>
<stop offset="1" stop-color="#482F28" stop-opacity="0"/>
</linearGradient>
<linearGradient id="paint26_linear_1_2689" x1="57.7779" y1="53.5763" x2="57.7829" y2="54.4166" gradientUnits="userSpaceOnUse">
<stop stop-color="#482F28"/>
<stop offset="1" stop-color="#482F28" stop-opacity="0"/>
</linearGradient>
<linearGradient id="paint27_linear_1_2689" x1="57.2152" y1="51.6654" x2="57.2308" y2="53.0546" gradientUnits="userSpaceOnUse">
<stop stop-color="#482F28"/>
<stop offset="1" stop-color="#482F28" stop-opacity="0"/>
</linearGradient>
</defs>
</svg>
