<svg width="25" height="25" viewBox="0 0 25 25" fill="none" xmlns="http://www.w3.org/2000/svg">
<path d="M7.4445 21.0268C7.29918 21.1041 7.13043 21.1299 6.96871 21.1018C6.5609 21.0315 6.28668 20.6447 6.357 20.2369L7.4445 21.0268ZM7.4445 21.0268L12.7672 18.2283L7.4445 21.0268ZM18.8795 20.9705C18.9927 20.8882 19.0806 20.7759 19.1333 20.6463C19.1859 20.5166 19.2012 20.3748 19.1773 20.2369L18.1601 14.3096L22.4656 10.1119C22.6082 9.97295 22.6897 9.78306 22.6924 9.58397C22.695 9.38489 22.6185 9.19291 22.4797 9.0502C22.3648 8.93302 22.2148 8.85567 22.0507 8.83224L18.0898 21.0268C18.2136 21.0921 18.3531 21.1215 18.4927 21.1115C18.6323 21.1016 18.7663 21.0527 18.8795 20.9705ZM18.8795 20.9705L18.7913 20.8491C18.7008 20.9149 18.5936 20.9539 18.482 20.9619C18.3704 20.9698 18.2588 20.9464 18.1598 20.8941L18.1596 20.894L12.837 18.0956L12.7672 18.0589L12.6973 18.0956L7.37469 20.894L7.37402 20.8944C7.25879 20.9557 7.12396 20.9765 6.99441 20.954L6.9942 20.9539C6.66766 20.8976 6.44864 20.5882 6.50482 20.2624L6.50484 20.2623L7.52202 14.3349L7.53536 14.2572L7.4789 14.2022L3.1737 10.0048C3.17366 10.0047 3.17361 10.0047 3.17357 10.0047C3.07955 9.91246 3.01791 9.79253 2.99924 9.6618L2.999 9.66014C2.94868 9.33402 3.17583 9.02975 3.50533 8.98065C3.50542 8.98063 3.50551 8.98062 3.5056 8.98061L9.45591 8.11583L9.53397 8.10449L9.56886 8.03375L12.229 2.64078L12.2291 2.64065C12.2871 2.5227 12.3826 2.42721 12.5006 2.36917L12.5007 2.36908C12.7965 2.22309 13.1569 2.34448 13.3055 2.64118C13.3055 2.64129 13.3056 2.6414 13.3056 2.6415L15.9654 8.03375L16.0003 8.10449L16.0784 8.11583L22.0292 8.98068L22.0295 8.98073C22.1602 8.9994 22.2802 9.06103 22.3724 9.15503C22.4833 9.26921 22.5445 9.42276 22.5424 9.58199C22.5403 9.74132 22.475 9.89329 22.3609 10.0045L22.3609 10.0045L18.0554 14.2022L17.9989 14.2572L18.0123 14.3349L19.0295 20.2623L19.0295 20.2625C19.0486 20.3728 19.0364 20.4862 18.9943 20.5898C18.9522 20.6935 18.8819 20.7833 18.7913 20.8491L18.8795 20.9705Z" fill="#FFC01F" stroke="#222222" stroke-width="0.3"/>
</svg>
