<svg width="24" height="22" viewBox="0 0 24 22" fill="none" xmlns="http://www.w3.org/2000/svg">
<path d="M22.8777 11.9098C22.8139 11.8036 22.7394 11.7032 22.6556 11.6095L20.2674 8.87364C19.8093 8.34984 19.1167 8.04515 18.3843 8.04549H15.129V7.30685C15.1283 6.71941 14.8734 6.15602 14.4201 5.74074C13.967 5.32526 13.3524 5.09163 12.7116 5.09095C12.7116 3.50766 11.7902 2.04458 10.2943 1.25285C8.79838 0.461289 6.95549 0.461289 5.4596 1.25285C3.9637 2.04458 3.04225 3.50766 3.04225 5.09095C2.4014 5.09161 1.7868 5.32524 1.33377 5.74074C0.880511 6.15605 0.625645 6.71945 0.624908 7.30685V16.9091C0.625628 17.4965 0.880493 18.0599 1.33377 18.4752C1.78684 18.8907 2.40145 19.1243 3.04225 19.125H3.15665C3.39262 19.9759 4.03113 20.6855 4.89736 21.0601C5.76355 21.4345 6.76719 21.4345 7.63343 21.0601C8.49962 20.6855 9.13817 19.9759 9.37414 19.125H15.2435C15.4847 19.9896 16.1404 20.7071 17.0266 21.0766C17.9128 21.4461 18.9337 21.4273 19.8032 21.0258C20.6724 20.6242 21.2964 19.8831 21.4998 19.0104C21.9878 18.8694 22.4142 18.59 22.7175 18.2122C23.0207 17.8343 23.1851 17.3781 23.1869 16.9091V12.9943C23.1858 12.874 23.1741 12.7538 23.1522 12.6349C23.1702 12.5838 23.1819 12.5309 23.1869 12.4773C23.1844 12.2547 23.0705 12.0455 22.8779 11.9098L22.8777 11.9098ZM18.3842 9.52272C18.6283 9.52305 18.8591 9.62494 19.0114 9.79971L20.7036 11.7386H15.1289V9.52274L18.3842 9.52272ZM7.87686 2.13639C8.73172 2.13639 9.55155 2.44768 10.1559 3.00182C10.7604 3.55579 11.1 4.3073 11.1 5.09093C11.1 5.87455 10.7604 6.62606 10.1559 7.18003C9.55155 7.73418 8.73172 8.04546 7.87686 8.04546C7.02199 8.04546 6.20217 7.73418 5.59783 7.18003C4.99331 6.62606 4.65373 5.87455 4.65373 5.09093C4.65463 4.30759 4.99439 3.55647 5.59871 3.00262C6.20286 2.44865 7.02231 2.1372 7.87686 2.13639ZM2.23639 16.909V7.30682C2.23657 7.11095 2.32146 6.92316 2.47255 6.78467C2.62363 6.64618 2.82849 6.56836 3.04216 6.56819H3.32419C3.76935 7.72726 4.72045 8.66456 5.94965 9.15522C7.17863 9.64589 8.57512 9.64589 9.8041 9.15522C11.0333 8.66456 11.9844 7.72726 12.4296 6.56819H12.7116C12.9253 6.56836 13.1301 6.64618 13.2812 6.78467C13.4323 6.92316 13.5172 7.11096 13.5174 7.30682V17.6477H9.37408C9.1381 16.7968 8.4996 16.0871 7.63336 15.7125C6.76717 15.3381 5.76354 15.3381 4.8973 15.7125C4.03111 16.0871 3.39256 16.7968 3.15658 17.6477H3.04219C2.82851 17.6475 2.62365 17.5697 2.47257 17.4312C2.32149 17.2927 2.23659 17.1049 2.23641 16.9091L2.23639 16.909ZM6.26529 19.8636C5.83794 19.8636 5.42802 19.7079 5.12569 19.431C4.82352 19.1538 4.65373 18.778 4.65373 18.3863C4.65373 17.9946 4.82352 17.6188 5.12569 17.3417C5.42804 17.0647 5.83795 16.909 6.26529 16.909C6.69263 16.909 7.10257 17.0647 7.4049 17.3417C7.70707 17.6188 7.87686 17.9946 7.87686 18.3863C7.87632 18.7779 7.70635 19.1535 7.40416 19.4303C7.10217 19.7073 6.69245 19.8631 6.26529 19.8636ZM18.352 19.8636C17.9247 19.8636 17.5147 19.7079 17.2124 19.431C16.9102 19.1538 16.7404 18.778 16.7404 18.3863C16.7404 17.9946 16.9102 17.6188 17.2124 17.3417C17.5148 17.0647 17.9247 16.909 18.352 16.909C18.7794 16.909 19.1893 17.0647 19.4916 17.3417C19.7938 17.6188 19.9636 17.9946 19.9636 18.3863C19.963 18.7779 19.7931 19.1535 19.4909 19.4303C19.1889 19.7073 18.7792 19.8631 18.352 19.8636ZM21.3721 17.3864C21.0629 16.5892 20.394 15.9528 19.5366 15.64C18.679 15.3273 17.716 15.3683 16.8941 15.7528C16.0719 16.1371 15.4704 16.8278 15.2433 17.6477H15.1289V13.2159H21.5751V16.9091C21.5728 17.0855 21.5007 17.255 21.3721 17.3864L21.3721 17.3864Z" fill="#222222"/>
<path d="M8.11305 6.35191C8.31773 6.53311 8.61144 6.60203 8.88591 6.53311C9.1602 6.46403 9.37458 6.2675 9.44996 6.01607C9.52514 5.76447 9.44996 5.49523 9.25229 5.30761L8.68267 4.7853V3.61387C8.68267 3.3499 8.52907 3.10607 8.27978 2.97417C8.03049 2.84227 7.72328 2.84227 7.474 2.97417C7.22471 3.10607 7.07111 3.34991 7.07111 3.61387V5.09113C7.07111 5.287 7.156 5.47496 7.30726 5.61328L8.11305 6.35191Z" fill="#222222"/>
</svg>
