<svg width="21" height="20" viewBox="0 0 21 20" fill="none" xmlns="http://www.w3.org/2000/svg">
<path d="M14.4018 10.6657C15.5908 9.60622 16.2961 8.11034 16.3552 6.52211C16.4144 4.93394 15.8225 3.38994 14.7156 2.24544C13.6088 1.10116 12.0823 0.45459 10.4871 0.45459C8.89187 0.45459 7.3654 1.10122 6.25854 2.24544C5.15169 3.38994 4.55981 4.93388 4.61894 6.52211C4.67811 8.11028 5.38331 9.60622 6.57231 10.6657C4.9323 11.2379 3.51116 12.3031 2.50491 13.7144C1.49866 15.1255 0.957064 16.8133 0.954559 18.5445C0.954559 18.902 1.14617 19.2326 1.45701 19.4115C1.76786 19.5902 2.15084 19.5902 2.46169 19.4115C2.77276 19.2326 2.96414 18.9021 2.96414 18.5445C2.96596 16.8588 3.63885 15.2427 4.83513 14.0509C6.03141 12.859 7.65347 12.1886 9.34515 12.1868H11.6549C13.3468 12.1886 14.9688 12.859 16.1651 14.0509C17.3614 15.2427 18.0343 16.8588 18.0361 18.5445C18.0361 18.902 18.2275 19.2326 18.5383 19.4115C18.8492 19.5902 19.2324 19.5902 19.5432 19.4115C19.8541 19.2326 20.0455 18.9021 20.0455 18.5445C20.0414 16.8101 19.4959 15.1201 18.4846 13.7085C17.4733 12.297 16.0465 11.2334 14.4017 10.6657H14.4018ZM10.4871 2.50749C11.5064 2.50749 12.4837 2.91083 13.2045 3.62884C13.9254 4.34686 14.3302 5.32084 14.3302 6.33632C14.3302 7.3518 13.9254 8.32555 13.2045 9.04363C12.4838 9.76165 11.5064 10.165 10.4871 10.165C9.46784 10.165 8.49054 9.76164 7.76981 9.04363C7.04889 8.32561 6.64408 7.35186 6.64408 6.33632C6.64408 5.32078 7.04891 4.34686 7.76981 3.62884C8.49048 2.91082 9.46784 2.50749 10.4871 2.50749Z" fill="#222222"/>
</svg>
