<svg width="20" height="20" viewBox="0 0 20 20" fill="none" xmlns="http://www.w3.org/2000/svg">
<path d="M19.1475 15.6924H17.8986C17.5418 15.0402 16.947 14.5067 16.2336 14.3288L16.234 5.37602C16.234 4.9608 15.8772 4.60514 15.4608 4.60514H4.75721V1.22547C4.75721 0.810249 4.40049 0.45459 3.98405 0.45459H1.5459C1.12945 0.45459 0.772736 0.810259 0.772736 1.22547C0.772736 1.64069 1.12946 1.99635 1.5459 1.99635H3.27016V14.3284C2.14023 14.6249 1.30783 15.6328 1.30783 16.8776C1.30783 18.3598 2.49701 19.5455 3.98362 19.5455C5.3512 19.5455 6.48113 18.5376 6.65941 17.2332H12.7249C12.9033 18.5376 14.0331 19.5455 15.4007 19.5455C16.7683 19.5455 17.8982 18.5376 18.0765 17.2332H19.0873C19.5038 17.2332 19.8605 16.8776 19.8605 16.4624C19.8609 16.048 19.5038 15.6923 19.147 15.6923L19.1475 15.6924ZM15.4016 18.0046C14.7475 18.0046 14.2124 17.4711 14.2124 16.819C14.2124 16.1668 14.7475 15.6333 15.4016 15.6333C16.0557 15.6333 16.5908 16.1668 16.5908 16.819C16.5908 17.4707 16.115 18.0046 15.4016 18.0046ZM10.7037 6.08759V7.98504H8.74136V6.08759H10.7037ZM7.25475 6.08759V8.6964C7.25475 9.11162 7.61147 9.46728 8.02791 9.46728H11.4768C11.8933 9.46728 12.25 9.11161 12.25 8.6964V6.08759H14.7475V14.3287C14.0341 14.5657 13.3799 15.0401 13.0825 15.6923H6.54122C6.1845 15.0401 5.58969 14.5066 4.87622 14.3287V6.08759H7.25475ZM4.04388 18.0046C3.38975 18.0046 2.8547 17.4711 2.8547 16.819C2.8547 16.1668 3.38978 15.6333 4.04388 15.6333C4.69798 15.6333 5.23307 16.1668 5.23307 16.819C5.23307 17.4707 4.69798 18.0046 4.04388 18.0046Z" fill="#222222"/>
</svg>
