<svg width="150" height="301" viewBox="0 0 150 301" fill="none" xmlns="http://www.w3.org/2000/svg">
<path d="M60.225 89.9497C60.225 89.9497 74.825 61.6623 87.6 89.9497" stroke="#FE8D9D" stroke-width="3.65" stroke-linecap="round" stroke-linejoin="round"/>
<g filter="url(#filter0_d_1_2563)">
<path fill-rule="evenodd" clip-rule="evenodd" d="M73 84.4747C56.0912 84.4747 42.1662 97.2499 40.3505 113.675H14.6C6.53664 113.675 0 120.211 0 128.275V281.575C0 289.638 6.53665 296.175 14.6 296.175H131.4C139.463 296.175 146 289.638 146 281.575V128.275C146 120.211 139.463 113.675 131.4 113.675H105.65C103.834 97.2499 89.9088 84.4747 73 84.4747ZM73 130.1C80.0554 130.1 85.775 124.38 85.775 117.325C85.775 110.269 80.0554 104.55 73 104.55C65.9446 104.55 60.225 110.269 60.225 117.325C60.225 124.38 65.9446 130.1 73 130.1Z" fill="#2B3044"/>
</g>
<g clip-path="url(#clip0_1_2563)">
<path d="M18.1577 195.303C18.7789 195.303 19.3828 195.251 19.9695 195.147C20.5561 195.043 21.0824 194.871 21.5483 194.629C22.0314 194.387 22.4369 194.076 22.7648 193.696C23.1099 193.315 23.3342 192.849 23.4377 192.296H25.8448V210.44H22.6095V197.635H18.1577V195.303ZM33.4352 199.218C33.4869 199.737 33.6836 200.1 34.0253 200.307C34.3669 200.514 34.7759 200.618 35.2521 200.618C35.4177 200.618 35.6041 200.608 35.8112 200.587C36.0286 200.556 36.2304 200.504 36.4168 200.431C36.6032 200.359 36.7533 200.255 36.8672 200.12C36.9914 199.975 37.0483 199.789 37.038 199.56C37.0276 199.332 36.9448 199.146 36.7895 199.001C36.6342 198.855 36.4323 198.741 36.1839 198.658C35.9457 198.565 35.6714 198.487 35.3608 198.425C35.0502 198.363 34.7344 198.296 34.4135 198.223C34.0822 198.15 33.7613 198.062 33.4507 197.959C33.1504 197.855 32.8761 197.715 32.6276 197.539C32.3895 197.362 32.198 197.14 32.053 196.87C31.9081 196.59 31.8356 196.248 31.8356 195.844C31.8356 195.408 31.9392 195.045 32.1462 194.755C32.3636 194.454 32.6328 194.216 32.9537 194.039C33.285 193.853 33.6474 193.723 34.0408 193.651C34.4446 193.578 34.8276 193.542 35.19 193.542C35.6041 193.542 35.9975 193.588 36.3702 193.682C36.7533 193.765 37.0949 193.905 37.3952 194.102C37.7057 194.299 37.9594 194.558 38.1561 194.879C38.3632 195.19 38.4926 195.569 38.5443 196.015H36.6963C36.6135 195.59 36.4168 195.304 36.1062 195.159C35.806 195.014 35.4592 194.942 35.0657 194.942C34.9415 194.942 34.7914 194.952 34.6154 194.973C34.4497 194.993 34.2893 195.035 34.134 195.097C33.989 195.149 33.8648 195.232 33.7613 195.346C33.6577 195.45 33.606 195.59 33.606 195.766C33.606 195.983 33.6784 196.16 33.8234 196.295C33.9787 196.429 34.1754 196.543 34.4135 196.637C34.662 196.72 34.9415 196.792 35.2521 196.854C35.5627 196.917 35.8836 196.984 36.2149 197.057C36.5359 197.129 36.8516 197.217 37.1622 197.321C37.4728 197.425 37.7472 197.565 37.9853 197.741C38.2337 197.917 38.4304 198.14 38.5754 198.41C38.7307 198.679 38.8083 199.011 38.8083 199.405C38.8083 199.882 38.6996 200.286 38.4822 200.618C38.2648 200.95 37.9801 201.219 37.6281 201.427C37.2864 201.634 36.9034 201.784 36.4789 201.878C36.0544 201.971 35.6352 202.018 35.221 202.018C34.7137 202.018 34.2427 201.961 33.8079 201.847C33.3834 201.733 33.0107 201.561 32.6897 201.333C32.3792 201.095 32.1307 200.805 31.9443 200.462C31.7683 200.11 31.6752 199.695 31.6648 199.218H33.4352ZM39.8108 193.76H41.1464V191.349H42.9167V193.76H44.5162V195.081H42.9167V199.374C42.9167 199.56 42.9219 199.721 42.9322 199.856C42.953 199.991 42.9892 200.105 43.041 200.198C43.1031 200.291 43.1911 200.364 43.305 200.416C43.4188 200.457 43.5741 200.478 43.7708 200.478C43.8951 200.478 44.0193 200.478 44.1435 200.478C44.2678 200.468 44.392 200.447 44.5162 200.416V201.784C44.3195 201.805 44.128 201.826 43.9417 201.847C43.7553 201.867 43.5638 201.878 43.3671 201.878C42.9012 201.878 42.5233 201.836 42.2334 201.753C41.9539 201.66 41.7313 201.53 41.5657 201.364C41.4104 201.188 41.3017 200.971 41.2395 200.711C41.1878 200.452 41.1567 200.157 41.1464 199.825V195.081H39.8108V193.76ZM54.4428 191.933H58.9981L64.0969 206.422H64.1487L69.1181 191.933H73.6216V210.44H70.5416V196.158H70.4898L65.3651 210.44H62.6992L57.5745 196.158H57.5228V210.44H54.4428V191.933ZM83.2154 210.803C82.1456 210.803 81.188 210.63 80.3425 210.284C79.5143 209.922 78.8068 209.429 78.2201 208.807C77.6507 208.185 77.2107 207.442 76.9001 206.578C76.6068 205.714 76.4601 204.763 76.4601 203.727C76.4601 202.707 76.6068 201.765 76.9001 200.901C77.2107 200.037 77.6507 199.294 78.2201 198.672C78.8068 198.05 79.5143 197.566 80.3425 197.221C81.188 196.858 82.1456 196.676 83.2154 196.676C84.2852 196.676 85.2343 196.858 86.0625 197.221C86.908 197.566 87.6154 198.05 88.1848 198.672C88.7715 199.294 89.2115 200.037 89.5048 200.901C89.8154 201.765 89.9707 202.707 89.9707 203.727C89.9707 204.763 89.8154 205.714 89.5048 206.578C89.2115 207.442 88.7715 208.185 88.1848 208.807C87.6154 209.429 86.908 209.922 86.0625 210.284C85.2343 210.63 84.2852 210.803 83.2154 210.803ZM83.2154 208.47C83.8711 208.47 84.4405 208.332 84.9237 208.055C85.4068 207.779 85.8037 207.416 86.1143 206.967C86.4249 206.517 86.6492 206.016 86.7872 205.463C86.9425 204.893 87.0201 204.314 87.0201 203.727C87.0201 203.156 86.9425 202.586 86.7872 202.016C86.6492 201.446 86.4249 200.945 86.1143 200.513C85.8037 200.063 85.4068 199.7 84.9237 199.424C84.4405 199.147 83.8711 199.009 83.2154 199.009C82.5598 199.009 81.9903 199.147 81.5072 199.424C81.0241 199.7 80.6272 200.063 80.3166 200.513C80.006 200.945 79.7731 201.446 79.6178 202.016C79.4798 202.586 79.4107 203.156 79.4107 203.727C79.4107 204.314 79.4798 204.893 79.6178 205.463C79.7731 206.016 80.006 206.517 80.3166 206.967C80.6272 207.416 81.0241 207.779 81.5072 208.055C81.9903 208.332 82.5598 208.47 83.2154 208.47ZM92.4237 197.039H95.219V199.009L95.2708 199.061C95.7194 198.318 96.3061 197.739 97.0308 197.324C97.7555 196.892 98.5578 196.676 99.4379 196.676C100.905 196.676 102.061 197.057 102.906 197.817C103.752 198.577 104.174 199.718 104.174 201.238V210.44H101.224V202.016C101.189 200.962 100.965 200.202 100.551 199.735C100.137 199.251 99.4896 199.009 98.6096 199.009C98.1092 199.009 97.6606 199.104 97.2637 199.294C96.8669 199.467 96.5304 199.718 96.2543 200.046C95.9782 200.357 95.7626 200.729 95.6073 201.161C95.452 201.593 95.3743 202.051 95.3743 202.534V210.44H92.4237V197.039ZM105.94 197.039H108.166V193.022H111.116V197.039H113.782V199.243H111.116V206.396C111.116 206.707 111.125 206.975 111.142 207.2C111.177 207.425 111.237 207.615 111.323 207.77C111.427 207.926 111.574 208.047 111.763 208.133C111.953 208.202 112.212 208.237 112.54 208.237C112.747 208.237 112.954 208.237 113.161 208.237C113.368 208.219 113.575 208.185 113.782 208.133V210.414C113.454 210.449 113.135 210.483 112.825 210.518C112.514 210.552 112.195 210.57 111.867 210.57C111.091 210.57 110.461 210.5 109.978 210.362C109.512 210.207 109.141 209.991 108.865 209.714C108.606 209.42 108.425 209.058 108.321 208.626C108.235 208.194 108.183 207.701 108.166 207.148V199.243H105.94V197.039ZM115.905 191.933H118.855V198.802H118.907C119.27 198.197 119.804 197.696 120.512 197.299C121.237 196.884 122.039 196.676 122.919 196.676C124.386 196.676 125.542 197.057 126.387 197.817C127.232 198.577 127.655 199.718 127.655 201.238V210.44H124.705V202.016C124.67 200.962 124.446 200.202 124.032 199.735C123.618 199.251 122.971 199.009 122.091 199.009C121.59 199.009 121.142 199.104 120.745 199.294C120.348 199.467 120.012 199.718 119.735 200.046C119.459 200.357 119.244 200.729 119.088 201.161C118.933 201.593 118.855 202.051 118.855 202.534V210.44H115.905V191.933ZM20.5231 225.413H33.2831V228.212H23.7584V233.059H32.1184V235.703H23.7584V243.92H20.5231V225.413ZM35.4514 230.519H38.2208V233.111H38.2726C38.3588 232.748 38.5228 232.394 38.7643 232.049C39.0232 231.703 39.3251 231.392 39.6702 231.115C40.0326 230.822 40.4294 230.588 40.8608 230.416C41.2922 230.243 41.7322 230.156 42.1808 230.156C42.5259 230.156 42.7588 230.165 42.8796 230.182C43.0177 230.2 43.1557 230.217 43.2937 230.234V233.085C43.0867 233.051 42.871 233.025 42.6467 233.008C42.4396 232.973 42.2326 232.956 42.0255 232.956C41.5251 232.956 41.0506 233.059 40.602 233.267C40.1706 233.457 39.791 233.751 39.4632 234.148C39.1353 234.528 38.8765 235.003 38.6867 235.574C38.4969 236.144 38.402 236.801 38.402 237.544V243.92H35.4514V230.519ZM53.2839 236.04C53.2494 235.574 53.1459 235.124 52.9733 234.692C52.818 234.26 52.5937 233.889 52.3004 233.578C52.0243 233.25 51.6792 232.99 51.2651 232.8C50.8682 232.593 50.4196 232.489 49.9192 232.489C49.4015 232.489 48.927 232.584 48.4957 232.774C48.0815 232.947 47.7192 233.198 47.4086 233.526C47.1153 233.837 46.8737 234.209 46.6839 234.641C46.5113 235.073 46.4164 235.539 46.3992 236.04H53.2839ZM46.3992 237.984C46.3992 238.503 46.4682 239.004 46.6063 239.488C46.7615 239.971 46.9859 240.395 47.2792 240.758C47.5725 241.121 47.9435 241.414 48.3921 241.639C48.8408 241.846 49.3757 241.95 49.9968 241.95C50.8596 241.95 51.5498 241.769 52.0674 241.406C52.6023 241.026 52.9992 240.464 53.258 239.721H56.0533C55.898 240.447 55.6306 241.095 55.251 241.665C54.8713 242.235 54.4141 242.719 53.8792 243.116C53.3443 243.497 52.7404 243.782 52.0674 243.972C51.4117 244.179 50.7215 244.283 49.9968 244.283C48.9443 244.283 48.0125 244.11 47.2015 243.764C46.3906 243.419 45.7004 242.935 45.131 242.313C44.5788 241.691 44.1561 240.948 43.8627 240.084C43.5866 239.22 43.4486 238.269 43.4486 237.233C43.4486 236.282 43.5953 235.384 43.8886 234.537C44.1992 233.673 44.6306 232.921 45.1827 232.282C45.7521 231.625 46.4337 231.107 47.2274 230.727C48.0212 230.347 48.9184 230.156 49.9192 230.156C50.9717 230.156 51.9121 230.381 52.7404 230.83C53.5859 231.262 54.2847 231.841 54.8368 232.567C55.389 233.293 55.7859 234.131 56.0274 235.081C56.2863 236.014 56.3553 236.982 56.2345 237.984H46.3992ZM67.6659 236.04C67.6313 235.574 67.5278 235.124 67.3553 234.692C67.2 234.26 66.9757 233.889 66.6823 233.578C66.4062 233.25 66.0612 232.99 65.647 232.8C65.2502 232.593 64.8015 232.489 64.3012 232.489C63.7835 232.489 63.309 232.584 62.8776 232.774C62.4635 232.947 62.1012 233.198 61.7906 233.526C61.4972 233.837 61.2557 234.209 61.0659 234.641C60.8933 235.073 60.7984 235.539 60.7812 236.04H67.6659ZM60.7812 237.984C60.7812 238.503 60.8502 239.004 60.9882 239.488C61.1435 239.971 61.3678 240.395 61.6612 240.758C61.9545 241.121 62.3255 241.414 62.7741 241.639C63.2227 241.846 63.7576 241.95 64.3788 241.95C65.2415 241.95 65.9317 241.769 66.4494 241.406C66.9843 241.026 67.3812 240.464 67.64 239.721H70.4353C70.28 240.447 70.0125 241.095 69.6329 241.665C69.2533 242.235 68.7961 242.719 68.2612 243.116C67.7263 243.497 67.1223 243.782 66.4494 243.972C65.7937 244.179 65.1035 244.283 64.3788 244.283C63.3262 244.283 62.3945 244.11 61.5835 243.764C60.7725 243.419 60.0823 242.935 59.5129 242.313C58.9608 241.691 58.538 240.948 58.2447 240.084C57.9686 239.22 57.8306 238.269 57.8306 237.233C57.8306 236.282 57.9772 235.384 58.2706 234.537C58.5812 233.673 59.0125 232.921 59.5647 232.282C60.1341 231.625 60.8157 231.107 61.6094 230.727C62.4031 230.347 63.3004 230.156 64.3012 230.156C65.3537 230.156 66.2941 230.381 67.1223 230.83C67.9678 231.262 68.6666 231.841 69.2188 232.567C69.771 233.293 70.1678 234.131 70.4094 235.081C70.6682 236.014 70.7372 236.982 70.6164 237.984H60.7812ZM78.7172 225.413H93.6772V228.212H87.8019V243.92H84.5666V228.212H78.7172V225.413ZM93.0295 230.519H95.7989V233.111H95.8507C95.9369 232.748 96.1009 232.394 96.3424 232.049C96.6012 231.703 96.9032 231.392 97.2483 231.115C97.6107 230.822 98.0075 230.588 98.4389 230.416C98.8703 230.243 99.3103 230.156 99.7589 230.156C100.104 230.156 100.337 230.165 100.458 230.182C100.596 230.2 100.734 230.217 100.872 230.234V233.085C100.665 233.051 100.449 233.025 100.225 233.008C100.018 232.973 99.8107 232.956 99.6036 232.956C99.1032 232.956 98.6287 233.059 98.1801 233.267C97.7487 233.457 97.3691 233.751 97.0413 234.148C96.7134 234.528 96.4546 235.003 96.2648 235.574C96.075 236.144 95.9801 236.801 95.9801 237.544V243.92H93.0295V230.519ZM102.206 225.413H105.157V228.212H102.206V225.413ZM102.206 230.519H105.157V243.92H102.206V230.519ZM119.579 240.939C119.579 241.302 119.622 241.561 119.708 241.717C119.812 241.872 120.002 241.95 120.278 241.95C120.364 241.95 120.468 241.95 120.588 241.95C120.709 241.95 120.847 241.933 121.002 241.898V243.946C120.899 243.98 120.761 244.015 120.588 244.05C120.433 244.101 120.269 244.145 120.097 244.179C119.924 244.214 119.752 244.24 119.579 244.257C119.406 244.274 119.26 244.283 119.139 244.283C118.535 244.283 118.035 244.162 117.638 243.92C117.241 243.678 116.982 243.255 116.861 242.65C116.275 243.22 115.55 243.635 114.687 243.894C113.842 244.153 113.022 244.283 112.228 244.283C111.624 244.283 111.046 244.196 110.494 244.024C109.942 243.868 109.45 243.635 109.019 243.324C108.605 242.995 108.268 242.589 108.01 242.106C107.768 241.604 107.647 241.026 107.647 240.369C107.647 239.539 107.794 238.866 108.087 238.347C108.398 237.829 108.795 237.423 109.278 237.129C109.778 236.835 110.33 236.628 110.934 236.507C111.555 236.369 112.177 236.265 112.798 236.196C113.333 236.092 113.842 236.023 114.325 235.988C114.808 235.937 115.231 235.859 115.593 235.755C115.973 235.651 116.266 235.496 116.473 235.289C116.697 235.064 116.81 234.736 116.81 234.304C116.81 233.923 116.715 233.612 116.525 233.371C116.352 233.129 116.128 232.947 115.852 232.826C115.593 232.688 115.3 232.602 114.972 232.567C114.644 232.515 114.333 232.489 114.04 232.489C113.212 232.489 112.53 232.662 111.995 233.008C111.461 233.353 111.159 233.889 111.09 234.615H108.139C108.191 233.751 108.398 233.034 108.76 232.463C109.122 231.893 109.58 231.435 110.132 231.09C110.701 230.744 111.34 230.502 112.047 230.364C112.755 230.226 113.479 230.156 114.221 230.156C114.877 230.156 115.524 230.226 116.162 230.364C116.801 230.502 117.37 230.727 117.871 231.038C118.388 231.349 118.802 231.755 119.113 232.256C119.424 232.74 119.579 233.336 119.579 234.044V240.939ZM116.628 237.207C116.18 237.5 115.628 237.682 114.972 237.751C114.316 237.803 113.661 237.889 113.005 238.01C112.694 238.062 112.392 238.14 112.099 238.243C111.806 238.33 111.547 238.459 111.322 238.632C111.098 238.788 110.917 239.004 110.779 239.28C110.658 239.539 110.598 239.859 110.598 240.239C110.598 240.568 110.693 240.844 110.882 241.069C111.072 241.293 111.297 241.475 111.555 241.613C111.832 241.734 112.125 241.82 112.435 241.872C112.763 241.924 113.057 241.95 113.315 241.95C113.643 241.95 113.997 241.907 114.377 241.82C114.756 241.734 115.11 241.587 115.438 241.38C115.783 241.172 116.068 240.913 116.292 240.602C116.516 240.274 116.628 239.876 116.628 239.41V237.207ZM122.831 225.413H125.782V243.92H122.831V225.413Z" fill="white"/>
</g>
<rect x="7.5" y="148.5" width="130.4" height="137.7" rx="14.1" stroke="white" stroke-linecap="round" stroke-dasharray="9.12 9.12"/>
<path fill-rule="evenodd" clip-rule="evenodd" d="M73 139.225C85.095 139.225 94.9 129.42 94.9 117.325C94.9 105.23 85.095 95.4249 73 95.4249C60.9049 95.4249 51.1 105.23 51.1 117.325C51.1 129.42 60.9049 139.225 73 139.225ZM73 130.1C80.0554 130.1 85.775 124.38 85.775 117.325C85.775 110.27 80.0554 104.55 73 104.55C65.9445 104.55 60.225 110.27 60.225 117.325C60.225 124.38 65.9445 130.1 73 130.1Z" fill="#DEDEDE"/>
<path d="M74.2819 108C74.2819 108 59.0586 64.1932 59.5 34C59.6694 22.4119 65 13 69.5 10" stroke="#FE8D9D" stroke-width="3.65" stroke-linecap="square" stroke-linejoin="round"/>
<path d="M75 108C75 108 98 61.5 98 29C99.5 8.99997 88 -3.00007 77.5 4.5" stroke="#FE8D9D" stroke-width="3.65" stroke-linecap="square" stroke-linejoin="round"/>
<defs>
<filter id="filter0_d_1_2563" x="0" y="84.4747" width="150" height="215.7" filterUnits="userSpaceOnUse" color-interpolation-filters="sRGB">
<feFlood flood-opacity="0" result="BackgroundImageFix"/>
<feColorMatrix in="SourceAlpha" type="matrix" values="0 0 0 0 0 0 0 0 0 0 0 0 0 0 0 0 0 0 127 0" result="hardAlpha"/>
<feOffset dx="4" dy="4"/>
<feComposite in2="hardAlpha" operator="out"/>
<feColorMatrix type="matrix" values="0 0 0 0 1 0 0 0 0 0.407843 0 0 0 0 0.184314 0 0 0 1 0"/>
<feBlend mode="normal" in2="BackgroundImageFix" result="effect1_dropShadow_1_2563"/>
<feBlend mode="normal" in="SourceGraphic" in2="effect1_dropShadow_1_2563" result="shape"/>
</filter>
<clipPath id="clip0_1_2563">
<rect width="110" height="54" fill="white" transform="translate(18 191)"/>
</clipPath>
</defs>
</svg>
