<svg width="155" height="124" viewBox="0 0 155 124" fill="none" xmlns="http://www.w3.org/2000/svg">
<path d="M8.03488 109.689C8.68739 107.114 10.0081 104.055 10.4938 102.397C11.6123 98.4667 12.8922 94.6382 14.1004 90.7544C15.574 86.0417 8.4145 83.519 6.86903 88.2216C5.00833 93.8339 3.47086 99.5594 2.05468 105.305C1.19455 108.85 -1.13737 114.274 1.12391 117.764C3.23358 121.011 8.3553 121.143 11.6756 121.724C17.6468 122.703 23.6695 123.309 29.7089 123.537C30.3072 123.554 30.8876 123.34 31.3298 122.938C31.772 122.536 32.0424 121.977 32.0849 121.377C32.1274 120.777 31.9389 120.181 31.5582 119.713C31.1776 119.244 30.6341 118.94 30.04 118.862C26.4449 118.358 22.9399 117.811 19.4627 117.137C16.9651 116.595 14.4364 115.989 11.8855 115.337C11.6116 115.256 11.3511 115.203 11.0995 115.145C47.6861 105.744 59.7148 65.2174 84.0292 40.6679C90.8165 33.8267 99.003 27.7249 108.478 25.3613C108.96 25.2505 109.487 25.1402 109.941 25.0652C107.315 31.7166 106.568 39.2002 109.018 46.0503C111.468 52.9004 117.584 58.7978 125.304 57.4592C132.642 56.1378 138.594 49.0268 138.887 41.573C139.256 33.179 132.963 25.8671 125.732 22.4654C122.925 21.1546 119.921 20.3301 116.849 20.0269C124.402 8.05109 138.962 0.985274 153.194 2.99288C154.263 3.14835 154.628 1.35695 153.568 1.10658C137.546 -2.51033 120.757 5.91314 112.582 19.9075C96.0632 20.809 80.5556 35.9755 71.1096 47.9606C53.0651 70.7165 39.3029 103.299 8.03488 109.689ZM114.301 24.6881C122.248 24.638 130.333 28.2328 133.551 36.1075C137.102 44.7789 128.523 56.9392 118.973 52.242C110.438 48.0661 110.632 35.3116 113.134 27.6493C113.494 26.6724 113.873 25.6641 114.301 24.6881Z" fill="url(#paint0_linear_1_2549)"/>
<defs>
<linearGradient id="paint0_linear_1_2549" x1="-5.01205" y1="105.28" x2="164.392" y2="22.6028" gradientUnits="userSpaceOnUse">
<stop stop-color="#482F28"/>
<stop offset="1" stop-color="#482F28" stop-opacity="0"/>
</linearGradient>
</defs>
</svg>
