<svg width="753" height="327" viewBox="0 0 753 327" fill="none" xmlns="http://www.w3.org/2000/svg">
<path fill-rule="evenodd" clip-rule="evenodd" d="M706.397 0H706.837H753V7.73555C750.557 7.81128 748.248 8.57788 746.556 9.87522C744.864 11.1726 743.919 12.9003 743.919 14.6976C743.919 16.4948 744.864 18.2226 746.556 19.5199C748.248 20.8173 750.557 21.5839 753 21.6596V29.0858C750.49 29.0858 748.083 29.8186 746.308 31.1231C744.533 32.4275 743.536 34.1969 743.536 36.0417C743.536 37.8876 744.533 39.6581 746.307 40.9646C748.081 42.271 750.489 43.0065 753 43.0098V50.436C750.557 50.5117 748.248 51.2783 746.556 52.5756C744.864 53.873 743.919 55.6007 743.919 57.398C743.919 59.1953 744.864 60.923 746.556 62.2204C748.248 63.5177 750.557 64.2843 753 64.36V71.7862C750.557 71.8619 748.248 72.6285 746.556 73.9259C744.864 75.2232 743.919 76.951 743.919 78.7482C743.919 80.5455 744.864 82.2732 746.556 83.5706C748.248 84.8679 750.557 85.6345 753 85.7102V93.1364C750.557 93.2121 748.248 93.9787 746.556 95.2761C744.864 96.5734 743.919 98.3012 743.919 100.098C743.919 101.896 744.864 103.623 746.556 104.921C748.037 106.056 749.99 106.785 752.091 107H753V107.06V114.487V114.736C750.557 114.811 748.248 115.578 746.556 116.875C744.903 118.143 743.963 119.821 743.92 121.573C743.963 123.326 744.903 125.004 746.556 126.271C748.248 127.568 750.557 128.335 753 128.411V128.66V135.837V136.086C750.773 136.086 748.628 136.662 746.933 137.703C746.804 137.792 746.678 137.883 746.556 137.977C744.864 139.274 743.919 141.002 743.919 142.799C743.919 144.596 744.864 146.324 746.556 147.621C748.248 148.919 750.557 149.685 753 149.761V150.01V157.187V157.436C750.557 157.512 748.248 158.278 746.556 159.576C744.903 160.843 743.963 162.521 743.92 164.274C743.963 166.026 744.903 167.704 746.556 168.971C748.248 170.269 750.557 171.035 753 171.111V171.36V178.537V178.786C750.557 178.862 748.248 179.629 746.556 180.926C744.903 182.193 743.963 183.871 743.92 185.624C743.963 187.376 744.903 189.054 746.556 190.322C748.248 191.619 750.557 192.386 753 192.461V192.71V199.887V200.136C750.557 200.212 748.248 200.979 746.556 202.276C744.903 203.543 743.963 205.222 743.92 206.974C743.963 208.726 744.903 210.404 746.556 211.672C748.248 212.969 750.557 213.736 753 213.812V214.06V220V221.487C750.557 221.562 748.248 222.329 746.556 223.626C744.864 224.924 743.919 226.651 743.919 228.449C743.919 230.246 744.864 231.974 746.556 233.271C748.248 234.568 750.557 235.335 753 235.411V242.837C750.557 242.913 748.248 243.679 746.556 244.977C744.864 246.274 743.919 248.002 743.919 249.799C743.919 251.596 744.864 253.324 746.556 254.621C748.248 255.919 750.557 256.685 753 256.761V264.187C750.557 264.263 748.248 265.029 746.556 266.327C744.864 267.624 743.919 269.352 743.919 271.149C743.919 272.946 744.864 274.674 746.556 275.971C748.248 277.269 750.557 278.035 753 278.111V285.537C750.557 285.613 748.248 286.38 746.556 287.677C744.864 288.974 743.919 290.702 743.919 292.499C743.919 294.297 744.864 296.024 746.556 297.322C748.248 298.619 750.557 299.386 753 299.461V306.887C750.557 306.963 748.248 307.73 746.556 309.027C744.864 310.324 743.919 312.052 743.919 313.85C743.919 315.647 744.864 317.375 746.556 318.672C748.248 319.969 750.557 320.736 753 320.812V327H706.837L706.397 327H0V320.798C1.26654 320.838 2.53079 320.687 3.71671 320.354C4.90263 320.021 5.9857 319.514 6.90077 318.862C7.81583 318.21 8.54398 317.428 9.04141 316.561C9.53883 315.695 9.79526 314.763 9.79526 313.821C9.79526 312.879 9.53883 311.947 9.04141 311.081C8.54398 310.215 7.81583 309.432 6.90077 308.78C5.9857 308.129 4.90263 307.621 3.71671 307.288C2.53079 306.955 1.26654 306.804 0 306.844V299.402C1.26654 299.441 2.53079 299.29 3.71671 298.958C4.90263 298.625 5.9857 298.117 6.90077 297.466C7.81583 296.814 8.54398 296.031 9.04141 295.165C9.53883 294.299 9.79526 293.366 9.79526 292.425C9.79526 291.483 9.53883 290.551 9.04141 289.684C8.54398 288.818 7.81583 288.036 6.90077 287.384C5.9857 286.732 4.90263 286.224 3.71671 285.892C2.53079 285.559 1.26654 285.408 0 285.448V278.005C1.26654 278.045 2.53079 277.894 3.71671 277.561C4.90263 277.228 5.9857 276.721 6.90077 276.069C7.81583 275.417 8.54398 274.635 9.04141 273.768C9.53883 272.902 9.79526 271.97 9.79526 271.028C9.79526 270.086 9.53883 269.154 9.04141 268.288C8.54398 267.422 7.81583 266.639 6.90077 265.987C5.9857 265.335 4.90263 264.828 3.71671 264.495C2.53079 264.162 1.26654 264.011 0 264.051V256.609C1.26654 256.648 2.53079 256.497 3.71671 256.165C4.90263 255.832 5.9857 255.324 6.90077 254.673C7.81583 254.021 8.54398 253.238 9.04141 252.372C9.53883 251.506 9.79526 250.573 9.79526 249.632C9.79526 248.69 9.53883 247.758 9.04141 246.891C8.54398 246.025 7.81583 245.243 6.90077 244.591C5.9857 243.939 4.90263 243.431 3.71671 243.099C2.53079 242.766 1.26654 242.615 0 242.654V235.212C1.26654 235.252 2.53079 235.101 3.71671 234.768C4.90263 234.435 5.9857 233.928 6.90077 233.276C7.81583 232.624 8.54398 231.842 9.04141 230.975C9.53883 230.109 9.79526 229.177 9.79526 228.235C9.79526 227.293 9.53883 226.361 9.04141 225.495C8.54398 224.629 7.81583 223.846 6.90077 223.194C5.9857 222.542 4.90263 222.035 3.71671 221.702C2.53079 221.369 1.26654 221.218 0 221.258V220.477V214.275V213.816C1.26654 213.855 2.53079 213.704 3.71671 213.372C4.90263 213.039 5.9857 212.531 6.90077 211.879C7.81583 211.228 8.54398 210.445 9.04141 209.579C9.49832 208.783 9.75189 207.932 9.79016 207.068C9.75189 206.205 9.49832 205.354 9.04141 204.558C8.54398 203.692 7.81583 202.909 6.90077 202.257C5.9857 201.606 4.90263 201.098 3.71671 200.765C2.53079 200.433 1.26654 200.281 0 200.321V199.861V192.879V192.419C1.26654 192.459 2.53079 192.308 3.71671 191.975C4.90263 191.642 5.9857 191.135 6.90077 190.483C7.81583 189.831 8.54398 189.049 9.04141 188.182C9.49832 187.387 9.75189 186.535 9.79016 185.672C9.75189 184.809 9.49832 183.957 9.04141 183.162C8.54398 182.295 7.81583 181.513 6.90077 180.861C5.9857 180.209 4.90263 179.702 3.71671 179.369C2.53079 179.036 1.26654 178.885 0 178.925V178.465V171.482V171.023C1.26654 171.062 2.53079 170.911 3.71671 170.578C4.90263 170.246 5.9857 169.738 6.90077 169.086C7.81583 168.435 8.54398 167.652 9.04141 166.786C9.49832 165.99 9.75189 165.139 9.79016 164.275C9.75189 163.412 9.49832 162.561 9.04141 161.765C8.54398 160.899 7.81583 160.116 6.90077 159.464C5.9857 158.813 4.90263 158.305 3.71671 157.972C2.53079 157.639 1.26654 157.488 0 157.528V157.068V150.086V149.626C1.26654 149.666 2.53079 149.515 3.71671 149.182C4.90263 148.849 5.9857 148.342 6.90077 147.69C7.81583 147.038 8.54398 146.255 9.04141 145.389C9.49832 144.593 9.75189 143.742 9.79016 142.879C9.75189 142.015 9.49832 141.164 9.04141 140.368C8.54398 139.502 7.81583 138.72 6.90077 138.068C5.9857 137.416 4.90263 136.908 3.71671 136.576C2.53079 136.243 1.26654 136.092 0 136.132V135.672V128.689V128.23C1.26654 128.269 2.53079 128.118 3.71671 127.785C4.90263 127.453 5.9857 126.945 6.90077 126.293C7.81583 125.642 8.54398 124.859 9.04141 123.993C9.49832 123.197 9.75189 122.346 9.79016 121.482C9.75189 120.619 9.49832 119.768 9.04141 118.972C8.54398 118.106 7.81583 117.323 6.90077 116.671C5.9857 116.019 4.90263 115.512 3.71671 115.179C2.53079 114.846 1.26654 114.695 0 114.735V114.275V107.293V106.523H4.70232C5.50524 106.215 6.24601 105.823 6.90077 105.357C7.81583 104.705 8.54398 103.922 9.04141 103.056C9.53883 102.19 9.79526 101.257 9.79526 100.316C9.79526 99.3737 9.53883 98.4417 9.04141 97.5754C8.54398 96.7091 7.81583 95.9265 6.90077 95.2747C5.9857 94.6229 4.90263 94.1154 3.71671 93.7826C2.53079 93.4499 1.26654 93.2988 0 93.3385V85.8962C1.26654 85.9359 2.53079 85.7848 3.71671 85.4521C4.90263 85.1193 5.9857 84.6118 6.90077 83.96C7.81583 83.3082 8.54398 82.5256 9.04141 81.6593C9.53883 80.793 9.79526 79.8609 9.79526 78.9191C9.79526 77.9772 9.53883 77.0452 9.04141 76.1789C8.54398 75.3126 7.81583 74.53 6.90077 73.8782C5.9857 73.2264 4.90263 72.7188 3.71671 72.3861C2.53079 72.0534 1.26654 71.9022 0 71.9419V64.4997C1.26654 64.5393 2.53079 64.3883 3.71671 64.0556C4.90263 63.7228 5.9857 63.2153 6.90077 62.5635C7.81583 61.9117 8.54398 61.1291 9.04141 60.2628C9.53883 59.3965 9.79526 58.4644 9.79526 57.5225C9.79526 56.5807 9.53883 55.6486 9.04141 54.7823C8.54398 53.916 7.81583 53.1335 6.90077 52.4817C5.9857 51.8299 4.90263 51.3223 3.71671 50.9896C2.53079 50.6568 1.26654 50.5057 0 50.5454V43.1031C1.26654 43.1428 2.53079 42.9918 3.71671 42.659C4.90263 42.3263 5.9857 41.8187 6.90077 41.1669C7.81583 40.5151 8.54398 39.7326 9.04141 38.8663C9.53883 38 9.79526 37.0678 9.79526 36.126C9.79526 35.1842 9.53883 34.2521 9.04141 33.3858C8.54398 32.5195 7.81583 31.7369 6.90077 31.0851C5.9857 30.4333 4.90263 29.9258 3.71671 29.593C2.53079 29.2603 1.26654 29.1092 0 29.1489V21.7066C1.26654 21.7463 2.53079 21.5952 3.71671 21.2625C4.90263 20.9298 5.9857 20.4222 6.90077 19.7704C7.81583 19.1186 8.54398 18.336 9.04141 17.4697C9.53883 16.6034 9.79526 15.6713 9.79526 14.7295C9.79526 13.7876 9.53883 12.8556 9.04141 11.9893C8.54398 11.123 7.81583 10.3404 6.90077 9.6886C5.9857 9.03681 4.90263 8.52924 3.71671 8.1965C2.53079 7.86376 1.26654 7.71264 0 7.75233V0H30.4404H40.4838H706.397Z" fill="#FFEFEB"/>
</svg>
